<?xml version="1.0" encoding="UTF-8" standalone="no"?><!DOCTYPE svg PUBLIC "-//W3C//DTD SVG 1.1//EN" "http://www.w3.org/Graphics/SVG/1.1/DTD/svg11.dtd"><svg width="100%" height="100%" viewBox="0 0 5448 7419" version="1.1" xmlns="http://www.w3.org/2000/svg" xmlns:xlink="http://www.w3.org/1999/xlink" xml:space="preserve" xmlns:serif="http://www.serif.com/" style="fill-rule:evenodd;clip-rule:evenodd;stroke-miterlimit:10;"><rect id="ArtBoard1" x="0" y="0" width="5447.37" height="7418.64" style="fill:none;"/><g id="Kette"><path d="M383.34,4184.6c-0,-17.868 -14.507,-32.375 -32.375,-32.375l-43.584,-0c-17.868,-0 -32.375,14.507 -32.375,32.375l0,109.125c0,17.868 14.507,32.375 32.375,32.375l43.584,-0c17.868,-0 32.375,-14.507 32.375,-32.375l-0,-109.125Z" style="fill:none;stroke:#666;stroke-width:33.33px;"/><path d="M329.173,4031.02c6.371,14.907 10.769,30.581 13.083,46.625c2.396,15.44 3.594,31.042 3.584,46.667c0.064,15.611 -1.121,31.203 -3.542,46.625c-2.289,16.055 -6.703,31.734 -13.125,46.625c-6.319,-14.909 -10.648,-30.586 -12.875,-46.625c-2.421,-15.422 -3.606,-31.014 -3.542,-46.625c-0.01,-15.625 1.188,-31.227 3.584,-46.667c2.252,-16.029 6.565,-31.7 12.833,-46.625Z" style="fill:#666;fill-rule:nonzero;"/><path d="M383.34,3944.89c-0,-17.868 -14.507,-32.375 -32.375,-32.375l-43.584,0c-17.868,0 -32.375,14.507 -32.375,32.375l0,109.125c0,17.869 14.507,32.375 32.375,32.375l43.584,0c17.868,0 32.375,-14.506 32.375,-32.375l-0,-109.125Z" style="fill:none;stroke:#666;stroke-width:33.33px;"/><path d="M329.173,3794.06c6.366,14.922 10.764,30.61 13.083,46.667c2.394,15.426 3.592,31.014 3.584,46.625c0.064,15.611 -1.121,31.202 -3.542,46.625c-2.295,16.067 -6.708,31.759 -13.125,46.666c-6.324,-14.965 -10.653,-30.697 -12.875,-46.791c-2.421,-15.423 -3.606,-31.014 -3.542,-46.625c-0.008,-15.611 1.19,-31.199 3.584,-46.625c2.268,-15.999 6.581,-31.641 12.833,-46.542Z" style="fill:#666;fill-rule:nonzero;"/><path d="M329.173,4254.69c6.366,14.922 10.764,30.61 13.083,46.667c2.394,15.426 3.592,31.014 3.584,46.625c0.064,15.611 -1.121,31.202 -3.542,46.625c-2.295,16.067 -6.708,31.759 -13.125,46.666c-6.385,-14.915 -10.784,-30.605 -13.083,-46.666c-2.422,-15.423 -3.606,-31.014 -3.542,-46.625c-0.009,-15.611 1.189,-31.199 3.583,-46.625c2.325,-16.051 6.708,-31.736 13.042,-46.667Z" style="fill:#666;fill-rule:nonzero;"/><path d="M383.34,3705.19c-0,-17.868 -14.507,-32.375 -32.375,-32.375l-43.584,0c-17.868,0 -32.375,14.507 -32.375,32.375l0,109.125c0,17.868 14.507,32.375 32.375,32.375l43.584,0c17.868,0 32.375,-14.507 32.375,-32.375l-0,-109.125Z" style="fill:none;stroke:#666;stroke-width:33.33px;"/><path d="M329.173,3553.06c6.366,14.922 10.764,30.61 13.083,46.667c2.394,15.426 3.592,31.014 3.584,46.625c0.064,15.611 -1.121,31.202 -3.542,46.625c-2.295,16.067 -6.708,31.759 -13.125,46.666c-6.314,-14.925 -10.642,-30.615 -12.875,-46.666c-2.491,-15.417 -3.745,-31.008 -3.75,-46.625c0.047,-15.615 1.3,-31.203 3.75,-46.625c2.271,-16.044 6.598,-31.729 12.875,-46.667Z" style="fill:#666;fill-rule:nonzero;"/><path d="M5130.34,4183.85c-0,-17.868 -14.507,-32.375 -32.375,-32.375l-43.584,-0c-17.868,-0 -32.375,14.507 -32.375,32.375l0,109.125c0,17.868 14.507,32.375 32.375,32.375l43.584,-0c17.868,-0 32.375,-14.507 32.375,-32.375l-0,-109.125Z" style="fill:none;stroke:#666;stroke-width:33.33px;"/><path d="M5076.17,4030.27c6.363,14.921 10.748,30.609 13.042,46.667c4.805,30.897 4.805,62.353 -0,93.25c-2.294,16.049 -6.694,31.726 -13.084,46.625c-6.384,-14.905 -10.796,-30.579 -13.125,-46.625c-2.4,-15.425 -3.585,-31.014 -3.541,-46.625c-0.009,-15.611 1.189,-31.199 3.583,-46.625c2.341,-16.057 6.753,-31.743 13.125,-46.667Z" style="fill:#666;fill-rule:nonzero;"/><path d="M5130.34,3944.14c-0,-17.868 -14.507,-32.375 -32.375,-32.375l-43.584,0c-17.868,0 -32.375,14.507 -32.375,32.375l0,109.125c0,17.869 14.507,32.375 32.375,32.375l43.584,0c17.868,0 32.375,-14.506 32.375,-32.375l-0,-109.125Z" style="fill:none;stroke:#666;stroke-width:33.33px;"/><path d="M5076.17,3793.35c6.358,14.907 10.742,30.582 13.042,46.625c4.805,30.911 4.805,62.38 -0,93.291c-2.294,16.049 -6.694,31.726 -13.084,46.625c-6.384,-14.904 -10.796,-30.578 -13.125,-46.625c-2.399,-15.439 -3.583,-31.042 -3.541,-46.666c-0.009,-15.611 1.189,-31.199 3.583,-46.625c2.347,-16.043 6.759,-31.714 13.125,-46.625Z" style="fill:#666;fill-rule:nonzero;"/><path d="M5076.17,4253.85c6.362,14.921 10.746,30.609 13.042,46.666c4.805,30.912 4.805,62.381 -0,93.292c-2.294,16.049 -6.694,31.726 -13.084,46.625c-6.384,-14.905 -10.796,-30.579 -13.125,-46.625c-2.399,-15.439 -3.583,-31.042 -3.541,-46.667c-0.009,-15.61 1.189,-31.198 3.583,-46.625c2.344,-16.056 6.755,-31.742 13.125,-46.666Z" style="fill:#666;fill-rule:nonzero;"/><path d="M5130.34,3704.48c-0,-17.868 -14.507,-32.375 -32.375,-32.375l-43.584,-0c-17.868,-0 -32.375,14.507 -32.375,32.375l0,109.125c0,17.868 14.507,32.375 32.375,32.375l43.584,-0c17.868,-0 32.375,-14.507 32.375,-32.375l-0,-109.125Z" style="fill:none;stroke:#666;stroke-width:33.33px;"/><path d="M5076.17,3552.35c6.358,14.907 10.742,30.582 13.042,46.625c4.805,30.911 4.805,62.38 -0,93.291c-2.294,16.049 -6.694,31.726 -13.084,46.625c-6.376,-14.933 -10.775,-30.635 -13.083,-46.708c-2.399,-15.439 -3.584,-31.042 -3.542,-46.667c-0.008,-15.61 1.19,-31.198 3.584,-46.625c2.34,-16.012 6.738,-31.655 13.083,-46.541Z" style="fill:#666;fill-rule:nonzero;"/></g><g id="Ebene_1"><rect x="51.798" y="4410.65" width="5353.04" height="2975.13" style="fill:#754d24;"/><path d="M5386.09,4429.4l-0,2937.79l-5315.63,0l-0,-2937.5l5315.63,0m37.5,-37.5l-5390.63,0l-0,3012.5l5390.63,0l-0,-3012.5Z" style="fill:#603813;fill-rule:nonzero;"/><rect x="212.506" y="4522.69" width="5031.63" height="2747.38"/></g><path d="M352.321,4336.67l-42.998,0c-26.521,-0.028 -48.336,-21.843 -48.364,-48.364l-0,-107.624c0.028,-26.52 21.844,-48.333 48.364,-48.357l42.991,-0c26.52,0.024 48.336,21.837 48.364,48.357l-0,107.624c-0.028,26.518 -21.839,48.332 -48.357,48.364Zm-42.998,-171.473c-8.492,0.008 -15.477,6.993 -15.485,15.485l0,107.624c0.02,8.491 6.994,15.475 15.485,15.507l42.991,0c8.49,-0.032 15.464,-7.016 15.484,-15.507l0,-107.624c-0.032,-8.486 -7.006,-15.457 -15.492,-15.485l-42.983,-0Z" style="fill:#666;fill-rule:nonzero;"/><path d="M330.826,4029.24c6.869,15.337 10.303,30.666 12.879,45.996c2.375,15.216 3.563,30.595 3.553,45.995c0.043,15.401 -1.13,30.781 -3.508,45.996c-2.562,15.33 -6.018,30.659 -12.924,45.996c-6.906,-15.337 -10.363,-30.666 -12.924,-45.996c-2.378,-15.215 -3.552,-30.595 -3.509,-45.996c-0.009,-15.4 1.179,-30.779 3.553,-45.995c2.576,-15.33 6.011,-30.659 12.88,-45.996Z" style="fill:#666;fill-rule:nonzero;"/><path d="M352.321,4100.26l-42.998,0c-26.521,-0.028 -48.336,-21.843 -48.364,-48.364l-0,-107.602c0.048,-26.507 21.857,-48.299 48.364,-48.328l42.991,0c26.521,0.029 48.336,21.844 48.364,48.365l-0,107.624c-0.061,26.496 -21.861,48.273 -48.357,48.305Zm-42.998,-171.458c-8.485,0.032 -15.457,7.007 -15.485,15.492l0,107.624c0.008,8.492 6.993,15.477 15.485,15.485l42.991,0c8.482,-0.032 15.452,-7.002 15.484,-15.485l0,-107.624c-0.028,-8.488 -7.004,-15.464 -15.492,-15.492l-42.983,-0Z" style="fill:#666;fill-rule:nonzero;"/><path d="M330.826,3795.57c6.869,15.329 10.303,30.659 12.879,45.988c2.374,15.217 3.562,30.595 3.553,45.996c0.043,15.4 -1.13,30.78 -3.508,45.996c-2.562,15.329 -6.018,30.666 -12.924,45.995c-6.906,-15.329 -10.363,-30.666 -12.924,-45.995c-2.378,-15.216 -3.552,-30.596 -3.509,-45.996c-0.009,-15.401 1.179,-30.779 3.553,-45.996c2.576,-15.329 6.011,-30.659 12.88,-45.988Z" style="fill:#666;fill-rule:nonzero;"/><path d="M330.826,4249.73c6.869,15.329 10.303,30.666 12.879,45.996c2.375,15.216 3.563,30.595 3.553,45.995c0.043,15.401 -1.13,30.78 -3.508,45.996c-2.562,15.33 -6.018,30.659 -12.924,45.988c-6.906,-15.329 -10.363,-30.658 -12.924,-45.988c-2.378,-15.216 -3.551,-30.595 -3.509,-45.996c-0.009,-15.4 1.179,-30.779 3.553,-45.995c2.576,-15.33 6.011,-30.667 12.88,-45.996Z" style="fill:#666;fill-rule:nonzero;"/><path d="M352.321,3863.89l-42.998,-0c-26.521,-0.029 -48.336,-21.843 -48.364,-48.365l-0,-107.631c0.032,-26.519 21.846,-48.329 48.364,-48.357l42.991,-0c26.518,0.028 48.332,21.838 48.364,48.357l-0,107.631c-0.028,26.519 -21.839,48.332 -48.357,48.365Zm-42.998,-171.481c-8.492,0.008 -15.477,6.993 -15.485,15.485l0,107.631c0.008,8.492 6.993,15.477 15.485,15.485l42.991,0c8.482,-0.032 15.452,-7.002 15.484,-15.485l0,-107.631c-0.032,-8.48 -6.997,-15.449 -15.477,-15.485l-42.998,-0Z" style="fill:#666;fill-rule:nonzero;"/><path d="M307.231,2957.43l42.998,0c26.521,0.028 48.336,21.843 48.365,48.364l-0,107.625c-0.029,26.52 -21.845,48.332 -48.365,48.357l-42.99,-0c-26.52,-0.025 -48.336,-21.837 -48.365,-48.357l0,-107.625c0.029,-26.518 21.839,-48.332 48.357,-48.364Zm42.998,171.474c8.492,-0.008 15.477,-6.994 15.485,-15.485l0,-107.625c-0.02,-8.491 -6.994,-15.474 -15.485,-15.507l-42.99,0c-8.491,0.033 -15.465,7.016 -15.485,15.507l-0,107.625c0.032,8.485 7.007,15.456 15.492,15.485l42.983,-0Z" style="fill:#666;fill-rule:nonzero;"/><path d="M328.727,3264.85c-6.869,-15.337 -10.304,-30.666 -12.88,-45.995c-2.374,-15.217 -3.562,-30.595 -3.553,-45.996c-0.043,-15.401 1.13,-30.78 3.509,-45.996c2.561,-15.329 6.017,-30.659 12.924,-45.996c6.906,15.337 10.362,30.667 12.923,45.996c2.379,15.216 3.552,30.595 3.509,45.996c0.009,15.401 -1.179,30.779 -3.553,45.996c-2.576,15.329 -6.01,30.658 -12.879,45.995Z" style="fill:#666;fill-rule:nonzero;"/><path d="M307.231,3193.84l42.998,-0c26.521,0.028 48.336,21.843 48.365,48.364l-0,107.603c-0.049,26.507 -21.858,48.299 -48.365,48.327l-42.99,-0c-26.522,-0.029 -48.336,-21.843 -48.365,-48.365l0,-107.624c0.061,-26.496 21.861,-48.273 48.357,-48.305Zm42.998,171.459c8.485,-0.032 15.457,-7.007 15.485,-15.492l0,-107.625c-0.008,-8.492 -6.993,-15.477 -15.485,-15.485l-42.99,0c-8.483,0.032 -15.453,7.003 -15.485,15.485l-0,107.625c0.028,8.488 7.004,15.464 15.492,15.492l42.983,-0Z" style="fill:#666;fill-rule:nonzero;"/><path d="M328.727,3498.53c-6.869,-15.33 -10.304,-30.659 -12.88,-45.989c-2.374,-15.216 -3.562,-30.595 -3.553,-45.996c-0.043,-15.4 1.13,-30.78 3.509,-45.995c2.561,-15.33 6.017,-30.667 12.924,-45.996c6.906,15.329 10.362,30.666 12.923,45.996c2.379,15.215 3.552,30.595 3.509,45.995c0.009,15.401 -1.179,30.78 -3.553,45.996c-2.576,15.33 -6.01,30.659 -12.879,45.989Z" style="fill:#666;fill-rule:nonzero;"/><path d="M328.727,3044.37c-6.869,-15.329 -10.304,-30.666 -12.88,-45.995c-2.375,-15.217 -3.563,-30.595 -3.553,-45.996c-0.042,-15.4 1.131,-30.78 3.509,-45.996c2.561,-15.329 6.017,-30.659 12.924,-45.988c6.906,15.329 10.362,30.659 12.923,45.988c2.378,15.216 3.551,30.596 3.509,45.996c0.01,15.401 -1.178,30.779 -3.553,45.996c-2.576,15.329 -6.01,30.666 -12.879,45.995Z" style="fill:#666;fill-rule:nonzero;"/><path d="M307.231,3430.21l42.998,-0c26.521,0.028 48.336,21.843 48.365,48.364l-0,107.632c-0.033,26.518 -21.846,48.328 -48.365,48.357l-42.99,-0c-26.519,-0.029 -48.332,-21.839 -48.365,-48.357l0,-107.632c0.029,-26.519 21.839,-48.332 48.357,-48.364Zm42.998,171.481c8.492,-0.009 15.477,-6.994 15.485,-15.485l0,-107.632c-0.008,-8.492 -6.993,-15.477 -15.485,-15.485l-42.99,-0c-8.483,0.032 -15.453,7.002 -15.485,15.485l-0,107.632c0.032,8.479 6.998,15.448 15.477,15.485l42.998,-0Z" style="fill:#666;fill-rule:nonzero;"/><path d="M5053.07,2957.43l42.998,0c26.521,0.028 48.336,21.843 48.364,48.364l-0,107.625c-0.028,26.52 -21.845,48.332 -48.364,48.357l-42.991,-0c-26.52,-0.025 -48.336,-21.837 -48.364,-48.357l-0,-107.625c0.028,-26.518 21.838,-48.332 48.357,-48.364Zm42.998,171.474c8.491,-0.008 15.476,-6.994 15.484,-15.485l0,-107.625c-0.02,-8.491 -6.994,-15.474 -15.484,-15.507l-42.991,0c-8.491,0.033 -15.465,7.016 -15.485,15.507l0,107.625c0.032,8.485 7.007,15.456 15.492,15.485l42.984,-0Z" style="fill:#666;fill-rule:nonzero;"/><path d="M5074.56,3264.85c-6.869,-15.337 -10.304,-30.666 -12.88,-45.995c-2.374,-15.217 -3.562,-30.595 -3.552,-45.996c-0.043,-15.401 1.13,-30.78 3.508,-45.996c2.561,-15.329 6.018,-30.659 12.924,-45.996c6.906,15.337 10.363,30.667 12.924,45.996c2.378,15.216 3.551,30.595 3.508,45.996c0.01,15.401 -1.178,30.779 -3.553,45.996c-2.576,15.329 -6.01,30.658 -12.879,45.995Z" style="fill:#666;fill-rule:nonzero;"/><path d="M5053.07,3193.84l42.998,-0c26.521,0.028 48.336,21.843 48.364,48.364l-0,107.603c-0.049,26.507 -21.857,48.299 -48.364,48.327l-42.991,-0c-26.521,-0.029 -48.336,-21.843 -48.364,-48.365l-0,-107.624c0.06,-26.496 21.861,-48.273 48.357,-48.305Zm42.998,171.459c8.485,-0.032 15.456,-7.007 15.484,-15.492l0,-107.625c-0.008,-8.492 -6.993,-15.477 -15.484,-15.485l-42.991,0c-8.483,0.032 -15.453,7.003 -15.485,15.485l0,107.625c0.028,8.488 7.004,15.464 15.492,15.492l42.984,-0Z" style="fill:#666;fill-rule:nonzero;"/><path d="M5074.56,3498.53c-6.869,-15.33 -10.304,-30.659 -12.88,-45.989c-2.374,-15.216 -3.562,-30.595 -3.552,-45.996c-0.043,-15.4 1.13,-30.78 3.508,-45.995c2.561,-15.33 6.018,-30.667 12.924,-45.996c6.906,15.329 10.363,30.666 12.924,45.996c2.378,15.215 3.551,30.595 3.508,45.995c0.009,15.401 -1.179,30.78 -3.553,45.996c-2.576,15.33 -6.01,30.659 -12.879,45.989Z" style="fill:#666;fill-rule:nonzero;"/><path d="M5074.56,3044.37c-6.869,-15.329 -10.304,-30.666 -12.88,-45.995c-2.374,-15.217 -3.562,-30.595 -3.552,-45.996c-0.043,-15.4 1.13,-30.78 3.508,-45.996c2.561,-15.329 6.018,-30.659 12.924,-45.988c6.906,15.329 10.363,30.659 12.924,45.988c2.378,15.216 3.551,30.596 3.508,45.996c0.01,15.401 -1.178,30.779 -3.553,45.996c-2.576,15.329 -6.01,30.666 -12.879,45.995Z" style="fill:#666;fill-rule:nonzero;"/><path d="M5053.07,3430.21l42.998,-0c26.521,0.028 48.336,21.843 48.364,48.364l-0,107.632c-0.033,26.518 -21.846,48.328 -48.364,48.357l-42.991,-0c-26.518,-0.029 -48.332,-21.839 -48.364,-48.357l-0,-107.632c0.028,-26.519 21.838,-48.332 48.357,-48.364Zm42.998,171.481c8.491,-0.009 15.476,-6.994 15.484,-15.485l0,-107.632c-0.008,-8.492 -6.993,-15.477 -15.484,-15.485l-42.991,-0c-8.483,0.032 -15.453,7.002 -15.485,15.485l0,107.632c0.032,8.479 6.998,15.448 15.478,15.485l42.998,-0Z" style="fill:#666;fill-rule:nonzero;"/><path d="M307.231,2257.43l42.998,0c26.521,0.028 48.336,21.843 48.365,48.364l-0,107.625c-0.029,26.52 -21.845,48.332 -48.365,48.357l-42.99,-0c-26.52,-0.025 -48.336,-21.837 -48.365,-48.357l0,-107.625c0.029,-26.518 21.839,-48.332 48.357,-48.364Zm42.998,171.474c8.492,-0.008 15.477,-6.994 15.485,-15.485l0,-107.625c-0.02,-8.491 -6.994,-15.474 -15.485,-15.507l-42.99,0c-8.491,0.033 -15.465,7.016 -15.485,15.507l-0,107.625c0.032,8.485 7.007,15.456 15.492,15.485l42.983,-0Z" style="fill:#666;fill-rule:nonzero;"/><path d="M328.727,2564.85c-6.869,-15.337 -10.304,-30.666 -12.88,-45.995c-2.374,-15.217 -3.562,-30.595 -3.553,-45.996c-0.043,-15.401 1.13,-30.78 3.509,-45.996c2.561,-15.329 6.017,-30.659 12.924,-45.996c6.906,15.337 10.362,30.667 12.923,45.996c2.379,15.216 3.552,30.595 3.509,45.996c0.009,15.401 -1.179,30.779 -3.553,45.996c-2.576,15.329 -6.01,30.658 -12.879,45.995Z" style="fill:#666;fill-rule:nonzero;"/><path d="M307.231,2493.84l42.998,-0c26.521,0.028 48.336,21.843 48.365,48.364l-0,107.603c-0.049,26.507 -21.858,48.299 -48.365,48.327l-42.99,-0c-26.522,-0.029 -48.336,-21.843 -48.365,-48.365l0,-107.624c0.061,-26.496 21.861,-48.273 48.357,-48.305Zm42.998,171.459c8.485,-0.032 15.457,-7.007 15.485,-15.492l0,-107.625c-0.008,-8.492 -6.993,-15.477 -15.485,-15.485l-42.99,0c-8.483,0.032 -15.453,7.003 -15.485,15.485l-0,107.625c0.028,8.488 7.004,15.464 15.492,15.492l42.983,-0Z" style="fill:#666;fill-rule:nonzero;"/><path d="M328.727,2798.53c-6.869,-15.33 -10.304,-30.659 -12.88,-45.989c-2.374,-15.216 -3.562,-30.595 -3.553,-45.996c-0.043,-15.4 1.13,-30.78 3.509,-45.995c2.561,-15.33 6.017,-30.667 12.924,-45.996c6.906,15.329 10.362,30.666 12.923,45.996c2.379,15.215 3.552,30.595 3.509,45.995c0.009,15.401 -1.179,30.78 -3.553,45.996c-2.576,15.33 -6.01,30.659 -12.879,45.989Z" style="fill:#666;fill-rule:nonzero;"/><path d="M328.727,2344.37c-6.869,-15.329 -10.304,-30.666 -12.88,-45.995c-2.375,-15.217 -3.563,-30.595 -3.553,-45.996c-0.042,-15.4 1.131,-30.78 3.509,-45.996c2.561,-15.329 6.017,-30.659 12.924,-45.988c6.906,15.329 10.362,30.659 12.923,45.988c2.378,15.216 3.551,30.596 3.509,45.996c0.01,15.401 -1.178,30.779 -3.553,45.996c-2.576,15.329 -6.01,30.666 -12.879,45.995Z" style="fill:#666;fill-rule:nonzero;"/><path d="M307.231,2730.21l42.998,-0c26.521,0.028 48.336,21.843 48.365,48.364l-0,107.632c-0.033,26.518 -21.846,48.328 -48.365,48.357l-42.99,-0c-26.519,-0.029 -48.332,-21.839 -48.365,-48.357l0,-107.632c0.029,-26.519 21.839,-48.332 48.357,-48.364Zm42.998,171.481c8.492,-0.009 15.477,-6.994 15.485,-15.485l0,-107.632c-0.008,-8.492 -6.993,-15.477 -15.485,-15.485l-42.99,-0c-8.483,0.032 -15.453,7.002 -15.485,15.485l-0,107.632c0.032,8.479 6.998,15.448 15.477,15.485l42.998,-0Z" style="fill:#666;fill-rule:nonzero;"/><path d="M307.231,1561.6l42.998,-0c26.521,0.028 48.336,21.843 48.365,48.364l-0,107.624c-0.029,26.52 -21.845,48.333 -48.365,48.357l-42.99,0c-26.52,-0.024 -48.336,-21.837 -48.365,-48.357l0,-107.624c0.029,-26.518 21.839,-48.332 48.357,-48.364Zm42.998,171.473c8.492,-0.008 15.477,-6.993 15.485,-15.485l0,-107.624c-0.02,-8.491 -6.994,-15.475 -15.485,-15.507l-42.99,-0c-8.491,0.032 -15.465,7.016 -15.485,15.507l-0,107.624c0.032,8.486 7.007,15.457 15.492,15.485l42.983,0Z" style="fill:#666;fill-rule:nonzero;"/><path d="M328.727,1869.02c-6.869,-15.337 -10.304,-30.666 -12.88,-45.996c-2.374,-15.216 -3.562,-30.595 -3.553,-45.995c-0.043,-15.401 1.13,-30.781 3.509,-45.996c2.561,-15.33 6.017,-30.659 12.924,-45.996c6.906,15.337 10.362,30.666 12.923,45.996c2.379,15.215 3.552,30.595 3.509,45.996c0.009,15.4 -1.179,30.779 -3.553,45.995c-2.576,15.33 -6.01,30.659 -12.879,45.996Z" style="fill:#666;fill-rule:nonzero;"/><path d="M307.231,1798.01l42.998,-0c26.521,0.028 48.336,21.843 48.365,48.364l-0,107.602c-0.049,26.507 -21.858,48.299 -48.365,48.328l-42.99,-0c-26.522,-0.029 -48.336,-21.844 -48.365,-48.365l0,-107.624c0.061,-26.496 21.861,-48.273 48.357,-48.305Zm42.998,171.458c8.485,-0.032 15.457,-7.007 15.485,-15.492l0,-107.624c-0.008,-8.492 -6.993,-15.477 -15.485,-15.485l-42.99,-0c-8.483,0.032 -15.453,7.002 -15.485,15.485l-0,107.624c0.028,8.488 7.004,15.464 15.492,15.492l42.983,0Z" style="fill:#666;fill-rule:nonzero;"/><path d="M328.727,2102.69c-6.869,-15.329 -10.304,-30.659 -12.88,-45.988c-2.374,-15.217 -3.562,-30.595 -3.553,-45.996c-0.043,-15.4 1.13,-30.78 3.509,-45.996c2.561,-15.329 6.017,-30.666 12.924,-45.995c6.906,15.329 10.362,30.666 12.923,45.995c2.379,15.216 3.552,30.596 3.509,45.996c0.009,15.401 -1.179,30.779 -3.553,45.996c-2.576,15.329 -6.01,30.659 -12.879,45.988Z" style="fill:#666;fill-rule:nonzero;"/><path d="M328.727,1648.54c-6.869,-15.329 -10.304,-30.666 -12.88,-45.996c-2.375,-15.216 -3.563,-30.595 -3.553,-45.995c-0.042,-15.401 1.131,-30.78 3.509,-45.996c2.561,-15.33 6.017,-30.659 12.924,-45.988c6.906,15.329 10.362,30.658 12.923,45.988c2.378,15.216 3.551,30.595 3.509,45.996c0.01,15.4 -1.178,30.779 -3.553,45.995c-2.576,15.33 -6.01,30.667 -12.879,45.996Z" style="fill:#666;fill-rule:nonzero;"/><path d="M307.231,2034.37l42.998,0c26.521,0.029 48.336,21.843 48.365,48.365l-0,107.631c-0.033,26.519 -21.846,48.329 -48.365,48.357l-42.99,0c-26.519,-0.028 -48.332,-21.838 -48.365,-48.357l0,-107.631c0.029,-26.519 21.839,-48.332 48.357,-48.365Zm42.998,171.481c8.492,-0.008 15.477,-6.993 15.485,-15.485l0,-107.631c-0.008,-8.492 -6.993,-15.477 -15.485,-15.485l-42.99,-0c-8.483,0.032 -15.453,7.002 -15.485,15.485l-0,107.631c0.032,8.48 6.998,15.449 15.477,15.485l42.998,0Z" style="fill:#666;fill-rule:nonzero;"/><path d="M5053.07,1561.6l42.998,-0c26.521,0.028 48.336,21.843 48.364,48.364l-0,107.624c-0.028,26.52 -21.845,48.333 -48.364,48.357l-42.991,0c-26.52,-0.024 -48.336,-21.837 -48.364,-48.357l-0,-107.624c0.028,-26.518 21.838,-48.332 48.357,-48.364Zm42.998,171.473c8.491,-0.008 15.476,-6.993 15.484,-15.485l0,-107.624c-0.02,-8.491 -6.994,-15.475 -15.484,-15.507l-42.991,-0c-8.491,0.032 -15.465,7.016 -15.485,15.507l0,107.624c0.032,8.486 7.007,15.457 15.492,15.485l42.984,0Z" style="fill:#666;fill-rule:nonzero;"/><path d="M5074.56,1869.02c-6.869,-15.337 -10.304,-30.666 -12.88,-45.996c-2.374,-15.216 -3.562,-30.595 -3.552,-45.995c-0.043,-15.401 1.13,-30.781 3.508,-45.996c2.561,-15.33 6.018,-30.659 12.924,-45.996c6.906,15.337 10.363,30.666 12.924,45.996c2.378,15.215 3.551,30.595 3.508,45.996c0.01,15.4 -1.178,30.779 -3.553,45.995c-2.576,15.33 -6.01,30.659 -12.879,45.996Z" style="fill:#666;fill-rule:nonzero;"/><path d="M5053.07,1798.01l42.998,-0c26.521,0.028 48.336,21.843 48.364,48.364l-0,107.602c-0.049,26.507 -21.857,48.299 -48.364,48.328l-42.991,-0c-26.521,-0.029 -48.336,-21.844 -48.364,-48.365l-0,-107.624c0.06,-26.496 21.861,-48.273 48.357,-48.305Zm42.998,171.458c8.485,-0.032 15.456,-7.007 15.484,-15.492l0,-107.624c-0.008,-8.492 -6.993,-15.477 -15.484,-15.485l-42.991,-0c-8.483,0.032 -15.453,7.002 -15.485,15.485l0,107.624c0.028,8.488 7.004,15.464 15.492,15.492l42.984,0Z" style="fill:#666;fill-rule:nonzero;"/><path d="M5074.56,2102.69c-6.869,-15.329 -10.304,-30.659 -12.88,-45.988c-2.374,-15.217 -3.562,-30.595 -3.552,-45.996c-0.043,-15.4 1.13,-30.78 3.508,-45.996c2.561,-15.329 6.018,-30.666 12.924,-45.995c6.906,15.329 10.363,30.666 12.924,45.995c2.378,15.216 3.551,30.596 3.508,45.996c0.009,15.401 -1.179,30.779 -3.553,45.996c-2.576,15.329 -6.01,30.659 -12.879,45.988Z" style="fill:#666;fill-rule:nonzero;"/><path d="M5074.56,1648.54c-6.869,-15.329 -10.304,-30.666 -12.88,-45.996c-2.374,-15.216 -3.562,-30.595 -3.552,-45.995c-0.043,-15.401 1.13,-30.78 3.508,-45.996c2.561,-15.33 6.018,-30.659 12.924,-45.988c6.906,15.329 10.363,30.658 12.924,45.988c2.378,15.216 3.551,30.595 3.508,45.996c0.01,15.4 -1.178,30.779 -3.553,45.995c-2.576,15.33 -6.01,30.667 -12.879,45.996Z" style="fill:#666;fill-rule:nonzero;"/><path d="M5053.07,2034.37l42.998,0c26.521,0.029 48.336,21.843 48.364,48.365l-0,107.631c-0.033,26.519 -21.846,48.329 -48.364,48.357l-42.991,0c-26.518,-0.028 -48.332,-21.838 -48.364,-48.357l-0,-107.631c0.028,-26.519 21.838,-48.332 48.357,-48.365Zm42.998,171.481c8.491,-0.008 15.476,-6.993 15.484,-15.485l0,-107.631c-0.008,-8.492 -6.993,-15.477 -15.484,-15.485l-42.991,-0c-8.483,0.032 -15.453,7.002 -15.485,15.485l0,107.631c0.032,8.48 6.998,15.449 15.478,15.485l42.998,0Z" style="fill:#666;fill-rule:nonzero;"/><path d="M307.231,865.762l42.998,0c26.521,0.029 48.336,21.844 48.365,48.365l-0,107.624c-0.029,26.52 -21.845,48.333 -48.365,48.357l-42.99,0c-26.52,-0.024 -48.336,-21.837 -48.365,-48.357l0,-107.624c0.029,-26.519 21.839,-48.332 48.357,-48.365Zm42.998,171.474c8.492,-0.008 15.477,-6.993 15.485,-15.485l0,-107.624c-0.02,-8.491 -6.994,-15.475 -15.485,-15.507l-42.99,-0c-8.491,0.032 -15.465,7.016 -15.485,15.507l-0,107.624c0.032,8.485 7.007,15.457 15.492,15.485l42.983,-0Z" style="fill:#666;fill-rule:nonzero;"/><path d="M328.727,1173.19c-6.869,-15.337 -10.304,-30.667 -12.88,-45.996c-2.374,-15.217 -3.562,-30.595 -3.553,-45.996c-0.043,-15.4 1.13,-30.78 3.509,-45.996c2.561,-15.329 6.017,-30.658 12.924,-45.995c6.906,15.337 10.362,30.666 12.923,45.995c2.379,15.216 3.552,30.596 3.509,45.996c0.009,15.401 -1.179,30.779 -3.553,45.996c-2.576,15.329 -6.01,30.659 -12.879,45.996Z" style="fill:#666;fill-rule:nonzero;"/><path d="M307.231,1102.17l42.998,0c26.521,0.029 48.336,21.843 48.365,48.365l-0,107.602c-0.049,26.507 -21.858,48.299 -48.365,48.327l-42.99,0c-26.522,-0.028 -48.336,-21.843 -48.365,-48.364l0,-107.625c0.061,-26.496 21.861,-48.272 48.357,-48.305Zm42.998,171.459c8.485,-0.032 15.457,-7.007 15.485,-15.492l0,-107.625c-0.008,-8.491 -6.993,-15.476 -15.485,-15.484l-42.99,-0c-8.483,0.032 -15.453,7.002 -15.485,15.484l-0,107.625c0.028,8.488 7.004,15.464 15.492,15.492l42.983,0Z" style="fill:#666;fill-rule:nonzero;"/><path d="M328.727,1406.86c-6.869,-15.33 -10.304,-30.659 -12.88,-45.988c-2.374,-15.217 -3.562,-30.595 -3.553,-45.996c-0.043,-15.401 1.13,-30.78 3.509,-45.996c2.561,-15.329 6.017,-30.666 12.924,-45.996c6.906,15.33 10.362,30.667 12.923,45.996c2.379,15.216 3.552,30.595 3.509,45.996c0.009,15.401 -1.179,30.779 -3.553,45.996c-2.576,15.329 -6.01,30.658 -12.879,45.988Z" style="fill:#666;fill-rule:nonzero;"/><path d="M328.727,952.706c-6.869,-15.33 -10.304,-30.667 -12.88,-45.996c-2.375,-15.217 -3.563,-30.595 -3.553,-45.996c-0.042,-15.4 1.131,-30.78 3.509,-45.995c2.561,-15.33 6.017,-30.659 12.924,-45.989c6.906,15.33 10.362,30.659 12.923,45.989c2.378,15.215 3.551,30.595 3.509,45.995c0.01,15.401 -1.178,30.779 -3.553,45.996c-2.576,15.329 -6.01,30.666 -12.879,45.996Z" style="fill:#666;fill-rule:nonzero;"/><path d="M307.231,1338.54l42.998,-0c26.521,0.028 48.336,21.843 48.365,48.364l-0,107.632c-0.033,26.518 -21.846,48.329 -48.365,48.357l-42.99,-0c-26.519,-0.028 -48.332,-21.839 -48.365,-48.357l0,-107.632c0.029,-26.518 21.839,-48.332 48.357,-48.364Zm42.998,171.481c8.492,-0.008 15.477,-6.993 15.485,-15.485l0,-107.632c-0.008,-8.491 -6.993,-15.477 -15.485,-15.485l-42.99,0c-8.483,0.033 -15.453,7.003 -15.485,15.485l-0,107.632c0.032,8.48 6.998,15.449 15.477,15.485l42.998,-0Z" style="fill:#666;fill-rule:nonzero;"/><path d="M307.231,169.929l42.998,0c26.521,0.028 48.336,21.843 48.365,48.364l-0,107.625c-0.029,26.52 -21.845,48.332 -48.365,48.357l-42.99,-0c-26.52,-0.025 -48.336,-21.837 -48.365,-48.357l0,-107.625c0.029,-26.518 21.839,-48.332 48.357,-48.364Zm42.998,171.474c8.492,-0.008 15.477,-6.994 15.485,-15.485l0,-107.625c-0.02,-8.491 -6.994,-15.474 -15.485,-15.507l-42.99,0c-8.491,0.033 -15.465,7.016 -15.485,15.507l-0,107.625c0.032,8.485 7.007,15.456 15.492,15.485l42.983,-0Z" style="fill:#666;fill-rule:nonzero;"/><path d="M328.727,477.354c-6.869,-15.337 -10.304,-30.666 -12.88,-45.995c-2.374,-15.217 -3.562,-30.595 -3.553,-45.996c-0.043,-15.401 1.13,-30.78 3.509,-45.996c2.561,-15.329 6.017,-30.659 12.924,-45.996c6.906,15.337 10.362,30.667 12.923,45.996c2.379,15.216 3.552,30.595 3.509,45.996c0.009,15.401 -1.179,30.779 -3.553,45.996c-2.576,15.329 -6.01,30.658 -12.879,45.995Z" style="fill:#666;fill-rule:nonzero;"/><path d="M307.231,406.34l42.998,-0c26.521,0.028 48.336,21.843 48.365,48.364l-0,107.603c-0.049,26.507 -21.858,48.299 -48.365,48.327l-42.99,-0c-26.522,-0.029 -48.336,-21.843 -48.365,-48.365l0,-107.624c0.061,-26.496 21.861,-48.273 48.357,-48.305Zm42.998,171.459c8.485,-0.032 15.457,-7.007 15.485,-15.492l0,-107.625c-0.008,-8.492 -6.993,-15.477 -15.485,-15.485l-42.99,0c-8.483,0.032 -15.453,7.003 -15.485,15.485l-0,107.625c0.028,8.488 7.004,15.464 15.492,15.492l42.983,-0Z" style="fill:#666;fill-rule:nonzero;"/><path d="M328.727,711.027c-6.869,-15.33 -10.304,-30.659 -12.88,-45.989c-2.374,-15.216 -3.562,-30.595 -3.553,-45.996c-0.043,-15.4 1.13,-30.78 3.509,-45.995c2.561,-15.33 6.017,-30.667 12.924,-45.996c6.906,15.329 10.362,30.666 12.923,45.996c2.379,15.215 3.552,30.595 3.509,45.995c0.009,15.401 -1.179,30.78 -3.553,45.996c-2.576,15.33 -6.01,30.659 -12.879,45.989Z" style="fill:#666;fill-rule:nonzero;"/><path d="M328.727,256.872c-6.869,-15.329 -10.304,-30.666 -12.88,-45.995c-2.375,-15.217 -3.563,-30.595 -3.553,-45.996c-0.042,-15.4 1.131,-30.78 3.509,-45.996c2.561,-15.329 6.017,-30.659 12.924,-45.988c6.906,15.329 10.362,30.659 12.923,45.988c2.378,15.216 3.551,30.596 3.509,45.996c0.01,15.401 -1.178,30.779 -3.553,45.996c-2.576,15.329 -6.01,30.666 -12.879,45.995Z" style="fill:#666;fill-rule:nonzero;"/><path d="M307.231,642.707l42.998,-0c26.521,0.028 48.336,21.843 48.365,48.364l-0,107.632c-0.033,26.518 -21.846,48.328 -48.365,48.357l-42.99,-0c-26.519,-0.029 -48.332,-21.839 -48.365,-48.357l0,-107.632c0.029,-26.519 21.839,-48.332 48.357,-48.364Zm42.998,171.481c8.492,-0.009 15.477,-6.994 15.485,-15.485l0,-107.632c-0.008,-8.492 -6.993,-15.477 -15.485,-15.485l-42.99,-0c-8.483,0.032 -15.453,7.002 -15.485,15.485l-0,107.632c0.032,8.479 6.998,15.448 15.477,15.485l42.998,-0Z" style="fill:#666;fill-rule:nonzero;"/><path d="M5053.07,169.929l42.998,0c26.521,0.028 48.336,21.843 48.364,48.364l-0,107.625c-0.028,26.52 -21.845,48.332 -48.364,48.357l-42.991,-0c-26.52,-0.025 -48.336,-21.837 -48.364,-48.357l-0,-107.625c0.028,-26.518 21.838,-48.332 48.357,-48.364Zm42.998,171.474c8.491,-0.008 15.476,-6.994 15.484,-15.485l0,-107.625c-0.02,-8.491 -6.994,-15.474 -15.484,-15.507l-42.991,0c-8.491,0.033 -15.465,7.016 -15.485,15.507l0,107.625c0.032,8.485 7.007,15.456 15.492,15.485l42.984,-0Z" style="fill:#666;fill-rule:nonzero;"/><path d="M5074.56,477.354c-6.869,-15.337 -10.304,-30.666 -12.88,-45.995c-2.374,-15.217 -3.562,-30.595 -3.552,-45.996c-0.043,-15.401 1.13,-30.78 3.508,-45.996c2.561,-15.329 6.018,-30.659 12.924,-45.996c6.906,15.337 10.363,30.667 12.924,45.996c2.378,15.216 3.551,30.595 3.508,45.996c0.01,15.401 -1.178,30.779 -3.553,45.996c-2.576,15.329 -6.01,30.658 -12.879,45.995Z" style="fill:#666;fill-rule:nonzero;"/><path d="M5053.07,406.34l42.998,-0c26.521,0.028 48.336,21.843 48.364,48.364l-0,107.603c-0.049,26.507 -21.857,48.299 -48.364,48.327l-42.991,-0c-26.521,-0.029 -48.336,-21.843 -48.364,-48.365l-0,-107.624c0.06,-26.496 21.861,-48.273 48.357,-48.305Zm42.998,171.459c8.485,-0.032 15.456,-7.007 15.484,-15.492l0,-107.625c-0.008,-8.492 -6.993,-15.477 -15.484,-15.485l-42.991,0c-8.483,0.032 -15.453,7.003 -15.485,15.485l0,107.625c0.028,8.488 7.004,15.464 15.492,15.492l42.984,-0Z" style="fill:#666;fill-rule:nonzero;"/><path d="M5074.56,711.027c-6.869,-15.33 -10.304,-30.659 -12.88,-45.989c-2.374,-15.216 -3.562,-30.595 -3.552,-45.996c-0.043,-15.4 1.13,-30.78 3.508,-45.995c2.561,-15.33 6.018,-30.667 12.924,-45.996c6.906,15.329 10.363,30.666 12.924,45.996c2.378,15.215 3.551,30.595 3.508,45.995c0.009,15.401 -1.179,30.78 -3.553,45.996c-2.576,15.33 -6.01,30.659 -12.879,45.989Z" style="fill:#666;fill-rule:nonzero;"/><path d="M5074.56,256.872c-6.869,-15.329 -10.304,-30.666 -12.88,-45.995c-2.374,-15.217 -3.562,-30.595 -3.552,-45.996c-0.043,-15.4 1.13,-30.78 3.508,-45.996c2.561,-15.329 6.018,-30.659 12.924,-45.988c6.906,15.329 10.363,30.659 12.924,45.988c2.378,15.216 3.551,30.596 3.508,45.996c0.01,15.401 -1.178,30.779 -3.553,45.996c-2.576,15.329 -6.01,30.666 -12.879,45.995Z" style="fill:#666;fill-rule:nonzero;"/><path d="M5053.07,642.707l42.998,-0c26.521,0.028 48.336,21.843 48.364,48.364l-0,107.632c-0.033,26.518 -21.846,48.328 -48.364,48.357l-42.991,-0c-26.518,-0.029 -48.332,-21.839 -48.364,-48.357l-0,-107.632c0.028,-26.519 21.838,-48.332 48.357,-48.364Zm42.998,171.481c8.491,-0.009 15.476,-6.994 15.484,-15.485l0,-107.632c-0.008,-8.492 -6.993,-15.477 -15.484,-15.485l-42.991,-0c-8.483,0.032 -15.453,7.002 -15.485,15.485l0,107.632c0.032,8.479 6.998,15.448 15.478,15.485l42.998,-0Z" style="fill:#666;fill-rule:nonzero;"/><path d="M5053.07,865.762l42.998,0c26.521,0.029 48.336,21.844 48.364,48.365l-0,107.624c-0.028,26.52 -21.845,48.333 -48.364,48.357l-42.991,0c-26.52,-0.024 -48.336,-21.837 -48.364,-48.357l-0,-107.624c0.028,-26.519 21.838,-48.332 48.357,-48.365Zm42.998,171.474c8.491,-0.008 15.476,-6.993 15.484,-15.485l0,-107.624c-0.02,-8.491 -6.994,-15.475 -15.484,-15.507l-42.991,-0c-8.491,0.032 -15.465,7.016 -15.485,15.507l0,107.624c0.032,8.485 7.007,15.457 15.492,15.485l42.984,-0Z" style="fill:#666;fill-rule:nonzero;"/><path d="M5074.56,1173.19c-6.869,-15.337 -10.304,-30.667 -12.88,-45.996c-2.374,-15.217 -3.562,-30.595 -3.552,-45.996c-0.043,-15.4 1.13,-30.78 3.508,-45.996c2.561,-15.329 6.018,-30.658 12.924,-45.995c6.906,15.337 10.363,30.666 12.924,45.995c2.378,15.216 3.551,30.596 3.508,45.996c0.01,15.401 -1.178,30.779 -3.553,45.996c-2.576,15.329 -6.01,30.659 -12.879,45.996Z" style="fill:#666;fill-rule:nonzero;"/><path d="M5053.07,1102.17l42.998,0c26.521,0.029 48.336,21.843 48.364,48.365l-0,107.602c-0.049,26.507 -21.857,48.299 -48.364,48.327l-42.991,0c-26.521,-0.028 -48.336,-21.843 -48.364,-48.364l-0,-107.625c0.06,-26.496 21.861,-48.272 48.357,-48.305Zm42.998,171.459c8.485,-0.032 15.456,-7.007 15.484,-15.492l0,-107.625c-0.008,-8.491 -6.993,-15.476 -15.484,-15.484l-42.991,-0c-8.483,0.032 -15.453,7.002 -15.485,15.484l0,107.625c0.028,8.488 7.004,15.464 15.492,15.492l42.984,0Z" style="fill:#666;fill-rule:nonzero;"/><path d="M5074.56,1406.86c-6.869,-15.33 -10.304,-30.659 -12.88,-45.988c-2.374,-15.217 -3.562,-30.595 -3.552,-45.996c-0.043,-15.401 1.13,-30.78 3.508,-45.996c2.561,-15.329 6.018,-30.666 12.924,-45.996c6.906,15.33 10.363,30.667 12.924,45.996c2.378,15.216 3.551,30.595 3.508,45.996c0.009,15.401 -1.179,30.779 -3.553,45.996c-2.576,15.329 -6.01,30.658 -12.879,45.988Z" style="fill:#666;fill-rule:nonzero;"/><path d="M5074.56,952.706c-6.869,-15.33 -10.304,-30.667 -12.88,-45.996c-2.374,-15.217 -3.562,-30.595 -3.552,-45.996c-0.043,-15.4 1.13,-30.78 3.508,-45.995c2.561,-15.33 6.018,-30.659 12.924,-45.989c6.906,15.33 10.363,30.659 12.924,45.989c2.378,15.215 3.551,30.595 3.508,45.995c0.01,15.401 -1.178,30.779 -3.553,45.996c-2.576,15.329 -6.01,30.666 -12.879,45.996Z" style="fill:#666;fill-rule:nonzero;"/><path d="M5053.07,1338.54l42.998,-0c26.521,0.028 48.336,21.843 48.364,48.364l-0,107.632c-0.033,26.518 -21.846,48.329 -48.364,48.357l-42.991,-0c-26.518,-0.028 -48.332,-21.839 -48.364,-48.357l-0,-107.632c0.028,-26.518 21.838,-48.332 48.357,-48.364Zm42.998,171.481c8.491,-0.008 15.476,-6.993 15.484,-15.485l0,-107.632c-0.008,-8.491 -6.993,-15.477 -15.484,-15.485l-42.991,0c-8.483,0.033 -15.453,7.003 -15.485,15.485l0,107.632c0.032,8.48 6.998,15.449 15.478,15.485l42.998,-0Z" style="fill:#666;fill-rule:nonzero;"/><path d="M5053.07,2257.43l42.998,0c26.521,0.028 48.336,21.843 48.364,48.364l-0,107.625c-0.028,26.52 -21.845,48.332 -48.364,48.357l-42.991,-0c-26.52,-0.025 -48.336,-21.837 -48.364,-48.357l-0,-107.625c0.028,-26.518 21.838,-48.332 48.357,-48.364Zm42.998,171.474c8.491,-0.008 15.476,-6.994 15.484,-15.485l0,-107.625c-0.02,-8.491 -6.994,-15.474 -15.484,-15.507l-42.991,0c-8.491,0.033 -15.465,7.016 -15.485,15.507l0,107.625c0.032,8.485 7.007,15.456 15.492,15.485l42.984,-0Z" style="fill:#666;fill-rule:nonzero;"/><path d="M5074.56,2564.85c-6.869,-15.337 -10.304,-30.666 -12.88,-45.995c-2.374,-15.217 -3.562,-30.595 -3.552,-45.996c-0.043,-15.401 1.13,-30.78 3.508,-45.996c2.561,-15.329 6.018,-30.659 12.924,-45.996c6.906,15.337 10.363,30.667 12.924,45.996c2.378,15.216 3.551,30.595 3.508,45.996c0.01,15.401 -1.178,30.779 -3.553,45.996c-2.576,15.329 -6.01,30.658 -12.879,45.995Z" style="fill:#666;fill-rule:nonzero;"/><path d="M5053.07,2493.84l42.998,-0c26.521,0.028 48.336,21.843 48.364,48.364l-0,107.603c-0.049,26.507 -21.857,48.299 -48.364,48.327l-42.991,-0c-26.521,-0.029 -48.336,-21.843 -48.364,-48.365l-0,-107.624c0.06,-26.496 21.861,-48.273 48.357,-48.305Zm42.998,171.459c8.485,-0.032 15.456,-7.007 15.484,-15.492l0,-107.625c-0.008,-8.492 -6.993,-15.477 -15.484,-15.485l-42.991,0c-8.483,0.032 -15.453,7.003 -15.485,15.485l0,107.625c0.028,8.488 7.004,15.464 15.492,15.492l42.984,-0Z" style="fill:#666;fill-rule:nonzero;"/><path d="M5074.56,2798.53c-6.869,-15.33 -10.304,-30.659 -12.88,-45.989c-2.374,-15.216 -3.562,-30.595 -3.552,-45.996c-0.043,-15.4 1.13,-30.78 3.508,-45.995c2.561,-15.33 6.018,-30.667 12.924,-45.996c6.906,15.329 10.363,30.666 12.924,45.996c2.378,15.215 3.551,30.595 3.508,45.995c0.009,15.401 -1.179,30.78 -3.553,45.996c-2.576,15.33 -6.01,30.659 -12.879,45.989Z" style="fill:#666;fill-rule:nonzero;"/><path d="M5074.56,2344.37c-6.869,-15.329 -10.304,-30.666 -12.88,-45.995c-2.374,-15.217 -3.562,-30.595 -3.552,-45.996c-0.043,-15.4 1.13,-30.78 3.508,-45.996c2.561,-15.329 6.018,-30.659 12.924,-45.988c6.906,15.329 10.363,30.659 12.924,45.988c2.378,15.216 3.551,30.596 3.508,45.996c0.01,15.401 -1.178,30.779 -3.553,45.996c-2.576,15.329 -6.01,30.666 -12.879,45.995Z" style="fill:#666;fill-rule:nonzero;"/><path d="M5053.07,2730.21l42.998,-0c26.521,0.028 48.336,21.843 48.364,48.364l-0,107.632c-0.033,26.518 -21.846,48.328 -48.364,48.357l-42.991,-0c-26.518,-0.029 -48.332,-21.839 -48.364,-48.357l-0,-107.632c0.028,-26.519 21.838,-48.332 48.357,-48.364Zm42.998,171.481c8.491,-0.009 15.476,-6.994 15.484,-15.485l0,-107.632c-0.008,-8.492 -6.993,-15.477 -15.484,-15.485l-42.991,-0c-8.483,0.032 -15.453,7.002 -15.485,15.485l0,107.632c0.032,8.479 6.998,15.448 15.478,15.485l42.998,-0Z" style="fill:#666;fill-rule:nonzero;"/></svg>