<svg id="Buch" xmlns="http://www.w3.org/2000/svg" viewBox="0 0 95.43 144.78"><defs><style>.cls-1{fill:#fff;stroke:#000;stroke-miterlimit:10;stroke-width:6px;}.cls-2{fill:#f39323;}</style></defs><path class="cls-1" d="M1433.36,225.51c0,20.46-42.52,36.32-42.52,36.32s-46.91-12.58-46.91-36.32V123.19h89.43Z" transform="translate(-1340.93 -120.19)"/><polygon class="cls-2" points="44.26 116.89 44.26 60.22 17.35 60.22 17.35 55.04 44.26 55.04 44.26 27.75 49.44 27.75 49.44 55.04 76.35 55.04 76.35 60.22 49.44 60.22 49.44 116.89 44.26 116.89"/><path d="M1389.37,148.94v27.29h26.91v3.18h-26.91v56.67h-3.18V179.41h-26.91v-3.18h26.91V148.94h3.18m2-2h-7.18v27.29h-26.91v7.18h26.91v56.67h7.18V181.41h26.91v-7.18h-26.91V146.94Z" transform="translate(-1340.93 -120.19)"/></svg>