<svg id="Background" xmlns="http://www.w3.org/2000/svg" viewBox="0 0 1921 1425.96"><defs><style>.cls-1{fill:#754d24;stroke:#603813;stroke-miterlimit:10;}.cls-2{fill:#603813;}</style></defs><rect class="cls-1" x="0.5" y="345.43" width="1920" height="1080"/><path class="cls-2" d="M310.81,120.28c1.45,36,2.21,72,2.72,108,.32,18,.4,36,.59,54l.19,54-.19,54c-.19,18-.25,36-.58,54-.51,36-1.27,72-2.73,108-1.46-36-2.22-72-2.73-108-.33-18-.39-36-.58-54l-.19-54,.2-54c.19-18,.26-36,.58-54C308.6,192.28,309.36,156.28,310.81,120.28Z" transform="translate(0.5 343.33)"/><path class="cls-2" d="M338.09,303.31c1.45,36,2.21,72,2.73,108,.32,18,.39,36,.58,54l.19,54-.18,54c-.2,18-.26,36-.58,54-.52,36-1.28,72-2.74,108-1.45-36-2.21-72-2.73-108-.32-18-.38-36-.58-54l-.18-54,.19-54c.19-18,.26-36,.58-54C335.89,375.31,336.65,339.31,338.09,303.31Z" transform="translate(0.5 343.33)"/><path class="cls-2" d="M1647.74,53.21c1.45,36,2.2,72,2.72,108,.32,18,.39,36,.58,54l.19,54-.18,54c-.19,18-.26,36-.58,54-.51,36-1.28,72-2.73,108-1.46-36-2.22-72-2.73-108-.33-18-.39-36-.59-54l-.18-54,.19-54c.19-18,.26-36,.59-54C1645.53,125.21,1646.29,89.21,1647.74,53.21Z" transform="translate(0.5 343.33)"/><path class="cls-2" d="M1440.83,360.15c1.45,36,2.21,72,2.72,108,.32,18,.4,36,.59,54l.19,54-.18,54c-.2,18-.26,36-.59,54-.51,36-1.27,72-2.73,108-1.46-36-2.22-72-2.73-108-.33-18-.39-36-.58-54l-.19-54,.2-54c.19-18,.26-36,.58-54C1438.63,432.15,1439.38,396.15,1440.83,360.15Z" transform="translate(0.5 343.33)"/><path class="cls-2" d="M783.74,25.92c1.45,36,2.2,72,2.72,108,.32,18,.39,36,.58,54l.19,54-.18,54c-.19,18-.26,36-.58,54-.51,36-1.28,72-2.73,108-1.46-36-2.22-72-2.73-108-.33-18-.39-36-.59-54l-.18-54,.19-54c.19-18,.26-36,.59-54C781.53,97.92,782.29,61.92,783.74,25.92Z" transform="translate(0.5 343.33)"/><path class="cls-2" d="M887.19,426.1c1.45,36,2.21,72,2.72,108,.32,18,.39,36,.58,54l.2,54-.19,54c-.19,18-.25,36-.58,54-.51,36-1.27,72-2.73,108-1.46-36-2.22-72-2.73-108-.33-18-.39-36-.58-54l-.19-54,.19-54c.19-18,.27-36,.59-54C885,498.1,885.74,462.1,887.19,426.1Z" transform="translate(0.5 343.33)"/><path class="cls-2" d="M1130-325.83q-.3-8.75-.65-17.5-.36,8.74-.65,17.5Z" transform="translate(0.5 343.33)"/><path class="cls-2" d="M1126.94,1.58c.5,29,1.22,58.06,2.4,87.09,1.17-29,1.89-58.06,2.4-87.09Z" transform="translate(0.5 343.33)"/><path class="cls-2" d="M105.12,1.44,105,47.74l.19,54c.19,18,.26,36,.58,54,.51,36,1.28,72,2.73,108,1.46-36,2.22-72,2.73-108,.33-18,.39-36,.59-54l.18-54-.16-46.3Z" transform="translate(0.5 343.33)"/><path class="cls-2" d="M1716.69,1.61h-6q-.15,15.86-.29,31.7l-.19,54,.18,54c.19,18,.26,36,.58,54,.52,36,1.28,72,2.73,108,1.46-36,2.22-72,2.73-108,.33-18,.39-36,.59-54l.18-54-.19-54Q1716.81,17.45,1716.69,1.61Z" transform="translate(0.5 343.33)"/><path class="cls-2" d="M1716.45,1082.61l-.06-4c-.51-36-1.27-72-2.72-108-1.44,36-2.2,72-2.72,108l-.06,4Z" transform="translate(0.5 343.33)"/><path class="cls-2" d="M1126.61,1059.31q.17,11.65.37,23.3h4.72q.19-11.65.37-23.3c.32-18,.39-36,.58-54l.18-54-.19-54c-.19-18-.26-36-.58-54-.52-36-1.27-72-2.72-108-1.45,36-2.21,72-2.72,108-.33,18-.4,36-.59,54l-.19,54,.18,54C1126.22,1023.31,1126.28,1041.31,1126.61,1059.31Z" transform="translate(0.5 343.33)"/><path class="cls-2" d="M111.8,1082.63l0-10.25c-.19-18-.26-36-.59-54-.51-36-1.27-72-2.72-108-1.45,36-2.2,72-2.72,108-.32,18-.39,36-.58,54l0,10.25Z" transform="translate(0.5 343.33)"/></svg>