<svg id="Bild" xmlns="http://www.w3.org/2000/svg" viewBox="0 0 1201.86 728.46"><defs><style>.cls-1{fill:#333;}.cls-2{fill:none;}.cls-3{fill:#676766;}.cls-3,.cls-4{stroke:#333;stroke-miterlimit:10;stroke-width:3px;}.cls-4{fill:#047aad;}</style></defs><polygon class="cls-1" points="889 306.39 335.74 314.36 474.54 102.14 720.09 102.14 889 306.39"/><polygon class="cls-2" points="385.27 251.09 815.76 251.09 600.51 119.45 385.27 251.09"/><polygon class="cls-3" points="385.27 251.09 177.51 378.15 177.51 726.96 1023.51 726.96 1023.51 378.15 815.76 251.09 385.27 251.09"/><polygon class="cls-3" points="1023.51 304.65 935.94 251.09 601.78 46.72 600.51 49.03 599.25 46.72 265.09 251.09 177.51 304.65 19.02 401.59 49.06 456.72 177.51 378.15 385.27 251.09 600.51 119.45 815.76 251.09 1023.51 378.15 1151.97 456.72 1182.02 401.59 1023.51 304.65"/><polygon class="cls-4" points="1023.51 260.04 935.94 206.47 601.78 2.1 600.51 4.42 599.25 2.1 265.09 206.47 177.51 260.04 1.98 374.01 32.03 429.13 177.51 333.54 385.27 206.47 600.51 74.83 815.76 206.47 1023.51 333.54 1169.83 429.97 1199.88 374.84 1023.51 260.04"/></svg>