<svg id="Ebene_1" data-name="Ebene 1" xmlns="http://www.w3.org/2000/svg" viewBox="0 0 2018.08 691.01"><defs><style>.cls-1{fill:#f39323;}.cls-2{fill:#b3b3b3;}.cls-3{fill:#7d4e25;}.cls-3,.cls-7{stroke:#000;}.cls-3,.cls-4,.cls-6,.cls-7{stroke-miterlimit:10;}.cls-4{fill:#cbbba0;}.cls-4,.cls-6{stroke:#1d1d1b;}.cls-5{fill:#938b76;}.cls-6{fill:#575756;}</style></defs><rect class="cls-1" x="1010.25" y="113.29" width="11.45" height="160.43"/><path d="M973.56,305V464.39H963.11V305h10.45m1-1H962.11V465.39h12.45V304Z" transform="translate(47.64 -191.17)"/><path class="cls-1" d="M968.34,311.7a21.1,21.1,0,1,1,21.1-21.1A21.12,21.12,0,0,1,968.34,311.7Z" transform="translate(47.64 -191.17)"/><path d="M968.34,270a20.6,20.6,0,1,1-20.6,20.6,20.62,20.62,0,0,1,20.6-20.6m0-1a21.6,21.6,0,1,0,21.6,21.6,21.6,21.6,0,0,0-21.6-21.6Z" transform="translate(47.64 -191.17)"/><rect class="cls-2" x="823.98" y="183.21" width="383.99" height="174.31"/><path d="M1159.83,374.88V548.19h-383V374.88h383m1-1h-385V549.19h385V373.88Z" transform="translate(47.64 -191.17)"/><polygon class="cls-1" points="805.93 223.49 827.18 163.52 1208.1 163.52 1226.05 223.49 805.93 223.49"/><path d="M1160.09,355.19l17.65,59H759l20.9-59h380.19m.74-1H779.19l-21.6,61h421.5l-18.26-61Z" transform="translate(47.64 -191.17)"/><rect class="cls-2" x="891.59" y="121.53" width="58.87" height="271.08"/><path d="M902.33,313.2V583.28H844.46V313.2h57.87m1-1H843.46V584.28h59.87V312.2Z" transform="translate(47.64 -191.17)"/><rect class="cls-2" x="1080.3" y="121.53" width="58.87" height="271.08"/><path d="M1091,313.2V583.28h-57.87V313.2H1091m1-1h-59.87V584.28H1092V312.2Z" transform="translate(47.64 -191.17)"/><path class="cls-1" d="M933.83,582.35V469.68c6.25-21.8,19.48-36.19,33.73-36.68h.77c14.57,0,28.12,14.4,34.51,36.69V582.35Z" transform="translate(47.64 -191.17)"/><path d="M968.33,433.49c14.33,0,27.67,14.23,34,36.26v112.1h-68V469.75c6.19-21.55,19.24-35.77,33.25-36.25h.75m0-1h-.79c-14.59.5-27.86,14.9-34.21,37.11V582.85h70V469.61c-6.48-22.67-20.16-37.12-35-37.12Z" transform="translate(47.64 -191.17)"/><rect class="cls-3" x="705.97" y="361.69" width="620" height="32.71"/><g id="Fahne"><path class="cls-4" d="M723.62,665.8a137.49,137.49,0,0,0-22.25-55C591.08,641.65,486.48,746.39,351.18,768.38,215,790.51,83.22,705.77-46.63,732.14c-.18,1.57-.32,3.25-.47,4.94A905.92,905.92,0,0,1,47.7,752.5a909.05,909.05,0,0,1,171.41,55.68,418.13,418.13,0,0,0-247.94,25.5c.89,1.83,1.79,3.62,2.68,5.31,123.3-48.5,257.5,62.23,397.06,39.61A370.76,370.76,0,0,0,437,861.18c.45-.81.92-1.54,1.35-2.39a89.69,89.69,0,0,0,9-29.55A175.17,175.17,0,0,1,460.58,852c96.05-40.47,177.63-109.39,261.28-134.29A132.68,132.68,0,0,0,723.62,665.8Z" transform="translate(47.64 -191.17)"/><path class="cls-5" d="M437.18,856.64a80.59,80.59,0,0,0,4.44-12c1.07-3.52,1.62-5.33,2.16-7.79.61-2.78,1-5.17,1.18-7-15.11,9.3-43.38,22.4-81.17,27.29a146.06,146.06,0,0,1-60-4.19S112.41,798.33,55.52,809.69c-22.75,4.54-45.11,11-45.11,11-15.57,4.51-28.48,9-37.87,12.47a15,15,0,0,0,.8,2.36,13.31,13.31,0,0,0,1.49,2.54c1.85-1.32,22.56-10.57,39.69-12,24.73-2.09,44.36-2,61,0,11.44,1.36,19.21,3,33.52,6,21,4.4,36.71,8.83,60.17,15.5s24.34,7.43,41.21,11.89c20.16,5.34,35.68,8.69,41.16,9.85,29.93,6.34,46.09,9.76,66.36,10.59h0c19.5.42,31.11-.38,40.12-1.69,4.89-.71,8-.94,11.35-1.52,9.8-1.69,10.78-2.13,16.31-3.18,3.2-.6,8-1.81,17.58-4.23,9.2-2.33,13.9-3.51,18.55-5s8.94-2.94,13.64-4.72C435.83,858.89,436.9,857.33,437.18,856.64Z" transform="translate(47.64 -191.17)"/><path class="cls-5" d="M490.34,836c13-6.25,23.4-11.72,31-15.83,28.3-15.34,42.24-26,75.14-44.32,27.79-15.51,53.16-34.94,123.69-60.36,2.35-7.74,3.18-19.43,3.1-33.68a99.27,99.27,0,0,0-1.69-15.53c-4.27-26.25-13.34-45.52-20.19-55.39C595.52,729.19,514,794.33,449.12,827.78c3.84,7.18,8.7,14.13,12.54,21.31C469.44,845.81,478.6,841.59,490.34,836Z" transform="translate(47.64 -191.17)"/><path class="cls-4" d="M1703.7,808.18a904.81,904.81,0,0,1,266.2-71.1c-.14-1.69-.29-3.37-.46-4.94-129.85-26.37-261.64,58.37-397.81,36.24-9.53-1.55-18.89-3.55-28.12-5.86-.71,1.65-1.41,3.3-2.21,5a172.16,172.16,0,0,1-14.3,24.89,89.14,89.14,0,0,0-9-29.55,86.22,86.22,0,0,0-5.73-9.61C1404.59,716.39,1315.05,637,1221.43,610.84a137.49,137.49,0,0,0-22.25,55,132.64,132.64,0,0,0,1.77,51.89C1309.39,750,1414.35,856.3,1551.89,878.6,1691.46,901.22,1825.65,790.49,1949,839c.89-1.69,1.79-3.48,2.69-5.31a418.13,418.13,0,0,0-247.94-25.5Z" transform="translate(47.64 -191.17)"/><path class="cls-5" d="M1867.28,809.43c22.76,4.54,45.12,11,45.12,11,15.57,4.5,28.47,9,37.87,12.46a14.12,14.12,0,0,1-.81,2.36,13.33,13.33,0,0,1-1.48,2.54c-1.85-1.32-22.56-10.57-39.7-12-24.72-2.09-44.35-2-61,0-11.45,1.35-19.21,3-33.52,6-21,4.4-36.72,8.83-60.17,15.5s-24.34,7.43-41.21,11.89c-20.17,5.34-35.68,8.69-41.16,9.85-29.93,6.34-46.1,9.76-66.37,10.59h0c-19.49.42-31.1-.37-40.12-1.69-3.48-.51-5.88-1-10.7-1.94-2.59-.49-23.08-4.35-34.53-7-21.83-5.05-38.94-12.19-58.16-20.22-11-4.59-20.34-9-28.89-13-46.47-22.18-55.64-32-106.11-60.15-27.79-15.51-53.16-34.94-123.69-60.36-2.35-7.74-3.18-19.43-3.1-33.67a99.27,99.27,0,0,1,1.69-15.54c4.27-26.25,13.34-45.51,20.19-55.39C1430.3,844.1,1548.77,872.83,1619,852.75,1619,852.75,1810.4,798.07,1867.28,809.43Z" transform="translate(47.64 -191.17)"/><path class="cls-6" d="M1360.27,589.4c17.63,27.47,22,77.79,26.73,96.63-38.23,2.72-74.61,11.28-162.42,19.74" transform="translate(47.64 -191.17)"/><path class="cls-6" d="M1189.57,569.59" transform="translate(47.64 -191.17)"/><path class="cls-6" d="M563.08,589.4c-17.63,27.47-22.76,87.11-27.51,106,38.23,2.72,89.8,5.93,163.2,10.42" transform="translate(47.64 -191.17)"/><path class="cls-6" d="M733.79,569.59" transform="translate(47.64 -191.17)"/></g><path class="cls-4" d="M1392.52,716.3c-112.69-20.48-256.61-37.8-428.95-38-174.16-.19-322.7,17.8-432.91,38a244,244,0,0,1,0-133.86c55.53-16.87,254.84-64.82,430.6-64.86,176.06,0,371.51,43.26,431.26,64.86a177.14,177.14,0,0,1,0,133.86Z" transform="translate(47.64 -191.17)"/><text x="47.64" y="-191.17"/><path class="cls-7" d="M884.47,581c-1.6,6.49-2.39,9.74-3.93,16.23l-2.62.21c.18-.72.3-1.25.37-1.61a13.09,13.09,0,0,0,.46-4,2.65,2.65,0,0,0-2.3-2.66c-1.41-.28-4.74-.2-10,.28-4.39.4-6.59.61-11,1.06-.28,1.17-.43,1.75-.71,2.92-2.7,10.61-5.51,21.25-10,31.2a113,113,0,0,1-15,23.93A91.63,91.63,0,0,1,808,667.87a79.08,79.08,0,0,1-25.47,10.22c-8.47,1.72-19.5,1.54-27.86-.86a44.56,44.56,0,0,1-20.09-11.71,47.09,47.09,0,0,1-11.29-20.7c-2.33-8.51-.58-21.2,4.94-28.37,6.64-8.62,17-14.18,27.73-16.08,17.09-3,32.41,2.6,47.71,9.87,8.56,4.64,16.43,10.43,24.32,16.09l2.4,1.74a22.14,22.14,0,0,0,2-12.15c-.81-6.36-4.44-11.27-11-14.64s-14.83-4.57-24.7-3.49a24.23,24.23,0,0,0,1.79-6.69q25.33-3.92,50.77-6.89c.26-1.17.45-2.06.58-2.65a126,126,0,0,1,3.73-14.86,33.33,33.33,0,0,1,4.48-8.56,63,63,0,0,1,15.48-14.69c6.9-4.84,13-7.4,18.07-7.73a23.75,23.75,0,0,1,3.85.16,146.58,146.58,0,0,1-3.43,15.54c-.16.67-.25,1-.41,1.67l-2.73.19a23.68,23.68,0,0,0,.93-6c-.19-2.81-2-4.1-5.42-3.86a26.16,26.16,0,0,0-15,6.48,20.4,20.4,0,0,0-5.52,7.4c-1.23,2.83-2.74,8.08-4.49,15.75-.77,3.5-1.15,5.24-1.91,8.74L857,583.4C868,582.3,873.48,581.82,884.47,581Zm-36.55,10.3q-16.32,1.77-32.58,3.88a28.85,28.85,0,0,1,13.43,7.53A20.48,20.48,0,0,1,835,614.79c.85,6.84-.93,14.76-5.15,23.79-13.41-11.06-27.14-21-43.26-27.78-11.37-4.76-24.27-7.57-36.46-5.16-8.89,1.75-15.77,6.1-20.37,12.69s-5.84,13.95-4,22a40.14,40.14,0,0,0,21.83,26.83c12.29,6,26.46,7,39.81,4.44,15.8-3,30.79-11.94,40.32-24.79C839.49,630.92,844.71,610.75,847.92,591.31Z" transform="translate(47.64 -191.17)"/><path class="cls-7" d="M918.63,536.74c-.5,11.34-6.27,22.48-10.48,32.75-6.45,15.6-16.61,34-17.34,50-.08,1.85,1,2.85,2.69,2.66,1.32-.15,3.62-1.59,6.89-4.34l.8-.65,1.42,1.63c-7.08,6.63-12.24,10.11-15.67,10.37q-4.12.31-4.56-5.2c-.23-2.85.39-6.94,2-12.18,3.35-11.27,7.68-22.35,11.84-33.41,2.36-6.17,3.56-9.25,6-15.41,3.69-9.23,5.57-14.58,5.49-16.07-.06-1.19-.85-1.74-2.39-1.66a20.53,20.53,0,0,0-3.89,1.07c-.25.1-.61.23-1.1.39l-.85-1.86,1.09-.46C908.94,541,915,538.51,918.63,536.74Z" transform="translate(47.64 -191.17)"/><path class="cls-7" d="M954.94,577.86c-2.55-.2-4.68-.27-6.35-.26-11.13.06-22.11,4.66-28.52,14.1A50.74,50.74,0,0,0,914,604.08a32.34,32.34,0,0,0-2.11,11.55,7.42,7.42,0,0,0,2.24,5.2,6.67,6.67,0,0,0,5.11,1.85c4.8-.21,9.93-4.07,15.6-11.57s8.54-14.26,8.42-20.37A5.23,5.23,0,0,0,942,587.3a3.54,3.54,0,0,0-2.86-1.35c-3.82.08-7.39,3.7-10.6,10.84a8.65,8.65,0,0,1-.43-2.29c-.09-2.72,1.63-5.64,5.22-8.73s7.07-4.67,10.37-4.73a7.32,7.32,0,0,1,5.65,2.38,8.44,8.44,0,0,1,2.36,6c0,10.67-9,19.15-15.8,25.62-8.41,8-16.33,12.16-22.34,12.45a8.68,8.68,0,0,1-6.65-2.36,9.47,9.47,0,0,1-3-6.63c-.34-6,1.5-12.43,5.66-19.22a58.76,58.76,0,0,1,17.21-17.73,61.22,61.22,0,0,1,13.34-6.77,38.56,38.56,0,0,1,12.46-2.7c2.12,0,3.19.83,3.2,2.54A9.8,9.8,0,0,1,954.94,577.86Z" transform="translate(47.64 -191.17)"/><path class="cls-7" d="M994.49,572.27l-.83,1.23c-1.48,2.12-2.22,3.19-3.68,5.31-1.3,1.9-2.66,3.81-4.09,5.71l-.81,1-1.77-1.16c.25-.47.42-.82.52-1a10.51,10.51,0,0,0,1.59-4c0-1.67-1.56-2.54-4.78-2.59a11,11,0,0,0-7.76,2.9,9.12,9.12,0,0,0-3.35,6.93,11.72,11.72,0,0,0,1.4,5c1.35,2.72,2,4.09,3.35,6.82a16.62,16.62,0,0,1,1.6,7.53c-.06,5.32-3.23,10.31-9.38,15-5.31,4.08-10,6.15-14.06,6.19a9.53,9.53,0,0,1-5.8-1.6,5.18,5.18,0,0,1-2.36-4.28,11.86,11.86,0,0,1,1.56-6c3,4.61,6.53,6.89,10.77,6.86a13.54,13.54,0,0,0,8.92-3.31,9.82,9.82,0,0,0,3.93-7.63,12.61,12.61,0,0,0-1.37-5.28c-1.64-3.41-2.47-5.12-4.14-8.52a12.63,12.63,0,0,1-1.21-5.53c0-3.65,2.17-7.75,6.62-12.25a27,27,0,0,1,9-6.21,29,29,0,0,1,11.23-1.6A35.76,35.76,0,0,1,994.49,572.27Z" transform="translate(47.64 -191.17)"/><path class="cls-7" d="M1024.87,573.38l-1,1.92c-4.08-.23-6.12-.33-10.2-.52l-.63,1.09c-1,1.71-3.73,6.73-8,15.09-1.75,3.41-4.2,8.13-7.31,14.12-3.64,7-5.46,11.46-5.51,13.35s.94,2.86,3,2.93c2.44.07,5.82-1.18,10.2-3.73l1,1.76a44.92,44.92,0,0,1-9.67,4.78,25.51,25.51,0,0,1-8.82,1.87c-3.44-.09-5.14-1.41-5.09-4,0-1.85,2-7,6.19-15.43,3.07-6.17,4.63-9.26,7.79-15.41,4.41-8.7,7-13.78,7.79-15.29l.78-1.49c-3.79-.15-5.69-.21-9.48-.33l1.07-1.94.94,0c4.16.13,7-.35,8.45-1.48s3.56-4.39,6.3-9.76c.73.08,1.22.12,1.46.13a32.19,32.19,0,0,0,7-.44c-.6,1.24-1.67,3.27-3.17,6.1l-2.42,4.64c-.32.59-.48.88-.79,1.48C1018.74,573,1020.79,573.15,1024.87,573.38Z" transform="translate(47.64 -191.17)"/><path class="cls-7" d="M1058.26,620.75l1.09,1.82c-5.17,3-12,5.13-20.47,6.49.55-4.41,3.82-11.84,10-22.22a120.32,120.32,0,0,1-19.72,15.21c-6.58,4-11.64,5.91-15.31,5.73-3.21-.16-4.73-2.18-4.55-6.08.29-6.63,3.88-13.68,10.49-21,6.46-7.16,16.43-14.19,25.38-17.39,10.77-3.86,22-6.83,33.78-5.42,1.52.18,2.25.77,2.13,1.82-.09.87-1,2.45-2.7,4.75a57.36,57.36,0,0,0-9.4-1.77,50.75,50.75,0,0,0-38.77,12.52c-8.09,7.15-12.31,14.54-12.7,22-.18,3.51,1.08,5.34,3.8,5.49,2.31.13,5.73-1.57,10.33-5.08a73.87,73.87,0,0,0,12.69-12.34A65.49,65.49,0,0,0,1056,584.55c2,1.32,2.79,3.51,2.52,6.57-.38,4.25-3.16,8.91-8.21,14a40.63,40.63,0,0,0,8.54-1.11l-.67,1.06c-5.3,8.92-7.93,14.2-8.06,15.77-.11,1.27.46,1.92,1.71,1.94S1055.15,622.14,1058.26,620.75Z" transform="translate(47.64 -191.17)"/><path class="cls-7" d="M1104.65,569.43c-2.35,4.39-3.52,6.6-5.84,11,12.3,1.56,17.81,6.89,16.54,15.68a36.41,36.41,0,0,1-6.2,15,52.89,52.89,0,0,1-12.43,13c-7,5.12-12.66,7.45-17.28,6.92-2.79-.32-4.07-1.58-3.82-3.81a6.06,6.06,0,0,1,1.23-2.92,12.31,12.31,0,0,0,5.76,2.85c4.27.5,8.55-1.3,12.93-5.39a45.17,45.17,0,0,0,8.19-10.48,31.56,31.56,0,0,0,4.33-11.19c1-7.57-3.25-12.06-12.9-13.26l-.92,1.55q-8.09,14.36-16,28.78-12.06,21.75-23.33,43.93l-1.4,2.85a39.09,39.09,0,0,1-6.82,1.59l-1.16.23c.41-.79.62-1.18,1-2,10.53-19.37,20.1-39.29,30-59l.83-1.7.79,0a9,9,0,0,0,5.79-2.57c1.31-1.42,3.74-5.28,7.35-11.58l1.38-2.42-1.85-.29a74,74,0,0,0-10.62-.55c-1.94,3.44-2.91,5.17-4.83,8.62l-1.91-1c3.07-5.7,4.62-8.55,7.76-14.22h1.24l6,.35,6.67.54c.15,0,.53,0,1.16.07,2.37-4.38,3.56-6.57,6-10.94Z" transform="translate(47.64 -191.17)"/><path class="cls-7" d="M1167.42,597.44c-2.47-.7-4.55-1.19-6.2-1.52-10.94-2.15-22.66.16-30.85,8.15A50.78,50.78,0,0,0,1122,615a32.21,32.21,0,0,0-4.36,10.9,7.4,7.4,0,0,0,1.17,5.55,6.7,6.7,0,0,0,4.65,2.82c4.75.75,10.57-2,17.63-8.23s11.24-12.29,12.33-18.3a5.16,5.16,0,0,0-.54-3.61,3.58,3.58,0,0,0-2.54-1.9c-3.78-.67-8,2.16-12.58,8.52a8.89,8.89,0,0,1,0-2.33c.45-2.69,2.73-5.21,6.87-7.52s7.88-3.17,11.14-2.57a7.33,7.33,0,0,1,5.08,3.46,8.41,8.41,0,0,1,1.14,6.35c-2.1,10.47-12.68,17-20.64,22-9.85,6.17-18.47,8.67-24.43,7.76a8.72,8.72,0,0,1-6.06-3.63,9.39,9.39,0,0,1-1.61-7.09c.85-6,3.93-11.89,9.37-17.72a58.72,58.72,0,0,1,20.43-13.95,61,61,0,0,1,14.47-4,38.9,38.9,0,0,1,12.79-.17c2.1.4,3,1.45,2.66,3.13A9.69,9.69,0,0,1,1167.42,597.44Z" transform="translate(47.64 -191.17)"/><path class="cls-7" d="M1214,601.52c-1.64,2.35-2.46,3.52-4.09,5.87a26.32,26.32,0,0,0-4.62-1.62c-5.47-1.27-12.21,1.23-20,7.55a61.88,61.88,0,0,0-9.94,10.37,183.6,183.6,0,0,0-11.6,18.16l-1.18,2a74.25,74.25,0,0,0-8.86.57l1.12-1.8c3.55-5.61,5.34-8.4,9-14,8.62-13.45,13.37-21.39,13.9-24a1.77,1.77,0,0,0-1.5-2.39c-.71-.14-2.41.11-5.09.79-.21-.87-.32-1.31-.53-2.19a130.78,130.78,0,0,0,19.87-6,8.73,8.73,0,0,1-.17,2.18c-.71,3.31-3.55,8.47-8.41,15.53l2.06-1.45c8-5.43,18.35-12.2,27-11.23A6.93,6.93,0,0,1,1214,601.52Z" transform="translate(47.64 -191.17)"/><polygon class="cls-1" points="889.18 123.5 921.03 1.97 952.88 123.5 889.18 123.5"/><path d="M873.39,195.12,904.6,314.17H842.19l31.2-119m0-4-32.5,124h65l-32.5-124Z" transform="translate(47.64 -191.17)"/><polygon class="cls-1" points="1077.88 123.5 1109.73 1.97 1141.58 123.5 1077.88 123.5"/><path d="M1062.09,195.12l31.21,119.05h-62.41l31.2-119m0-4-32.5,124h65l-32.5-124Z" transform="translate(47.64 -191.17)"/></svg>