<svg id="Ebene_1" data-name="Ebene 1" xmlns="http://www.w3.org/2000/svg" viewBox="0 0 2018.08 686.89"><defs><style>.cls-1{fill:#b3b3b3;}.cls-2{fill:#7d4e25;}.cls-2,.cls-6{stroke:#000;}.cls-2,.cls-3,.cls-5,.cls-6{stroke-miterlimit:10;}.cls-3{fill:#cbbba0;}.cls-3,.cls-5{stroke:#1d1d1b;}.cls-4{fill:#938b76;}.cls-5{fill:#575756;}</style></defs><rect class="cls-1" x="1207.84" y="250.03" width="97.21" height="118.75"/><path d="M1256.92,445.82V563.57H1160.7V445.82h96.22m1-1H1159.7V564.57h98.22V444.82Z" transform="translate(47.64 -195.29)"/><rect class="cls-2" x="1159.7" y="402.72" width="111.85" height="43.1" transform="translate(2478.9 653.25) rotate(-180)"/><rect class="cls-1" x="726.77" y="250.8" width="97.21" height="118.75"/><path d="M775.84,446.59V564.34H679.63V446.59h96.21m1-1H678.63V565.34h98.21V445.59Z" transform="translate(47.64 -195.29)"/><rect class="cls-2" x="1007.1" y="384.45" width="17.76" height="190.99"/><rect class="cls-2" x="1074.85" y="384.45" width="17.76" height="190.99"/><rect class="cls-2" x="939.08" y="384.45" width="17.76" height="190.99"/><rect class="cls-2" x="1142.1" y="384.45" width="17.76" height="190.99"/><rect class="cls-2" x="872.09" y="384.45" width="17.76" height="190.99"/><rect class="cls-2" x="1209.86" y="384.45" width="17.76" height="190.99"/><rect class="cls-2" x="804.33" y="384.45" width="17.76" height="190.99"/><rect class="cls-1" x="823.98" y="115.54" width="383.99" height="227.36"/><path d="M1159.83,311.34V537.69h-383V311.34h383m1-1h-385V538.69h385V310.34Z" transform="translate(47.64 -195.29)"/><rect class="cls-2" x="805.22" y="89.4" width="421.5" height="79.41"/><path d="M933.83,552.35V439.68c6.25-21.8,19.48-36.19,33.73-36.68h.77c14.57,0,28.12,14.4,34.51,36.69V552.35Z" transform="translate(47.64 -195.29)"/><path d="M968.33,403.49c14.33,0,27.67,14.23,34,36.26v112.1h-68V439.75c6.19-21.55,19.24-35.77,33.25-36.25h.75m0-1h-.79c-14.59.5-27.86,14.9-34.21,37.11V552.85h70V439.61c-6.48-22.67-20.16-37.12-35-37.12Z" transform="translate(47.64 -195.29)"/><rect class="cls-2" x="705.97" y="357.57" width="620" height="32.71"/><g id="Fahne"><path class="cls-3" d="M723.62,665.8a137.49,137.49,0,0,0-22.25-55C591.08,641.65,486.48,746.39,351.18,768.38,215,790.51,83.22,705.77-46.63,732.14c-.18,1.57-.32,3.25-.47,4.94A905.92,905.92,0,0,1,47.7,752.5a909.05,909.05,0,0,1,171.41,55.68,418.13,418.13,0,0,0-247.94,25.5c.89,1.83,1.79,3.62,2.68,5.31,123.3-48.5,257.5,62.23,397.06,39.61A370.76,370.76,0,0,0,437,861.18c.45-.81.92-1.54,1.35-2.39a89.69,89.69,0,0,0,9-29.55A175.17,175.17,0,0,1,460.58,852c96.05-40.47,177.63-109.39,261.28-134.29A132.68,132.68,0,0,0,723.62,665.8Z" transform="translate(47.64 -195.29)"/><path class="cls-4" d="M437.18,856.64a80.59,80.59,0,0,0,4.44-12c1.07-3.52,1.62-5.33,2.16-7.79.61-2.78,1-5.17,1.18-7-15.11,9.3-43.38,22.4-81.17,27.29a146.06,146.06,0,0,1-60-4.19S112.41,798.33,55.52,809.69c-22.75,4.54-45.11,11-45.11,11-15.57,4.51-28.48,9-37.87,12.47a15,15,0,0,0,.8,2.36,13.31,13.31,0,0,0,1.49,2.54c1.85-1.32,22.56-10.57,39.69-12,24.73-2.09,44.36-2,61,0,11.44,1.36,19.21,3,33.52,6,21,4.4,36.71,8.83,60.17,15.5s24.34,7.43,41.21,11.89c20.16,5.34,35.68,8.69,41.16,9.85,29.93,6.34,46.09,9.76,66.36,10.59h0c19.5.42,31.11-.38,40.12-1.69,4.89-.71,8-.94,11.35-1.52,9.8-1.69,10.78-2.13,16.31-3.18,3.2-.6,8-1.81,17.58-4.23,9.2-2.33,13.9-3.51,18.55-5s8.94-2.94,13.64-4.72C435.83,858.89,436.9,857.33,437.18,856.64Z" transform="translate(47.64 -195.29)"/><path class="cls-4" d="M490.34,836c13-6.25,23.4-11.72,31-15.83,28.3-15.34,42.24-26,75.14-44.32,27.79-15.51,53.16-34.94,123.69-60.36,2.35-7.74,3.18-19.43,3.1-33.68a99.27,99.27,0,0,0-1.69-15.53c-4.27-26.25-13.34-45.52-20.19-55.39C595.52,729.19,514,794.33,449.12,827.78c3.84,7.18,8.7,14.13,12.54,21.31C469.44,845.81,478.6,841.59,490.34,836Z" transform="translate(47.64 -195.29)"/><path class="cls-3" d="M1703.7,808.18a904.81,904.81,0,0,1,266.2-71.1c-.14-1.69-.29-3.37-.46-4.94-129.85-26.37-261.64,58.37-397.81,36.24-9.53-1.55-18.89-3.55-28.12-5.86-.71,1.65-1.41,3.3-2.21,5a172.16,172.16,0,0,1-14.3,24.89,89.14,89.14,0,0,0-9-29.55,86.22,86.22,0,0,0-5.73-9.61C1404.59,716.39,1315.05,637,1221.43,610.84a137.49,137.49,0,0,0-22.25,55,132.64,132.64,0,0,0,1.77,51.89C1309.39,750,1414.35,856.3,1551.89,878.6,1691.46,901.22,1825.65,790.49,1949,839c.89-1.69,1.79-3.48,2.69-5.31a418.13,418.13,0,0,0-247.94-25.5Z" transform="translate(47.64 -195.29)"/><path class="cls-4" d="M1867.28,809.43c22.76,4.54,45.12,11,45.12,11,15.57,4.5,28.47,9,37.87,12.46a14.12,14.12,0,0,1-.81,2.36,13.33,13.33,0,0,1-1.48,2.54c-1.85-1.32-22.56-10.57-39.7-12-24.72-2.09-44.35-2-61,0-11.45,1.35-19.21,3-33.52,6-21,4.4-36.72,8.83-60.17,15.5s-24.34,7.43-41.21,11.89c-20.17,5.34-35.68,8.69-41.16,9.85-29.93,6.34-46.1,9.76-66.37,10.59h0c-19.49.42-31.1-.37-40.12-1.69-3.48-.51-5.88-1-10.7-1.94-2.59-.49-23.08-4.35-34.53-7-21.83-5.05-38.94-12.19-58.16-20.22-11-4.59-20.34-9-28.89-13-46.47-22.18-55.64-32-106.11-60.15-27.79-15.51-53.16-34.94-123.69-60.36-2.35-7.74-3.18-19.43-3.1-33.67a99.27,99.27,0,0,1,1.69-15.54c4.27-26.25,13.34-45.51,20.19-55.39C1430.3,844.1,1548.77,872.83,1619,852.75,1619,852.75,1810.4,798.07,1867.28,809.43Z" transform="translate(47.64 -195.29)"/><path class="cls-5" d="M1360.27,589.4c17.63,27.47,22,77.79,26.73,96.63-38.23,2.72-74.61,11.28-162.42,19.74" transform="translate(47.64 -195.29)"/><path class="cls-5" d="M1189.57,569.59" transform="translate(47.64 -195.29)"/><path class="cls-5" d="M563.08,589.4c-17.63,27.47-22.76,87.11-27.51,106,38.23,2.72,89.8,5.93,163.2,10.42" transform="translate(47.64 -195.29)"/><path class="cls-5" d="M733.79,569.59" transform="translate(47.64 -195.29)"/></g><path class="cls-3" d="M1392.52,713.3c-112.69-20.48-256.61-37.8-428.95-38-174.16-.19-322.7,17.8-432.91,38a244,244,0,0,1,0-133.86c55.53-16.87,254.84-64.82,430.6-64.86,176.06,0,371.51,43.26,431.26,64.86a177.14,177.14,0,0,1,0,133.86Z" transform="translate(47.64 -195.29)"/><text x="47.64" y="-195.29"/><path class="cls-6" d="M860,562.82c15.3-1.39,30.57-2.49,45.91-3.29-5.19,28.12-16.86,56.6-35.9,77.12-14.12,15.22-32.22,28.2-53.59,31.65a64,64,0,0,1-38.59-5.67c-12.61-6.36-21.32-19.31-25-32.53-2.44-8.7-.92-21.57,4.4-29.09,6.11-8.65,16-14.23,26.44-16.14A42.7,42.7,0,0,1,807.45,587c7.49,3,15,8.41,22.35,16.32,6.59,7,9.83,10.55,16.17,17.69l2.4,2.85c3.28,3.8,5.81,5.6,7.65,5.4q2.07-.24,6-2.72l1.33,2.07-1.2.59c-2.24,1.22-3.36,1.83-5.6,3.07-1.18.66-3.25,1.9-6.18,3.72l-1.43.84-.8-.84q-5.13-5.6-11.72-13.08c-2.82-3.21-4.24-4.81-7.1-8-7.12-8-15.16-16.19-24.62-21.24a37.32,37.32,0,0,0-25.1-4.13c-8.78,1.72-15.38,5.84-19.66,12.21a25.92,25.92,0,0,0-3.47,21.92c3.61,12.14,8.75,18.59,18.55,27.86a52.71,52.71,0,0,0,21.39,9.94,66.62,66.62,0,0,0,25.19.57,70.53,70.53,0,0,0,36.21-17.23c11.3-10.23,20.13-23.64,25.87-37.85a185.3,185.3,0,0,0,8.61-24.86c2.27-8.52,3.35-15,3.08-19.6-5.53.32-8.29.5-13.82.91a9.52,9.52,0,0,1,4.35,7.54c.41,6-2.71,12.09-9.14,18.52-8,6.83-16.3,13.92-27.25,15.08-6.83.73-12.68-.44-17.49-3.78a20.27,20.27,0,0,1-8.61-14.44,38,38,0,0,1,2.16-19,45.11,45.11,0,0,1,11.5-17.09,70.42,70.42,0,0,1,20.48-13.28,73.15,73.15,0,0,1,24-5.95c2.17-.15,4.77-.2,7.78-.12-1.69,6.41-2.51,9.62-4.12,16l-2.82.2c.11-.6.17-.89.28-1.49a16.29,16.29,0,0,0,.27-3.74c-.23-3.35-4.36-4.78-12.35-4.11a49.63,49.63,0,0,0-22.22,7,35.55,35.55,0,0,0-13.8,15.73,36.93,36.93,0,0,0-3.1,20.75c.81,6,3.34,10.62,7.52,13.77s9.35,4.35,15.56,3.68a27.37,27.37,0,0,0,17.29-8.43c4.73-4.9,6.92-10.34,6.45-16.38-.53-6.79-5.88-9.84-16-8.87l-2,.2C860.12,564.25,860.07,563.77,860,562.82Z" transform="translate(47.64 -195.29)"/><path class="cls-6" d="M945.35,531.29c-1,11.4-7.38,22.39-12.08,32.53-7.16,15.43-18.16,33.66-19.43,49.77-.14,1.85.88,2.89,2.64,2.75q2-.15,7.12-4.14l.83-.61,1.38,1.69c-7.41,6.41-12.71,9.76-16.19,9.91-2.78.13-4.27-1.66-4.45-5.37-.14-2.87.61-7,2.35-12.2,3.76-11.25,8.54-22.25,13.16-33.23,2.63-6.13,4-9.19,6.7-15.3,4.13-9.15,6.28-14.46,6.26-16,0-1.19-.82-1.78-2.4-1.75a22.3,22.3,0,0,0-4,.93q-.39.15-1.14.36c-.33-.76-.49-1.14-.81-1.91l1.14-.42C935.17,535.22,941.53,532.93,945.35,531.29Z" transform="translate(47.64 -195.29)"/><path class="cls-6" d="M974.75,612.89l1.2,1.77c-5,3.31-11.8,5.84-20.27,7.73.29-4.47,3.12-12.14,8.8-22.94a125.68,125.68,0,0,1-19,16.51c-6.38,4.42-11.35,6.71-15.06,6.77-3.24.07-4.92-1.86-5-5.79-.17-6.68,3-14,9.17-21.84,6.08-7.66,15.8-15.38,24.69-19.11,11.91-5,21.57-7.48,34.15-7.36,1.51,0,2.34.67,2.28,1.73-.05.88-.89,2.51-2.5,4.91a58.89,58.89,0,0,0-9.69-1.28,51.55,51.55,0,0,0-38.72,14.89c-7.75,7.71-11.51,15.42-11.4,23,.05,3.54,1.46,5.28,4.21,5.25,2.34,0,5.67-2,10.1-5.77a77.06,77.06,0,0,0,12.08-13.19,66.37,66.37,0,0,0,10.58-21.53c2.08,1.21,3.06,3.37,3,6.46-.14,4.29-2.69,9.14-7.51,14.6a43.11,43.11,0,0,0,8.6-1.61l-.62,1.1c-4.86,9.27-7.19,14.73-7.23,16.32,0,1.28.58,1.9,1.85,1.84S971.69,614.46,974.75,612.89Z" transform="translate(47.64 -195.29)"/><path class="cls-6" d="M1034.82,572.24c-1.34,2.56-2,3.83-3.33,6.4a25.84,25.84,0,0,0-4.87-1c-5.69-.54-12.14,2.87-19.1,10.25A61.73,61.73,0,0,0,999,599.61a180,180,0,0,0-9,19.74c-.35.88-.53,1.32-.89,2.21a73.53,73.53,0,0,0-8.73,1.84l.85-2c2.72-6.1,4.11-9.14,6.92-15.21,6.68-14.63,10.34-23.21,10.51-25.86a1.79,1.79,0,0,0-1.86-2.17c-.73-.05-2.41.45-5,1.51l-.85-2.11a137.4,137.4,0,0,0,19.17-8.82,9.05,9.05,0,0,1,.14,2.21c-.26,3.39-2.4,8.93-6.28,16.64l1.87-1.73c7.3-6.54,16.8-14.69,25.67-14.86A7.09,7.09,0,0,1,1034.82,572.24Z" transform="translate(47.64 -195.29)"/><path class="cls-6" d="M1052.05,572.32l-.09.72c-.51,4.13-4.62,11.9-11.93,23.45-2.63,4.19-3.93,6.29-6.5,10.51-3.43,5.64-5.23,9.15-5.43,10.44s.55,2.07,2.18,2.16a17.15,17.15,0,0,0,4.77-.89l.7,2c-7.68,2.49-13.71,4.3-18.18,5.32a42.34,42.34,0,0,1,3.17-11.27,150.62,150.62,0,0,1,9.52-16.65c6.22-9.83,9.6-15.64,9.9-17.37a1.69,1.69,0,0,0-1.68-2.25,9.05,9.05,0,0,0-2.55.19l-3.18.67c-.2,0-.68.13-1.44.33-.21-.88-.32-1.32-.53-2.19l1.59-.31q8.45-1.87,17.34-4.22ZM1058.5,556q3.46.45,3.07,3.48a4.13,4.13,0,0,1-2,2.89,5.07,5.07,0,0,1-3.65.93q-3.53-.43-3.15-3.46a4.12,4.12,0,0,1,1.92-2.91A5.27,5.27,0,0,1,1058.5,556Z" transform="translate(47.64 -195.29)"/><path class="cls-6" d="M1109.34,583.35a237,237,0,0,0-16.83,22.33c-6.62,9.75-10,15.55-10.38,17.27-.29,1.33.4,2.15,2,2.43a18.82,18.82,0,0,0,5.73-.35c.24.77.35,1.16.59,1.92-3.68,1.06-9.64,2.29-17.82,3.87l-2,.36a97,97,0,0,1,10.64-21.68,128.11,128.11,0,0,1-19.75,14.12c-6,3.28-10.59,4.74-14,4.3-3-.38-4.39-2.07-4-5.11.44-3.64,4.16-10.81,11.51-21.35,2.87-4.13,4.31-6.18,7.24-10.28,2.26-3.17,3.56-5.49,3.87-7s-.43-2.28-2.19-2.52a18.63,18.63,0,0,0-4.2.23c-.13-.82-.2-1.23-.33-2l1.22-.17c7.09-.88,13.07-1.8,17.91-2.84-.54,3.49-3.64,8.89-9.1,16.27-3.2,4.31-4.79,6.47-7.92,10.8-6,8.32-9,13.54-9.29,15.55s.51,3,2.28,3.18c4.51.61,11.41-3,20-10.68a166,166,0,0,0,23.22-26.14c.53-.77.79-1.16,1.32-1.92A44.25,44.25,0,0,0,1109.34,583.35Z" transform="translate(47.64 -195.29)"/><path class="cls-6" d="M1147.51,591.3l-1.1,1-4.8,4.46q-2.53,2.41-5.27,4.78l-1,.85-1.54-1.5c.34-.42.59-.73.73-.93a10.28,10.28,0,0,0,2.41-3.6c.38-1.64-1.06-2.83-4.3-3.55a11.46,11.46,0,0,0-8.39,1.27,9.06,9.06,0,0,0-4.76,6.15,11.76,11.76,0,0,0,.4,5.24c.81,3,1.21,4.44,2,7.41a16.52,16.52,0,0,1,.1,7.76c-1.13,5.23-5.31,9.5-12.38,12.92-6.1,2.95-11.15,4.07-15.22,3.32a9.84,9.84,0,0,1-5.47-2.72,5.19,5.19,0,0,1-1.52-4.68,11.79,11.79,0,0,1,2.72-5.66c2.06,5.13,5.17,8.08,9.41,8.89a13.89,13.89,0,0,0,9.55-1.49c3-1.65,4.85-3.88,5.44-6.74a12.46,12.46,0,0,0-.32-5.49c-1-3.7-1.46-5.54-2.46-9.24a12.56,12.56,0,0,1-.12-5.7c.72-3.6,3.72-7.21,9.09-10.75a27.43,27.43,0,0,1,10.29-4.28,30.31,30.31,0,0,1,11.66.76A35.85,35.85,0,0,1,1147.51,591.3Z" transform="translate(47.64 -195.29)"/><path class="cls-1" d="M1069,495.64l-.87,0a18.64,18.64,0,0,1-12.81-6.33,19.83,19.83,0,0,1-5-14.59V307.81h37.65V474.67a19.77,19.77,0,0,1-5.4,14.91A18.79,18.79,0,0,1,1069,495.64Z" transform="translate(47.64 -195.29)"/><path d="M1087.41,308.31V474.73a19.28,19.28,0,0,1-5.26,14.51,18.3,18.3,0,0,1-13.19,5.9l-.84,0a18.18,18.18,0,0,1-12.47-6.16,19.35,19.35,0,0,1-4.89-14.23V308.31h36.65m1-1h-38.65V474.67c-.74,11.38,8,20.92,18.31,21.45l.89,0c10.65,0,20.17-9.64,19.45-21.47V307.31Z" transform="translate(47.64 -195.29)"/><polygon class="cls-2" points="1116.72 2.04 1088.22 115.05 1145.22 115.05 1116.72 2.04"/><rect class="cls-2" x="712.63" y="208.2" width="111.85" height="43.1"/></svg>