<svg id="Ebene_1" data-name="Ebene 1" xmlns="http://www.w3.org/2000/svg" viewBox="0 0 2018.08 576.26"><defs><style>.cls-1{fill:#b3b3b3;}.cls-1,.cls-2,.cls-3,.cls-4,.cls-8{stroke:#000;}.cls-1,.cls-2,.cls-3,.cls-4,.cls-5,.cls-7,.cls-8{stroke-miterlimit:10;}.cls-2{fill:none;stroke-width:5px;}.cls-3{fill:#676766;}.cls-4{fill:#7d4e25;}.cls-5{fill:#cbbba0;}.cls-5,.cls-7{stroke:#1d1d1b;}.cls-6{fill:#938b76;}.cls-7{fill:#575756;}.cls-9{fill:#fff;}</style></defs><polygon class="cls-1" points="851.97 7.74 641.97 260.62 1061.97 260.62 851.97 7.74"/><polygon class="cls-1" points="1131.78 0.78 921.78 253.66 1341.78 253.66 1131.78 0.78"/><path class="cls-2" d="M915.25,427.4a43,43,0,0,0,22.36,14.4c23,5.73,41.22-11.67,42.44-12.88" transform="translate(48.68 -249.06)"/><rect class="cls-3" x="879.66" y="143.73" width="61.14" height="37.89"/><rect class="cls-3" x="1022.77" y="172.85" width="114.59" height="61.39"/><rect class="cls-3" x="851.97" y="169.25" width="114.59" height="61.39"/><rect class="cls-4" x="705.97" y="246.94" width="620" height="32.71"/><g id="Fahne"><path class="cls-5" d="M722.57,608.94a137.34,137.34,0,0,0-22.25-55C590,584.79,485.43,689.53,350.13,711.52,214,733.64,82.17,648.91-47.68,675.28c-.17,1.57-.32,3.25-.47,4.94a905.49,905.49,0,0,1,94.8,15.42,908.33,908.33,0,0,1,171.41,55.68,418.13,418.13,0,0,0-247.94,25.5c.9,1.83,1.79,3.62,2.68,5.3,123.31-48.49,257.5,62.23,397.06,39.61A370,370,0,0,0,436,804.32c.44-.81.91-1.54,1.34-2.39a89.45,89.45,0,0,0,9-29.55,173.36,173.36,0,0,1,13.23,22.74c96.05-40.47,177.64-109.39,261.28-134.3A132.42,132.42,0,0,0,722.57,608.94Z" transform="translate(48.68 -249.06)"/><path class="cls-6" d="M436.14,799.78a81.93,81.93,0,0,0,4.44-12c1.07-3.52,1.61-5.33,2.15-7.79.61-2.78,1-5.17,1.18-7-15.11,9.3-43.38,22.4-81.17,27.29a146,146,0,0,1-60-4.19S111.36,741.47,54.48,752.83c-22.76,4.54-45.12,11-45.12,11-15.57,4.51-28.47,9-37.87,12.47a14.12,14.12,0,0,0,.81,2.36,13.33,13.33,0,0,0,1.48,2.54c1.85-1.32,22.56-10.57,39.69-12,24.73-2.09,44.36-2,61,0,11.45,1.35,19.21,3,33.52,6,21,4.4,36.72,8.83,60.17,15.5s24.34,7.42,41.21,11.89c20.17,5.34,35.68,8.69,41.16,9.85,29.93,6.34,46.1,9.76,66.37,10.59h0c19.49.42,31.1-.38,40.12-1.69,4.88-.71,8-.94,11.34-1.52,9.8-1.69,10.78-2.14,16.31-3.18,3.2-.6,8-1.81,17.58-4.24,9.2-2.32,13.9-3.51,18.55-5s8.94-2.94,13.64-4.72C434.79,802,435.85,800.46,436.14,799.78Z" transform="translate(48.68 -249.06)"/><path class="cls-6" d="M489.3,779.09c13-6.25,23.4-11.73,31-15.83,28.29-15.34,42.24-26,75.13-44.32,27.79-15.51,53.16-35,123.69-60.36,2.35-7.74,3.18-19.43,3.1-33.68a99.27,99.27,0,0,0-1.69-15.53c-4.27-26.26-13.34-45.52-20.19-55.39C594.48,672.32,513,737.47,448.07,770.92c3.85,7.18,8.7,14.13,12.54,21.31C468.39,789,477.55,784.72,489.3,779.09Z" transform="translate(48.68 -249.06)"/><path class="cls-5" d="M1702.65,751.32a905,905,0,0,1,266.2-71.1c-.14-1.69-.29-3.37-.46-4.94-129.85-26.37-261.64,58.36-397.81,36.24-9.53-1.55-18.88-3.55-28.12-5.86-.71,1.65-1.41,3.3-2.21,5A172.58,172.58,0,0,1,1526,735.54a89.69,89.69,0,0,0-9-29.55,88.55,88.55,0,0,0-5.74-9.6C1403.54,659.53,1314,580.13,1220.38,554a137.63,137.63,0,0,0-22.25,55,132.58,132.58,0,0,0,1.77,51.88c108.44,32.29,213.4,138.62,350.95,160.91,139.56,22.62,273.75-88.1,397.06-39.61.88-1.68,1.78-3.47,2.68-5.3a418.13,418.13,0,0,0-247.94-25.5Z" transform="translate(48.68 -249.06)"/><path class="cls-6" d="M1866.24,752.57c22.75,4.54,45.11,11,45.11,11,15.57,4.51,28.48,9,37.87,12.47a14.12,14.12,0,0,1-.81,2.36,12.82,12.82,0,0,1-1.48,2.54c-1.85-1.32-22.56-10.57-39.69-12-24.73-2.09-44.36-2-61,0-11.44,1.36-19.21,3-33.52,6-21,4.4-36.71,8.83-60.17,15.5s-24.34,7.43-41.21,11.89c-20.16,5.34-35.68,8.69-41.16,9.85-29.93,6.34-46.09,9.76-66.36,10.59h0c-19.49.42-31.1-.38-40.11-1.69-3.49-.51-5.89-1-10.71-1.95-2.59-.48-23.07-4.34-34.53-7-21.83-5.05-38.94-12.19-58.15-20.22-11-4.59-20.35-9-28.89-13-46.48-22.18-55.65-32-106.12-60.15-27.79-15.51-53.16-34.94-123.69-60.36-2.35-7.74-3.18-19.43-3.1-33.68a99.27,99.27,0,0,1,1.69-15.53c4.27-26.25,13.34-45.52,20.19-55.39C1429.25,787.24,1547.72,816,1618,795.89,1618,795.89,1809.35,741.21,1866.24,752.57Z" transform="translate(48.68 -249.06)"/><path class="cls-7" d="M1359.23,532.54c17.62,27.47,22,77.79,26.72,96.62-38.22,2.73-74.6,11.29-162.41,19.75" transform="translate(48.68 -249.06)"/><path class="cls-7" d="M1188.52,512.72" transform="translate(48.68 -249.06)"/><path class="cls-7" d="M562,532.54c-17.62,27.47-22.75,87.11-27.51,105.94,38.23,2.73,89.8,5.93,163.2,10.43" transform="translate(48.68 -249.06)"/><path class="cls-7" d="M732.74,512.72" transform="translate(48.68 -249.06)"/></g><path class="cls-5" d="M1391.47,656.43c-112.69-20.47-256.61-37.79-428.95-38-174.15-.19-322.7,17.8-432.91,38a244,244,0,0,1,0-133.85c55.54-16.87,254.85-64.82,430.6-64.86,176.07,0,371.51,43.26,431.26,64.86a177,177,0,0,1,0,133.85Z" transform="translate(48.68 -249.06)"/><text x="48.68" y="-249.06"/><path class="cls-1" d="M866.09,256.8" transform="translate(48.68 -249.06)"/><path class="cls-8" d="M938,489c-2,6.18-3,9.28-4.89,15.48l-2.37-.31c.12-.45.17-.67.29-1.12a8.88,8.88,0,0,0,.41-2.47c0-2-1.85-3-5.42-2.93-4.69.12-9.09,2.43-13.12,6.94s-7,10.39-8.87,17.65a193.79,193.79,0,0,0-3.63,21.15c-1.31,9.93-1.83,16.15-1.68,18.64q.18,3,2.92,2.82a15.36,15.36,0,0,0,5.45-1.93l1.17,1.76c-1.72.79-4.71,2.11-9,4q-4.86,2.17-8.51,4.15c-.25-3.51.13-10.09,1.17-19.67,1-9.38,2.4-18.87,4.25-28.14l-2.08,2.77c-1.69,2.3-4.29,5.8-7.74,10.52-4.89,6.73-7.29,10.12-12,16.92s-7.11,10.34-11.66,17.29l-1.12,1.77-1.59-.89a17.16,17.16,0,0,0,1.21-8.09c-.47-4.31-2.21-10.82-5.32-19.51-1.11-3.06-1.67-4.59-2.8-7.65a10.22,10.22,0,0,1-.45-1.24c-7.69,11.7-15.64,23.68-26,32.39-7.83,6.55-16.87,12.89-27.56,14.83a44,44,0,0,1-18.28-.41A35.65,35.65,0,0,1,765.38,576a31.13,31.13,0,0,1-9.77-16.6,27.71,27.71,0,0,1,4.82-24c5.28-7.09,16.2-12.52,24.62-13.91a45.27,45.27,0,0,1,17.73.15c5.5,1.31,12.83,4.39,21.8,9.38,3.37,1.91,5.79,2.77,7.27,2.56,1.78-.24,4.52-1.69,8.28-4.3l1.47,1.58c-5.88,4-8.79,6.08-14.53,10.22l-1.81-1.16a90.5,90.5,0,0,0-24.67-11.57c-8-2.22-15.06-2.68-21.2-1.45-7.85,1.59-13.69,5.09-17.43,10.37s-4.72,11.45-3.08,18.45c2,8.74,7.29,15,15.06,19s19.64,4.56,27.82,2.92c8.87-1.77,19.78-7.42,26.51-13.62A128.62,128.62,0,0,0,851.82,534a59.6,59.6,0,0,1-2.41-10.39,45.72,45.72,0,0,1,2.65-21.3c2.63-7.17,5.78-10.94,9.34-11.29s5.52,2.18,6,7.54c.33,3.47-.34,7.54-1.94,12.22A141.68,141.68,0,0,1,857.22,529c.68,2,2,5.44,3.86,10.31a141,141,0,0,1,6.71,21.81l1.68-2.58c1.4-2,2.11-3.06,3.53-5.1q12.81-18.24,26.32-35.92a197.79,197.79,0,0,1,14.47-17.09,43.27,43.27,0,0,1,9.94-7.46A30.63,30.63,0,0,1,938,489Zm-81.64,36.36a71.43,71.43,0,0,0,4.78-13,32.27,32.27,0,0,0,1.28-10.79c-.3-3-1.59-4.38-3.87-4.14q-2.6.27-3.87,5.39a34.71,34.71,0,0,0-.49,12A68.06,68.06,0,0,0,856.39,525.39Z" transform="translate(48.68 -249.06)"/><path class="cls-8" d="M939.69,520.24v.65c0,3.67-2.53,11-7.38,21.9-1.74,4-2.6,6-4.29,9.94-2.25,5.33-3.39,8.6-3.41,9.76s.69,1.75,2.07,1.64a13.8,13.8,0,0,0,3.91-1.32l.81,1.68c-6.17,3-11,5.31-14.7,6.71A39.36,39.36,0,0,1,918.14,561a139,139,0,0,1,6.17-15.65c4.14-9.31,6.32-14.78,6.38-16.33,0-1.2-.49-1.81-1.66-1.78a7.21,7.21,0,0,0-2.11.46l-2.59.94q-.24.07-1.17.45c-.27-.74-.4-1.11-.68-1.86l1.3-.45q6.86-2.6,14-5.67Zm3.57-15c2,0,3,.89,3,2.68a3.75,3.75,0,0,1-1.3,2.76A4.2,4.2,0,0,1,942,511.9c-2,0-3-.87-3-2.67a3.72,3.72,0,0,1,1.28-2.76A4.26,4.26,0,0,1,943.26,505.22Z" transform="translate(48.68 -249.06)"/><path class="cls-8" d="M980.35,522.49c-1,2.33-1.49,3.5-2.48,5.83a21.33,21.33,0,0,0-4.15-.61c-4.82-.15-10.08,3.2-15.59,10.08a54.91,54.91,0,0,0-6.61,10.79,164.76,164.76,0,0,0-6.65,17.86c-.26.8-.39,1.2-.64,2a60.14,60.14,0,0,0-7.32,2c.25-.7.37-1.06.63-1.76,2-5.51,3-8.27,5.13-13.76,4.94-13.24,7.6-21,7.6-23.33,0-1.21-.55-1.82-1.67-1.82a13.37,13.37,0,0,0-4.15,1.58l-.82-1.81a112.14,112.14,0,0,0,15.72-8.77,8.15,8.15,0,0,1,.23,1.93c-.05,3-1.57,8-4.47,15l1.5-1.63c9.69-9.89,16.82-14.65,20.88-14.51A6.61,6.61,0,0,1,980.35,522.49Z" transform="translate(48.68 -249.06)"/><path class="cls-8" d="M1008.17,563.64l1,1.6c-4.41,2.76-10.24,4.76-17.5,6.12.41-3.93,3.12-10.6,8.34-19.93a105.54,105.54,0,0,1-16.74,13.87c-5.59,3.66-9.9,5.48-13.05,5.39q-4.14-.12-4-5.32c.14-5.9,3-12.23,8.67-18.9a64.52,64.52,0,0,1,21.63-15.92c8.22-3.88,19.95-6.33,29.12-5.36,1.32.14,2,.66,1.87,1.59s-.85,2.2-2.29,4.26a48.52,48.52,0,0,0-8.14-1.43,43,43,0,0,0-33.3,11.79c-6.85,6.5-10.36,13.15-10.58,19.82-.1,3.13,1,4.72,3.36,4.81,2,.07,4.89-1.51,8.79-4.71A65.78,65.78,0,0,0,996,550.13a59.35,59.35,0,0,0,9.77-18.62c1.71,1.14,2.46,3.08,2.26,5.8-.28,3.78-2.62,8-6.9,12.62a34.21,34.21,0,0,0,7.33-1.13c-.22.38-.33.58-.56,1-4.46,8-6.65,12.74-6.74,14.15q-.12,1.7,1.5,1.68C1003.69,565.59,1005.51,564.93,1008.17,563.64Z" transform="translate(48.68 -249.06)"/><path class="cls-8" d="M1052.19,528.11l-1,1.64c-3.51-.44-5.27-.65-8.78-1-.25.37-.37.56-.61.93-1,1.47-3.63,5.76-7.85,12.94l-7.14,12.11c-3.53,6-5.36,9.87-5.51,11.54s.63,2.59,2.37,2.75c2.1.2,5.07-.72,9-2.74l.79,1.62a38.32,38.32,0,0,1-8.58,3.71,21.47,21.47,0,0,1-7.67,1.17q-4.42-.39-4.14-3.82c.13-1.64,2.15-6.1,6.2-13.35,3-5.31,4.52-8,7.6-13.24,4.31-7.47,6.9-11.83,7.63-13.13.3-.51.45-.77.76-1.28-3.27-.34-4.9-.5-8.17-.82.42-.66.62-1,1-1.66l.81.08c3.59.35,6,.08,7.39-.84s3.34-3.69,6-8.3c.63.11,1,.18,1.26.2a27.56,27.56,0,0,0,6.09,0c-.6,1.07-1.65,2.81-3.12,5.23-1,1.59-1.43,2.38-2.37,4l-.78,1.27C1046.91,527.45,1048.67,527.66,1052.19,528.11Z" transform="translate(48.68 -249.06)"/><path class="cls-8" d="M1077.94,572.05l.82,1.68c-4.64,2.35-10.64,3.84-18,4.55.76-3.88,4-10.28,10.08-19.12a106.23,106.23,0,0,1-17.93,12.34c-5.9,3.16-10.36,4.59-13.5,4.22q-4.11-.48-3.54-5.65c.66-5.86,4-11.92,10.31-18.06a64.41,64.41,0,0,1,23-14c8.55-3.15,20.48-4.54,29.55-2.77,1.31.26,1.9.83,1.73,1.75s-1,2.11-2.66,4a47.89,47.89,0,0,0-8-2.14,43.17,43.17,0,0,0-34.28,8.8c-7.41,5.87-11.49,12.19-12.29,18.82-.37,3.1.6,4.79,2.93,5.08,2,.25,5-1.07,9.19-3.91a66.11,66.11,0,0,0,11.7-10.2,59.12,59.12,0,0,0,11.39-17.69c1.61,1.28,2.19,3.28,1.75,6-.61,3.74-3.31,7.7-8,12a34.51,34.51,0,0,0,7.43-.48c-.26.36-.39.54-.64.91-5.16,7.58-7.76,12.11-8,13.49-.18,1.13.28,1.73,1.35,1.82S1075.18,573.1,1077.94,572.05Z" transform="translate(48.68 -249.06)"/><path class="cls-8" d="M1123.39,581.4c.24.7.36,1.05.59,1.76a47.14,47.14,0,0,1-18,3.29c3.73-9.81,10.73-18.48,17.57-26.28,2.19-2.49,3.29-3.73,5.51-6.21,1.88-2.14,2.91-3.55,3.07-4.24.23-1-.1-1.64-1-1.84-1.26-.29-4,.5-8,2.42a77.62,77.62,0,0,0-12.17,7.14,83.86,83.86,0,0,0-22,23,48.75,48.75,0,0,0-8.26,1.4q7.23-9.95,15.33-22.41c5.42-8.32,8.38-13.26,8.7-14.91.26-1.38-.2-2.18-1.38-2.41a19.84,19.84,0,0,0-4.16.11l-.71,0c0-.76,0-1.15,0-1.91a152.27,152.27,0,0,0,16.61-2.16l.88-.18a7.47,7.47,0,0,1-.09,1.06c-.7,3.41-4.91,10.09-12.33,20.19-.48.62-.71.93-1.18,1.56l1.23-.9a115.68,115.68,0,0,1,21.85-13.1c6.55-2.87,11.48-3.88,14.68-3.13,2,.47,2.78,1.66,2.33,3.56s-4.58,7.17-12,15.66c-8.91,10.13-13.36,16-13.67,17.48a1.46,1.46,0,0,0,1.22,2c1.17.26,2.9,0,5.22-.82Z" transform="translate(48.68 -249.06)"/><path class="cls-9" d="M803.52,256.8l-25.72,31c-7.24,26-6.71,34.25-3.86,35.62,5.66,2.7,18.38-22.69,36.31-21,8.85.85,14,7.84,18,5.36s2.75-12.2,1-20Q816.38,272.28,803.52,256.8Z" transform="translate(48.68 -249.06)"/><path class="cls-9" d="M1083.07,249.84l-25.73,31c-7.23,26-6.71,34.26-3.85,35.62,6.55,3.13,24.83-25.67,36.31-21,6.34,2.6,7.69,14.25,11.49,13.69,2.56-.38,2.09-5.64,6.55-8.33,4.73-2.85,9.7.39,11.27-1.52,1.27-1.57-.1-6.11-10.31-18.5Q1095.93,265.34,1083.07,249.84Z" transform="translate(48.68 -249.06)"/></svg>