<svg id="Ebene_1" data-name="Ebene 1" xmlns="http://www.w3.org/2000/svg" viewBox="0 0 2018.08 589.73"><defs><style>.cls-1{fill:#676766;}.cls-1,.cls-2,.cls-3,.cls-7{stroke:#000;}.cls-1,.cls-2,.cls-3,.cls-4,.cls-6,.cls-7{stroke-miterlimit:10;}.cls-3{fill:#7d4e25;}.cls-4{fill:#cbbba0;}.cls-4,.cls-6{stroke:#1d1d1b;}.cls-5{fill:#938b76;}.cls-6{fill:#575756;}.cls-7{fill:#b3b3b3;}</style></defs><polygon class="cls-1" points="1188.46 79.32 833.77 79.32 933.77 0.5 1088.46 0.5 1188.46 79.32"/><polygon class="cls-1" points="1371.18 321.48 651.06 321.48 711.06 55.83 1311.18 55.83 1371.18 321.48"/><rect class="cls-2" x="1205.43" y="132.37" width="53.05" height="144.76"/><rect class="cls-2" x="773.47" y="132.37" width="53.05" height="144.76"/><rect class="cls-2" x="876.52" y="132.37" width="278.91" height="153.09"/><rect class="cls-3" x="705.97" y="260.41" width="620" height="32.71"/><g id="Fahne"><path class="cls-4" d="M722.57,772.21a137.33,137.33,0,0,0-22.25-55C590,748.05,485.43,852.79,350.13,874.78,214,896.91,82.17,812.17-47.68,838.54c-.17,1.57-.32,3.25-.47,4.94a905.49,905.49,0,0,1,94.8,15.42,909.05,909.05,0,0,1,171.41,55.68,418.13,418.13,0,0,0-247.94,25.5c.9,1.83,1.79,3.62,2.68,5.31,123.31-48.5,257.5,62.23,397.06,39.61A370,370,0,0,0,436,967.58c.44-.81.91-1.53,1.34-2.39a89.38,89.38,0,0,0,9-29.55,174,174,0,0,1,13.23,22.74C555.58,917.91,637.17,849,720.81,824.09A132.42,132.42,0,0,0,722.57,772.21Z" transform="translate(48.68 -398.86)"/><path class="cls-5" d="M436.14,963a81.93,81.93,0,0,0,4.44-12c1.07-3.52,1.61-5.33,2.15-7.79.61-2.78,1-5.17,1.18-7-15.11,9.3-43.38,22.4-81.17,27.29a146,146,0,0,1-60-4.19S111.36,904.73,54.48,916.09c-22.76,4.54-45.12,11-45.12,11-15.57,4.5-28.47,9-37.87,12.46a14.12,14.12,0,0,0,.81,2.36,13.33,13.33,0,0,0,1.48,2.54c1.85-1.32,22.56-10.57,39.69-12,24.73-2.09,44.36-2,61,0,11.45,1.35,19.21,3,33.52,6,21,4.4,36.72,8.83,60.17,15.5s24.34,7.43,41.21,11.89c20.17,5.34,35.68,8.69,41.16,9.85,29.93,6.34,46.1,9.76,66.37,10.59h0c19.49.42,31.1-.37,40.12-1.69,4.88-.71,8-.94,11.34-1.52,9.8-1.69,10.78-2.13,16.31-3.18,3.2-.6,8-1.81,17.58-4.23,9.2-2.33,13.9-3.51,18.55-5s8.94-2.94,13.64-4.71C434.79,965.3,435.85,963.73,436.14,963Z" transform="translate(48.68 -398.86)"/><path class="cls-5" d="M489.3,942.35c13-6.24,23.4-11.72,31-15.83,28.29-15.33,42.24-25.95,75.13-44.32,27.79-15.51,53.16-34.94,123.69-60.36,2.35-7.74,3.18-19.43,3.1-33.67a99.27,99.27,0,0,0-1.69-15.54c-4.27-26.25-13.34-45.51-20.19-55.39C594.48,835.59,513,900.73,448.07,934.18c3.85,7.18,8.7,14.13,12.54,21.31C468.39,952.21,477.55,948,489.3,942.35Z" transform="translate(48.68 -398.86)"/><path class="cls-4" d="M1702.65,914.58a905,905,0,0,1,266.2-71.1c-.14-1.69-.29-3.37-.46-4.94-129.85-26.37-261.64,58.37-397.81,36.24-9.53-1.55-18.88-3.55-28.12-5.86-.71,1.65-1.41,3.3-2.21,5A173.12,173.12,0,0,1,1526,898.81a89.69,89.69,0,0,0-9-29.55,87.6,87.6,0,0,0-5.74-9.6C1403.54,822.8,1314,743.39,1220.38,717.24a137.62,137.62,0,0,0-22.25,55,132.58,132.58,0,0,0,1.77,51.88C1308.34,856.37,1413.3,962.7,1550.85,985c139.56,22.62,273.75-88.11,397.06-39.61.88-1.69,1.78-3.48,2.68-5.31a418.13,418.13,0,0,0-247.94-25.5Z" transform="translate(48.68 -398.86)"/><path class="cls-5" d="M1866.24,915.83c22.75,4.54,45.11,11,45.11,11,15.57,4.5,28.48,9,37.87,12.46a14.12,14.12,0,0,1-.81,2.36,12.82,12.82,0,0,1-1.48,2.54c-1.85-1.32-22.56-10.57-39.69-12-24.73-2.08-44.36-2-61,0-11.44,1.35-19.21,3-33.52,6-21,4.41-36.71,8.83-60.17,15.5s-24.34,7.43-41.21,11.9c-20.16,5.33-35.68,8.68-41.16,9.84-29.93,6.34-46.09,9.76-66.36,10.59h0c-19.49.42-31.1-.37-40.11-1.69-3.49-.5-5.89-1-10.71-1.94-2.59-.49-23.07-4.34-34.53-7-21.83-5.05-38.94-12.19-58.15-20.21-11-4.6-20.35-9-28.89-13-46.48-22.19-55.65-32-106.12-60.15-27.79-15.52-53.16-35-123.69-60.37-2.35-7.73-3.18-19.43-3.1-33.67a99.15,99.15,0,0,1,1.69-15.53c4.27-26.26,13.34-45.52,20.19-55.39C1429.25,950.5,1547.72,979.23,1618,959.15,1618,959.15,1809.35,904.48,1866.24,915.83Z" transform="translate(48.68 -398.86)"/><path class="cls-6" d="M1359.23,695.8c17.62,27.48,22,77.79,26.72,96.63-38.22,2.72-74.6,11.28-162.41,19.74" transform="translate(48.68 -398.86)"/><path class="cls-6" d="M1188.52,676" transform="translate(48.68 -398.86)"/><path class="cls-6" d="M562,695.8c-17.62,27.48-22.75,87.11-27.51,106,38.23,2.72,89.8,5.93,163.2,10.42" transform="translate(48.68 -398.86)"/><path class="cls-6" d="M732.74,676" transform="translate(48.68 -398.86)"/></g><path class="cls-4" d="M1391.47,819.7c-112.69-20.48-256.61-37.8-428.95-38-174.15-.18-322.7,17.81-432.91,38a244,244,0,0,1,0-133.86C585.15,669,784.46,621,960.21,621c176.07,0,371.51,43.26,431.26,64.85a177,177,0,0,1,0,133.86Z" transform="translate(48.68 -398.86)"/><text x="48.68" y="-398.86"/><path class="cls-7" d="M866.09,420.06" transform="translate(48.68 -398.86)"/><path class="cls-2" d="M936.89,661.45c-1.79,6.24-2.67,9.36-4.39,15.6l-2.31-.31c0-.45.08-.67.14-1.12a22.53,22.53,0,0,0,.39-4.18c-.08-1.64-1.06-2.8-3-3.47s-4.93-.87-9-.67c-10,.49-19.74,5.07-25.3,13.57-5.93,9.08-8,19.47-9.7,30,1,.53,1.82.94,2.35,1.24,6,3,9.76,5.41,11.41,7.07a10.78,10.78,0,0,1,2.85,7,22.34,22.34,0,0,1-2.77,12.38c-2.17,4.13-4.54,6.32-7.17,6.58s-5-.9-6.94-3.48-3.16-6.21-3.66-10.87a64.26,64.26,0,0,1-.09-13.36l-1.89-1c-2.3-1.19-3.46-1.78-5.77-3-5.53-2.79-12.16-6.35-20-10.6l-1.24-.72q-2.7,14.38-7.1,23.16a74.59,74.59,0,0,1-16.55,22c-6.5,5.79-13.29,9.39-20.55,10.85-8.69,1.75-16.33.73-23.11-3.15a26.78,26.78,0,0,1-13.11-17.78c-1.92-8-.63-15.22,4-21.56s12-10.45,21.31-12.46c10.89-2.35,20.87,1.34,30.8,5.42,3,1.52,5.1,2.19,6.46,2q1.71-.27,5.35-3.27l1.07-.87L841,708l-1,.86q-2,1.78-4.44,3.82l-5,4.3-1.25,1.16c-12.16-7.06-24-12.65-38.38-9.71-6.53,1.33-11.56,4.41-15,9.07A18.12,18.12,0,0,0,773,733a24.48,24.48,0,0,0,13.28,16.79c7,3.63,15,4.51,24.08,2.74a35.61,35.61,0,0,0,16.55-8.09A47,47,0,0,0,839,728.18c4.11-8.89,5.7-18.85,7.52-28.43-1-.63-1.58-1-2.64-1.57a198.71,198.71,0,0,1-19.05-12.41c-5.12-3.87-7.89-6.68-8.2-8.49-.2-1.19.53-4.13,2.27-8.82.85-2.35,1.28-3.53,2.15-5.88l2.46.43q-1.69,5.09-1.36,7.11c.32,1.92,2.91,4.76,7.69,8.55a179.36,179.36,0,0,0,18.05,12.25c.62-6,3.1-10.27,7.44-12.76q-1.45,5.79-3,15.52c.45.27.67.4,1.11.68,8.45,5,17.22,9.59,25.88,14.25l1.39.79c3.21-13,6.8-25.72,15.57-36.06,6.33-7.47,18.9-12.6,28.42-12.82A63.64,63.64,0,0,1,936.89,661.45Zm-54,57.44a49.38,49.38,0,0,0,.22,6.81C884.21,736,887,741,891.43,740.54a5,5,0,0,0,3.9-2.54,8.91,8.91,0,0,0,1.12-5.57,10.21,10.21,0,0,0-3.07-6.49C891.56,724.11,888.09,721.74,882.92,718.89Z" transform="translate(48.68 -398.86)"/><path class="cls-2" d="M963.17,693.37A220,220,0,0,0,953,715.61c-3.87,9.58-5.73,15.18-5.75,16.73,0,1.2.68,1.8,2.08,1.76a15.19,15.19,0,0,0,4.68-1.28l.81,1.57c-2.87,1.54-7.61,3.63-14.14,6.37l-1.58.64a88.68,88.68,0,0,1,5.28-20.58,107.17,107.17,0,0,1-14.08,15.54c-4.41,3.83-8,5.86-11,6-2.6.16-4-1.09-4.17-3.78-.22-3.24,1.74-10.06,6.14-20.41,1.72-4,2.59-6.06,4.35-10.09,1.35-3.13,2.05-5.35,2.07-6.68s-.72-1.9-2.21-1.83a15.21,15.21,0,0,0-3.43.89l-.6-1.72,1-.35c5.71-1.92,10.49-3.71,14.3-5.43.13,3.13-1.54,8.33-4.87,15.63-2,4.27-2.91,6.4-4.8,10.68-3.64,8.2-5.32,13.22-5.21,15s.9,2.47,2.4,2.39c3.85-.22,8.69-4.54,14.84-12.57A107,107,0,0,0,954,697.54l.78-1.89A35.09,35.09,0,0,0,963.17,693.37Z" transform="translate(48.68 -398.86)"/><path class="cls-2" d="M996.12,661.45C993.05,677,984.45,692.06,978,706.37c-.45,1-.67,1.43-1.12,2.39a59.63,59.63,0,0,1,14.82-11c5.38-2.8,10-4.11,13.92-4s5.66,2.14,5.48,5.93c-.19,4.29-2.5,9.18-6.78,14.72a74.64,74.64,0,0,1-15.89,15c-10,6.05-20.22,12.35-32.45,12.38l.79-1.89q9.66-23.07,19.49-46c5.81-13.63,8.92-21.23,9-22.87,0-1.17-.74-1.77-2.29-1.79a16.18,16.18,0,0,0-4.56,1l-.7-1.83C983.25,666.6,989.38,664.27,996.12,661.45ZM964.8,735.84a18.45,18.45,0,0,0,2.44.21c8.76,0,16.59-4.29,23.8-12.84a59.19,59.19,0,0,0,7.39-11.05c2-3.92,3.1-7.1,3.18-9.56q.15-4.11-4-4.24c-4.73-.14-10.55,3.67-17.23,11.11A82.88,82.88,0,0,0,964.8,735.84Z" transform="translate(48.68 -398.86)"/><path class="cls-2" d="M1038.62,718.37a6.49,6.49,0,0,1,.62,3c-.3,3.74-3.34,7.81-9,12.31-8.22,6.59-14.86,9.81-20.21,9.56-4.6-.22-6.8-2.89-6.6-8.08.22-5.86,2.27-11.94,6.28-18.21A47.52,47.52,0,0,1,1025,701.79c7.5-4.62,14.17-6.67,19.83-6.19,3.29.27,4.83,1.55,4.63,3.81-.13,1.48-1.08,3.19-2.83,5.13a26.93,26.93,0,0,1-6.32,5.15,40.34,40.34,0,0,1-8.55,3.59,24.11,24.11,0,0,1-7.8,1.42,4,4,0,0,1-3.79-3.28,35.24,35.24,0,0,0,4.08.6,20.93,20.93,0,0,0,11.54-2.59c3.63-2,5.57-4.26,5.78-6.87q.23-2.8-3.63-3.11c-4.59-.35-9.5,2-14.58,7a46,46,0,0,0-9,12.65,34.23,34.23,0,0,0-3.85,13.19c-.18,4,1.42,6.1,4.82,6.28,3.72.2,7.69-1.59,12-5.35A50.65,50.65,0,0,0,1038.62,718.37Z" transform="translate(48.68 -398.86)"/><path class="cls-2" d="M1085.65,700.69c-1.2,2.23-1.8,3.34-3,5.58a21.72,21.72,0,0,0-4.08-1c-4.78-.59-10.32,2.27-16.43,8.61a55.15,55.15,0,0,0-7.57,10.13,163.11,163.11,0,0,0-8.28,17.17c-.34.77-.5,1.15-.83,1.92a63.37,63.37,0,0,0-7.49,1.37l.8-1.7c2.52-5.3,3.8-7.94,6.39-13.22,6.15-12.72,9.51-20.19,9.74-22.52.11-1.21-.38-1.86-1.5-2a13.55,13.55,0,0,0-4.27,1.19l-.65-1.88a110.29,110.29,0,0,0,16.44-7.28,8.67,8.67,0,0,1,0,1.95c-.32,3-2.3,7.83-5.83,14.53l1.64-1.48c10.55-9,18.08-13.05,22.1-12.54A6.6,6.6,0,0,1,1085.65,700.69Z" transform="translate(48.68 -398.86)"/><path class="cls-2" d="M1100.16,701.05l-.09.64c-.54,3.63-4.2,10.43-10.7,20.49-2.33,3.65-3.49,5.48-5.78,9.15-3.06,4.91-4.69,8-4.9,9.1s.41,1.84,1.8,2a14,14,0,0,0,4.07-.7c.21.72.32,1.08.54,1.79-6.59,2.06-11.76,3.53-15.59,4.33a39.22,39.22,0,0,1,3-9.88,140.74,140.74,0,0,1,8.55-14.49c5.54-8.55,8.54-13.61,8.85-15.14.23-1.18-.21-1.86-1.36-2a7.3,7.3,0,0,0-2.15.12l-2.71.53c-.17,0-.58.11-1.22.26-.15-.78-.23-1.16-.38-1.94l1.35-.24q7.17-1.5,14.73-3.42Zm5.86-14.29q2.91.45,2.49,3.11a3.75,3.75,0,0,1-1.71,2.53,4.24,4.24,0,0,1-3.1.77c-2-.3-2.82-1.33-2.56-3.11a3.73,3.73,0,0,1,1.7-2.53A4.29,4.29,0,0,1,1106,686.76Z" transform="translate(48.68 -398.86)"/><path class="cls-2" d="M1141.57,715.17c-2.13-.62-4-1-5.34-1.34-8.32-1.91-20.6.61-26.66,7.3a45.49,45.49,0,0,0-7.3,9.73,29.32,29.32,0,0,0-3.81,9.69,6.68,6.68,0,0,0,1,4.93,5.67,5.67,0,0,0,4,2.49c4.08.65,9.09-1.82,15.22-7.36s9.76-10.93,10.76-16.27a4.77,4.77,0,0,0-.44-3.21,3.07,3.07,0,0,0-2.18-1.68c-3.25-.59-6.92,1.94-10.9,7.6a8.25,8.25,0,0,1,0-2.08c.41-2.38,2.38-4.63,6-6.69s6.82-2.83,9.63-2.31a6.31,6.31,0,0,1,4.36,3.07,7.71,7.71,0,0,1,.92,5.64c-1.35,6.94-7.5,13.34-18,19.54-9,5.34-15.93,7.75-21,7a7.39,7.39,0,0,1-5.19-3.21,8.56,8.56,0,0,1-1.34-6.29c.76-5.3,3.45-10.57,8.16-15.77a51.11,51.11,0,0,1,17.69-12.44,51.92,51.92,0,0,1,12.51-3.57,32.74,32.74,0,0,1,11-.17c1.81.36,2.57,1.28,2.27,2.78A9.21,9.21,0,0,1,1141.57,715.17Z" transform="translate(48.68 -398.86)"/><path class="cls-2" d="M1176.15,717.27l-.93.92-4.1,4c-1.44,1.43-2.95,2.84-4.5,4.25l-.88.76-1.29-1.32c.3-.37.51-.65.63-.82a9.57,9.57,0,0,0,2.08-3.19c.33-1.45-.87-2.49-3.59-3.1a9.44,9.44,0,0,0-7.11,1.16,8.12,8.12,0,0,0-4.09,5.44,10.63,10.63,0,0,0,.27,4.62c.65,2.61,1,3.91,1.6,6.52a15,15,0,0,1,0,6.84c-1,4.61-4.6,8.4-10.65,11.43-5.22,2.61-9.53,3.6-13,2.93a8.08,8.08,0,0,1-4.61-2.41,4.66,4.66,0,0,1-1.23-4.14,10.81,10.81,0,0,1,2.4-5c1.67,4.53,4.28,7.13,7.86,7.85a11.46,11.46,0,0,0,8.14-1.33,8.82,8.82,0,0,0,4.7-5.95,11.43,11.43,0,0,0-.2-4.84c-.78-3.25-1.17-4.88-2-8.13a11.52,11.52,0,0,1,0-5c.66-3.18,3.24-6.36,7.82-9.5a23.27,23.27,0,0,1,8.74-3.82,24.66,24.66,0,0,1,9.83.59A28.59,28.59,0,0,1,1176.15,717.27Z" transform="translate(48.68 -398.86)"/></svg>