<svg id="Ebene_1" data-name="Ebene 1" xmlns="http://www.w3.org/2000/svg" viewBox="0 0 2018.08 914.9"><defs><style>.cls-1,.cls-2,.cls-5{fill:none;}.cls-1,.cls-2{stroke:#42210b;}.cls-1,.cls-11,.cls-12,.cls-13,.cls-2,.cls-4,.cls-8,.cls-9{stroke-miterlimit:10;}.cls-1{stroke-width:7px;}.cls-2{stroke-width:3px;}.cls-3{fill:#676766;}.cls-4{fill:#016634;}.cls-12,.cls-13,.cls-4,.cls-8{stroke:#000;}.cls-6{fill:#754d24;}.cls-7{fill:#95c121;}.cls-8{fill:#7d4e25;}.cls-9{fill:#cbbba0;}.cls-11,.cls-9{stroke:#1d1d1b;}.cls-10{fill:#938b76;}.cls-11{fill:#575756;}.cls-12{fill:#b3b3b3;}</style></defs><path class="cls-1" d="M669.2,490.33c5.93,5.9,68.06,43.69,131.56,47.14,54.17,2.94,107-18.55,137.2-55.43" transform="translate(48.68 -11.27)"/><path class="cls-2" d="M666,477.08c5.94,5.9,68.06,43.7,131.57,47.15,54.16,2.94,107-18.55,137.2-55.44" transform="translate(48.68 -11.27)"/><rect class="cls-3" x="684.73" y="306.05" width="56" height="371.88"/><path d="M691.55,317.82V688.71h-55V317.82h55m1-1h-57V689.71h57V316.82Z" transform="translate(48.68 -11.27)"/><path class="cls-4" d="M653.05,156.08c-4.67,24.54-10.4,74.35,11.05,129.41a226.69,226.69,0,0,0,32.45,57h-87Z" transform="translate(48.68 -11.27)"/><path class="cls-1" d="M990.72,465.29c4.55,5.9,52.17,43.7,100.84,47.14,41.52,2.94,82-18.55,105.16-55.43" transform="translate(48.68 -11.27)"/><path class="cls-2" d="M988.24,452.05c4.55,5.9,52.17,43.7,100.84,47.14,41.52,2.94,82-18.55,105.16-55.43" transform="translate(48.68 -11.27)"/><path class="cls-5" d="M922.58,383.85c-25.91-2.82-53.88-4.93-83.7-5.87l88.78,51.25Q925.46,405.83,922.58,383.85Z" transform="translate(48.68 -11.27)"/><path class="cls-6" d="M1114.43,364.32c-37.69-.23-73.21-2-106.32-4.7,0-.17,0-.34.07-.5H992.1c12.94-15.7,26.93-31.72,42.07-47.91a1029,1029,0,0,1,114.22-105l-17.68-17.68a1083.68,1083.68,0,0,1-101.09,110.06c-18.65,17.68-37.07,33.87-55,48.72a574.93,574.93,0,0,1-3-65.24c.46-41.59-2.74-75.05,3.24-104.71-12.89,0-10-2.91-22.87-2.91,1.77,32.72-4.82,66.86-4.63,102.32q.21,36-.78,70.15c-25.87-22.79-52.56-47.78-79.65-75.11-28.16-28.41-53.76-56.34-77-83.28L772.27,206.2c26.36,21.36,54.17,45.82,82.53,73.68,27.55,27.08,51.93,53.76,73.42,79.24h-9.11l.06.44c-32.91,2.45-67.9,4-104.82,4.25L838.88,378c29.82.94,57.79,3,83.7,5.87q2.86,22,5.08,45.38l36,20.77-6.73,11.66-27.83-16.07c1.61,20,2.8,40.78,3.46,62.22a1260.36,1260.36,0,0,1-13.43,225.76h89.07a1450.8,1450.8,0,0,1-12-209.09c.76-50.46,4.11-97.47,9-140.58,34.21-2.59,70.7-4.22,109.26-4.43,45.88-.24,88.93,1.56,128.76,4.66v-25C1203.73,362.54,1160.66,364.59,1114.43,364.32Z" transform="translate(48.68 -11.27)"/><path class="cls-6" d="M684.1,359.12v25a1088.25,1088.25,0,0,1,126.95-6.68L787.3,363.74C750.91,363.33,716.43,361.66,684.1,359.12Z" transform="translate(48.68 -11.27)"/><path class="cls-6" d="M963.64,450l-36-20.77L838.88,378l-24.53-14.17L749,326.09l-6.73,11.66,45,26,23.75,13.71a513.2,513.2,0,0,0,46.2,31.76,513.24,513.24,0,0,0,71.83,36.38l27.83,16.07Z" transform="translate(48.68 -11.27)"/><path class="cls-6" d="M918.15,184.92A334.8,334.8,0,0,0,863.25,280l-6.1-3.53a584.37,584.37,0,0,1,27.39-52.57c9.15-15.59,18.44-29.75,27.51-42.51Z" transform="translate(48.68 -11.27)"/><path class="cls-6" d="M802.25,280.49a334.7,334.7,0,0,0,54.9,95.08l-6.1,3.53a584.41,584.41,0,0,1-31.84-50c-8.92-15.72-16.54-30.85-23.06-45.08Z" transform="translate(48.68 -11.27)"/><path class="cls-6" d="M1136.44,282.89a334.17,334.17,0,0,0-54.9,95.09l-6.1-3.53a581.56,581.56,0,0,1,27.38-52.57c9.16-15.59,18.45-29.75,27.51-42.51Z" transform="translate(48.68 -11.27)"/><path class="cls-6" d="M1069.32,125.14a336.18,336.18,0,0,0,22.74,48.44,333.78,333.78,0,0,0,32.16,46.64l-6.1,3.53a584.41,584.41,0,0,1-31.84-50c-8.92-15.72-16.54-30.85-23.06-45.08Z" transform="translate(48.68 -11.27)"/><path class="cls-6" d="M1109.54,371.79a334.94,334.94,0,0,0,103.17,37.55q-1.2,3.32-2.41,6.62a584.51,584.51,0,0,1-56.53-17.84c-16.94-6.31-32.5-13-46.64-19.71C1107.93,376.2,1108.74,374,1109.54,371.79Z" transform="translate(48.68 -11.27)"/><path class="cls-6" d="M1028.71,100.82a334.93,334.93,0,0,0-54.9,95.08l-6.1-3.52A585.81,585.81,0,0,1,995.1,139.8c9.15-15.58,18.44-29.75,27.51-42.5Z" transform="translate(48.68 -11.27)"/><path class="cls-6" d="M870.7,136.94a335,335,0,0,0,48.55,22.5,335.26,335.26,0,0,0,54.62,15.06q-1.2,3.3-2.41,6.62a583.64,583.64,0,0,1-56.53-17.84c-16.94-6.31-32.5-13-46.64-19.72C869.09,141.36,869.9,139.15,870.7,136.94Z" transform="translate(48.68 -11.27)"/><path class="cls-7" d="M681.37,318c13-2.22,18.44-23,22.74-21.6,3.82,1.26-3.14,16.78,4.55,26.15,7.55,9.19,26,8.46,38.65,7.95,12-.47,17.83-2.63,19.33,0,3.42,6-22.08,25.86-19.33,29.56,1.21,1.63,6.56-1.72,8,0,2.31,2.84-8.48,16.66-21.6,27.29-7.43,6-22,17.83-28.42,13.64-7.41-4.86,3.12-26.7-3.41-30.7C693.26,365,667.44,398,659.77,393c-2.67-1.76-.64-6.51,0-22.74a209.55,209.55,0,0,0-1.13-33c-2.47-19.46-7.86-28.44-4.55-30.69C658.61,303.53,668.86,320.09,681.37,318Z" transform="translate(48.68 -11.27)"/><path class="cls-7" d="M698,308c-4.45-12.46-25.87-14.16-25.22-18.65.58-4,17.07.19,25-9,7.75-9,3.83-27,1.13-39.45-2.56-11.74-5.69-17.1-3.36-19,5.34-4.42,29.3,17.25,32.47,13.9,1.4-1.48-2.84-6.16-1.38-7.84,2.39-2.77,17.88,5.46,30.62,16.53,7.21,6.27,21.39,18.6,18.37,25.62-3.51,8.14-26.84,1.57-29.64,8.69-3.68,9.36,33.31,29.06,29.7,37.48-1.27,2.94-6.31,1.76-22.4,3.95A208.53,208.53,0,0,0,720.93,327c-18.74,5.81-26.65,12.68-29.43,9.81C687.69,332.9,702.23,319.93,698,308Z" transform="translate(48.68 -11.27)"/><path class="cls-7" d="M733.44,164.8c13-2.22,18.43-23,22.73-21.6,3.82,1.26-3.14,16.78,4.55,26.15,7.55,9.2,25.95,8.47,38.65,8,12-.48,17.83-2.64,19.33,0,3.42,6-22.08,25.86-19.33,29.56,1.22,1.63,6.56-1.72,8,0,2.31,2.84-8.48,16.66-21.6,27.28-7.42,6-22,17.84-28.42,13.64-7.4-4.86,3.12-26.7-3.41-30.69-8.58-5.25-34.4,27.76-42.06,22.74-2.68-1.76-.65-6.52,0-22.74a211.24,211.24,0,0,0-1.14-33c-2.46-19.46-7.86-28.45-4.55-30.69C710.67,150.37,720.92,166.94,733.44,164.8Z" transform="translate(48.68 -11.27)"/><path class="cls-7" d="M669.1,180.7c13-2.22,18.43-23,22.73-21.6,3.82,1.26-3.14,16.78,4.55,26.15,7.55,9.19,26,8.46,38.65,7.95,12-.47,17.83-2.63,19.33,0,3.42,6-22.08,25.86-19.33,29.56,1.22,1.64,6.56-1.72,8,0,2.31,2.85-8.48,16.67-21.6,27.29-7.42,6-22,17.84-28.42,13.64-7.4-4.86,3.12-26.7-3.41-30.7-8.58-5.24-34.4,27.77-42.06,22.74-2.68-1.75-.65-6.51,0-22.74a211.12,211.12,0,0,0-1.14-33c-2.46-19.47-7.86-28.45-4.55-30.7C646.33,166.27,656.58,182.83,669.1,180.7Z" transform="translate(48.68 -11.27)"/><path class="cls-7" d="M824.34,115.5c13-2.22,18.43-23,22.73-21.6,3.82,1.26-3.14,16.78,4.55,26.15,7.55,9.19,26,8.46,38.65,8,12-.47,17.83-2.63,19.33,0,3.42,6-22.08,25.86-19.33,29.56,1.22,1.64,6.56-1.72,8,0,2.31,2.85-8.48,16.67-21.6,27.29-7.42,6-22,17.84-28.42,13.64-7.4-4.86,3.12-26.7-3.41-30.7-8.58-5.24-34.4,27.77-42.06,22.74-2.68-1.75-.65-6.51,0-22.74a211.12,211.12,0,0,0-1.14-33c-2.46-19.47-7.86-28.45-4.55-30.7C801.57,101.07,811.82,117.63,824.34,115.5Z" transform="translate(48.68 -11.27)"/><path class="cls-7" d="M767.38,85.71c13-2.22,18.44-23,22.74-21.6,3.82,1.26-3.14,16.78,4.55,26.15,7.55,9.19,25.94,8.46,38.65,7.95,12-.47,17.83-2.63,19.32,0,3.42,6-22.07,25.86-19.32,29.56,1.21,1.64,6.56-1.72,8,0,2.31,2.85-8.49,16.66-21.6,27.29-7.43,6-22,17.83-28.42,13.64-7.41-4.86,3.11-26.7-3.42-30.7-8.57-5.24-34.39,27.77-42.06,22.74-2.68-1.75-.64-6.51,0-22.74a208.56,208.56,0,0,0-1.14-33c-2.46-19.47-7.85-28.45-4.54-30.7C744.61,71.28,754.87,87.84,767.38,85.71Z" transform="translate(48.68 -11.27)"/><path class="cls-7" d="M904.3,75.16c13-2.22,18.44-23,22.74-21.6,3.82,1.26-3.15,16.78,4.54,26.15,7.55,9.19,25.95,8.46,38.66,8,12-.47,17.82-2.63,19.32,0,3.42,6-22.07,25.86-19.32,29.56,1.21,1.64,6.55-1.72,8,0,2.32,2.85-8.48,16.67-21.6,27.29-7.42,6-22,17.84-28.42,13.64-7.4-4.86,3.12-26.7-3.41-30.7-8.58-5.24-34.4,27.77-42.06,22.74-2.68-1.75-.64-6.51,0-22.74a208.56,208.56,0,0,0-1.14-33C879.1,75,873.71,66,877,63.79,881.53,60.73,891.79,77.29,904.3,75.16Z" transform="translate(48.68 -11.27)"/><path class="cls-7" d="M1000.09,75.16c13-2.22,18.43-23,22.73-21.6,3.82,1.26-3.14,16.78,4.55,26.15,7.55,9.19,26,8.46,38.65,8,12-.47,17.83-2.63,19.33,0,3.42,6-22.08,25.86-19.33,29.56,1.22,1.64,6.56-1.72,8,0,2.31,2.85-8.48,16.67-21.6,27.29-7.42,6-22,17.84-28.42,13.64-7.4-4.86,3.12-26.7-3.41-30.7-8.58-5.24-34.4,27.77-42.06,22.74-2.68-1.75-.65-6.51,0-22.74a211.12,211.12,0,0,0-1.14-33C974.89,75,969.49,66,972.8,63.79,977.32,60.73,987.57,77.29,1000.09,75.16Z" transform="translate(48.68 -11.27)"/><path class="cls-7" d="M945.25,32.94c13-2.22,18.43-23,22.73-21.6,3.83,1.26-3.14,16.78,4.55,26.15,7.55,9.19,26,8.46,38.65,7.95,12-.47,17.83-2.63,19.33,0,3.42,6-22.07,25.86-19.33,29.56,1.22,1.64,6.56-1.72,8,0,2.32,2.85-8.48,16.66-21.6,27.29-7.42,6-22,17.83-28.42,13.64-7.4-4.86,3.12-26.7-3.41-30.7C957.13,80,931.31,113,923.65,108c-2.68-1.75-.65-6.51,0-22.74a209.83,209.83,0,0,0-1.14-33c-2.46-19.47-7.86-28.45-4.55-30.7C922.48,18.51,932.73,35.07,945.25,32.94Z" transform="translate(48.68 -11.27)"/><path class="cls-7" d="M1122.18,199.66c-4.45-12.45-25.87-14.16-25.22-18.64.58-4,17.07.18,25-9,7.75-9,3.83-27,1.13-39.45-2.56-11.74-5.69-17.1-3.36-19,5.34-4.41,29.3,17.25,32.47,13.9,1.4-1.48-2.84-6.16-1.38-7.84,2.39-2.77,17.88,5.46,30.62,16.54,7.21,6.26,21.39,18.59,18.37,25.62-3.51,8.13-26.84,1.56-29.64,8.69-3.68,9.36,33.31,29,29.7,37.47-1.27,2.94-6.31,1.77-22.4,3.95a211,211,0,0,0-32.27,6.84c-18.74,5.81-26.65,12.68-29.43,9.81C1111.92,224.59,1126.46,211.61,1122.18,199.66Z" transform="translate(48.68 -11.27)"/><path class="cls-7" d="M1073.49,166.66c-4.45-12.45-25.87-14.15-25.22-18.64.58-4,17.08.18,25-9,7.75-9,3.83-27,1.13-39.44-2.56-11.74-5.69-17.1-3.36-19,5.34-4.41,29.3,17.25,32.47,13.9,1.4-1.47-2.84-6.15-1.38-7.83,2.39-2.77,17.88,5.46,30.62,16.53,7.21,6.27,21.39,18.6,18.37,25.62-3.51,8.14-26.84,1.57-29.64,8.69-3.68,9.36,33.31,29.06,29.7,37.48-1.27,2.94-6.31,1.76-22.4,4a208.53,208.53,0,0,0-32.27,6.84c-18.74,5.81-26.65,12.68-29.43,9.81C1063.23,191.59,1077.77,178.62,1073.49,166.66Z" transform="translate(48.68 -11.27)"/><path class="cls-7" d="M764.92,275.81c-4.46-12.45-25.87-14.16-25.22-18.64.57-4,17.07.18,25-9,7.74-9,3.83-27,1.12-39.45-2.55-11.74-5.69-17.1-3.35-19,5.33-4.41,29.29,17.25,32.46,13.9,1.4-1.48-2.83-6.16-1.38-7.84,2.4-2.77,17.88,5.46,30.62,16.54,7.21,6.26,21.39,18.59,18.37,25.62-3.5,8.13-26.84,1.56-29.64,8.68-3.67,9.36,33.32,29.06,29.7,37.48-1.27,2.94-6.3,1.76-22.39,3.95a209.29,209.29,0,0,0-32.27,6.84c-18.74,5.81-26.65,12.68-29.44,9.81C754.66,300.74,769.19,287.76,764.92,275.81Z" transform="translate(48.68 -11.27)"/><path class="cls-7" d="M716.23,242.81c-4.46-12.45-25.87-14.16-25.22-18.64.57-4,17.07.18,25-9,7.74-9,3.83-27,1.12-39.44-2.55-11.74-5.69-17.1-3.35-19,5.33-4.41,29.29,17.25,32.46,13.9,1.4-1.47-2.83-6.16-1.38-7.83,2.4-2.78,17.88,5.46,30.62,16.53,7.21,6.27,21.39,18.6,18.37,25.62-3.5,8.14-26.84,1.57-29.64,8.69-3.67,9.36,33.32,29.06,29.7,37.48-1.26,2.94-6.3,1.76-22.39,3.94a209.71,209.71,0,0,0-32.27,6.85c-18.74,5.8-26.65,12.68-29.44,9.81C706,267.74,720.5,254.77,716.23,242.81Z" transform="translate(48.68 -11.27)"/><path class="cls-7" d="M695.68,416.89c-4.45-12.45-25.87-14.15-25.22-18.64.58-4,17.08.18,25-9s3.83-27,1.13-39.45c-2.56-11.74-5.69-17.1-3.36-19,5.34-4.42,29.3,17.24,32.47,13.9,1.4-1.48-2.84-6.16-1.38-7.84,2.39-2.77,17.88,5.46,30.62,16.53,7.21,6.27,21.39,18.6,18.37,25.62-3.51,8.14-26.84,1.57-29.64,8.69-3.68,9.36,33.31,29.06,29.7,37.48-1.27,2.94-6.31,1.76-22.4,3.95a208.53,208.53,0,0,0-32.27,6.84c-18.74,5.81-26.65,12.68-29.43,9.81C685.42,441.82,700,428.85,695.68,416.89Z" transform="translate(48.68 -11.27)"/><path class="cls-7" d="M647,383.9c-4.45-12.45-25.87-14.16-25.22-18.64.58-4,17.08.18,25-9,7.75-9,3.83-27,1.13-39.45-2.56-11.73-5.69-17.1-3.36-19,5.34-4.41,29.3,17.25,32.47,13.9,1.4-1.48-2.84-6.16-1.38-7.84,2.39-2.77,17.88,5.46,30.62,16.54,7.21,6.27,21.39,18.6,18.37,25.62-3.51,8.13-26.84,1.56-29.64,8.69-3.68,9.36,33.31,29.05,29.7,37.47-1.27,2.94-6.31,1.77-22.39,3.95A210,210,0,0,0,670,402.94c-18.74,5.8-26.65,12.67-29.43,9.8C636.73,408.83,651.27,395.85,647,383.9Z" transform="translate(48.68 -11.27)"/><path class="cls-7" d="M1173.8,301.13c-4.45-12.45-25.87-14.16-25.22-18.64.58-4,17.07.18,25-9,7.75-9,3.83-27,1.13-39.45-2.56-11.74-5.7-17.1-3.36-19,5.33-4.42,29.3,17.25,32.46,13.9,1.4-1.48-2.83-6.16-1.38-7.84,2.4-2.77,17.89,5.46,30.62,16.53,7.21,6.27,21.4,18.6,18.37,25.62-3.5,8.14-26.83,1.57-29.63,8.69-3.68,9.36,33.31,29.06,29.69,37.48-1.26,2.94-6.3,1.76-22.39,3.95a209.53,209.53,0,0,0-32.27,6.84c-18.74,5.81-26.65,12.68-29.44,9.81C1163.54,326.06,1178.07,313.08,1173.8,301.13Z" transform="translate(48.68 -11.27)"/><path class="cls-7" d="M1125.11,268.13c-4.45-12.45-25.87-14.16-25.22-18.64.58-4,17.07.18,25-9,7.75-9,3.83-27,1.13-39.44-2.56-11.74-5.69-17.1-3.36-19,5.33-4.41,29.3,17.25,32.47,13.9,1.39-1.48-2.84-6.16-1.39-7.83,2.4-2.78,17.89,5.46,30.62,16.53,7.21,6.27,21.4,18.6,18.37,25.62-3.5,8.14-26.83,1.56-29.63,8.69-3.68,9.36,33.31,29,29.69,37.47-1.26,2.95-6.3,1.77-22.39,3.95a210,210,0,0,0-32.27,6.85c-18.74,5.8-26.65,12.68-29.44,9.81C1114.85,293.06,1129.39,280.09,1125.11,268.13Z" transform="translate(48.68 -11.27)"/><path class="cls-7" d="M1267.45,377.21c-11.49,6.54-9.45,27.93-14,28.07-4,.12-2.79-16.84-13.22-23-10.24-6.06-27.27.93-39,5.75-11.11,4.55-15.85,8.57-18.16,6.61-5.27-4.49,11.9-31.85,8-34.39-1.7-1.12-5.57,3.86-7.48,2.72-3.14-1.88,2.28-18.56,11-33,4.92-8.19,14.6-24.3,22-22.54,8.62,2,6.2,26.15,13.7,27.67,9.86,2,22.83-37.85,31.75-35.75,3.12.74,2.84,5.9,7.78,21.37a210.49,210.49,0,0,0,12.34,30.59c9,17.45,17.12,24,14.78,27.29C1293.78,383,1278.48,370.92,1267.45,377.21Z" transform="translate(48.68 -11.27)"/><path class="cls-7" d="M1243.41,430.88c-11.49,6.55-9.45,27.94-14,28.08-4,.12-2.79-16.84-13.21-23-10.25-6.06-27.28.92-39,5.75-11.11,4.55-15.85,8.57-18.16,6.61-5.27-4.49,11.9-31.85,8-34.39-1.7-1.12-5.57,3.86-7.48,2.72-3.14-1.88,2.28-18.56,11-33,4.92-8.19,14.6-24.3,22-22.54,8.62,2,6.2,26.15,13.7,27.67,9.86,2,22.83-37.85,31.75-35.75,3.12.73,2.84,5.9,7.78,21.37A209.71,209.71,0,0,0,1258.17,405c9,17.45,17.11,24,14.77,27.29C1269.74,436.66,1254.44,424.6,1243.41,430.88Z" transform="translate(48.68 -11.27)"/><rect class="cls-3" x="1237.2" y="219.36" width="56" height="371.88"/><path d="M1244,231.13V602h-55V231.13h55m1-1h-57V603h57V230.13Z" transform="translate(48.68 -11.27)"/><rect class="cls-8" x="705.97" y="585.58" width="620" height="32.71"/><g id="Fahne"><path class="cls-9" d="M722.57,709.79a137.34,137.34,0,0,0-22.25-55C590,685.64,485.43,790.38,350.13,812.37,214,834.5,82.17,749.76-47.68,776.13c-.17,1.57-.32,3.25-.47,4.94a905.49,905.49,0,0,1,94.8,15.42,909.05,909.05,0,0,1,171.41,55.68,418.13,418.13,0,0,0-247.94,25.5c.9,1.83,1.79,3.62,2.68,5.31,123.31-48.5,257.5,62.23,397.06,39.61A370,370,0,0,0,436,905.17c.44-.81.91-1.53,1.34-2.39a89.45,89.45,0,0,0,9-29.55A174,174,0,0,1,459.53,896c96.05-40.47,177.64-109.39,261.28-134.29A132.49,132.49,0,0,0,722.57,709.79Z" transform="translate(48.68 -11.27)"/><path class="cls-10" d="M436.14,900.63a81.93,81.93,0,0,0,4.44-12c1.07-3.52,1.61-5.33,2.15-7.79.61-2.78,1-5.17,1.18-7-15.11,9.3-43.38,22.4-81.17,27.29a146,146,0,0,1-60-4.19S111.36,842.32,54.48,853.68c-22.76,4.54-45.12,11-45.12,11-15.57,4.51-28.47,9-37.87,12.47a14.12,14.12,0,0,0,.81,2.36,13.33,13.33,0,0,0,1.48,2.54c1.85-1.32,22.56-10.57,39.69-12,24.73-2.09,44.36-2,61,0,11.45,1.36,19.21,3,33.52,6,21,4.4,36.72,8.83,60.17,15.5s24.34,7.43,41.21,11.89c20.17,5.34,35.68,8.69,41.16,9.85,29.93,6.34,46.1,9.76,66.37,10.59h0c19.49.42,31.1-.38,40.12-1.69,4.88-.71,8-.94,11.34-1.52,9.8-1.69,10.78-2.13,16.31-3.18,3.2-.6,8-1.81,17.58-4.23,9.2-2.33,13.9-3.51,18.55-5s8.94-2.94,13.64-4.72C434.79,902.89,435.85,901.32,436.14,900.63Z" transform="translate(48.68 -11.27)"/><path class="cls-10" d="M489.3,879.94c13-6.25,23.4-11.72,31-15.83,28.29-15.34,42.24-26,75.13-44.32,27.79-15.51,53.16-34.94,123.69-60.36,2.35-7.74,3.18-19.43,3.1-33.67a99.27,99.27,0,0,0-1.69-15.54c-4.27-26.25-13.34-45.52-20.19-55.39C594.48,773.18,513,838.32,448.07,871.77c3.85,7.18,8.7,14.13,12.54,21.31C468.39,889.8,477.55,885.58,489.3,879.94Z" transform="translate(48.68 -11.27)"/><path class="cls-9" d="M1702.65,852.17a905,905,0,0,1,266.2-71.1c-.14-1.69-.29-3.37-.46-4.94-129.85-26.37-261.64,58.37-397.81,36.24-9.53-1.55-18.88-3.55-28.12-5.86-.71,1.65-1.41,3.3-2.21,5A173.12,173.12,0,0,1,1526,836.4a89.69,89.69,0,0,0-9-29.55,87.78,87.78,0,0,0-5.74-9.61C1403.54,760.39,1314,681,1220.38,654.83a137.63,137.63,0,0,0-22.25,55,132.64,132.64,0,0,0,1.77,51.89c108.44,32.28,213.4,138.61,350.95,160.91,139.56,22.62,273.75-88.11,397.06-39.61.88-1.69,1.78-3.48,2.68-5.31a418.13,418.13,0,0,0-247.94-25.5Z" transform="translate(48.68 -11.27)"/><path class="cls-10" d="M1866.24,853.42c22.75,4.54,45.11,11,45.11,11,15.57,4.5,28.48,9,37.87,12.46a14.12,14.12,0,0,1-.81,2.36,12.82,12.82,0,0,1-1.48,2.54c-1.85-1.32-22.56-10.57-39.69-12-24.73-2.09-44.36-2-61,0-11.44,1.35-19.21,3-33.52,6-21,4.4-36.71,8.83-60.17,15.5s-24.34,7.43-41.21,11.89c-20.16,5.34-35.68,8.69-41.16,9.85-29.93,6.34-46.09,9.76-66.36,10.59h0c-19.49.42-31.1-.37-40.11-1.69-3.49-.51-5.89-1-10.71-1.94-2.59-.49-23.07-4.35-34.53-7-21.83-5.05-38.94-12.19-58.15-20.22-11-4.59-20.35-9-28.89-13-46.48-22.19-55.65-32-106.12-60.16-27.79-15.51-53.16-34.94-123.69-60.36-2.35-7.74-3.18-19.43-3.1-33.67A99.27,99.27,0,0,1,1200.2,710c4.27-26.25,13.34-45.51,20.19-55.38C1429.25,888.09,1547.72,916.82,1618,896.74,1618,896.74,1809.35,842.07,1866.24,853.42Z" transform="translate(48.68 -11.27)"/><path class="cls-11" d="M1359.23,633.39c17.62,27.47,22,77.79,26.72,96.63-38.22,2.72-74.6,11.28-162.41,19.74" transform="translate(48.68 -11.27)"/><path class="cls-11" d="M1188.52,613.58" transform="translate(48.68 -11.27)"/><path class="cls-11" d="M562,633.39c-17.62,27.47-22.75,87.11-27.51,106,38.23,2.72,89.8,5.93,163.2,10.42" transform="translate(48.68 -11.27)"/><path class="cls-11" d="M732.74,613.58" transform="translate(48.68 -11.27)"/></g><path class="cls-9" d="M1391.47,757.29c-112.69-20.48-256.61-37.8-428.95-38-174.15-.19-322.7,17.81-432.91,38a244,244,0,0,1,0-133.86c55.54-16.87,254.85-64.82,430.6-64.86,176.07,0,371.51,43.26,431.26,64.86a177,177,0,0,1,0,133.86Z" transform="translate(48.68 -11.27)"/><text x="48.68" y="-11.27"/><path class="cls-4" d="M1227.51,69.39c4.66,24.54,10.4,74.35-11,129.41a226.69,226.69,0,0,1-32.45,57h87Z" transform="translate(48.68 -11.27)"/><path class="cls-12" d="M866.09,357.65" transform="translate(48.68 -11.27)"/><path class="cls-13" d="M763.08,617.86c-7.23,5-13.5,14.7-16.43,22.53s-4.45,19.26-2.57,27.68c1.4,6.25,4.62,10.78,9.81,13.33s12.05,2.79,20.13,1.53c8.4-1.32,19-6.94,24.54-13.45S808,651.72,807.44,643a13.56,13.56,0,0,1,2.43,5.69c.75,5.22-1.85,11.71-7.58,19.55-7.18,10.21-17.33,19.19-29.84,21.58a43.11,43.11,0,0,1-13.75.35,29.21,29.21,0,0,1-11.65-3.81c-5.13-3.07-8.46-8-9.93-14.78a45.93,45.93,0,0,1,.1-19.14,56.15,56.15,0,0,1,7.86-19.21,70.38,70.38,0,0,1,14.42-15.56c-11-.78-19.5-.47-25.33.75-8.36,1.74-14.64,5.61-18.74,11.49s-5.21,12.61-3.44,20.14a37.78,37.78,0,0,0,3.68,9.18,11.18,11.18,0,0,1-8-8.4c-1.38-5.78.08-12.45,4.55-20,5.53-9.65,14.53-17.46,25.5-19.58,10.14-2,21.06-1.21,31.39-.11.83-.42,1.32-.67,1.49-.73,3.15-1.65,4.73-2.46,7.91-4.08a72.88,72.88,0,0,1,22.57-7.08c6-.87,11-.63,15,.68s6.06,3.46,6.44,6.4c.46,3.65-2.89,6.85-10,9.65-4.28,1.7-7.36,3.36-9.2,5l-1.93-.19c-2.41-.19-3.62-.28-6-.45-7.42-.53-12-.82-13.61-1-6.37-.59-9.56-.86-16-1.35Zm10.41-6.43c6.29.79,13.36,1.35,21.21,1.73s13.19.43,16.07,0a16.68,16.68,0,0,0,6.53-2.12q2.54-1.58,2.3-3.38c-.28-2.13-2.51-3.73-6.72-4.75a38,38,0,0,0-14.6-.33A67.48,67.48,0,0,0,773.49,611.43Z" transform="translate(48.68 -11.27)"/><path class="cls-13" d="M852.75,669.51l1.22,1.41a127.55,127.55,0,0,1-14.27,8l-1.41.7c.16-12.1,4.78-24.88,9-36.06,1-2.78,1.48-4.63,1.38-5.57-.13-1.2-.66-1.75-1.6-1.65s-2.83,1.33-5.29,3.65a56.43,56.43,0,0,0-6.94,8,111.58,111.58,0,0,0-9.49,15.63A87.47,87.47,0,0,0,819,679a22.81,22.81,0,0,0-7.31,3.41l.43-1.6q2.64-9.81,4.93-18.87c1.84-7.31,2.78-11,4.71-18.26s3-10.92,5.08-18.2c2.48-8.93,3.67-14.38,3.43-16.36a1.8,1.8,0,0,0-2.25-1.79,15.88,15.88,0,0,0-3.6,1.33l-.78.39-.84-1.6a110.52,110.52,0,0,0,14.34-7.92l1.13-.77q.18,1.1.24,1.62c.32,2.87-.24,7.26-1.7,13.08-2.58,10.32-5.77,20.58-8.79,30.83-1.86,6.4-2.77,9.6-4.55,16L823,662l.85-1.35c7-10.55,17.1-29.31,30-31.45a2.56,2.56,0,0,1,3.23,2.5q.2,2-1.55,6.87c-1.19,3.35-1.78,5-3,8.37-4.94,14.1-7.11,22.24-6.87,24.37.09.86.59,1.23,1.5,1.13,1.07-.12,2.75-1,5.06-2.55Z" transform="translate(48.68 -11.27)"/><path class="cls-13" d="M899.88,630.62c-2.18-.07-4,0-5.42,0-8.47.24-19.58,5.74-23.73,13.65a45.73,45.73,0,0,0-4.66,11.21,29.63,29.63,0,0,0-1.33,10.33,6.71,6.71,0,0,0,2.13,4.54,5.59,5.59,0,0,0,4.45,1.45c4.1-.36,8.35-4,12.88-10.86s6.68-13,6.31-18.43a4.73,4.73,0,0,0-1.21-3,3,3,0,0,0-2.5-1.09c-3.25.23-6.14,3.58-8.58,10a8.24,8.24,0,0,1-.47-2c-.19-2.41,1.16-5.07,4.09-8s5.82-4.42,8.64-4.61a6.14,6.14,0,0,1,4.92,1.88,7.77,7.77,0,0,1,2.28,5.23c.43,7.06-3.85,14.8-12.38,23.39-7.36,7.4-13.49,11.43-18.63,11.9a7.36,7.36,0,0,1-5.8-1.85,8.58,8.58,0,0,1-2.81-5.79c-.54-5.32.79-11.09,4.08-17.27a51.92,51.92,0,0,1,25-22.9,31.82,31.82,0,0,1,10.48-2.92c1.81-.11,2.76.6,2.85,2.12A9,9,0,0,1,899.88,630.62Z" transform="translate(48.68 -11.27)"/><path class="cls-13" d="M938.87,663.79l1,1.56a46.19,46.19,0,0,1-16.61,7.54c1.28-10.4,5.94-20.49,10.64-29.73,1.5-2.94,2.25-4.42,3.77-7.36q1.94-3.79,1.91-4.85c0-1.06-.48-1.57-1.39-1.55-1.27,0-3.65,1.45-7.1,4.29a80.09,80.09,0,0,0-9.94,9.84A86.23,86.23,0,0,0,905.33,671a49.72,49.72,0,0,0-7.69,3.28Q902.38,663,907.28,649c3.29-9.34,5-14.84,4.88-16.52-.06-1.41-.69-2.08-1.88-2a19.5,19.5,0,0,0-3.95,1.08l-.66.21-.47-1.85a141.13,141.13,0,0,0,15.35-6l.79-.38a7,7,0,0,1,.16,1c.14,3.48-2.3,11-7.07,22.53-.3.71-.46,1.07-.76,1.79l1-1.16a120.07,120.07,0,0,1,17.8-17.93c5.56-4.36,10-6.54,13.21-6.59,2,0,3,.93,3.07,2.88s-2.61,8.07-7.7,18.12c-6.08,12-9,18.79-8.92,20.28q0,1.69,1.65,1.65c1.19,0,2.79-.72,4.83-2.06Z" transform="translate(48.68 -11.27)"/><path class="cls-13" d="M1011.14,592.66c-.28,2.57-2.52,8.2-6.6,16.92-2,4.29-3,6.44-5,10.73-.78,1.67-1.16,2.5-1.93,4.16a6,6,0,0,1,3.81,5.87,23.36,23.36,0,0,0-5.87-1.18l-.46,1c-3.39,7.59-5.06,11.4-8.34,19-3.81,8.87-5.66,13.94-5.68,15.19a1.43,1.43,0,0,0,1.57,1.67c1.11,0,3-.71,5.52-2.17.12-.08.32-.19.61-.34l1.09,1.43c-4.35,2.83-10.37,5.24-18,7.33.19-.78.29-1.16.49-1.93a139.41,139.41,0,0,1,6.46-17.51q1.43-3.2,2.63-6c2.82-6.8,4.25-10.2,7.16-17l.65-1.27a34.63,34.63,0,0,0-14.37,3.13,45.06,45.06,0,0,0-13.42,8.7c-7.13,6.85-10.54,13.94-10.46,21.17,0,3.32,1.29,5,3.74,4.94s5.42-1.68,9.06-5a53.4,53.4,0,0,0,9.75-11.91,71,71,0,0,0,6.74-14.86,10.54,10.54,0,0,1,1,4.65c0,3.24-1.56,7-4.49,11.24a63.05,63.05,0,0,1-11.56,12.41c-7.12,5.92-12.56,9-16.49,9-3,0-4.53-1.78-4.6-5.49-.06-3.25.93-7,3-11.25a50.59,50.59,0,0,1,8.46-12.17,59.33,59.33,0,0,1,35.62-19l1.78-4c1.9-4.38,2.86-6.57,4.8-10.94,1.44-3.16,2.2-5.33,2.28-6.49.13-1.67-.73-2.55-2.63-2.6a10.26,10.26,0,0,0-3.68.65c-.28-.71-.43-1.06-.71-1.77l1-.33C1001,596.62,1006.69,594.58,1011.14,592.66Z" transform="translate(48.68 -11.27)"/><path class="cls-13" d="M1033.33,593.58c-3.54,15.42-12.58,30.19-19.51,44.24l-1.2,2.35a60.14,60.14,0,0,1,15.08-10.48c5.42-2.61,10.07-3.77,13.9-3.5s5.53,2.31,5.24,6.09c-.33,4.29-2.76,9.11-7.2,14.51a72.77,72.77,0,0,1-16.31,14.46c-10.26,5.69-20.65,11.59-32.87,11.09l.87-1.86q10.6-22.62,21.25-45.21c6.27-13.39,9.61-20.88,9.69-22.52.06-1.17-.66-1.8-2.18-1.87a15.88,15.88,0,0,0-4.53.83c-.24-.74-.36-1.11-.61-1.84C1020.51,598.28,1026.62,596.18,1033.33,593.58Zm-33.81,73.16a17.35,17.35,0,0,0,2.42.32c8.75.32,16.73-3.64,24.21-11.93a58.74,58.74,0,0,0,7.72-10.79q3.23-5.77,3.48-9.46c.19-2.72-1.07-4.18-3.78-4.36-4.67-.3-10.55,3.31-17.46,10.49A84.52,84.52,0,0,0,999.52,666.74Z" transform="translate(48.68 -11.27)"/><path class="cls-13" d="M1078.52,669.29l.9,1.63c-4.49,2.61-10.38,4.42-17.69,5.5.56-3.91,3.52-10.47,9-19.61a102.74,102.74,0,0,1-17.2,13.23c-5.72,3.43-10.12,5.05-13.26,4.82-2.75-.2-4-2-3.76-5.5.4-5.88,3.51-12.07,9.46-18.48a65.18,65.18,0,0,1,22.06-15.06c8.23-3.57,19.88-5.65,28.91-4.44,1.3.18,1.91.71,1.79,1.64s-.89,2.17-2.38,4.19a47.74,47.74,0,0,0-8-1.65,42.88,42.88,0,0,0-33.36,10.61c-7,6.22-10.85,12.71-11.35,19.37q-.36,4.66,3.14,4.94c2,.16,4.94-1.3,9-4.34a64.51,64.51,0,0,0,11.12-10.77,59,59,0,0,0,10.36-18.27c1.64,1.2,2.32,3.16,2,5.87-.4,3.77-2.85,7.88-7.28,12.38a33.66,33.66,0,0,0,7.33-.88c-.24.38-.36.56-.59.94-4.7,7.86-7.06,12.51-7.2,13.91-.12,1.13.36,1.71,1.43,1.74S1075.82,670.49,1078.52,669.29Z" transform="translate(48.68 -11.27)"/><path class="cls-13" d="M1131.26,636.43c-1.25,2.2-1.87,3.31-3.1,5.51a21.76,21.76,0,0,0-4-1.08c-4.71-.7-10.27,2-16.53,8.19a55.89,55.89,0,0,0-7.82,9.91,168.56,168.56,0,0,0-8.79,16.91l-.89,1.9a60.56,60.56,0,0,0-7.53,1.12l.85-1.68c2.7-5.21,4.06-7.81,6.82-13,6.54-12.51,10.09-19.89,10.39-22.21.15-1.21-.32-1.88-1.42-2a13.09,13.09,0,0,0-4.28,1.06l-.57-1.9a107.83,107.83,0,0,0,16.49-6.8,8.41,8.41,0,0,1,0,1.95c-.4,3-2.5,7.76-6.2,14.36l1.67-1.43c10.73-8.66,18.27-12.59,22.23-12A6.52,6.52,0,0,1,1131.26,636.43Z" transform="translate(48.68 -11.27)"/><path class="cls-13" d="M1154.22,680.36l.78,1.7c-4.67,2.27-10.7,3.64-18.08,4.19.85-3.86,4.28-10.18,10.46-18.9a102,102,0,0,1-18.15,11.94c-6,3-10.47,4.31-13.59,3.85-2.74-.4-3.86-2.31-3.37-5.76.83-5.84,4.38-11.78,10.8-17.75a65.06,65.06,0,0,1,23.13-13.41c8.49-3,20.28-4.19,29.23-2.32,1.28.27,1.86.84,1.67,1.76s-1,2.1-2.68,4a48.8,48.8,0,0,0-7.88-2.24,43.09,43.09,0,0,0-34.12,8.16c-7.49,5.69-11.75,11.89-12.74,18.49q-.69,4.63,2.78,5.16c2,.3,5-.93,9.28-3.67a65,65,0,0,0,11.89-9.94,59,59,0,0,0,11.67-17.47q2.34,2,1.6,6c-.67,3.73-3.42,7.65-8.17,11.81a33.46,33.46,0,0,0,7.39-.34l-.66.89c-5.27,7.5-8,12-8.2,13.35-.2,1.12.24,1.73,1.31,1.84S1151.44,681.36,1154.22,680.36Z" transform="translate(48.68 -11.27)"/><path class="cls-13" d="M1199.45,690.17l.58,1.75a46.42,46.42,0,0,1-18,3.2c3.81-9.77,10.84-18.39,17.69-26.17,2.19-2.49,3.29-3.73,5.49-6.21,1.88-2.13,2.91-3.54,3.06-4.22.24-1-.08-1.65-1-1.85-1.24-.29-3.92.5-8,2.4a80.24,80.24,0,0,0-12.12,7.08A85.79,85.79,0,0,0,1165,688.9a50.48,50.48,0,0,0-8.29,1.28q7.4-9.82,15.62-22.2c5.5-8.24,8.49-13.16,8.82-14.81.28-1.38-.16-2.18-1.33-2.42a19.74,19.74,0,0,0-4.11.07l-.7,0V649a141.18,141.18,0,0,0,16.42-2l.87-.17a9.22,9.22,0,0,1-.1,1.06c-.73,3.4-5,10-12.44,20.08l-1.18,1.55,1.23-.88a119.58,119.58,0,0,1,21.76-13c6.49-2.85,11.36-3.87,14.51-3.12,2,.46,2.74,1.65,2.28,3.55s-4.53,7.18-12,15.66c-8.89,10.13-13.37,16-13.7,17.44a1.47,1.47,0,0,0,1.21,2c1.17.26,2.9,0,5.21-.8Z" transform="translate(48.68 -11.27)"/></svg>