<svg id="Buch" xmlns="http://www.w3.org/2000/svg" viewBox="0 0 95.43 144.78"><defs><style>.cls-1{fill:#fff;stroke:#000;stroke-width:6px;}.cls-1,.cls-2{stroke-miterlimit:10;}.cls-2{fill:#1a9dd9;stroke:#1d1d1b;stroke-width:3px;}</style></defs><path class="cls-1" d="M1313.93,225.51c0,20.46-42.52,36.32-42.52,36.32s-46.91-12.58-46.91-36.32V123.19h89.43Z" transform="translate(-1221.5 -120.19)"/><path class="cls-2" d="M1278.59,188.45l-30.37-43.65a213.71,213.71,0,0,0,4.18,40.38c4.14,20.49,7.69,37,20,42.74,1,.48,10.5,4.78,15.28.18,3-2.87,3.29-8.43,1.09-14-1.8-.74-4-1.36-5.09-.37-.86.79-.42,2.06-.73,4.37-.28,2.08-1.21,5.41-2.55,6.18-3.32,1.93-13.2-9.43-15.1-11.64q-2-4.48-3.82-9.46a146.77,146.77,0,0,1-8.54-42.74l19.82,28.38c-4.38-5.2-6.69-6-8-5.46-3.29,1.25-3,11.4.18,18.55,1.06,2.39,2.73,6,6.37,7.1a8.42,8.42,0,0,0,4.54,0,5.43,5.43,0,0,1,0-10.37" transform="translate(-1221.5 -120.19)"/></svg>