<svg id="Buch" xmlns="http://www.w3.org/2000/svg" xmlns:xlink="http://www.w3.org/1999/xlink" viewBox="0 0 95.43 144.78"><defs><style>.cls-1{fill:url(#Unbenannter_Verlauf_6);}.cls-2,.cls-22{fill:none;}.cls-3,.cls-7{fill:#be1823;}.cls-3{stroke:#000;stroke-width:6px;}.cls-22,.cls-3{stroke-miterlimit:10;}.cls-4{clip-path:url(#clip-path);}.cls-5{fill:#f9b233;}.cls-6{fill:#1b9dd9;}.cls-8{fill:#662483;}.cls-9{clip-path:url(#clip-path-4);}.cls-10{fill:url(#Unbenannter_Verlauf_10);}.cls-11{clip-path:url(#clip-path-5);}.cls-12{fill:url(#Unbenannter_Verlauf_2);}.cls-13{fill:#fff;}.cls-14{clip-path:url(#clip-path-7);}.cls-15{fill:url(#Unbenannter_Verlauf_9);}.cls-16{clip-path:url(#clip-path-8);}.cls-17{fill:url(#Unbenannter_Verlauf_4);}.cls-18{clip-path:url(#clip-path-9);}.cls-19{mask:url(#mask);}.cls-20{fill:url(#Unbenannter_Verlauf_5);}.cls-21{fill:#1d1d1b;}.cls-22{stroke:#1d1d1b;stroke-width:0.16px;}</style><radialGradient id="Unbenannter_Verlauf_6" cx="13.88" cy="-7.2" r="0.16" gradientTransform="matrix(89.11, 0, 0, -89.11, 270.09, -454.81)" gradientUnits="userSpaceOnUse"><stop offset="0" stop-color="#fff"/><stop offset="0.37" stop-color="#fdfdfd"/><stop offset="0.51" stop-color="#f6f6f6"/><stop offset="0.6" stop-color="#ebebeb"/><stop offset="0.68" stop-color="#dadada"/><stop offset="0.75" stop-color="#c4c4c4"/><stop offset="0.8" stop-color="#a8a8a8"/><stop offset="0.86" stop-color="#888"/><stop offset="0.91" stop-color="#626262"/><stop offset="0.95" stop-color="#373737"/><stop offset="0.99" stop-color="#090909"/><stop offset="1"/></radialGradient><clipPath id="clip-path" transform="translate(-1460.36 -120.19)"><rect class="cls-2" x="1463.36" y="125.13" width="95.28" height="134.75"/></clipPath><clipPath id="clip-path-4" transform="translate(-1460.36 -120.19)"><path class="cls-2" d="M1499.49,194.05v24.5a32.53,32.53,0,0,0,14.25,0v-24.5Z"/></clipPath><linearGradient id="Unbenannter_Verlauf_10" x1="-13.47" y1="6.06" x2="-13.31" y2="6.06" gradientTransform="matrix(-89, 0, 0, 89, -1145.62, -452.5)" gradientUnits="userSpaceOnUse"><stop offset="0" stop-color="#f9b233"/><stop offset="1" stop-color="#662483"/></linearGradient><clipPath id="clip-path-5" transform="translate(-1460.36 -120.19)"><path class="cls-2" d="M1499.49,155.62v24.5h14.25v-24.5a32.93,32.93,0,0,0-14.25,0"/></clipPath><linearGradient id="Unbenannter_Verlauf_2" x1="14.31" y1="-8.37" x2="14.47" y2="-8.37" gradientTransform="matrix(89, 0, 0, -89, -1234.62, -697.5)" gradientUnits="userSpaceOnUse"><stop offset="0" stop-color="#be1823"/><stop offset="0.12" stop-color="#b91c29"/><stop offset="0.27" stop-color="#ab2838"/><stop offset="0.44" stop-color="#933b53"/><stop offset="0.63" stop-color="#725577"/><stop offset="0.82" stop-color="#4877a6"/><stop offset="1" stop-color="#199cd9"/></linearGradient><clipPath id="clip-path-7" transform="translate(-1460.36 -120.19)"><path class="cls-2" d="M1513.58,180v14.25h24.5a32.53,32.53,0,0,0,0-14.25Z"/></clipPath><linearGradient id="Unbenannter_Verlauf_9" x1="-6.79" y1="-12.74" x2="-6.63" y2="-12.74" gradientTransform="matrix(0, -89, -89, 0, -1067.62, -530.5)" gradientUnits="userSpaceOnUse"><stop offset="0" stop-color="#f9b233"/><stop offset="1" stop-color="#179cd9"/></linearGradient><clipPath id="clip-path-8" transform="translate(-1460.36 -120.19)"><path class="cls-2" d="M1475.15,180a32.93,32.93,0,0,0,0,14.25h24.5V180Z"/></clipPath><linearGradient id="Unbenannter_Verlauf_4" x1="-6.79" y1="-15.05" x2="-6.63" y2="-15.05" gradientTransform="matrix(0, -89, -89, 0, -1312.62, -530.5)" gradientUnits="userSpaceOnUse"><stop offset="0" stop-color="#662483"/><stop offset="1" stop-color="#be1824"/></linearGradient><clipPath id="clip-path-9" transform="translate(-1460.36 -120.19)"><path class="cls-2" d="M1492.33,187.09a14.26,14.26,0,1,0,14.26-14.27,14.26,14.26,0,0,0-14.26,14.27"/></clipPath><mask id="mask" x="31.97" y="52.63" width="28.53" height="28.53" maskUnits="userSpaceOnUse"><g transform="translate(-1460.36 -120.19)"><rect class="cls-1" x="1492.33" y="172.82" width="28.53" height="28.53"/></g></mask><radialGradient id="Unbenannter_Verlauf_5" cx="13.88" cy="-7.2" r="0.16" gradientTransform="matrix(89.11, 0, 0, -89.11, -1190.28, -575)" gradientUnits="userSpaceOnUse"><stop offset="0" stop-color="#fff"/><stop offset="0.37" stop-color="#fdfeff"/><stop offset="0.51" stop-color="#f6fcfe"/><stop offset="0.6" stop-color="#ebf7fd"/><stop offset="0.68" stop-color="#daf1fb"/><stop offset="0.75" stop-color="#c4e9f8"/><stop offset="0.8" stop-color="#a8def5"/><stop offset="0.86" stop-color="#88d2f2"/><stop offset="0.91" stop-color="#62c4ee"/><stop offset="0.95" stop-color="#37b4e9"/><stop offset="0.99" stop-color="#09a2e4"/><stop offset="1" stop-color="#009fe3"/></radialGradient></defs><path class="cls-3" d="M1552.79,225.51c0,20.46-42.52,36.32-42.52,36.32s-46.91-12.58-46.91-36.32V123.19h89.43Z" transform="translate(-1460.36 -120.19)"/><g class="cls-4"><g class="cls-4"><g class="cls-4"><path class="cls-5" d="M1513.58,218.55a32.45,32.45,0,0,0,24.5-24.5h-24.5Z" transform="translate(-1460.36 -120.19)"/><path class="cls-6" d="M1513.58,155.62v24.5h24.5a32.45,32.45,0,0,0-24.5-24.5" transform="translate(-1460.36 -120.19)"/><path class="cls-7" d="M1499.65,155.62a32.45,32.45,0,0,0-24.5,24.5h24.5Z" transform="translate(-1460.36 -120.19)"/><path class="cls-8" d="M1499.65,218.55v-24.5h-24.5a32.45,32.45,0,0,0,24.5,24.5" transform="translate(-1460.36 -120.19)"/></g><g class="cls-9"><rect class="cls-10" x="39.13" y="73.86" width="14.24" height="25.29"/></g><g class="cls-11"><rect class="cls-12" x="39.13" y="34.65" width="14.24" height="25.29"/></g><g class="cls-4"><rect class="cls-13" x="39.13" y="59.78" width="14.24" height="14.24"/></g><g class="cls-14"><rect class="cls-15" x="53.22" y="59.78" width="25.29" height="14.24"/></g><g class="cls-16"><rect class="cls-17" x="14" y="59.78" width="25.29" height="14.24"/></g><g class="cls-18"><g class="cls-19"><rect class="cls-20" x="31.97" y="52.63" width="28.53" height="28.53"/></g></g><g class="cls-4"><path class="cls-21" d="M1516,196.31c-.24.09-.92.52-.73,3.51a35.65,35.65,0,0,1-7.2-9.73,20,20,0,0,0,5.93-3.9c.17-2.79-.39-3.7-1-4-1.48-.75-3.39,2.38-6.48,4.36a32.25,32.25,0,0,1-1.58-6.3,34.92,34.92,0,0,1-.31-3.53,16.09,16.09,0,0,0,4.79,0c4.58-.66,6-2.72,7.45-1.75,2.61,1.69.21,9.25,1.34,9.57.46.13,1.22-1.05,1.93-2.42-1-7.73-2.7-9.74-4.11-10-1-.18-1.39.68-4.3,1.64a21.75,21.75,0,0,1-6.54,1h-.56a33,33,0,0,1,.92-6.85,10.67,10.67,0,0,0-3.7-2c-2.24-.66-4.85-.58-5-.06-.08.34.88,1,5.45,2.61q.31,3.26.67,6.22c-.66,0-1.37-.13-2.25-.23-3.59-.39-4.17-.78-4.9-.3-2,1.33-1.32,6.82-.06,7.09.92.2,1.14-2.63,3.75-4.18a5.18,5.18,0,0,1,3.69-.58q.78,6.09,1.76,10.85a8.23,8.23,0,0,1-2.9.69c-1.11.05-3.09-.08-6.79.18-2.27.16-2.52.29-2.54.43-.11.66,4.75,2.85,9.69,2.66a15.09,15.09,0,0,0,3.32-.49q3.15,12.84,8,13.51,3,.42,6.6-3.75c-.41-.64-3.1-4.82-4.42-4.3" transform="translate(-1460.36 -120.19)"/><path class="cls-22" d="M1516,196.31c-.24.09-.92.52-.73,3.51a35.65,35.65,0,0,1-7.2-9.73,20,20,0,0,0,5.93-3.9c.17-2.79-.39-3.7-1-4-1.48-.75-3.39,2.38-6.48,4.36a32.25,32.25,0,0,1-1.58-6.3,34.92,34.92,0,0,1-.31-3.53,16.09,16.09,0,0,0,4.79,0c4.58-.66,6-2.72,7.45-1.75,2.61,1.69.21,9.25,1.34,9.57.46.13,1.22-1.05,1.93-2.42-1-7.73-2.7-9.74-4.11-10-1-.18-1.39.68-4.3,1.64a21.75,21.75,0,0,1-6.54,1h-.56a33,33,0,0,1,.92-6.85,10.67,10.67,0,0,0-3.7-2c-2.24-.66-4.85-.58-5-.06-.08.34.88,1,5.45,2.61q.31,3.26.67,6.22c-.66,0-1.37-.13-2.25-.23-3.59-.39-4.17-.78-4.9-.3-2,1.33-1.32,6.82-.06,7.09.92.2,1.14-2.63,3.75-4.18a5.18,5.18,0,0,1,3.69-.58q.78,6.09,1.76,10.85a8.23,8.23,0,0,1-2.9.69c-1.11.05-3.09-.08-6.79.18-2.27.16-2.52.29-2.54.43-.11.66,4.75,2.85,9.69,2.66a15.09,15.09,0,0,0,3.32-.49q3.15,12.84,8,13.51,3,.42,6.6-3.75C1520,200,1517.33,195.79,1516,196.31Z" transform="translate(-1460.36 -120.19)"/></g></g></g></svg>