<svg xmlns="http://www.w3.org/2000/svg" viewBox="0 0 1293.73 924.52"><defs><style>.cls-1{fill:none;stroke:#666;stroke-miterlimit:10;stroke-width:8px;}.cls-2{fill:#666;}.cls-3{fill:#754d24;}.cls-4{fill:#603813;}</style></defs><g id="Kette"><rect class="cls-1" x="58.07" y="143.97" width="26" height="41.73" rx="7.77"/><path class="cls-2" d="M384.09,152.32a44.71,44.71,0,0,1,3.14,11.19,72.74,72.74,0,0,1,.86,11.2,70.28,70.28,0,0,1-.85,11.19,43.91,43.91,0,0,1-3.15,11.19A44.29,44.29,0,0,1,381,185.9a70.28,70.28,0,0,1-.85-11.19,72.74,72.74,0,0,1,.86-11.2A45.11,45.11,0,0,1,384.09,152.32Z" transform="translate(-313.02 -37.44)"/><rect class="cls-1" x="58.07" y="86.44" width="26" height="41.73" rx="7.77"/><path class="cls-2" d="M384.09,95.45a44.9,44.9,0,0,1,3.14,11.2,72.71,72.71,0,0,1,.86,11.19,70.28,70.28,0,0,1-.85,11.19,44.1,44.1,0,0,1-3.15,11.2A44.48,44.48,0,0,1,381,129a70.28,70.28,0,0,1-.85-11.19,72.71,72.71,0,0,1,.86-11.19A45.3,45.3,0,0,1,384.09,95.45Z" transform="translate(-313.02 -37.44)"/><path class="cls-2" d="M384.09,206a44.9,44.9,0,0,1,3.14,11.2,72.71,72.71,0,0,1,.86,11.19,70.28,70.28,0,0,1-.85,11.19,44.1,44.1,0,0,1-3.15,11.2,44.48,44.48,0,0,1-3.14-11.2,70.28,70.28,0,0,1-.85-11.19,72.71,72.71,0,0,1,.86-11.19A45.3,45.3,0,0,1,384.09,206Z" transform="translate(-313.02 -37.44)"/><rect class="cls-1" x="58.07" y="28.91" width="26" height="41.73" rx="7.77"/><path class="cls-2" d="M384.09,37.61a44.9,44.9,0,0,1,3.14,11.2A72.71,72.71,0,0,1,388.09,60a70.28,70.28,0,0,1-.85,11.19,44.1,44.1,0,0,1-3.15,11.2A44.48,44.48,0,0,1,381,71.19,70.28,70.28,0,0,1,380.1,60,72.71,72.71,0,0,1,381,48.81,45.3,45.3,0,0,1,384.09,37.61Z" transform="translate(-313.02 -37.44)"/><rect class="cls-1" x="1197.35" y="143.79" width="26" height="41.73" rx="7.77"/><path class="cls-2" d="M1523.37,152.14a44.64,44.64,0,0,1,3.13,11.2,72.81,72.81,0,0,1,0,22.38,44.29,44.29,0,0,1-3.14,11.19,44.74,44.74,0,0,1-3.15-11.19,71.47,71.47,0,0,1-.85-11.19,72.71,72.71,0,0,1,.86-11.19A45.09,45.09,0,0,1,1523.37,152.14Z" transform="translate(-313.02 -37.44)"/><rect class="cls-1" x="1197.35" y="86.26" width="26" height="41.73" rx="7.77"/><path class="cls-2" d="M1523.37,95.28a44.68,44.68,0,0,1,3.13,11.19,72.88,72.88,0,0,1,0,22.39,44.29,44.29,0,0,1-3.14,11.19,44.74,44.74,0,0,1-3.15-11.19,71.68,71.68,0,0,1-.85-11.2,72.71,72.71,0,0,1,.86-11.19A45.14,45.14,0,0,1,1523.37,95.28Z" transform="translate(-313.02 -37.44)"/><path class="cls-2" d="M1523.37,205.8A44.68,44.68,0,0,1,1526.5,217a72.88,72.88,0,0,1,0,22.39,44.29,44.29,0,0,1-3.14,11.19,44.74,44.74,0,0,1-3.15-11.19,71.68,71.68,0,0,1-.85-11.2,72.71,72.71,0,0,1,.86-11.19A45.14,45.14,0,0,1,1523.37,205.8Z" transform="translate(-313.02 -37.44)"/><rect class="cls-1" x="1197.35" y="28.74" width="26" height="41.73" rx="7.77"/><path class="cls-2" d="M1523.37,37.44a44.68,44.68,0,0,1,3.13,11.19,72.88,72.88,0,0,1,0,22.39,44.29,44.29,0,0,1-3.14,11.19A44.74,44.74,0,0,1,1520.22,71a71.68,71.68,0,0,1-.85-11.2,72.71,72.71,0,0,1,.86-11.19A45.14,45.14,0,0,1,1523.37,37.44Z" transform="translate(-313.02 -37.44)"/></g><g id="Ebene_1" data-name="Ebene 1"><rect class="cls-3" x="4.5" y="205.99" width="1284.73" height="714.03"/><path class="cls-4" d="M1597.75,247.93V953H322v-705H1597.75m9-9H313V962H1606.75v-723Z" transform="translate(-313.02 -37.44)"/><rect x="43.07" y="232.88" width="1207.59" height="659.37"/></g></svg>