<svg id="Ebene_2" data-name="Ebene 2" xmlns="http://www.w3.org/2000/svg" viewBox="0 0 1342.45 2156.03"><defs><style>.cls-1,.cls-16{fill:none;}.cls-1,.cls-10,.cls-12,.cls-18,.cls-19,.cls-20,.cls-3,.cls-4,.cls-5,.cls-6,.cls-7{stroke:#000;}.cls-1,.cls-10,.cls-12,.cls-16,.cls-18,.cls-19,.cls-2,.cls-20,.cls-3,.cls-4,.cls-5,.cls-6,.cls-7,.cls-9{stroke-miterlimit:10;}.cls-1{stroke-width:4px;}.cls-10,.cls-2{fill:#8c6239;}.cls-16,.cls-2,.cls-9{stroke:#42210b;}.cls-2{stroke-width:5px;}.cls-11,.cls-3,.cls-4{fill:#999;}.cls-3{stroke-width:2px;}.cls-5{fill:#b3b3b3;}.cls-17,.cls-6{fill:#42210b;}.cls-7{fill:#ec663b;}.cls-8{fill:#f39322;}.cls-9{fill:#754c24;stroke-width:6px;}.cls-12{fill:#0079ac;}.cls-13{fill:#2e3192;}.cls-14,.cls-18{fill:gray;}.cls-15{fill:#333;}.cls-19{fill:#666;}.cls-20{fill:#ccc;}</style></defs><line class="cls-1" x1="48.45" y1="892.6" x2="83.07" y2="941.38"/><line class="cls-1" x1="357.45" y1="892.6" x2="322.84" y2="941.38"/><rect class="cls-2" x="48.45" y="941.38" width="305.83" height="219.54"/><rect class="cls-3" x="1" y="873.07" width="592.82" height="23.75"/><polygon class="cls-4" points="594.2 1132.29 374.09 896.82 396.29 896.82 594.2 1108.54 594.2 1132.29"/><rect class="cls-5" x="8679.23" y="6199.9" width="587.32" height="1297.19" transform="matrix(-1, 0, 0, -1, 9868.18, 7565.11)"/><rect class="cls-5" x="471.82" y="261.66" width="716.72" height="358.76"/><polygon class="cls-6" points="707.13 582.14 1107.02 584.71 1107.02 307.34 707.13 304.77 707.13 582.14"/><polygon class="cls-7" points="920.19 437.86 1089.56 438.6 1089.56 324.38 920.19 323.64 920.19 437.86"/><polygon class="cls-7" points="727.54 437.02 896.91 437.75 896.91 323.54 727.54 322.8 727.54 437.02"/><polygon class="cls-7" points="920.19 567.98 1089.56 568.72 1089.56 454.51 920.19 453.77 920.19 567.98"/><polygon class="cls-7" points="727.54 567.14 896.91 567.88 896.91 453.67 727.54 452.93 727.54 567.14"/><polygon class="cls-8" points="939.22 437.75 978.96 437.75 1060.64 324.95 1021.44 324.08 939.22 437.75"/><path class="cls-8" d="M8810.48,6512.06l-.93,51c1,.42-1.51.41,0,0l82.32-113.67-36.18.12Z" transform="translate(-8082.01 -6126.09)"/><polygon class="cls-8" points="751.72 567.08 791.46 567.08 873.14 454.28 833.94 453.41 751.72 567.08"/><polygon class="cls-8" points="996.58 568.08 1007.87 568.08 1089.56 455.28 1078.8 454.41 996.58 568.08"/><rect class="cls-6" x="806.91" y="322.73" width="6.65" height="244.5"/><rect class="cls-6" x="1000.59" y="324.24" width="6.65" height="243.35"/><rect class="cls-9" x="339.61" y="263.88" width="129.21" height="87.59"/><rect class="cls-10" x="8395.78" y="6359.3" width="874.76" height="51.37" transform="translate(9584.32 6643.89) rotate(-180)"/><rect class="cls-9" x="570.26" y="263.88" width="101.87" height="87.59"/><rect class="cls-11" x="8750.74" y="7008.53" width="105.35" height="49.64" transform="translate(9524.81 7940.6) rotate(-180)"/><rect class="cls-11" x="8867.92" y="7221.68" width="105.35" height="49.64" transform="translate(9759.18 8366.91) rotate(-180)"/><g id="Dach_oben" data-name="Dach oben"><polygon class="cls-12" points="1188.54 0.5 610.49 0.5 313.77 234.57 1188.54 241.57 1188.54 0.5"/><path class="cls-13" d="M9038.43,6234.14q-4.84,15-10.06,29.91c-3.45,9.94-7,19.83-10.58,29.72s-7.25,19.75-11,29.57-7.56,19.63-11.52,29.38q4.84-15,10.06-29.91c3.44-9.94,7-19.83,10.58-29.72s7.25-19.74,11-29.57S9034.47,6243.89,9038.43,6234.14Z" transform="translate(-8082.01 -6126.09)"/><path class="cls-13" d="M8792.59,6207.41q-2.28,8-4.92,15.81c-1.74,5.24-3.59,10.44-5.46,15.63s-3.82,10.34-5.86,15.47-4.14,10.23-6.39,15.28q2.28-8,4.92-15.81c1.74-5.24,3.59-10.44,5.46-15.63s3.83-10.34,5.86-15.47S8790.34,6212.46,8792.59,6207.41Z" transform="translate(-8082.01 -6126.09)"/><path class="cls-13" d="M8616.37,6262.33q-2.28,8-4.93,15.82c-1.73,5.24-3.58,10.43-5.45,15.62s-3.83,10.35-5.86,15.48-4.14,10.23-6.4,15.28q2.28-8,4.93-15.82c1.74-5.23,3.58-10.43,5.45-15.62s3.84-10.35,5.87-15.47S8614.12,6267.38,8616.37,6262.33Z" transform="translate(-8082.01 -6126.09)"/><path class="cls-13" d="M8880.52,6282.91q-2.3,8-4.93,15.81c-1.74,5.24-3.58,10.44-5.45,15.63s-3.83,10.34-5.87,15.47-4.14,10.23-6.39,15.28q2.28-8,4.93-15.81c1.73-5.24,3.58-10.44,5.45-15.63s3.83-10.34,5.87-15.47S8878.27,6288,8880.52,6282.91Z" transform="translate(-8082.01 -6126.09)"/><path class="cls-13" d="M9313.7,6202.45q-4.85,15-10.06,29.92c-3.44,9.93-7,19.83-10.58,29.72s-7.25,19.74-11,29.57-7.56,19.63-11.53,29.37q4.86-15,10.06-29.91c3.45-9.93,7-19.83,10.58-29.72s7.26-19.74,11-29.57S9309.74,6212.2,9313.7,6202.45Z" transform="translate(-8082.01 -6126.09)"/></g><rect class="cls-14" x="721.4" y="1349.61" width="461.09" height="803.8"/><path class="cls-5" d="M8955.82,7702.87c0-50.08,111.61-156.95,298-159.16,49.95-.6,94.77,6.88,133.65,19V7381H8671.83V8279.5h284Z" transform="translate(-8082.01 -6126.09)"/><rect class="cls-11" x="8687.11" y="7754.48" width="105.35" height="49.64" transform="translate(9397.55 9432.51) rotate(-180)"/><rect class="cls-11" x="8816.52" y="8214.51" width="105.35" height="49.64" transform="translate(9656.39 10352.58) rotate(-180)"/><rect class="cls-11" x="8920.62" y="7450.88" width="105.35" height="49.64" transform="translate(9864.57 8825.31) rotate(-180)"/><path class="cls-15" d="M9100.56,8252.09h-159a177.89,177.89,0,0,0,0-197.3h159c-7.6,8.74-36.92,44.51-36.88,98.74S9093,8243.33,9100.56,8252.09Z" transform="translate(-8082.01 -6126.09)"/><path class="cls-15" d="M9244.08,8069.08c-27.08,3.95-104.69,29.29-112.21,35.94-13.26,11.75-75.41,37.9-62.82,88,11,43.93-45,23.85-172.12-25.63v-112.6h347.15Z" transform="translate(-8082.01 -6126.09)"/><polygon class="cls-15" points="686.07 1968.33 837.65 2010.77 837.65 1943 686.07 1943 686.07 1968.33"/><path class="cls-15" d="M841.18,2124h192.27a12.86,12.86,0,0,1,12.86,12.86V2153a0,0,0,0,1,0,0h-218a0,0,0,0,1,0,0v-16.22A12.86,12.86,0,0,1,841.18,2124Z"/><g id="Holzverkleidung"><polygon class="cls-9" points="466.82 623.89 1188.54 620.32 1188.54 866.49 466.82 870.07 466.82 623.89"/><line class="cls-16" x1="934.08" y1="669.13" x2="934.08" y2="762.35"/><line class="cls-16" x1="635.09" y1="850.27" x2="635.09" y2="743.41"/><line class="cls-16" x1="571.05" y1="747.9" x2="571.05" y2="657.01"/><line class="cls-16" x1="993.18" y1="746.98" x2="993.18" y2="623.83"/><path class="cls-17" d="M8761.44,6775.89c.62,8.84.94,17.69,1.16,26.53.14,4.42.17,8.84.26,13.26l.08,13.26-.08,13.27c-.08,4.42-.11,8.84-.25,13.26-.22,8.84-.55,17.69-1.17,26.53-.63-8.84-1-17.69-1.17-26.53-.14-4.42-.17-8.84-.25-13.26l-.08-13.27.08-13.26c.08-4.42.11-8.84.25-13.26C8760.49,6793.58,8760.82,6784.73,8761.44,6775.89Z" transform="translate(-8082.01 -6126.09)"/><path class="cls-17" d="M8920.6,6850.54c.62,8.85.94,17.69,1.16,26.53.14,4.42.17,8.84.25,13.26l.09,13.27-.08,13.26c-.09,4.42-.11,8.84-.25,13.26-.22,8.85-.55,17.69-1.17,26.53-.63-8.84-1-17.68-1.17-26.53-.14-4.42-.17-8.84-.25-13.26l-.08-13.26.08-13.27c.08-4.42.11-8.84.25-13.26C8919.65,6868.23,8920,6859.39,8920.6,6850.54Z" transform="translate(-8082.01 -6126.09)"/><rect class="cls-2" x="8826.08" y="6749.92" width="60" height="246.17" transform="translate(9630.16 7619.93) rotate(-180)"/><rect class="cls-2" x="9103.13" y="6749.98" width="60" height="246.17" transform="translate(10184.26 7620.04) rotate(-180)"/><rect class="cls-2" x="8548.83" y="6749.98" width="60" height="246.17" transform="translate(9075.65 7620.04) rotate(-180)"/><polygon class="cls-2" points="666.63 868.58 740.06 868.58 603.43 627.32 530.11 627.22 666.63 868.58"/><polygon class="cls-2" points="943.24 867.6 1016.66 867.6 880.03 626.34 806.71 626.24 943.24 867.6"/><polygon class="cls-9" points="649.01 1254.15 588.42 1254.15 597.22 867.6 657.81 867.6 649.01 1254.15"/><polygon class="cls-9" points="423.87 2153.03 363.28 2153.03 372.08 1257.31 432.67 1257.31 423.87 2153.03"/><rect class="cls-9" x="9079.23" y="6993.69" width="60.59" height="1285.43" transform="translate(10137.04 9146.72) rotate(-180)"/><rect class="cls-9" x="363.28" y="1194.32" width="976.17" height="60.6"/><rect class="cls-2" x="330.77" y="2073.46" width="134.4" height="79.58"/><rect class="cls-2" x="960.31" y="2073.46" width="134.4" height="79.58"/></g><rect class="cls-18" x="192.37" y="994.16" width="18" height="130.75"/><rect class="cls-19" x="152.64" y="962.89" width="97.46" height="46.56"/><path class="cls-20" d="M8235.79,7229l-8.94-12.77,126.86-88.83c8.09-5.66,25.71-8.15,25.71-8.15s-8.46,15.09-16.78,20.92Z" transform="translate(-8082.01 -6126.09)"/><path class="cls-18" d="M8197.12,7214.39h11.18a0,0,0,0,1,0,0v50.9a5.59,5.59,0,0,1-5.59,5.59h0a5.59,5.59,0,0,1-5.59-5.59v-50.9A0,0,0,0,1,8197.12,7214.39Z" transform="translate(1348.64 -9756.92) rotate(55)"/><rect class="cls-18" x="8195.83" y="7220.41" width="60.94" height="13.36" transform="translate(1345.96 -9782.88) rotate(55)"/><path class="cls-20" d="M8326,7227.86l8.94-12.77-126.86-88.83c-8.09-5.66-25.71-8.15-25.71-8.15s8.46,15.1,16.77,20.92Z" transform="translate(-8082.01 -6126.09)"/><path class="cls-18" d="M8359.11,7213.26h0a5.59,5.59,0,0,1,5.59,5.59v50.9a0,0,0,0,1,0,0h-11.18a0,0,0,0,1,0,0v-50.9a5.59,5.59,0,0,1,5.59-5.59Z" transform="translate(11003.58 -1578.41) rotate(125)"/><rect class="cls-18" x="8305.05" y="7219.28" width="60.94" height="13.36" transform="translate(10953.72 -1583.55) rotate(125)"/></svg>