<svg id="Ebene_1" data-name="Ebene 1" xmlns="http://www.w3.org/2000/svg" viewBox="0 0 1267.16 2581.44"><defs><style>.cls-1{fill:#b3b3b3;stroke:#000;}.cls-1,.cls-11,.cls-12,.cls-13,.cls-14,.cls-15,.cls-3,.cls-4,.cls-5{stroke-miterlimit:10;}.cls-1,.cls-12,.cls-5{stroke-width:2px;}.cls-2{fill:#676767;}.cls-3,.cls-5{fill:#8c6239;}.cls-3,.cls-4,.cls-5{stroke:#603813;}.cls-11,.cls-3{stroke-width:4px;}.cls-11,.cls-12,.cls-13,.cls-14,.cls-15,.cls-4{fill:none;}.cls-13,.cls-4{stroke-width:8px;}.cls-6{fill:#603813;}.cls-7{fill:#999;}.cls-8{fill:#93c021;}.cls-9{fill:#fff;}.cls-10{fill:red;}.cls-11,.cls-12,.cls-13,.cls-14,.cls-15{stroke:#4d4d4d;}.cls-15{stroke-width:10px;}.cls-16{fill:#4d4d4d;}</style></defs><rect class="cls-1" x="1" y="2.07" width="995.87" height="2572.56"/><rect class="cls-2" x="623.79" y="1636.74" width="300.53" height="403.2"/><circle class="cls-2" cx="774.05" cy="1644.96" r="150.26"/><rect class="cls-3" x="623.79" y="2074.85" width="313.18" height="94.26"/><path class="cls-4" d="M5709.81,7935a117.54,117.54,0,0,0,53,121.27" transform="translate(-4791.75 -5822.93)"/><path class="cls-4" d="M5432.42,7944.08a141.73,141.73,0,0,0,56.08,127.33" transform="translate(-4791.75 -5822.93)"/><rect class="cls-3" x="676.34" y="2199.12" width="313.18" height="94.26"/><path class="cls-4" d="M5765.89,8083.53c-2.07,6.39-12,39.2,6.06,69.73a78.12,78.12,0,0,0,22.74,24.25" transform="translate(-4791.75 -5822.93)"/><path class="cls-4" d="M5474.86,8097.17c-.79,3.29-7.8,34.95,13.64,59.12,12.69,14.31,28.66,18.44,34.86,19.7" transform="translate(-4791.75 -5822.93)"/><rect class="cls-3" x="711.53" y="2309.39" width="313.18" height="94.26"/><path class="cls-4" d="M5514.27,8201.76a79.28,79.28,0,0,0,37.89,83.37" transform="translate(-4791.75 -5822.93)"/><path class="cls-4" d="M5785.59,8197.22c-.12,6,0,32,19.71,53.05a73.08,73.08,0,0,0,31.83,19.7" transform="translate(-4791.75 -5822.93)"/><rect class="cls-3" x="748.71" y="2409.65" width="313.18" height="94.26"/><path class="cls-4" d="M5567.32,8306.35c-6.27,18,.35,37.58,15.16,47,12.05,7.66,27.94,7.61,40.93,0" transform="translate(-4791.75 -5822.93)"/><path class="cls-4" d="M5828,8285.13c-.11,1.91-1.45,36.26,25.77,54.57,17.26,11.62,35.65,9.8,40.92,9.09" transform="translate(-4791.75 -5822.93)"/><rect class="cls-5" x="815.57" y="2480.37" width="313.18" height="94.26"/><path class="cls-6" d="M5630.38,8279.41c-77.3-125-162-318.31-251.79-574.63l-7.55,2.64c90,256.87,174.93,450.73,252.53,576.2,29,46.95,57.54,85.11,85.06,113.94h11.16C5691,8368.59,5661.05,8329,5630.38,8279.41Z" transform="translate(-4791.75 -5822.93)"/><path class="cls-6" d="M5984.28,8295.11c-77.29-125-162-318.31-251.78-574.63l-7.55,2.64c90,256.87,174.93,450.73,252.53,576.2q36.08,58.32,70.77,98.24h10.66C6034.71,8370.54,6009.73,8336.27,5984.28,8295.11Z" transform="translate(-4791.75 -5822.93)"/><rect class="cls-2" x="473.53" y="142.04" width="300.53" height="403.2"/><circle class="cls-2" cx="623.79" cy="150.26" r="150.26"/><rect class="cls-3" x="496.29" y="509.15" width="313.18" height="94.26"/><rect class="cls-3" x="540.16" y="427.67" width="313.18" height="94.26"/><rect class="cls-3" x="623.79" y="353.12" width="313.18" height="94.26"/><rect class="cls-3" x="675.06" y="305.99" width="313.18" height="94.26"/><rect class="cls-3" x="744.79" y="232.31" width="313.18" height="94.26"/><path class="cls-3" d="M5300.92,6379.61a49.82,49.82,0,0,0,31.83,0c22.17-7.75,29.76-29,30.7-31.84" transform="translate(-4791.75 -5822.93)"/><path class="cls-3" d="M5347.53,6291.52c14,13.88,34.23,18.34,51.16,11.37,19.15-7.88,25.3-26.8,26.15-29.56" transform="translate(-4791.75 -5822.93)"/><path class="cls-3" d="M5437.34,6212.76c3.26,3.2,13.73,12.62,29.56,13.65a44.49,44.49,0,0,0,17.05-2.28" transform="translate(-4791.75 -5822.93)"/><path class="cls-3" d="M5484,6168.15c5.77,16.9,19.26,29.26,34.11,30.7,21.16,2,44.64-18.18,45.47-47.75" transform="translate(-4791.75 -5822.93)"/><path class="cls-4" d="M5222.48,6145.59c26.31,3.11,172.75,17.84,297.85-86.4,94.42-78.67,121.86-179.44,129.6-213.72" transform="translate(-4791.75 -5822.93)"/><rect class="cls-7" x="487.76" y="2282.67" width="105.35" height="61.97"/><rect class="cls-7" x="590.19" y="829.96" width="105.35" height="61.97"/><rect class="cls-7" x="227.25" y="1407.09" width="105.35" height="61.97"/><rect class="cls-7" x="270.19" y="722.62" width="105.35" height="61.97"/><rect class="cls-7" x="756.79" y="1187.51" width="105.35" height="61.97"/><rect class="cls-7" x="434.81" y="1694.97" width="105.35" height="61.97"/><rect class="cls-7" x="71.87" y="2272.1" width="105.35" height="61.97"/><rect class="cls-7" x="114.81" y="1587.63" width="105.35" height="61.97"/><rect class="cls-7" x="50.92" y="8.15" width="105.35" height="61.97"/><rect class="cls-7" x="217.52" y="365.7" width="105.35" height="61.97"/><path class="cls-8" d="M5489.39,8397.56c-23.46-22.36-63.13-52.89-90.32-118.06-46.81-112.19-1-193.67-42.44-218.71-53.33-32.2-136.54,98.12-239.5,72.76-68.94-17-118.3-96.76-130.36-160.67-11.7-62,16.82-82,21.22-194,2.53-64.3-3.45-144.6-15.15-145.52-15.91-1.25-40.81,144.33-51.54,245.56-8,75.69-12,113.53-6.06,151.58,17.8,113.53,77,136.94,69.72,206.15-9.83,93.52-124.74,115.31-118.23,160.93Z" transform="translate(-4791.75 -5822.93)"/><path class="cls-8" d="M5668.88,6535.91c-18.72-4-38.18,62.29-115.2,154.61-53.21,63.78-72.66,66.6-81.85,66.7-57.84.6-87.2-102.65-118.24-94-20.93,5.84-30.79,59.3-18.18,103.07,11.37,39.5,36,53.72,63.66,84.88,46.34,52.28,88.33,137.92,81.85,215.25-7.43,88.66-76.76,144.71-54.57,169.77,8.29,9.35,26.26,10.9,39.41,6.06,71.13-26.2-24.57-230,78.82-394.11,52.58-83.47,120.36-99.12,139.46-197.05C5694.77,6596.07,5685.37,6539.42,5668.88,6535.91Z" transform="translate(-4791.75 -5822.93)"/><path class="cls-8" d="M5788.63,7035.92c-22.12,21.36-48.91,40.55-86.4,44.16-74.88,7.21-113.82-55.33-153.68-31.83-36.15,21.3-46.26,97.53-14.58,141,11.53,15.79,34.64,35.57,131.88,40.92,44.5,2.45,85.88,4.73,122.78,4.35Z" transform="translate(-4791.75 -5822.93)"/><ellipse class="cls-9" cx="825.84" cy="1321.82" rx="9.85" ry="6.57"/><ellipse class="cls-9" cx="802.85" cy="1318.57" rx="10.61" ry="6.28"/><ellipse class="cls-9" cx="812.71" cy="1311.72" rx="6.32" ry="10.11"/><ellipse class="cls-9" cx="812.71" cy="1328.3" rx="6.32" ry="11.21"/><circle class="cls-10" cx="811.22" cy="1321.71" r="6.5"/><ellipse class="cls-9" cx="969.38" cy="1351.76" rx="9.85" ry="6.57"/><ellipse class="cls-9" cx="946.39" cy="1348.51" rx="10.61" ry="6.28"/><ellipse class="cls-9" cx="956.24" cy="1341.65" rx="6.32" ry="10.11"/><ellipse class="cls-9" cx="956.24" cy="1358.23" rx="6.32" ry="11.21"/><circle class="cls-10" cx="954.75" cy="1351.65" r="6.5"/><ellipse class="cls-9" cx="679.38" cy="1051.76" rx="9.85" ry="6.57"/><ellipse class="cls-9" cx="656.39" cy="1048.51" rx="10.61" ry="6.28"/><ellipse class="cls-9" cx="666.24" cy="1041.65" rx="6.32" ry="10.11"/><ellipse class="cls-9" cx="666.24" cy="1058.23" rx="6.32" ry="11.21"/><circle class="cls-10" cx="664.75" cy="1051.65" r="6.5"/><ellipse class="cls-9" cx="859.38" cy="831.63" rx="9.85" ry="6.57"/><ellipse class="cls-9" cx="836.39" cy="828.39" rx="10.61" ry="6.28"/><ellipse class="cls-9" cx="846.24" cy="821.53" rx="6.32" ry="10.11"/><ellipse class="cls-9" cx="846.24" cy="838.11" rx="6.32" ry="11.21"/><circle class="cls-10" cx="844.75" cy="831.52" r="6.5"/><ellipse class="cls-9" cx="534.16" cy="2297.4" rx="9.85" ry="6.57"/><ellipse class="cls-9" cx="511.17" cy="2294.15" rx="10.61" ry="6.28"/><ellipse class="cls-9" cx="521.02" cy="2287.29" rx="6.32" ry="10.11"/><ellipse class="cls-9" cx="521.02" cy="2303.88" rx="6.32" ry="11.21"/><circle class="cls-10" cx="519.53" cy="2297.29" r="6.5"/><ellipse class="cls-9" cx="204.16" cy="1987.4" rx="9.85" ry="6.57"/><ellipse class="cls-9" cx="181.17" cy="1984.15" rx="10.61" ry="6.28"/><ellipse class="cls-9" cx="191.02" cy="1977.29" rx="6.32" ry="10.11"/><ellipse class="cls-9" cx="191.02" cy="1993.88" rx="6.32" ry="11.21"/><circle class="cls-10" cx="189.53" cy="1987.29" r="6.5"/><ellipse class="cls-9" cx="314.16" cy="2517.4" rx="9.85" ry="6.57"/><ellipse class="cls-9" cx="291.17" cy="2514.15" rx="10.61" ry="6.28"/><ellipse class="cls-9" cx="301.02" cy="2507.29" rx="6.32" ry="10.11"/><ellipse class="cls-9" cx="301.02" cy="2523.88" rx="6.32" ry="11.21"/><circle class="cls-10" cx="299.53" cy="2517.29" r="6.5"/><path class="cls-11" d="M4891.41,8271.05q18.18-150.06,36.37-300.13l-45.47-222.82" transform="translate(-4791.75 -5822.93)"/><path class="cls-12" d="M4880,7754.82q65.93-73.9,131.87-147.79l-97.77-143.25" transform="translate(-4791.75 -5822.93)"/><path class="cls-12" d="M5008.29,7608q28.43-59.12,56.84-118.24l120.51-13.64" transform="translate(-4791.75 -5822.93)"/><path class="cls-11" d="M4901.4,8272.82l31.14-300.72-49.36-222" transform="translate(-4791.75 -5822.93)"/><path class="cls-13" d="M4895.7,8268.88q17.18-148.29,34.36-296.59" transform="translate(-4791.75 -5822.93)"/><path class="cls-14" d="M5184.41,7476.46l50-72,184.92,175.07" transform="translate(-4791.75 -5822.93)"/><path class="cls-11" d="M5701.26,6507.09l-300.13-36.38-222.82,45.48" transform="translate(-4791.75 -5822.93)"/><path class="cls-12" d="M5185,6518.46l-147.79-131.87L4894,6484.36" transform="translate(-4791.75 -5822.93)"/><path class="cls-12" d="M5038.23,6390.21,4920,6333.37q-6.83-60.26-13.64-120.51" transform="translate(-4791.75 -5822.93)"/><path class="cls-11" d="M5703,6497.1,5402.32,6466l-222,49.36" transform="translate(-4791.75 -5822.93)"/><path class="cls-13" d="M5699.09,6502.8l-296.59-34.36" transform="translate(-4791.75 -5822.93)"/><path class="cls-15" d="M5788.33,6633.13q-44.9-68.79-89.81-137.56" transform="translate(-4791.75 -5822.93)"/><path class="cls-14" d="M4906.67,6214.09l-72-50,175.07-184.92" transform="translate(-4791.75 -5822.93)"/><polygon class="cls-16" points="113.91 2449.57 108.45 2441.19 1 2511.34 1 2523.28 113.91 2449.57"/><line class="cls-16" x1="1" y1="2581.44" x2="1" y2="2523.29"/><line class="cls-16" x1="1" y1="2511.34" x2="1" y2="2454.12"/><line class="cls-16" x1="1" y1="2523.29" x2="1" y2="2511.34"/></svg>