<svg id="Ebene_2" data-name="Ebene 2" xmlns="http://www.w3.org/2000/svg" viewBox="0 0 2484.28 2547.02"><defs><style>.cls-1,.cls-2,.cls-9{fill:#754d24;}.cls-1,.cls-2{stroke:#42210b;}.cls-1,.cls-2,.cls-4,.cls-5,.cls-6{stroke-miterlimit:10;}.cls-1{stroke-width:5px;}.cls-2,.cls-6{stroke-width:2px;}.cls-3{fill:#676767;}.cls-4,.cls-6{fill:#8c6239;}.cls-4,.cls-5,.cls-6{stroke:#603813;}.cls-4{stroke-width:4px;}.cls-5{fill:none;stroke-width:8px;}.cls-7{fill:#603813;}.cls-8{fill:#42210b;}.cls-10{fill:#93c021;}</style></defs><path class="cls-1" d="M7930.63,6323A536.52,536.52,0,0,1,7846.5,6126a552.3,552.3,0,0,1,2.27-233c46.24,0,66-6,92.47,0-6.83,32.22-18,112-17.43,156.13,1.55,118.11,43.14,208.46,70.48,257Z" transform="translate(-7094.57 -5852.29)"/><path class="cls-1" d="M8618.5,6124.83c-68,121-145.82,170.41-197.14,193-235.62,103.8-749.93-98.22-822.69-424.8H7458.05a317.05,317.05,0,0,0,2,68.31c37.42,269.93,429.61,487.51,967.39,564.36,20.4-1.11,51.39.25,84.6,14.61,84.78,36.64,110,125.93,113.62,139.76Z" transform="translate(-7094.57 -5852.29)"/><rect class="cls-2" x="1495.23" y="40.76" width="986.78" height="2504.51"/><rect class="cls-3" x="8684.88" y="7490.41" width="300.53" height="403.2" transform="translate(10575.72 9531.73) rotate(-180)"/><circle class="cls-3" cx="1740.57" cy="1646.34" r="150.26"/><rect class="cls-4" x="8672.23" y="7898.53" width="313.18" height="94.26" transform="translate(10563.06 10039.02) rotate(-180)"/><path class="cls-5" d="M8691.15,7935.73A117.54,117.54,0,0,1,8638.09,8057" transform="translate(-7094.57 -5852.29)"/><path class="cls-5" d="M8968.53,7944.82a141.73,141.73,0,0,1-56.08,127.33" transform="translate(-7094.57 -5852.29)"/><rect class="cls-4" x="8619.68" y="8022.79" width="313.18" height="94.26" transform="translate(10457.96 10287.55) rotate(-180)"/><path class="cls-5" d="M8635.06,8084.27c2.07,6.39,12,39.2-6.06,69.73a78,78,0,0,1-22.74,24.25" transform="translate(-7094.57 -5852.29)"/><path class="cls-5" d="M8926.09,8097.92c.79,3.28,7.8,34.94-13.64,59.11-12.69,14.31-28.66,18.45-34.86,19.71" transform="translate(-7094.57 -5852.29)"/><rect class="cls-4" x="8584.49" y="8133.06" width="313.18" height="94.26" transform="translate(10387.58 10508.08) rotate(-180)"/><path class="cls-5" d="M8886.68,8202.5a79.28,79.28,0,0,1-37.89,83.37" transform="translate(-7094.57 -5852.29)"/><path class="cls-5" d="M8615.36,8198c.12,6.05,0,32-19.71,53.05a73.22,73.22,0,0,1-31.83,19.71" transform="translate(-7094.57 -5852.29)"/><rect class="cls-4" x="8547.31" y="8233.32" width="313.18" height="94.26" transform="translate(10313.22 10708.62) rotate(-180)"/><path class="cls-5" d="M8833.63,8307.09c6.27,18-.35,37.58-15.16,47-12,7.67-27.94,7.61-40.92,0" transform="translate(-7094.57 -5852.29)"/><path class="cls-5" d="M8572.91,8285.87c.11,1.91,1.45,36.26-25.76,54.57-17.27,11.62-35.66,9.81-40.93,9.1" transform="translate(-7094.57 -5852.29)"/><rect class="cls-6" x="8480.45" y="8304.05" width="313.18" height="94.26" transform="translate(10179.51 10850.06) rotate(-180)"/><path class="cls-7" d="M8770.57,8280.15c77.3-125,162-318.31,251.79-574.63l7.55,2.64c-90,256.87-174.93,450.73-252.53,576.2-29,46.95-57.54,85.11-85.06,113.95h-11.16C8709.92,8369.34,8739.9,8329.74,8770.57,8280.15Z" transform="translate(-7094.57 -5852.29)"/><path class="cls-7" d="M8416.67,8295.85c77.29-125,162-318.31,251.78-574.63l7.55,2.65c-90,256.86-174.93,450.72-252.53,576.19-24,38.88-47.72,71.73-70.77,98.25H8342C8366.24,8371.28,8391.22,8337,8416.67,8295.85Z" transform="translate(-7094.57 -5852.29)"/><rect class="cls-8" x="8684.88" y="7491.41" width="300.53" height="403.2" transform="translate(10575.72 9533.73) rotate(-180)"/><circle class="cls-8" cx="1740.57" cy="1647.34" r="150.26"/><path class="cls-1" d="M9575.58,7955.05c-40.34-3.14-78.26-11.64-110.84-26-51.32-22.61-129.15-72-197.14-193l-7.13,555.25c3.66-13.83,28.84-103.11,113.62-139.76,33.21-14.35,64.2-15.72,84.6-14.6,40.14-5.74,79.46-12.26,116.89-19.53Z" transform="translate(-7094.57 -5852.29)"/><rect class="cls-9" x="2081.84" y="1853.23" width="111.41" height="627.93"/><ellipse class="cls-10" cx="716.12" cy="85.86" rx="43.96" ry="85.86"/><ellipse class="cls-10" cx="660.03" cy="143.24" rx="43.96" ry="85.86"/><ellipse class="cls-10" cx="362.49" cy="135.66" rx="43.96" ry="85.86"/><ellipse class="cls-10" cx="406.45" cy="197.81" rx="43.96" ry="85.86"/><ellipse class="cls-10" cx="282.6" cy="197.81" rx="43.96" ry="85.86"/><ellipse class="cls-10" cx="218.94" cy="277.17" rx="43.96" ry="85.86"/><ellipse class="cls-10" cx="200.75" cy="152.34" rx="43.96" ry="85.86"/><ellipse class="cls-10" cx="274.58" cy="123.93" rx="43.96" ry="85.86"/><ellipse class="cls-10" cx="740.6" cy="191.32" rx="43.96" ry="85.86"/><ellipse class="cls-10" cx="568.2" cy="164.21" rx="43.96" ry="85.86"/><ellipse class="cls-10" cx="612.16" cy="226.36" rx="43.96" ry="85.86"/><ellipse class="cls-10" cx="488.31" cy="226.36" rx="43.96" ry="85.86"/><ellipse class="cls-10" cx="424.64" cy="305.72" rx="43.96" ry="85.86"/><ellipse class="cls-10" cx="406.45" cy="180.88" rx="43.96" ry="85.86"/><ellipse class="cls-10" cx="480.28" cy="152.48" rx="43.96" ry="85.86"/><ellipse class="cls-10" cx="612.16" cy="132.92" rx="43.96" ry="85.86"/><ellipse class="cls-10" cx="656.12" cy="195.07" rx="43.96" ry="85.86"/><ellipse class="cls-10" cx="532.26" cy="195.07" rx="43.96" ry="85.86"/><ellipse class="cls-10" cx="468.6" cy="274.43" rx="43.96" ry="85.86"/><ellipse class="cls-10" cx="450.41" cy="149.59" rx="43.96" ry="85.86"/><ellipse class="cls-10" cx="524.24" cy="121.19" rx="43.96" ry="85.86"/><ellipse class="cls-10" cx="503.24" cy="132.92" rx="43.96" ry="85.86"/><ellipse class="cls-10" cx="547.2" cy="195.07" rx="43.96" ry="85.86"/><ellipse class="cls-10" cx="423.35" cy="195.07" rx="43.96" ry="85.86"/><ellipse class="cls-10" cx="359.68" cy="274.43" rx="43.96" ry="85.86"/><ellipse class="cls-10" cx="341.5" cy="149.59" rx="43.96" ry="85.86"/><ellipse class="cls-10" cx="415.33" cy="121.19" rx="43.96" ry="85.86"/><ellipse class="cls-10" cx="1003.41" cy="117.11" rx="43.96" ry="85.86"/><ellipse class="cls-10" cx="947.33" cy="174.5" rx="43.96" ry="85.86"/><ellipse class="cls-10" cx="1027.9" cy="222.57" rx="43.96" ry="85.86"/><ellipse class="cls-10" cx="834.5" cy="226.32" rx="43.96" ry="85.86"/><ellipse class="cls-10" cx="125.81" cy="211.31" rx="43.96" ry="85.86"/><ellipse class="cls-10" cx="43.96" cy="165.84" rx="43.96" ry="85.86"/><path class="cls-8" d="M9312.84,6170.61l3.7,113.66,1.8,56.83,1.66,56.84c2.18,75.78,4.48,151.56,6.47,227.35l5.91,227.36,5.4,227.37-.55-1.4q4.43,5.05,8.57,10.35c2.72,3.57,5.4,7.17,7.88,10.92a171.45,171.45,0,0,1,13.28,23.42,160.79,160.79,0,0,1,9.34,25.26,134.15,134.15,0,0,1,3,13.14c.93,4.4,1.35,8.88,1.9,13.34a169.08,169.08,0,0,1,.12,26.91,202,202,0,0,1-4.2,26.51c-3.91,17.47-10,34.26-15.6,51.06-2.82,8.39-5.37,16.86-7.75,25.39-1.15,4.27-2.34,8.54-3.35,12.85l-1.58,6.45-1.46,6.47a518.31,518.31,0,0,0-8.84,52.39c-4.14,35.22-4.73,70.81-2.94,106.26-1.21-17.71-1.86-35.46-1.67-53.23s1.15-35.52,3-53.21a500.3,500.3,0,0,1,21.91-104.26c5.48-16.9,11.38-33.63,15.09-50.88a198.56,198.56,0,0,0,3.91-26.07,165.88,165.88,0,0,0-.33-26.28c-.58-4.34-1-8.71-2-13a130.39,130.39,0,0,0-3-12.79,157.47,157.47,0,0,0-9.31-24.55,171.48,171.48,0,0,0-13.08-22.78c-2.43-3.66-5.07-7.16-7.75-10.65s-5.53-6.82-8.44-10.11l-.53-.6,0-.81-6-227.36-5.46-227.37c-1.8-75.79-3.29-151.59-4.9-227.39l-1.18-56.85-1-56.85Z" transform="translate(-7094.57 -5852.29)"/><path class="cls-8" d="M9228,8071.41a327,327,0,0,1,51-16.5c8.69-2.12,17.5-3.78,26.33-5.25s17.75-2.51,26.67-3.31,17.88-1.19,26.84-1.32,17.92.05,26.85.65a327.36,327.36,0,0,1,53,7.54c-17.74-1.94-35.46-3.28-53.2-3.64-8.87-.13-17.73-.16-26.58.18s-17.7.78-26.52,1.57-17.62,1.76-26.39,3-17.51,2.74-26.22,4.39C9262.33,8062.1,9245.09,8066.45,9228,8071.41Z" transform="translate(-7094.57 -5852.29)"/><path class="cls-8" d="M9426.52,6757.22l1.55,36.36,1.45,36.37,2.86,72.74,5.3,145.49-.63-1.42a239.72,239.72,0,0,1,31.11,36A188.36,188.36,0,0,1,9490.4,7125l2,5.65c.62,1.9,1.16,3.82,1.74,5.73l.86,2.87.71,2.91,1.4,5.83a170.87,170.87,0,0,1,3.29,23.72,189.29,189.29,0,0,1-2.94,47.65,242.33,242.33,0,0,1-13.54,45.71q-4.5,11-9.81,21.7-2.66,5.32-5.45,10.56c-1.86,3.5-3.73,6.94-5.47,10.42s-3.42,7-5.1,10.54l-2.35,5.37c-.8,1.78-1.54,3.59-2.26,5.4l-2.17,5.44-2,5.5-1,2.75-.94,2.78-1.87,5.56a400.93,400.93,0,0,0-11.55,45.5c-3,15.38-5.16,30.93-6.72,46.55-.34,3.9-.79,7.8-1.05,11.72l-.83,11.74-.59,11.77c-.22,3.92-.28,7.85-.42,11.77-.42,15.7-.45,31.43.08,47.14l.16,5.89.26,5.9.53,11.78.75,11.77.37,5.89.46,5.88,1,11.76c.33,3.92.75,7.83,1.12,11.75.7,7.83,1.62,15.65,2.5,23.47l.67,5.86.74,5.86,1.46,11.71c1,7.81,2.16,15.59,3.24,23.39,4.57,31.16,10.14,62.17,16.22,93.09q-10.3-46.12-18-92.81c-1.21-7.78-2.5-15.56-3.65-23.36l-1.66-11.71-.83-5.85-.73-5.87c-1-7.82-2-15.65-2.76-23.49-.41-3.92-.87-7.84-1.24-11.77l-1.08-11.78-.52-5.89-.44-5.9-.87-11.8-.66-11.82-.33-5.91-.22-5.92c-.69-15.76-.83-31.56-.57-47.36.1-3.94.11-7.89.29-11.84l.52-11.84.78-11.83c.24-3.95.67-7.88,1-11.82,1.48-15.74,3.59-31.44,6.53-47a384.47,384.47,0,0,1,11.53-46.1l1.88-5.64,1-2.82,1-2.8,2.05-5.59,2.2-5.53c.73-1.85,1.48-3.68,2.29-5.5l2.38-5.46c1.7-3.59,3.32-7.22,5.17-10.74s3.66-7.05,5.49-10.51,3.64-6.94,5.37-10.45q5.23-10.5,9.62-21.37a238.4,238.4,0,0,0,13.33-44.74,184.05,184.05,0,0,0,3-46.42,165.82,165.82,0,0,0-3.16-23.06l-1.34-5.66-.68-2.83-.82-2.8c-.56-1.85-1.07-3.73-1.66-5.58l-1.92-5.5a183.9,183.9,0,0,0-21.48-41.3,240.71,240.71,0,0,0-30.34-35.57l-.61-.6,0-.83-3.79-145.54-1.69-72.77-.82-36.39Z" transform="translate(-7094.57 -5852.29)"/><path class="cls-8" d="M8761.09,5935.66l2.07,156.12,1.77,156.12,1.65,156.12,1.42,156.13,2.35,312.25,1,156.13.78,156.12v.39l-.13.34a998.43,998.43,0,0,1-44.07,95q-12.24,23.15-25.69,45.63-6.72,11.23-13.73,22.29l-14.07,22a300.22,300.22,0,0,0-40.31,95.6,352.68,352.68,0,0,0-8.15,51.53,435.35,435.35,0,0,0-1.29,52.22,434.28,434.28,0,0,1,.54-52.28,353.32,353.32,0,0,1,7.6-51.77,302.07,302.07,0,0,1,39.53-96.6l13.91-22.14q6.92-11.07,13.54-22.32c8.81-15,17.29-30.22,25.31-45.66a989.64,989.64,0,0,0,43.29-94.95l-.13.72-1.49-156.12-1.3-156.13-2.19-312.25-.86-156.13-.63-156.13-.5-156.13Z" transform="translate(-7094.57 -5852.29)"/><path class="cls-8" d="M8812.63,6332.79l4.23,103.43,2.07,51.71,1.95,51.72,3.85,103.44,3.75,103.44,7.09,206.9,6.64,206.91-1-1.84a450,450,0,0,1,85.47,74.11,456.91,456.91,0,0,1,64.32,93l1.66,3.12,1.58,3.17,3.16,6.34c2.07,4.23,4,8.54,6,12.8s3.82,8.63,5.62,13,3.62,8.71,5.25,13.14a511.51,511.51,0,0,1,17.27,53.83,564.55,564.55,0,0,1,17.55,111.43,583,583,0,0,0-19.28-111,521.76,521.76,0,0,0-17.92-53.38c-1.66-4.38-3.54-8.68-5.33-13s-3.81-8.58-5.7-12.87c-2-4.22-4-8.48-6.1-12.68l-3.19-6.27-1.59-3.13-1.68-3.09a453.42,453.42,0,0,0-149.67-164.66l-1-.65,0-1.19-7-206.9-6.56-206.91L8821,6643.21l-3-103.46-1.46-51.74-1.35-51.74Z" transform="translate(-7094.57 -5852.29)"/><path class="cls-8" d="M7794,6232.75a733.42,733.42,0,0,0,168.4,103.62,702.09,702.09,0,0,0,93.14,33.34l5.95,1.69,3,.85c1,.28,2,.5,3,.76l12,2.94,12,2.95,12.11,2.53c8.06,1.79,16.2,3.09,24.32,4.56,4.05.78,8.14,1.27,12.22,1.91s8.15,1.25,12.24,1.76l12.28,1.47c2,.24,4.1.52,6.15.72l6.16.57,12.32,1.12,12.34.79,6.17.39,6.19.23,12.36.44c8.25.06,16.49.29,24.74.09,16.5-.09,33-1,49.44-2.27,4.11-.37,8.22-.68,12.33-1.09l12.3-1.33c4.11-.41,8.19-1,12.29-1.52l6.14-.8,6.12-.92q24.51-3.6,48.72-8.94t48-12.22q23.84-6.81,47.2-15.22c7.77-2.84,15.51-5.74,23.19-8.83s15.33-6.22,22.91-9.55a697.18,697.18,0,0,1-92.6,35.95q-23.78,7.29-48,12.95t-48.83,9.66c-16.38,2.65-32.85,4.85-49.4,6.22s-33.13,2.44-49.74,2.65l-6.23.12c-2.07.06-4.15,0-6.23,0l-12.45-.1-12.46-.42-6.22-.22-6.22-.37-12.44-.77-12.41-1.1-6.2-.56c-2.07-.19-4.13-.47-6.19-.7l-12.38-1.47c-4.12-.52-8.22-1.21-12.33-1.8s-8.23-1.16-12.3-2c-8.17-1.5-16.38-2.83-24.48-4.65l-12.19-2.58-12.1-3-12.09-3c-1-.26-2-.48-3-.77l-3-.87-6-1.75a666.57,666.57,0,0,1-93.41-34.38,713.37,713.37,0,0,1-87.38-47.51c-13.88-9.07-27.59-18.41-40.8-28.42l-5-3.71-4.9-3.82-4.9-3.82c-1.64-1.27-3.27-2.54-4.86-3.87l-9.58-7.9Z" transform="translate(-7094.57 -5852.29)"/><path class="cls-8" d="M8245.72,6435.87a341.42,341.42,0,0,1,78.33-12.73,346.32,346.32,0,0,1,39.85.42l9.94.9c1.65.17,3.31.26,5,.5l4.94.68,9.89,1.37,9.81,1.82a334.36,334.36,0,0,1,38.63,10l2.38.74,2.34.87,4.68,1.73,9.36,3.46c6.18,2.45,12.29,5.08,18.27,8a307.61,307.61,0,0,1,66.75,42.91,380.76,380.76,0,0,0-68.37-39.36l-4.52-2-4.55-1.88c-1.52-.64-3-1.23-4.57-1.83s-3-1.24-4.6-1.77l-9.29-3.25-4.64-1.62L8443,6444l-2.37-.69a343,343,0,0,0-38.13-9.6l-9.66-1.85-9.74-1.4-4.87-.71c-1.62-.24-3.26-.34-4.89-.52l-9.79-1a388.55,388.55,0,0,0-39.36-1.24A431.83,431.83,0,0,0,8245.72,6435.87Z" transform="translate(-7094.57 -5852.29)"/><path class="cls-8" d="M9028.22,5899.36l.87,23.88,1,23.88,1.91,47.76,4,95.5,4.31,95.49c1.53,31.82,2.94,63.65,4.61,95.47l4.87,95.47,2.64,47.72,1.33,23.86,1.41,23.86-.66-23.89-.76-23.89-1.53-47.77-3.47-95.53c-1.11-31.84-2.48-63.67-3.72-95.51l-4-95.5-4.3-95.49-2.27-47.74-1.13-23.87-1.22-23.86-.31-6.15H9028Z" transform="translate(-7094.57 -5852.29)"/><path class="cls-8" d="M9460.15,5978.49l.25,86,.52,86c.27,28.67.42,57.35.82,86l1.08,86,.75,43,.38,21.5.47,21.5.28-21.5.19-21.51.37-43,.31-86c.16-28.67.05-57.35.07-86l-.24-86-.51-86c-.27-28.47-.44-56.95-.79-85.42h-3.91C9460.09,5921.53,9460.17,5950,9460.15,5978.49Z" transform="translate(-7094.57 -5852.29)"/><line class="cls-8" x1="1933.42" y1="40.76" x2="1937.18" y2="40.76"/><path class="cls-8" d="M9460.19,5892.47v.58h3.91c0-.2,0-.4,0-.6" transform="translate(-7094.57 -5852.29)"/><path class="cls-8" d="M9577.78,8024.59l-4.44-.2-8.87-.39c-11.8-.85-23.6-1.84-35.29-3.62a391.62,391.62,0,0,1-69-15.93,371.14,371.14,0,0,1-64.85-28.35l-7.74-4.32c-2.56-1.47-5-3.1-7.55-4.64l-7.53-4.69c-2.48-1.6-4.88-3.32-7.33-5-9.8-6.62-19.13-13.91-28.29-21.39a396.48,396.48,0,0,1-50-50.34q-11.37-13.68-21.58-28.3l-5-7.37-4.84-7.48-4.72-7.56-4.57-7.67a394.38,394.38,0,0,0,38.83,59.91c7.31,9.43,15.27,18.35,23.44,27l6.25,6.43c2.1,2.12,4.3,4.14,6.45,6.22l3.24,3.1c1.07,1,2.22,2,3.32,3l6.7,6a365.62,365.62,0,0,0,124.24,70.15l2.12.73,2.15.64,4.31,1.28,8.6,2.56,8.7,2.21,4.35,1.1,2.18.55,2.19.47,8.78,1.87,4.39.92,4.42.77,8.85,1.53c2.94.51,5.92.83,8.88,1.25,11.84,1.68,23.78,2.57,35.7,3.3,4.88.19,9.75.35,14.63.44v-4.2Z" transform="translate(-7094.57 -5852.29)"/></svg>