<svg id="Ebene_2" data-name="Ebene 2" xmlns="http://www.w3.org/2000/svg" viewBox="0 0 1804.42 2324.62"><defs><style>.cls-1{fill:#676767;}.cls-1,.cls-2,.cls-3,.cls-4,.cls-5{stroke:#000;stroke-miterlimit:10;}.cls-1,.cls-2,.cls-3{stroke-width:2px;}.cls-2{fill:#f29222;}.cls-3{fill:#b3b3b3;}.cls-4{fill:#8c6239;}.cls-5{fill:none;stroke-width:4px;}.cls-6{fill:#047aad;}.cls-7{fill:#be1823;}.cls-8{fill:#93c021;}.cls-9{fill:#ec663a;}.cls-10{fill:#999;}</style></defs><path class="cls-1" d="M6142.68,8279.5V7381.72H6010.15v-989H5120.48V7982.63h669.67V8279.5Z" transform="translate(-5119.48 -5955.88)"/><polygon class="cls-2" points="1032.44 436.8 1 436.8 1 1 777.9 1 1032.44 436.8"/><rect class="cls-3" x="400.07" y="1878.31" width="358.07" height="74.22"/><rect class="cls-3" x="466.34" y="1952.53" width="358.07" height="74.22"/><rect class="cls-3" x="532.6" y="2026.75" width="358.07" height="74.22"/><rect class="cls-3" x="598.87" y="2100.97" width="358.07" height="74.22"/><rect class="cls-3" x="731.4" y="2249.4" width="358.07" height="74.22"/><rect class="cls-3" x="665.13" y="2175.18" width="358.07" height="74.22"/><rect class="cls-3" x="286.73" y="840.75" width="443.03" height="1482.87"/><polygon class="cls-2" points="508.25 32.85 219.27 840.75 797.22 840.75 508.25 32.85"/><rect class="cls-3" x="1" y="1444.03" width="285.73" height="879.59"/><rect class="cls-4" x="1" y="1207.88" width="285.73" height="43.96"/><rect class="cls-4" x="90.43" y="1251.84" width="33.35" height="196.72"/><path class="cls-1" d="M5745.16,7876.3c-3.42-79.16-55.95-142-120.26-142s-116.83,62.88-120.26,142h-.18v403.2h240.88V7876.3Z" transform="translate(-5119.48 -5955.88)"/><polygon class="cls-2" points="1174.22 1425.84 890.67 1425.84 890.67 1251.84 1089.46 1251.84 1174.22 1425.84"/><path class="cls-1" d="M5677.11,7229.41c-1.49-34.37-24.29-61.66-52.21-61.66s-50.71,27.29-52.2,61.66h-.08v175h104.56v-175Z" transform="translate(-5119.48 -5955.88)"/><path class="cls-5" d="M6922.24,6094.52c-35.21,53.08-164.51,234-415.33,312.25-236.94,74-435.25,10.48-497.18-12.12" transform="translate(-5119.48 -5955.88)"/><polygon class="cls-6" points="1148.14 619.36 1104.84 488.26 1191.44 488.26 1148.14 619.36"/><polygon class="cls-7" points="945.69 596.53 931.98 459.15 1016.5 478.01 945.69 596.53"/><polygon class="cls-8" points="1405.19 586.69 1330.14 470.81 1413.93 448.9 1405.19 586.69"/><polygon class="cls-9" points="1670.05 468.85 1560.68 384.6 1632.38 336.03 1670.05 468.85"/><rect class="cls-10" x="18.43" y="1512.3" width="105.35" height="61.97"/><rect class="cls-10" x="400.47" y="930.18" width="105.35" height="61.97"/><rect class="cls-10" x="107.35" y="2212.29" width="105.35" height="61.97"/><rect class="cls-10" x="107.35" y="1884.43" width="105.35" height="61.97"/><rect class="cls-10" x="612.46" y="1126.57" width="105.35" height="61.97"/><rect class="cls-10" x="347.4" y="1483.44" width="105.35" height="61.97"/><rect class="cls-10" x="592.7" y="1692.33" width="105.35" height="61.97"/></svg>