<svg id="Ebene_1" data-name="Ebene 1" xmlns="http://www.w3.org/2000/svg" viewBox="0 0 1371.49 2142.84"><defs><style>.cls-1{fill:#676767;}.cls-1,.cls-10,.cls-11,.cls-2,.cls-3,.cls-4,.cls-7,.cls-8,.cls-9{stroke:#000;stroke-miterlimit:10;}.cls-1,.cls-2,.cls-7,.cls-8{stroke-width:2px;}.cls-2{fill:#b3b3b3;}.cls-3{fill:#42210b;}.cls-4{fill:#ec663b;}.cls-5{fill:#f39322;}.cls-6{fill:#1a9dd9;}.cls-7{fill:#be1823;}.cls-8{fill:#8c6239;}.cls-9{fill:none;stroke-width:3px;}.cls-10{fill:#047aad;}.cls-11{fill:#fff;}.cls-12{fill:#999;}</style></defs><rect class="cls-1" x="996.87" y="456.45" width="372.95" height="1308.94"/><rect class="cls-2" x="804.48" y="1234.29" width="108.62" height="577.53"/><rect class="cls-2" x="360.71" y="1727.98" width="1009.11" height="413.86"/><path class="cls-2" d="M624.27,1089.63h469.06a0,0,0,0,1,0,0v7.11A142.87,142.87,0,0,1,950.46,1239.6H767.13a142.87,142.87,0,0,1-142.87-142.87v-7.11a0,0,0,0,1,0,0Z"/><rect class="cls-2" x="162.61" y="1967.95" width="1207.21" height="86.76"/><rect class="cls-2" x="1" y="2054.71" width="1368.82" height="86.76"/><polygon class="cls-3" points="1365.88 867.93 1019.88 870.16 1019.88 630.16 1365.88 627.93 1365.88 867.93"/><polygon class="cls-4" points="1181.53 743.09 1034.99 743.73 1034.99 644.9 1181.53 644.27 1181.53 743.09"/><polygon class="cls-4" points="1348.22 742.36 1201.67 743 1201.67 644.18 1348.22 643.54 1348.22 742.36"/><polygon class="cls-4" points="1181.53 855.68 1034.99 856.32 1034.99 757.5 1181.53 756.86 1181.53 855.68"/><polygon class="cls-4" points="1348.22 854.96 1201.67 855.6 1201.67 756.77 1348.22 756.13 1348.22 854.96"/><polygon class="cls-5" points="1165.07 743 1130.68 743 1060 645.4 1093.92 644.65 1165.07 743"/><path class="cls-5" d="M9340.52,6845.06l.8,44.17c-.82.36,1.31.35,0,0l-71.22-98.36,31.3.11Z" transform="translate(-7993.1 -6146.86)"/><polygon class="cls-5" points="1327.31 854.9 1292.92 854.9 1222.24 757.3 1256.16 756.55 1327.31 854.9"/><polygon class="cls-5" points="1115.44 855.77 1105.67 855.77 1034.99 758.16 1044.29 757.41 1115.44 855.77"/><rect class="cls-3" x="1105.38" y="644.77" width="5.76" height="211.56"/><rect class="cls-3" x="1272.97" y="644.34" width="5.76" height="210.56"/><polygon class="cls-3" points="1370.99 1615.69 1024.99 1617.92 1024.99 1377.92 1370.99 1375.69 1370.99 1615.69"/><polygon class="cls-4" points="1186.64 1490.85 1040.1 1491.49 1040.1 1392.67 1186.64 1392.03 1186.64 1490.85"/><polygon class="cls-4" points="1353.33 1490.12 1206.79 1490.76 1206.79 1391.94 1353.33 1391.3 1353.33 1490.12"/><polygon class="cls-4" points="1186.64 1603.44 1040.1 1604.08 1040.1 1505.26 1186.64 1504.62 1186.64 1603.44"/><polygon class="cls-4" points="1353.33 1602.72 1206.79 1603.36 1206.79 1504.53 1353.33 1503.89 1353.33 1602.72"/><polygon class="cls-5" points="1170.18 1490.76 1135.8 1490.76 1065.12 1393.16 1099.04 1392.41 1170.18 1490.76"/><path class="cls-5" d="M9345.63,7592.82l.8,44.17c-.82.36,1.31.35,0,0l-71.22-98.36,31.3.11Z" transform="translate(-7993.1 -6146.86)"/><polygon class="cls-5" points="1332.42 1602.66 1298.03 1602.66 1227.35 1505.06 1261.27 1504.31 1332.42 1602.66"/><polygon class="cls-5" points="1120.55 1603.53 1110.78 1603.53 1040.1 1505.92 1049.4 1505.17 1120.55 1603.53"/><rect class="cls-3" x="1110.49" y="1392.53" width="5.76" height="211.56"/><rect class="cls-3" x="1278.08" y="1392.1" width="5.76" height="210.56"/><path class="cls-6" d="M8837.31,7226.11c-4.06-27.25-117.69-36.75-155.53-32.44-186,21.19-277,573.51-293.78,681.17h218.13a21.47,21.47,0,0,0,.74-9.25c-55.54-437,30.53-548.4,90.33-594.57,1.26-1,2.73-2.05,2.74-2.05,13.64-10.16,62.9-44.89,92.52-33.89h43.45A18.37,18.37,0,0,0,8837.31,7226.11Z" transform="translate(-7993.1 -6146.86)"/><path class="cls-6" d="M8876.11,7226.11c4-27.25,117.68-36.75,155.52-32.44,186,21.19,277,573.51,293.78,681.17H9107.28a21.47,21.47,0,0,1-.74-9.25c55.54-437-30.53-548.4-90.33-594.57-1.26-1-2.73-2.05-2.74-2.05-13.64-10.16-62.9-44.89-92.52-33.89H8877.5A18.23,18.23,0,0,1,8876.11,7226.11Z" transform="translate(-7993.1 -6146.86)"/><polygon class="cls-7" points="1369.82 456.45 844.33 456.45 1160.58 1.78 1369.82 1 1369.82 456.45"/><rect class="cls-8" x="534.14" y="635.23" width="462.73" height="23.81"/><line class="cls-9" x1="544.14" y1="659.05" x2="595.31" y2="757.2"/><line class="cls-9" x1="896.95" y1="659.05" x2="804.14" y2="750.06"/><rect class="cls-8" x="544.14" y="719.72" width="320.68" height="233.82"/><path class="cls-10" d="M8747.09,7067.32h-144c48.92-63.24,51.21-96.62,41.68-115.58-13-25.77-55-39.3-51-55.83,1.17-4.9,5.89-8,9.35-9.73h144Z" transform="translate(-7993.1 -6146.86)"/><rect class="cls-11" x="607.46" y="743.87" width="144" height="181.14"/><rect class="cls-10" x="600.64" y="749.05" width="144" height="181.14"/><path class="cls-12" d="M8487.41,7943.26a55.18,55.18,0,0,0-110.2,0h-.08v148.08H8487.5V7943.26Z" transform="translate(-7993.1 -6146.86)"/><path class="cls-12" d="M8634.3,7943.26a55.19,55.19,0,0,0-110.21,0H8524v148.08h110.37V7943.26Z" transform="translate(-7993.1 -6146.86)"/><path class="cls-12" d="M8779,7943.26a55.18,55.18,0,0,0-110.2,0h-.09v148.08h110.37V7943.26Z" transform="translate(-7993.1 -6146.86)"/><path class="cls-12" d="M8925.91,7943.26a55.18,55.18,0,0,0-110.2,0h-.08v148.08H8926V7943.26Z" transform="translate(-7993.1 -6146.86)"/><path class="cls-12" d="M9068.08,7943.26a55.18,55.18,0,0,0-110.2,0h-.08v148.08h110.37V7943.26Z" transform="translate(-7993.1 -6146.86)"/><path class="cls-12" d="M9215,7943.26a55.19,55.19,0,0,0-110.21,0h-.08v148.08h110.37V7943.26Z" transform="translate(-7993.1 -6146.86)"/><path class="cls-12" d="M9362.84,7943.26a55.19,55.19,0,0,0-110.21,0h-.08v148.08h110.37V7943.26Z" transform="translate(-7993.1 -6146.86)"/></svg>