<svg id="Ebene_1" data-name="Ebene 1" xmlns="http://www.w3.org/2000/svg" viewBox="0 0 1979.59 2230.13"><defs><style>.cls-1,.cls-10{fill:#676767;}.cls-1,.cls-2,.cls-3,.cls-5,.cls-6,.cls-7{stroke:#000;}.cls-1,.cls-10,.cls-11,.cls-14,.cls-2,.cls-3,.cls-4,.cls-5,.cls-6,.cls-7,.cls-8,.cls-9{stroke-miterlimit:10;}.cls-1,.cls-10,.cls-14{stroke-width:3px;}.cls-2,.cls-9{fill:#b3b3b3;}.cls-2,.cls-3,.cls-8{stroke-width:2px;}.cls-11,.cls-3,.cls-4,.cls-8{fill:#8c6239;}.cls-10,.cls-11,.cls-14,.cls-4,.cls-8,.cls-9{stroke:#42210b;}.cls-5{fill:none;stroke-width:8px;}.cls-6{fill:#f39322;}.cls-7{fill:#4d4d4d;}.cls-11{stroke-width:7px;}.cls-12{fill:#754d24;}.cls-13{fill:#42210b;}.cls-14{fill:#fff;}</style></defs><path class="cls-1" d="M4997.32,8279.5H6924l-323.23-237.93c-68,.67-177-7.89-294.38-62.81a660.48,660.48,0,0,1-125.76-77.1L5997.66,7459.1,5700.42,6425.48a1956.49,1956.49,0,0,1-545.9-237c-56.68-35.74-109-72.83-157.2-110.35Z" transform="translate(-4995.82 -6050.87)"/><path d="M5345.26,6850.44c17.34,6.56,34.64,13.25,51.95,19.89s34.58,13.4,51.87,20.1,34.59,13.38,51.83,20.19l51.77,20.36.63.25.2.66,11.44,37.77,11.33,37.82,22.58,75.64,22.29,75.74c3.74,12.61,7.35,25.26,11,37.9l10.93,37.93-11.8-37.67c-3.91-12.57-7.87-25.11-11.71-37.7l-23.19-75.46-22.89-75.56-11.41-37.78-11.29-37.83.83.91L5500,6913c-17.24-6.83-34.41-13.83-51.62-20.73s-34.42-13.8-51.58-20.83S5362.4,6857.52,5345.26,6850.44Z" transform="translate(-4995.82 -6050.87)"/><path d="M5108.79,7155.11l69.68,50.14,69.57,50.28,69.53,50.34,69.42,50.5.87.64-.43,1a305.78,305.78,0,0,0-20.57,68.45,283.06,283.06,0,0,0-3.69,35.57l-.08,8.94c-.09,3,.08,6,.19,8.94l.18,4.47.09,2.23.2,2.23.83,8.9a237.72,237.72,0,0,0,6.78,35.08c.4,1.43.73,2.89,1.18,4.31l1.36,4.26c.93,2.83,1.74,5.7,2.84,8.47s2.07,5.6,3.14,8.38l3.52,8.22a264.47,264.47,0,0,0,16.86,31.55,297.9,297.9,0,0,0,21,28.95,337.71,337.71,0,0,0,24.54,26.08,355.18,355.18,0,0,0,27.4,23.1c2.4,1.79,4.84,3.5,7.26,5.26l3.65,2.61,3.73,2.49c2.5,1.64,4.95,3.35,7.49,4.94l7.64,4.7c10.29,6.09,20.79,11.87,31.65,16.91,5.36,2.67,10.91,4.92,16.38,7.35,2.76,1.15,5.56,2.21,8.34,3.33l4.17,1.66c1.39.55,2.81,1,4.22,1.54l8.45,3c2.83,1,5.7,1.85,8.54,2.78l4.28,1.38c1.42.46,2.87.83,4.31,1.26l8.64,2.47c11.59,3,23.26,5.81,35.07,7.86,11.78,2.25,23.69,3.76,35.61,5.1a440.76,440.76,0,0,1-70.93-12l-8.69-2.37c-1.44-.41-2.9-.77-4.33-1.22l-4.31-1.33c-2.86-.9-5.74-1.75-8.6-2.68l-8.51-2.95c-1.42-.5-2.85-1-4.26-1.5l-4.2-1.62c-2.8-1.09-5.62-2.14-8.4-3.28-5.51-2.4-11.1-4.62-16.5-7.26a360.64,360.64,0,0,1-31.93-16.77l-7.72-4.67c-2.56-1.57-5-3.28-7.56-4.91l-3.78-2.48-3.68-2.6c-2.45-1.75-4.92-3.46-7.35-5.24a357.79,357.79,0,0,1-27.77-23.07,324,324,0,0,1-24.85-26.22,302.89,302.89,0,0,1-21.31-29.18,267.14,267.14,0,0,1-17.11-31.85l-3.58-8.31c-1.1-2.81-2.13-5.64-3.2-8.46s-2-5.71-2.9-8.58l-1.38-4.31c-.46-1.43-.8-2.9-1.21-4.36a239.24,239.24,0,0,1-6.95-35.5l-.86-9-.21-2.25-.1-2.26-.19-4.52c-.39-6-.14-12.07-.1-18.1a283.45,283.45,0,0,1,3.82-36,307.61,307.61,0,0,1,20.92-69l.44,1.64-69.28-50.68-69.17-50.84-69.12-50.9Z" transform="translate(-4995.82 -6050.87)"/><rect class="cls-2" x="391.5" y="2150.13" width="1587.09" height="78.49"/><rect class="cls-3" x="636.84" y="2166.05" width="153.3" height="62.58"/><rect class="cls-3" x="900.01" y="2166.05" width="153.3" height="62.58"/><rect class="cls-3" x="1170" y="2166.05" width="153.3" height="62.58"/><rect class="cls-3" x="1448.09" y="2166.05" width="153.3" height="62.58"/><rect class="cls-3" x="1715.5" y="2166.05" width="153.3" height="62.58"/><rect class="cls-3" x="391.5" y="2166.05" width="153.3" height="62.58"/><rect class="cls-4" x="243.68" y="1543.06" width="97.59" height="607.07"/><rect class="cls-4" x="748.03" y="1543.06" width="97.59" height="607.07"/><rect class="cls-4" x="5383.18" y="7208.07" width="97.59" height="869.31" transform="translate(-7206.57 7023.83) rotate(-90)"/><path class="cls-1" d="M4997.32,8279.5H5498l-198.21-185.36Q5225.89,7935,5152,7775.83l-154.67-30.94Z" transform="translate(-4995.82 -6050.87)"/><g id="Lampe"><rect class="cls-5" x="512.25" y="1663.94" width="18.19" height="27.28" rx="7.77"/><path d="M5517.17,7733.76a22,22,0,0,1,3.13,7.32,31,31,0,0,1,.87,7.32,30,30,0,0,1-.86,7.32,21.86,21.86,0,0,1-3.14,7.32,22.1,22.1,0,0,1-3.15-7.32,30.48,30.48,0,0,1-.85-7.32,31.54,31.54,0,0,1,.86-7.32A22.27,22.27,0,0,1,5517.17,7733.76Z" transform="translate(-4995.82 -6050.87)"/><polygon class="cls-6" points="547.81 1838.37 492.32 1838.37 472.32 1734.65 567.81 1734.65 547.81 1838.37"/><polygon class="cls-7" points="574.54 1734.65 468.15 1734.65 518.15 1706.03 524.54 1706.03 574.54 1734.65"/><path d="M5517.17,7695.8a22,22,0,0,1,3.13,7.32,31,31,0,0,1,.87,7.32,30,30,0,0,1-.86,7.32,21.9,21.9,0,0,1-3.14,7.31,22.14,22.14,0,0,1-3.15-7.31,30.48,30.48,0,0,1-.85-7.32,31.54,31.54,0,0,1,.86-7.32A22.27,22.27,0,0,1,5517.17,7695.8Z" transform="translate(-4995.82 -6050.87)"/><rect class="cls-7" x="487.73" y="1838.37" width="64.67" height="8.22"/><rect class="cls-7" x="517.37" y="1734.65" width="7.96" height="103.73"/><polygon class="cls-7" points="499.69 1838.37 491.73 1838.37 472.34 1734.65 480.3 1734.65 499.69 1838.37"/><polygon class="cls-7" points="542.47 1838.37 550.42 1838.37 569.81 1734.65 561.86 1734.65 542.47 1838.37"/></g><rect class="cls-8" x="1281.65" y="1776.51" width="491.12" height="260.86"/><circle class="cls-9" cx="1331.1" cy="2094.78" r="57.41"/><circle class="cls-9" cx="1715.5" cy="2094.78" r="57.41"/><circle class="cls-10" cx="1331.1" cy="2094.78" r="28.42"/><circle class="cls-10" cx="1715.5" cy="2094.78" r="28.42"/><rect class="cls-11" x="1281.65" y="1780.51" width="491.12" height="84.17"/><rect class="cls-11" x="1281.65" y="1864.68" width="491.12" height="84.17"/><rect class="cls-11" x="1281.65" y="1949.24" width="491.12" height="84.17"/><line class="cls-12" x1="772.34" y1="1694.02" x2="772.34" y2="2022.81"/><path class="cls-13" d="M5768.16,7744.89l.3,10.28.23,10.27.45,20.55q.34,20.55.58,41.1c.18,13.7.22,27.4.33,41.1l.11,41.1-.1,41.09c-.11,13.7-.15,27.4-.34,41.1s-.34,27.4-.58,41.1l-.45,20.55-.22,10.27-.31,10.28-.3-10.28-.23-10.27-.45-20.55q-.35-20.55-.58-41.1c-.18-13.7-.22-27.4-.33-41.1l-.11-41.09.11-41.1c.11-13.7.15-27.4.34-41.1s.34-27.4.58-41.1l.45-20.55.22-10.27Z" transform="translate(-4995.82 -6050.87)"/><line class="cls-12" x1="813.27" y1="1674.2" x2="813.27" y2="1864.68"/><path class="cls-13" d="M5809.09,7725.07c.83,15.88,1.26,31.75,1.55,47.62.19,7.94.23,15.88.34,23.81l.11,23.81-.11,23.81c-.11,7.94-.14,15.88-.33,23.81-.29,15.88-.73,31.75-1.56,47.62-.83-15.87-1.27-31.74-1.56-47.62-.19-7.93-.22-15.87-.33-23.81l-.11-23.81.11-23.81c.11-7.93.15-15.87.33-23.81C5807.83,7756.82,5808.26,7741,5809.09,7725.07Z" transform="translate(-4995.82 -6050.87)"/><line class="cls-12" x1="303.96" y1="1694.02" x2="303.96" y2="2022.81"/><path class="cls-13" d="M5299.78,7744.89l.3,10.28.23,10.27.45,20.55q.34,20.55.58,41.1c.18,13.7.22,27.4.33,41.1l.11,41.1-.1,41.09c-.11,13.7-.15,27.4-.34,41.1s-.34,27.4-.58,41.1l-.45,20.55-.22,10.27-.31,10.28-.3-10.28-.23-10.27-.45-20.55q-.35-20.55-.58-41.1c-.18-13.7-.22-27.4-.33-41.1l-.1-41.09.11-41.1c.1-13.7.15-27.4.33-41.1s.35-27.4.58-41.1l.45-20.55.22-10.27Z" transform="translate(-4995.82 -6050.87)"/><line class="cls-12" x1="47.04" y1="1572.62" x2="472.34" y2="1572.62"/><path class="cls-13" d="M5042.86,7623.49l13.29-.3,13.29-.23,26.58-.45q26.58-.35,53.16-.58c17.72-.18,35.45-.22,53.17-.33l53.16-.11,53.16.11c17.72.11,35.44.14,53.17.33s35.44.35,53.16.58l26.58.45,13.29.23,13.29.3-13.29.3-13.29.23-26.58.45q-26.58.34-53.16.58c-17.73.19-35.45.22-53.17.33l-53.16.11-53.16-.11c-17.72-.11-35.45-.15-53.17-.34s-35.44-.34-53.16-.58l-26.58-.44-13.29-.23Z" transform="translate(-4995.82 -6050.87)"/><line class="cls-12" x1="192.55" y1="1604.45" x2="790.14" y2="1604.45"/><path class="cls-13" d="M5188.37,7655.32l18.68-.3,18.67-.23,37.35-.44,74.7-.56c49.8-.37,99.6-.42,149.4-.47l74.69.11c24.9.12,49.8.13,74.7.35l74.7.56,37.35.45,18.67.23,18.68.3-18.68.3-18.67.23-37.35.45-74.7.56c-24.9.23-49.8.24-74.7.35l-74.69.11c-49.8,0-99.6-.1-149.4-.47l-74.7-.55-37.35-.45-18.67-.23Z" transform="translate(-4995.82 -6050.87)"/><path class="cls-13" d="M6319.12,7853.13c23.17-1,46.35-1.57,69.52-1.94,11.59-.23,23.18-.28,34.76-.42l34.76-.14,34.77.13c11.58.14,23.17.19,34.76.42,23.17.37,46.34.91,69.52,1.95-23.18,1-46.35,1.59-69.52,1.95-11.59.23-23.18.28-34.76.42l-34.77.13-34.76-.14c-11.58-.13-23.17-.18-34.76-.42C6365.47,7854.71,6342.29,7854.17,6319.12,7853.13Z" transform="translate(-4995.82 -6050.87)"/><path class="cls-13" d="M6499.53,7889.25c16.17-1,32.34-1.58,48.51-1.95,8.08-.23,16.17-.28,24.25-.41l24.25-.14,24.25.13c8.09.14,16.17.18,24.26.42,16.17.36,32.33.91,48.5,1.95-16.17,1-32.33,1.58-48.5,1.95-8.09.23-16.17.28-24.26.41l-24.25.14-24.25-.14c-8.08-.14-16.17-.19-24.25-.42C6531.87,7890.82,6515.7,7890.28,6499.53,7889.25Z" transform="translate(-4995.82 -6050.87)"/><path class="cls-13" d="M6343.41,7957.64c15-1,29.93-1.58,44.9-2,7.48-.23,15-.28,22.45-.41l22.46-.14,22.45.13c7.48.14,15,.18,22.45.42,15,.36,29.94.91,44.91,2-15,1-29.94,1.58-44.91,1.95-7.48.23-15,.27-22.45.41l-22.45.14-22.46-.14c-7.48-.14-15-.19-22.45-.42C6373.34,7959.21,6358.37,7958.67,6343.41,7957.64Z" transform="translate(-4995.82 -6050.87)"/><path class="cls-13" d="M6375.24,8030.48c26.52-1,53.05-1.58,79.58-1.94,13.26-.23,26.52-.29,39.79-.42l39.78-.14,39.79.13c13.27.14,26.53.19,39.79.42,26.53.36,53.06.91,79.58,1.95-26.52,1-53.05,1.58-79.58,2-13.26.23-26.52.28-39.79.42l-39.79.13-39.78-.14c-13.27-.14-26.53-.19-39.79-.42C6428.29,8032.05,6401.76,8031.51,6375.24,8030.48Z" transform="translate(-4995.82 -6050.87)"/><path class="cls-14" d="M5736.33,6402.52c-31.7-29.69-66.73-34.57-106.86-43.2-77.21-16.6-138.63-42.14-261.48-93.22-96.16-40-144.24-60-193.26-97.77-82-63.21-101.9-116.12-156.88-116a91.81,91.81,0,0,0-20.53,2.46V6108a41,41,0,0,1,18.25,5.76c43.36,26.75-6.16,119.56,27.29,245.56,22,82.92,80.33,181.7,136.42,179.62,51.49-1.9,49.57-86.89,131.87-136.42,92.5-55.66,243.84-37.94,309.22,38.65,48.46,56.76,34.37,127.87,77.31,138.7,29.48,7.43,65.39-18.71,79.58-47.75C5801,6483.56,5763.47,6427.94,5736.33,6402.52Z" transform="translate(-4995.82 -6050.87)"/></svg>