<svg id="Ebene_1" data-name="Ebene 1" xmlns="http://www.w3.org/2000/svg" viewBox="0 0 2103.76 2960.87"><defs><style>.cls-1,.cls-5{fill:#676767;}.cls-1,.cls-2{stroke:#000;stroke-miterlimit:10;}.cls-1{stroke-width:3px;}.cls-2{fill:#b3b3b3;stroke-width:5px;}.cls-3{fill:#999;}.cls-4{fill:#ec663a;}.cls-6{fill:#fff;}.cls-7{fill:#f29222;}</style></defs><path class="cls-1" d="M6811.78,8617.69v11.81H6824Z" transform="translate(-4723.89 -5670.13)"/><path class="cls-1" d="M6169.32,8279.5a568.63,568.63,0,0,1-93-46.38c-51-31.46-92.79-67.79-125.76-101.6q-91.45-291.66-182.92-583.3c-99.08-454.1-8.39-597.62-107.48-1051.72-142.26-49.32-527.87-450.21-735.66-622.92a2043.68,2043.68,0,0,1-157.2-145.44V8279.5Z" transform="translate(-4723.89 -5670.13)"/><rect class="cls-2" x="43.43" y="864.27" width="1518.84" height="1459.71"/><rect class="cls-3" x="202.25" y="1247.76" width="794.27" height="448.67"/><rect class="cls-3" x="1117.03" y="1247.76" width="375.16" height="448.67"/><rect class="cls-4" x="238.99" y="1282.62" width="718.48" height="377.43"/><rect class="cls-4" x="1148.57" y="1282.62" width="314.35" height="377.43"/><polygon class="cls-5" points="445.14 2102.67 43.43 2014.75 43.43 2408.86 445.14 2408.86 445.14 2102.67"/><rect class="cls-2" x="1049.93" y="555.05" width="181.93" height="309.22"/><path class="cls-6" d="M6327.09,6393.43c-82.11-21-112.49,17-291,45.47-141.24,22.53-222.82,34.41-295.58-9.09-48.09-28.76-52.1-57.65-118.23-159.16-72.46-111.23-137.68-211.34-231.92-281.94-123.38-92.43-163.92-34.95-318.31-131.87-152.25-95.58-159.85-181-250.11-186.45-32.46-2-66.28,7-98,22.74h43.43v274.06c77.05,14.84,174.53,38.28,286.51,94.28,166.77,83.4,338.53,225.42,313.76,291-13.71,36.34-84.53,40.79-159.15,45.47-209.24,13.14-284.89-69.22-395.62-31.83a233.35,233.35,0,0,0-45.5,21.39v232.7c151.09-11,432.19-72.47,814-26.72,95.78,11.48,324.45,44.87,636.63,40.93,204.57-2.59,233,85.5,246,45.47C6481.48,6625.58,6433.44,6420.56,6327.09,6393.43Z" transform="translate(-4723.89 -5670.13)"/><path class="cls-6" d="M5425.74,7978.94c-99.63-59.12-144.61-30.23-197.05-84.88-73-76.11-12.85-160.34-69.72-272.84-58.42-115.55-216.58-214-348.64-172.8a220.14,220.14,0,0,0-43,18.83v253.58A316.45,316.45,0,0,1,4871,7736.42c104.66,34.16,168.43,113.42,257.68,224.33,115.72,143.81,110.44,198.25,194,242.53,103.2,54.67,246.55,43.36,269.81-9.1C5616.26,8140.56,5518.87,8034.21,5425.74,7978.94Z" transform="translate(-4723.89 -5670.13)"/><polygon class="cls-7" points="678.57 1660.06 477.72 1660.06 244.28 1282.63 445.14 1282.63 678.57 1660.06"/><path class="cls-7" d="M5681.36,7279.35v50.83h-60.81l-233.43-377.43h92.25Z" transform="translate(-4723.89 -5670.13)"/><path class="cls-7" d="M6186.8,7279.35v50.83H6126l-233.43-377.43h92.25Z" transform="translate(-4723.89 -5670.13)"/><rect class="cls-3" x="1231.86" y="2116.22" width="105.35" height="49.64"/><rect class="cls-3" x="1377.44" y="2227.44" width="105.35" height="49.64"/><rect class="cls-3" x="663.23" y="1747.12" width="105.35" height="49.64"/><rect class="cls-3" x="1027.09" y="1833.53" width="105.35" height="49.64"/><rect class="cls-3" x="712.94" y="2186.98" width="105.35" height="49.64"/><rect class="cls-3" x="508.18" y="1904.29" width="105.35" height="49.64"/><rect class="cls-3" x="223.22" y="975.86" width="105.35" height="49.64"/><rect class="cls-3" x="587.08" y="1062.27" width="105.35" height="49.64"/><rect class="cls-3" x="1049.93" y="1087.09" width="105.35" height="49.64"/><rect class="cls-3" x="1413.79" y="1173.49" width="105.35" height="49.64"/><path class="cls-6" d="M5840.92,6088.75c11.16-3.2,77.89-22.39,134.15,18.19,56.59,40.83,81.09,126.65,52.29,161.43-10.81,13.06-26.72,16-177.34,0-116.3-12.35-130.17-16.59-136.43-29.55C5694.89,6200.05,5758.4,6112.47,5840.92,6088.75Z" transform="translate(-4723.89 -5670.13)"/><rect class="cls-3" x="1377.44" y="1758.78" width="105.35" height="49.64"/></svg>