<svg id="Ebene_2" data-name="Ebene 2" xmlns="http://www.w3.org/2000/svg" viewBox="0 0 1621.29 2009.76"><defs><style>.cls-1{fill:#b3b3b3;stroke-width:5px;}.cls-1,.cls-2{stroke:#000;stroke-miterlimit:10;}.cls-2{fill:#676767;stroke-width:3px;}.cls-3{fill:#999;}.cls-4{fill:#fff;}.cls-5{fill:#ec663a;}.cls-6{fill:#f29222;}</style></defs><rect class="cls-1" x="691.13" y="571.38" width="927.66" height="868.54"/><rect class="cls-1" x="1044.69" y="151.5" width="201.81" height="333.47"/><rect class="cls-1" x="154.54" y="1439.92" width="1464.25" height="567.34"/><rect class="cls-2" x="333.68" y="1644.96" width="381.98" height="262.14"/><path class="cls-2" d="M9555.64,7773.65c-89.41,49.41-203.56,113.3-351.94,193.17-389.89,209.86-532.72,269.85-575.59,312.68h927.53Z" transform="translate(-7936.84 -6272.24)"/><rect class="cls-3" x="756.72" y="1650.43" width="105.35" height="49.64"/><path class="cls-4" d="M9555.64,7648.14c-38.71,36.5-87.88,74.58-160.95,109.5-29.61,14.15-3.1-.92-304.67,90.94-184,56.06-269.75,84.77-350.15,163.71-50.1,49.18-35.58,56.44-91,118.23-71.41,79.69-143.15,120.71-200.43,149h481.59a1127.06,1127.06,0,0,1,100.82-99c76.89-66.76,206.85-179.6,400.17-231.91,49.24-13.33,89.15-19.09,124.57-21.72Z" transform="translate(-7936.84 -6272.24)"/><path class="cls-4" d="M9555.64,6698c-73.44-11.11-180.6-5.73-327.41,1.65-30,1.5-92.74,6.05-218.28,15.15-197.63,14.33-214.56,17.16-254.65,9.1-142.06-28.58-189-76.34-257.68-57.6-95.89,26.17-144.06,187.37-81.86,260.71,63.7,75.11,255.72,12.28,339.54-15.15,78.38-25.65,70.4-36.49,121.26-45.48,129.16-22.82,173.07,48.38,312.94,39.41,104-6.66,102.54-47.48,181.21-39.41,92.87,9.53,141.71,71.2,184.93,98.46Z" transform="translate(-7936.84 -6272.24)"/><path class="cls-4" d="M9555.64,7613.48c-58.3,17.63-81.89,54.81-148.55,56.24-54,1.16-74.1-22.44-142.48-51.54-27.52-11.7-222-91.72-400.17-33.34-82.58,27.06-73.5,55-169.77,81.85-108.92,30.42-202.09,17.48-233.43,12.13-57.7-9.85-53.84-19.2-139.46-42.45-127.12-34.51-201.83-54.79-263.74-18.19-53.31,31.52-138.13,197.78-118.23,238.93,14.06,29.1,100.89-52.75,354.69-60.06,162.57-4.69,152.59-9.67,263.75-12.13,232.32-5.14,292.36,16.24,424.42-21.22,85.63-24.29,75.69-37.63,133.39-45.47,106.13-14.43,155,28.62,348.63,81.85,34.89,9.59,64.94,16.89,90.95,22.32Z" transform="translate(-7936.84 -6272.24)"/><rect class="cls-3" x="785.52" y="769.95" width="794.27" height="448.67"/><rect class="cls-5" x="822.26" y="804.81" width="718.48" height="377.43"/><polygon class="cls-6" points="1261.84 1182.24 1060.98 1182.24 827.55 804.81 1028.4 804.81 1261.84 1182.24"/><path class="cls-6" d="M9477.58,7403.65v50.83h-60.81l-233.43-377.43h92.25Z" transform="translate(-7936.84 -6272.24)"/><path class="cls-4" d="M9024.08,6293.38c102.43-.82,121.22-33.6,177.35-15.91,80.94,25.5,143.73,125.76,120.5,170.52-26.29,50.67-163.63,31.95-197.81,27.29-112.8-15.38-179.67-63.32-229.64-27.29-25.7,18.54-26.6,44.63-38.65,43.2-29.3-3.45-62.63-162.14-4.55-206.9C8884.52,6258.67,8916.73,6294.25,9024.08,6293.38Z" transform="translate(-7936.84 -6272.24)"/><rect class="cls-3" x="260.18" y="1540.1" width="105.35" height="49.64"/><rect class="cls-3" x="160.23" y="1707.21" width="105.35" height="49.64"/><rect class="cls-3" x="638.46" y="1532.39" width="105.35" height="49.64"/><rect class="cls-3" x="723.07" y="1266.68" width="105.35" height="49.64"/><rect class="cls-3" x="732.85" y="692.57" width="105.35" height="49.64"/><rect class="cls-3" x="982.24" y="611.36" width="105.35" height="49.64"/><rect class="cls-3" x="1057.3" y="1230.24" width="105.35" height="49.64"/><rect class="cls-3" x="1162.65" y="667.75" width="105.35" height="49.64"/></svg>