<svg xmlns="http://www.w3.org/2000/svg" viewBox="0 0 2018.08 850.56"><defs><style>.cls-1{fill:#b3b3b3;}.cls-2{fill:#047aad;}.cls-3{fill:#cbbba0;}.cls-3,.cls-5{stroke:#1d1d1b;}.cls-3,.cls-5,.cls-6{stroke-miterlimit:10;}.cls-4{fill:#938b76;}.cls-5{fill:#575756;}.cls-6{stroke:#000;}</style></defs><g id="Ebene_1" data-name="Ebene 1"><rect class="cls-1" x="701.4" y="151.96" width="172.42" height="373.68"/><path d="M848.05,287.78V660.46H676.64V287.78H848.05m1-1H675.64V661.46H849.05V286.78Z" transform="translate(25.26 -135.31)"/><rect class="cls-1" x="1144.26" y="151.96" width="172.42" height="373.68"/><path d="M1290.92,287.78V660.46H1119.5V287.78h171.42m1-1H1118.5V661.46h173.42V286.78Z" transform="translate(25.26 -135.31)"/><rect class="cls-1" x="874.82" y="250.09" width="268.44" height="247.71"/><path d="M1117.5,385.91v246.7H850.05V385.91H1117.5m1-1H849.05v248.7H1118.5V384.91Z" transform="translate(25.26 -135.31)"/><rect class="cls-2" x="874.82" y="225.91" width="268.44" height="78"/><path d="M1117.5,361.72v77H850.05v-77H1117.5m1-1H849.05v79H1118.5v-79Z" transform="translate(25.26 -135.31)"/><polygon class="cls-2" points="679.98 187.43 787.61 1 895.24 187.43 679.98 187.43"/><path d="M762.35,137.31,869.11,322.24H655.58L762.35,137.31m0-2L653.85,323.24h217L762.35,135.31Z" transform="translate(25.26 -135.31)"/><polygon class="cls-2" points="1122.84 187.43 1230.47 1 1338.1 187.43 1122.84 187.43"/><path d="M1205.21,137.31,1312,322.24H1098.44l106.77-184.93m0-2-108.5,187.93h217l-108.5-187.93Z" transform="translate(25.26 -135.31)"/><path d="M935.38,633.11V525.81a62,62,0,0,1,54.08-35l1.23,0a61.81,61.81,0,0,1,55.35,35v107.3Z" transform="translate(25.26 -135.31)"/><path d="M990.69,491.31a61.33,61.33,0,0,1,54.85,34.61V632.61H935.88V525.92a61.43,61.43,0,0,1,21.89-24.83,60.41,60.41,0,0,1,31.7-9.76l1.22,0m0-1-1.24,0a62.08,62.08,0,0,0-54.57,35.36V633.61h111.66V525.69a62.12,62.12,0,0,0-55.85-35.38Z" transform="translate(25.26 -135.31)"/></g><g id="Name"><g id="Fahne"><path class="cls-3" d="M746,769.5a137.36,137.36,0,0,0-22.25-55c-110.3,30.8-214.9,135.54-350.2,157.53-136.17,22.13-268-62.61-397.81-36.23-.17,1.56-.32,3.24-.46,4.93a906.34,906.34,0,0,1,94.8,15.42,909.17,909.17,0,0,1,171.4,55.68A418.13,418.13,0,0,0-6.46,937.37c.9,1.84,1.8,3.62,2.69,5.31,123.3-48.5,257.49,62.23,397,39.61a370,370,0,0,0,66.1-17.42c.44-.81.91-1.53,1.34-2.38a89.45,89.45,0,0,0,9-29.55A173.19,173.19,0,0,1,483,955.67C579,915.21,660.59,846.28,744.23,821.38A132.58,132.58,0,0,0,746,769.5Z" transform="translate(25.26 -135.31)"/><path class="cls-4" d="M459.56,960.33a80.06,80.06,0,0,0,4.44-12c1.07-3.52,1.62-5.32,2.16-7.79.61-2.78,1-5.17,1.18-7C452.23,942.9,424,956,386.16,960.89a146,146,0,0,1-60-4.19S134.79,902,77.9,913.38c-22.75,4.55-45.12,11-45.12,11-15.57,4.5-28.47,9-37.86,12.46a12.89,12.89,0,0,0,.8,2.36,13.88,13.88,0,0,0,1.48,2.54c1.85-1.32,22.56-10.56,39.7-12,24.72-2.08,44.35-2,61,0,11.45,1.35,19.21,3,33.52,6,21,4.41,36.72,8.84,60.17,15.5s24.34,7.43,41.21,11.9c20.17,5.33,35.68,8.68,41.16,9.84,29.93,6.34,46.1,9.76,66.37,10.59h0c19.49.42,31.1-.37,40.12-1.69,4.88-.71,8-.94,11.34-1.52,9.8-1.69,10.78-2.13,16.31-3.17,3.21-.61,8-1.82,17.58-4.24,9.21-2.33,13.91-3.51,18.55-5s8.94-2.94,13.64-4.71C458.21,962.59,459.27,961,459.56,960.33Z" transform="translate(25.26 -135.31)"/><path class="cls-4" d="M512.72,939.65c13-6.25,23.4-11.73,31-15.84,28.29-15.33,42.24-25.95,75.13-44.31,27.79-15.52,53.16-35,123.69-60.37,2.35-7.73,3.18-19.43,3.11-33.67a99.36,99.36,0,0,0-1.7-15.53c-4.27-26.26-13.33-45.52-20.18-55.39C617.9,832.88,536.4,898,471.49,931.47c3.85,7.18,8.7,14.14,12.55,21.32C491.81,949.51,501,945.28,512.72,939.65Z" transform="translate(25.26 -135.31)"/><path class="cls-3" d="M1726.07,911.87a904.94,904.94,0,0,1,266.21-71.1c-.15-1.69-.3-3.37-.47-4.93C1862,809.46,1730.17,894.2,1594,872.07c-9.52-1.55-18.88-3.54-28.12-5.86-.71,1.65-1.41,3.3-2.2,5a173.49,173.49,0,0,1-14.3,24.89,89.69,89.69,0,0,0-9-29.55,88.55,88.55,0,0,0-5.74-9.6C1427,820.09,1337.43,740.69,1243.81,714.54a137.21,137.21,0,0,0-22.25,55,132.42,132.42,0,0,0,1.76,51.88c108.44,32.28,213.41,138.62,351,160.91,139.56,22.62,273.75-88.11,397.06-39.61.89-1.69,1.78-3.47,2.68-5.31a418.13,418.13,0,0,0-247.94-25.5Z" transform="translate(25.26 -135.31)"/><path class="cls-4" d="M1889.66,913.13c22.75,4.54,45.11,11,45.11,11,15.57,4.51,28.48,9,37.87,12.46a12.89,12.89,0,0,1-.8,2.36,13.43,13.43,0,0,1-1.49,2.55c-1.85-1.33-22.56-10.57-39.69-12-24.73-2.08-44.36-2-61,0-11.44,1.35-19.2,3-33.52,6-21,4.41-36.71,8.84-60.16,15.5s-24.35,7.43-41.22,11.9c-20.16,5.34-35.68,8.68-41.15,9.84-29.94,6.34-46.1,9.76-66.37,10.59h0c-19.5.42-31.11-.37-40.12-1.68-3.49-.51-5.89-1-10.71-2-2.59-.49-23.07-4.34-34.52-7-21.84-5-38.94-12.19-58.16-20.21-11-4.6-20.34-9-28.89-13-46.47-22.19-55.65-32-106.11-60.15-27.79-15.52-53.17-35-123.69-60.37-2.35-7.73-3.19-19.43-3.11-33.67a100.49,100.49,0,0,1,1.69-15.53c4.28-26.26,13.34-45.52,20.19-55.39,208.86,233.51,327.33,262.24,397.59,242.17C1641.4,956.45,1832.77,901.77,1889.66,913.13Z" transform="translate(25.26 -135.31)"/><path class="cls-5" d="M1382.65,693.09c17.62,27.48,22,77.79,26.72,96.63-38.22,2.73-74.6,11.28-162.41,19.74" transform="translate(25.26 -135.31)"/><path class="cls-5" d="M1211.94,673.28" transform="translate(25.26 -135.31)"/><path class="cls-5" d="M585.45,693.09C567.83,720.57,562.7,780.2,557.94,799c38.23,2.72,89.81,5.93,163.2,10.42" transform="translate(25.26 -135.31)"/><path class="cls-5" d="M756.16,673.28" transform="translate(25.26 -135.31)"/></g><path class="cls-3" d="M1414.89,824c-112.69-20.48-256.61-37.8-428.94-38-174.16-.19-322.71,17.8-432.91,38a244,244,0,0,1,0-133.86c55.53-16.87,254.84-64.82,430.59-64.85,176.07,0,371.52,43.26,431.26,64.85a177,177,0,0,1,0,133.86Z" transform="translate(25.26 -135.31)"/><path class="cls-6" d="M900.28,643.72l2.77,1.84a19.69,19.69,0,0,0-4.43,7.39c-.6,2.2-.67,5.52-.28,9.92,2,22.16,10.48,43.53,18.83,64,5.86,13.68,9.93,20.47,12.56,20.3,1.25-.08,3.18-1.62,5.83-4.61l2.17,1.8-.93,1.1q-6.66,7.76-11.89,15l-1.47,2.11A387,387,0,0,1,902,718.34c-5-12.55-9.9-25.83-11.41-39.5a112.71,112.71,0,0,1-.46-15.09l0-2.18a258.64,258.64,0,0,0-19.26,25.57c-5.19,7.6-9.76,14.23-13.81,19.89l-1.68,2.35q4.68-1,10.54-1.81c10-1.19,15.07-1.72,25.13-2.62l3.56-.21a152.17,152.17,0,0,0-3.9,20.38l-3.2.36a28.22,28.22,0,0,0,.44-6.82c-.23-2-1.11-3.26-2.66-3.73s-4.64-.44-9.25.13c-5,.62-7.42.94-12.36,1.63-5.55.86-8.32,1.32-13.85,2.28l-1.69.34-1.88,2.41c-6.85,8.61-13.54,17.44-20.54,25.86-3.44,4.13-8.73,9.53-15.57,16.28l-2,2q5.63-1.71,12.26-3a171.4,171.4,0,0,1,23.59-3.38c6.21-.38,9.31-.53,15.51-.79a108.23,108.23,0,0,0,11.06-.87c8.39-1.15,14.82-4.06,19.4-8.88s7.1-11.34,7.5-19.64q3.28,1.44,3.55,4.23c.45,4.57-2.25,10.1-7.89,16.68-7.61,9.07-17.91,15.94-29.77,17.7-3.74.56-9,.94-15.55,1.4-12.57.88-25.28,2.08-37.74,4.69-6.68,1.59-10,2.43-16.65,4.17l-1.51.36c1.25-3.63,1.89-5.44,3.18-9.06a179.06,179.06,0,0,0,35.17-31.72c16.73-19.86,31.13-43.09,46.4-64.74C884.15,662.86,891.49,652.66,900.28,643.72Z" transform="translate(25.26 -135.31)"/><path class="cls-6" d="M989.38,692.55l-1,1.52c-1.72,2.62-2.58,3.93-4.28,6.55-1.5,2.35-3.07,4.71-4.72,7.06-.38.52-.57.77-.94,1.29l-2.16-1.35c.28-.59.48-1,.59-1.28,1.19-2.31,1.79-3.94,1.78-4.9,0-2-1.95-3-5.83-3a13.13,13.13,0,0,0-9.21,3.81,11.08,11.08,0,0,0-3.74,8.54,14.48,14.48,0,0,0,1.86,6c1.72,3.26,2.57,4.89,4.26,8.15a20.59,20.59,0,0,1,2.19,9.09c.11,6.46-3.46,12.63-10.51,18.6-6.08,5.16-11.45,7.89-16.23,8.13a11,11,0,0,1-6.9-1.66,6.31,6.31,0,0,1-3-5.07,14.62,14.62,0,0,1,1.51-7.39c3.73,5.44,8,8,13,7.8a15.75,15.75,0,0,0,10.36-4.41c3-2.77,4.43-5.9,4.33-9.42A15.49,15.49,0,0,0,959,734.3c-2.09-4.07-3.14-6.11-5.28-10.17a15.55,15.55,0,0,1-1.68-6.67c-.16-4.42,2.26-9.49,7.41-15.14A32.06,32.06,0,0,1,970,694.45a34.31,34.31,0,0,1,13.48-2.31A41.36,41.36,0,0,1,989.38,692.55Z" transform="translate(25.26 -135.31)"/><path class="cls-6" d="M1026,693.3c-.5.94-.75,1.41-1.24,2.35-4.92-.23-7.37-.33-12.29-.49-.3.54-.44.81-.74,1.34-1.17,2.1-4.37,8.25-9.37,18.5-2,4.17-4.84,10-8.39,17.32-4.14,8.59-6.16,14.07-6.17,16.36s1.18,3.45,3.57,3.47c2.88,0,6.83-1.58,11.94-4.77l1.26,2.11a52.6,52.6,0,0,1-11.28,6C989.1,757.19,985.68,758,983,758c-4.05,0-6.09-1.55-6.11-4.7,0-2.24,2.17-8.56,6.83-18.92,3.47-7.59,5.24-11.38,8.86-18.94,5.05-10.68,8.13-16.91,9-18.76.36-.73.54-1.1.91-1.82-4.57-.1-6.86-.13-11.42-.17.49-1,.74-1.44,1.24-2.39h1.14c5,0,8.38-.59,10.14-2s4.2-5.4,7.42-12c.89.08,1.48.13,1.77.14a39.61,39.61,0,0,0,8.48-.65c-.72,1.52-2,4-3.76,7.46-1.14,2.27-1.71,3.4-2.84,5.67l-.94,1.81C1018.61,693,1021.08,693.07,1026,693.3Z" transform="translate(25.26 -135.31)"/><path class="cls-6" d="M1066.17,751.63l1.26,2.22a192.73,192.73,0,0,1-21.37,6.87l-2.07.57c3.54-16.57,13.3-31.61,21.9-45.89,2.17-3.44,3.33-5.79,3.45-7.07.16-1.64-.42-2.53-1.74-2.66-1.49-.14-4.28,1-8.29,3.42a75.69,75.69,0,0,0-11.72,8.86,142.24,142.24,0,0,0-17,18.52,113.8,113.8,0,0,0-12.33,19,30.57,30.57,0,0,0-10.65,2.82l.95-2q5.91-12.56,11.27-24.19c4.31-9.37,6.52-14,11-23.36s7-13.9,11.78-23.12c5.82-11.33,9-18.32,9.17-21,.14-1.86-.75-2.87-2.68-3a23.07,23.07,0,0,0-5.42.84l-1.2.32c-.31-1-.46-1.42-.76-2.37a180.83,180.83,0,0,0,22.37-6.76l1.81-.73c0,1-.06,1.77-.11,2.24-.35,3.94-2.37,9.66-6,17-6.46,13.11-13.63,26-20.49,39-4.23,8.11-6.3,12.18-10.35,20.33l-1.12,2.19,1.5-1.6c12.25-12.49,31.28-35.06,49.71-34.06,2.65.15,4,1.73,3.74,4.28-.21,1.86-1.59,4.76-4.11,8.73-2.6,4.13-3.88,6.2-6.43,10.35-5.83,9.72-14.12,20.71-16.1,30.73-.2,1,.47,1.8,1.72,1.92,1.47.13,4-.56,7.51-2Z" transform="translate(25.26 -135.31)"/><path class="cls-6" d="M1142.12,714.16c-3-.81-5.52-1.35-7.47-1.73-13.05-2.54-27.23,1.2-36.78,10.72a60.6,60.6,0,0,0-9.67,13.58c-2.79,5.22-4.37,9.69-4.82,13.4a9.18,9.18,0,0,0,1.55,6.69,7.81,7.81,0,0,0,5.56,3.24c5.61.73,12.38-2.83,20.62-10.59s13.12-15.2,14.34-22.52a6.41,6.41,0,0,0-.71-4.38,4.23,4.23,0,0,0-3.08-2.24c-4.53-.73-9.54,2.83-14.84,10.69a11.2,11.2,0,0,1,0-2.83c.47-3.28,3.13-6.41,8-9.33s9.37-4.05,13.3-3.4a8.75,8.75,0,0,1,6.14,4.1,10.23,10.23,0,0,1,1.44,7.69c-2.52,12.75-14.13,20.4-24.2,27.15-8,5.38-18.66,11.24-28.57,10.28a10,10,0,0,1-7.25-4.15,11.71,11.71,0,0,1-2.14-8.53c.79-7.27,4.35-14.62,10.48-21.91a68.42,68.42,0,0,1,24-17.66,70.75,70.75,0,0,1,17.29-5.22c6.16-1.06,11.31-1.2,15.4-.46,2.53.45,3.61,1.71,3.23,3.76A12.11,12.11,0,0,1,1142.12,714.16Z" transform="translate(25.26 -135.31)"/><path class="cls-6" d="M1190.37,716.89l-1.29,1.25c-2.29,2.16-3.42,3.24-5.68,5.41q-3,2.93-6.23,5.8c-.49.41-.73.62-1.21,1l-1.81-1.8c.41-.51.7-.89.87-1.12,1.68-2,2.64-3.43,2.85-4.37.45-2-1.23-3.4-5-4.24a13.22,13.22,0,0,0-9.88,1.62,11,11,0,0,0-5.6,7.47,14.58,14.58,0,0,0,.46,6.31c.94,3.56,1.41,5.34,2.32,8.9a20.47,20.47,0,0,1,.09,9.35c-1.35,6.32-6.25,11.52-14.5,15.74-7.11,3.64-13,5.08-17.72,4.23a11.09,11.09,0,0,1-6.37-3.18,6.35,6.35,0,0,1-1.78-5.62,14.66,14.66,0,0,1,3.15-6.86c2.42,6.15,6,9.65,11,10.56a15.86,15.86,0,0,0,11.13-2c3.53-2,5.66-4.74,6.37-8.19a15.48,15.48,0,0,0-.37-6.61c-1.12-4.44-1.69-6.66-2.86-11.1a15.59,15.59,0,0,1-.14-6.88c.85-4.35,4.36-8.74,10.68-13.07a32.06,32.06,0,0,1,12.12-5.27,34.76,34.76,0,0,1,13.73.81A41,41,0,0,1,1190.37,716.89Z" transform="translate(25.26 -135.31)"/></g></svg>