<svg id="Ebene_1" data-name="Ebene 1" xmlns="http://www.w3.org/2000/svg" viewBox="0 0 2018.08 791.43"><defs><style>.cls-1,.cls-7{fill:#b3b3b3;}.cls-2{fill:#be1823;}.cls-2,.cls-3,.cls-7,.cls-8,.cls-9{stroke:#000;}.cls-2,.cls-3,.cls-4,.cls-6,.cls-7,.cls-8,.cls-9{stroke-miterlimit:10;}.cls-3{fill:#7d4e25;}.cls-4{fill:#cbbba0;}.cls-4,.cls-6{stroke:#1d1d1b;}.cls-5{fill:#938b76;}.cls-6{fill:#575756;}.cls-8{fill:none;}</style></defs><rect class="cls-1" x="1197.2" y="95.89" width="56" height="371.88"/><path d="M1204,178.86V549.75h-55V178.86h55m1-1h-57V550.75h57V177.86Z" transform="translate(48.68 -82.47)"/><rect class="cls-1" x="1172.65" y="77.7" width="104.34" height="80.85"/><path d="M1227.81,160.67v79.86H1124.47V160.67h103.34m1-1H1123.47v81.86h105.34V159.67Z" transform="translate(48.68 -82.47)"/><rect class="cls-1" x="771.45" y="96.46" width="56" height="371.88"/><path d="M778.27,179.43V550.32h-55V179.43h55m1-1h-57V551.32h57V178.43Z" transform="translate(48.68 -82.47)"/><rect class="cls-1" x="1107.21" y="394.34" width="97.21" height="118.75"/><path d="M1155.24,477.31V595.06H1059V477.31h96.22m1-1H1058V596.06h98.22V476.31Z" transform="translate(48.68 -82.47)"/><rect class="cls-2" x="1058.02" y="434.21" width="111.85" height="43.1" transform="translate(2276.59 829.05) rotate(-180)"/><rect class="cls-1" x="828.77" y="395.34" width="97.21" height="118.75"/><path d="M876.8,478.31V596.06H780.58V478.31H876.8m1-1H779.58V597.06H877.8V477.31Z" transform="translate(48.68 -82.47)"/><rect class="cls-1" x="926.05" y="190.16" width="179.85" height="294.78"/><path d="M1056.71,273.13V566.91H877.87V273.13h178.84m1-1H876.87V567.91h180.84V272.13Z" transform="translate(48.68 -82.47)"/><rect class="cls-2" x="916.97" y="173.37" width="198" height="69"/><path d="M932.78,544.07V431.4c6.25-21.8,19.49-36.19,33.73-36.68h.77c14.58,0,28.12,14.4,34.51,36.69V544.07Z" transform="translate(48.68 -82.47)"/><path d="M967.28,395.21c14.33,0,27.68,14.23,34,36.26v112.1h-68V431.47c6.2-21.55,19.24-35.77,33.25-36.25h.75m0-1h-.78c-14.6.5-27.87,14.9-34.22,37.11V544.57h70V431.33c-6.49-22.67-20.17-37.12-35-37.12Z" transform="translate(48.68 -82.47)"/><rect class="cls-3" x="705.97" y="462.11" width="620" height="32.71"/><g id="Fahne"><path class="cls-4" d="M722.57,657.53a137.33,137.33,0,0,0-22.25-55C590,633.37,485.43,738.11,350.13,760.1,214,782.23,82.17,697.49-47.68,723.86c-.17,1.57-.32,3.25-.47,4.94a905.49,905.49,0,0,1,94.8,15.42A909.05,909.05,0,0,1,218.06,799.9,418.13,418.13,0,0,0-29.88,825.4c.9,1.83,1.79,3.62,2.68,5.31,123.31-48.5,257.5,62.23,397.06,39.61A370,370,0,0,0,436,852.9c.44-.81.91-1.53,1.34-2.39a89.45,89.45,0,0,0,9-29.55,174,174,0,0,1,13.23,22.74c96.05-40.47,177.64-109.39,261.28-134.29A132.43,132.43,0,0,0,722.57,657.53Z" transform="translate(48.68 -82.47)"/><path class="cls-5" d="M436.14,848.36a81.93,81.93,0,0,0,4.44-12c1.07-3.52,1.61-5.33,2.15-7.79.61-2.78,1-5.17,1.18-7-15.11,9.3-43.38,22.4-81.17,27.29a146,146,0,0,1-60-4.19S111.36,790.05,54.48,801.41c-22.76,4.54-45.12,11-45.12,11-15.57,4.5-28.47,9-37.87,12.46a14.12,14.12,0,0,0,.81,2.36,13.33,13.33,0,0,0,1.48,2.54c1.85-1.32,22.56-10.57,39.69-12,24.73-2.09,44.36-2,61,0,11.45,1.35,19.21,3,33.52,6,21,4.4,36.72,8.83,60.17,15.5s24.34,7.43,41.21,11.89c20.17,5.34,35.68,8.69,41.16,9.85,29.93,6.34,46.1,9.76,66.37,10.59h0c19.49.42,31.1-.37,40.12-1.69,4.88-.71,8-.94,11.34-1.52,9.8-1.69,10.78-2.13,16.31-3.18,3.2-.6,8-1.81,17.58-4.23,9.2-2.33,13.9-3.51,18.55-5s8.94-2.94,13.64-4.72C434.79,850.62,435.85,849.05,436.14,848.36Z" transform="translate(48.68 -82.47)"/><path class="cls-5" d="M489.3,827.67c13-6.25,23.4-11.72,31-15.83,28.29-15.33,42.24-26,75.13-44.32C623.2,752,648.57,732.58,719.1,707.16c2.35-7.74,3.18-19.43,3.1-33.67A99.27,99.27,0,0,0,720.51,658c-4.27-26.25-13.34-45.51-20.19-55.39C594.48,720.91,513,786.05,448.07,819.5c3.85,7.18,8.7,14.13,12.54,21.31C468.39,837.53,477.55,833.31,489.3,827.67Z" transform="translate(48.68 -82.47)"/><path class="cls-4" d="M1702.65,799.9a905,905,0,0,1,266.2-71.1c-.14-1.69-.29-3.37-.46-4.94-129.85-26.37-261.64,58.37-397.81,36.24-9.53-1.55-18.88-3.55-28.12-5.86-.71,1.65-1.41,3.3-2.21,5A173.12,173.12,0,0,1,1526,784.13a89.69,89.69,0,0,0-9-29.55,87.78,87.78,0,0,0-5.74-9.61C1403.54,708.12,1314,628.71,1220.38,602.56a137.62,137.62,0,0,0-22.25,55,132.59,132.59,0,0,0,1.77,51.88c108.44,32.28,213.4,138.61,350.95,160.91,139.56,22.62,273.75-88.11,397.06-39.61.88-1.69,1.78-3.48,2.68-5.31a418.13,418.13,0,0,0-247.94-25.5Z" transform="translate(48.68 -82.47)"/><path class="cls-5" d="M1866.24,801.15c22.75,4.54,45.11,11,45.11,11,15.57,4.5,28.48,9,37.87,12.46a14.12,14.12,0,0,1-.81,2.36,12.82,12.82,0,0,1-1.48,2.54c-1.85-1.32-22.56-10.57-39.69-12-24.73-2.08-44.36-2-61,0-11.44,1.35-19.21,3-33.52,6-21,4.4-36.71,8.83-60.17,15.5s-24.34,7.43-41.21,11.89c-20.16,5.34-35.68,8.69-41.16,9.85-29.93,6.34-46.09,9.76-66.36,10.59h0c-19.49.42-31.1-.37-40.11-1.69-3.49-.5-5.89-1-10.71-1.94-2.59-.49-23.07-4.34-34.53-7-21.83-5-38.94-12.19-58.15-20.22-11-4.59-20.35-9-28.89-13-46.48-22.19-55.65-32-106.12-60.15-27.79-15.52-53.16-34.95-123.69-60.37-2.35-7.73-3.18-19.43-3.1-33.67a99.39,99.39,0,0,1,1.69-15.54c4.27-26.25,13.34-45.51,20.19-55.38C1429.25,835.82,1547.72,864.55,1618,844.47,1618,844.47,1809.35,789.8,1866.24,801.15Z" transform="translate(48.68 -82.47)"/><path class="cls-6" d="M1359.23,581.12c17.62,27.47,22,77.79,26.72,96.63-38.22,2.72-74.6,11.28-162.41,19.74" transform="translate(48.68 -82.47)"/><path class="cls-6" d="M1188.52,561.31" transform="translate(48.68 -82.47)"/><path class="cls-6" d="M562,581.12c-17.62,27.47-22.75,87.11-27.51,106,38.23,2.72,89.8,5.93,163.2,10.42" transform="translate(48.68 -82.47)"/><path class="cls-6" d="M732.74,561.31" transform="translate(48.68 -82.47)"/></g><path class="cls-4" d="M1391.47,705c-112.69-20.48-256.61-37.8-428.95-38-174.15-.19-322.7,17.81-432.91,38a244,244,0,0,1,0-133.86c55.54-16.87,254.85-64.82,430.6-64.86,176.07,0,371.51,43.26,431.26,64.86a177,177,0,0,1,0,133.86Z" transform="translate(48.68 -82.47)"/><text x="48.68" y="-82.47"/><rect class="cls-2" x="814.63" y="352.74" width="111.85" height="43.1"/><rect class="cls-1" x="746.91" y="78.27" width="104.34" height="80.85"/><path d="M802.06,161.24v79.85H698.72V161.24H802.06m1-1H697.72v81.85H803.06V160.24Z" transform="translate(48.68 -82.47)"/><rect x="962.41" y="264.33" width="107.13" height="13.65"/><path d="M1020.35,347.31V360H914.23V347.31h106.12m1-1H913.23V361h108.12V346.31Z" transform="translate(48.68 -82.47)"/><polygon class="cls-2" points="799.45 2.2 781.95 77.2 816.95 77.2 799.45 2.2"/><polygon class="cls-2" points="1224.82 2.2 1207.32 77.2 1242.32 77.2 1224.82 2.2"/><path class="cls-7" d="M866.09,305.38" transform="translate(48.68 -82.47)"/><path class="cls-8" d="M868.29,299.32c-.92,1.92-11.64,23.5-34.86,27-20.2,3.06-44.84-8.83-54.16-29.56" transform="translate(48.68 -82.47)"/><path class="cls-8" d="M868.29,322.05c-.92,1.93-13.55,15.79-36.77,19.32-20.2,3.06-42.93-23.85-52.25-44.58" transform="translate(48.68 -82.47)"/><path class="cls-9" d="M837.33,578.69a73.78,73.78,0,0,0-1.48,24.17c1.53,13.39,11.32,24.42,25.6,22.45,7.86-1.08,14.77-3.9,19.64-9.48s7.09-12.47,6.53-20.75a8.11,8.11,0,0,1,2.91,5.43c.28,4.29-2.5,10-7,16.83-4.86,7.39-15.68,14.32-24.67,15-8.25.58-15.34-.89-20.74-5.21s-8.67-10.77-9.75-19.31c-1.16-9.14.16-20,2.66-28.82-5,.19-7.42.3-12.37.55a93.54,93.54,0,0,1-11.23,26.76A114.31,114.31,0,0,1,783.74,634a71.76,71.76,0,0,1-28.1,13.57c-9.12,1.94-22.43.07-30.55-4.39-7.63-4.19-15.77-14.09-17.63-22.85s-.73-17.25,4.48-24.62,13.11-12.12,23.22-14.3c8.79-1.89,20.52,0,28.64,3,10.71,4.05,20,10.77,29,18.17a27.55,27.55,0,0,0,.15-8.31c-1.4-9-7-13.58-16.81-13.41a34.39,34.39,0,0,0,1-3.7c.24-1.08.36-1.63.61-2.71,0-.14.08-.47.18-1,11.46-.09,22.81-.42,34.26-1l1-.07c1.61-7.84,2.23-13.51,1.77-17q-.3-2.37-2.4-2.1a19.78,19.78,0,0,0-6.32,2.55l-1.12-1.93c1.41-.76,2.25-1.22,2.51-1.39l6.91-3.71q3.93-2.07,9-4.83c0,.45,0,.67,0,1.11a127.73,127.73,0,0,1-3.13,27.08c5.1-.23,7.64-.33,12.74-.5a59.66,59.66,0,0,1,12.23-20.78A64.65,64.65,0,0,1,865,536.77a63.22,63.22,0,0,1,23-6.24c5.83-.36,10.53.43,14.08,2.34s5.4,4.63,5.57,8.15-1.12,7.37-3.8,11.57A44.38,44.38,0,0,1,893,564.07c-11.65,9-27.56,12.17-41.82,13.61C846.37,578.16,841.76,578.49,837.33,578.69Zm-25.45,1.06c-9.42.29-14.13.48-23.57,1,3.87,2.75,6.2,6.85,7,12.29.79,5.18.64,12.22-.36,21.12-17.28-14.7-39.9-32.81-64.25-27.81a25.92,25.92,0,0,0-16.58,10.5,22.13,22.13,0,0,0-3.44,17.8c1.79,8.64,9.68,18.48,17.61,22.25,9.74,4.62,21.39,5.64,32.06,3.56,12.5-2.42,24.51-8.63,32.66-18.5C802.76,610.16,808.64,594.73,811.88,579.75Zm27.41-8.28c4.34-.09,9.85-.38,16.24-1.08,12.51-1.36,26.22-2.66,37.09-9.53,6.67-4.22,10-9.4,9.7-15.07-.18-3.56-2.06-6.37-5.67-8.41s-8.34-2.76-13.84-2.5c-9.11.43-20.72,4.89-27.62,10.94s-12.7,16.09-15.52,24.63Z" transform="translate(48.68 -82.47)"/><path class="cls-9" d="M929.18,599.1a7.26,7.26,0,0,1,1,3.19c.11,4.12-2.71,8.94-8.34,14.52-8.2,8.16-15.1,12.44-21,12.78-5.06.28-7.77-2.4-8.14-8.1-.41-6.43,1.15-13.32,4.81-20.63a52.61,52.61,0,0,1,14.87-18.31c7.61-5.93,14.61-8.94,20.81-9.09,3.59-.09,5.42,1.12,5.47,3.62,0,1.63-.8,3.61-2.46,5.95A29.68,29.68,0,0,1,930,589.4a43.2,43.2,0,0,1-8.89,4.93c-3.6,1.55-6.36,2.37-8.32,2.46s-3.6-1-4.51-3.15a35.34,35.34,0,0,0,4.51.18A22.76,22.76,0,0,0,925,589.65c3.71-2.6,5.55-5.32,5.47-8.19,0-2.07-1.49-3.06-4.3-3-5,.15-10.09,3.27-15,9.34a50.72,50.72,0,0,0-8.33,14.86,37.7,37.7,0,0,0-2.7,14.87c.25,4.42,2.24,6.51,6,6.32,4.09-.21,8.23-2.62,12.49-7.24A55.27,55.27,0,0,0,929.18,599.1Z" transform="translate(48.68 -82.47)"/><path class="cls-9" d="M978.11,574.05c-1,2.59-1.54,3.88-2.55,6.47A24.3,24.3,0,0,0,971,580c-5.26-.05-10.91,3.76-16.79,11.44a60.88,60.88,0,0,0-7,12,186.26,186.26,0,0,0-7,19.77l-.67,2.2a68.79,68.79,0,0,0-8,2.38c.26-.78.39-1.17.66-2,2.13-6.09,3.21-9.13,5.41-15.21,5.2-14.64,8-23.22,7.91-25.8,0-1.33-.63-2-1.85-2-.68,0-2.19.61-4.51,1.82l-.92-2a119.19,119.19,0,0,0,17-9.94,9.46,9.46,0,0,1,.28,2.13c0,3.31-1.54,8.83-4.57,16.59l1.6-1.82c6.16-6.79,14.27-15.49,22.44-16.42A6.28,6.28,0,0,1,978.11,574.05Z" transform="translate(48.68 -82.47)"/><path class="cls-9" d="M1007.79,539.59c-3.62,17-13.26,33.54-20.55,49.09L986,591.3a65.65,65.65,0,0,1,16.41-11.87c5.92-3,11-4.37,15.27-4.14s6.15,2.42,5.91,6.58c-.28,4.72-2.86,10.07-7.64,16.11a81.06,81.06,0,0,1-17.66,16.25c-10.51,7.36-22.88,12.88-35.9,13l.92-2.06c7.39-16.77,14.87-33.49,22.3-50.24,6.6-14.89,10.12-23.19,10.18-25,0-1.29-.78-2-2.45-2a17.39,17.39,0,0,0-5,1c-.28-.81-.43-1.21-.71-2Q996.76,544.11,1007.79,539.59Zm-35.62,81.24a22.12,22.12,0,0,0,2.68.29c11,.35,18.9-6.73,26.37-13.68a65,65,0,0,0,8.28-12c2.27-4.29,3.5-7.78,3.63-10.48.15-3-1.27-4.58-4.26-4.71-5.16-.24-11.58,3.86-19,11.92C982.06,600.55,977,610.48,972.17,620.83Z" transform="translate(48.68 -82.47)"/><path class="cls-9" d="M1059.15,622c.4.72.61,1.07,1,1.78-4.89,3-11.34,5-19.36,6.35.55-4.31,3.69-11.57,9.61-21.72a113.46,113.46,0,0,1-18.69,14.86c-6.23,3.88-11,5.76-14.48,5.57-3-.17-4.45-2.15-4.26-6,.33-6.48,3.76-13.36,10-20.53,6.07-6.93,15.51-13.81,24-17,10.12-3.75,20.71-6.69,31.84-5.35,1.43.17,2.12.75,2,1.78q-.15,1.28-2.57,4.64a53.6,53.6,0,0,0-8.85-1.7A47.23,47.23,0,0,0,1032.88,597c-7.66,7-11.7,14.19-12.12,21.52-.2,3.43,1,5.22,3.55,5.38,2.18.13,5.41-1.53,9.78-4.95a71.91,71.91,0,0,0,12.05-12.05,65.19,65.19,0,0,0,11.09-20.27q2.76,1.93,2.34,6.42c-.38,4.15-3,8.72-7.82,13.74a37.29,37.29,0,0,0,8.06-1.09l-.63,1c-5,8.72-7.56,13.88-7.69,15.42-.11,1.24.43,1.88,1.61,1.89S1056.2,623.37,1059.15,622Z" transform="translate(48.68 -82.47)"/><path class="cls-9" d="M1109.51,628.49c.31.75.47,1.12.79,1.87a51.08,51.08,0,0,1-19.43,5.19c3.31-11.25,10.38-20.83,17-30.34,2.16-2.92,3.25-4.39,5.44-7.3,1.86-2.51,2.86-4.15,3-4.92.16-1.15-.25-1.79-1.24-1.93-1.39-.2-4.25.91-8.52,3.36a87.22,87.22,0,0,0-12.62,8.89,137.51,137.51,0,0,0-22.12,27,54.18,54.18,0,0,0-8.94,2.19c5.27-8.42,10.24-17.11,15-25.81,5.21-9.55,8-15.23,8.27-17.06.18-1.54-.39-2.39-1.69-2.54a22,22,0,0,0-4.5.47l-.77.11c-.07-.84-.11-1.25-.18-2.09a160.61,160.61,0,0,0,17.83-3.75l.93-.28a8.15,8.15,0,0,1,0,1.17c-.48,3.8-4.49,11.49-11.75,23.18-.47.72-.7,1.08-1.16,1.81l1.27-1.09a130.44,130.44,0,0,1,22.64-16.24c6.85-3.72,12.1-5.28,15.62-4.75,2.21.33,3.16,1.57,2.83,3.69s-4.32,8.27-11.7,18.25c-8.81,11.91-13.17,18.76-13.39,20.38a1.61,1.61,0,0,0,1.5,2.09c1.3.18,3.17-.28,5.62-1.36Z" transform="translate(48.68 -82.47)"/><path class="cls-9" d="M1161,636.63l.85,1.87c-5.17,2.45-11.82,3.9-19.95,4.43,1-4.24,4.8-11.17,11.7-20.69a114.3,114.3,0,0,1-20.1,13c-6.59,3.25-11.56,4.65-15,4.12-3-.46-4.23-2.57-3.67-6.35,1-6.42,5-12.93,12-19.45,6.74-6.31,16.83-12.24,25.63-14.55,10.48-2.75,21.34-4.63,32.32-2.21,1.41.32,2,1,1.83,2-.17.84-1.18,2.3-3,4.37a53.14,53.14,0,0,0-8.68-2.56,47.42,47.42,0,0,0-37.74,8.61c-8.31,6.2-13,13-14.18,20.24-.53,3.4.48,5.29,3,5.7,2.15.34,5.55-1,10.24-4a72.19,72.19,0,0,0,13.19-10.82,64.7,64.7,0,0,0,13-19.09q2.57,2.19,1.71,6.62c-.78,4.1-3.86,8.38-9.13,12.91a36.85,36.85,0,0,0,8.15-.3l-.73,1c-5.89,8.19-8.9,13.07-9.18,14.59-.23,1.23.25,1.91,1.43,2S1157.91,637.7,1161,636.63Z" transform="translate(48.68 -82.47)"/><path class="cls-9" d="M1216.12,604l-1,1c-1.8,1.75-2.7,2.62-4.48,4.37q-2.38,2.36-4.94,4.67l-1,.84-1.4-1.45.69-.9a10.59,10.59,0,0,0,2.28-3.51q.56-2.38-3.92-3.41a10.31,10.31,0,0,0-7.77,1.27,9,9,0,0,0-4.51,6,11.77,11.77,0,0,0,.28,5.07c.7,2.87,1.05,4.31,1.73,7.18a16.61,16.61,0,0,1,0,7.52c-1.13,5.08-5.09,9.23-11.75,12.54-5.75,2.86-10.5,3.92-14.29,3.16a8.86,8.86,0,0,1-5.06-2.68,5.06,5.06,0,0,1-1.32-4.55,11.75,11.75,0,0,1,2.67-5.46c1.8,5,4.65,7.88,8.59,8.68a12.64,12.64,0,0,0,9-1.42,9.73,9.73,0,0,0,5.18-6.53,12.55,12.55,0,0,0-.21-5.32c-.83-3.58-1.26-5.38-2.12-9a12.73,12.73,0,0,1,0-5.53c.74-3.49,3.58-7,8.61-10.42a25.62,25.62,0,0,1,9.57-4.19,26.78,26.78,0,0,1,10.75.65A30.82,30.82,0,0,1,1216.12,604Z" transform="translate(48.68 -82.47)"/></svg>