<svg id="Ebene_1" data-name="Ebene 1" xmlns="http://www.w3.org/2000/svg" xmlns:xlink="http://www.w3.org/1999/xlink" viewBox="0 0 316.24 419.91"><defs><style>.cls-1,.cls-8{fill:none;}.cls-2{fill:#754d24;}.cls-3{fill:#cbbba0;}.cls-4{font-size:22px;font-family:PerpetuaTitlingMT-Light, Perpetua Titling MT;font-weight:300;}.cls-5{letter-spacing:-0.06em;}.cls-6{clip-path:url(#clip-path);}.cls-7{fill:#1d1d1b;}.cls-8{stroke:#1d1d1b;stroke-miterlimit:10;stroke-width:0.24px;}</style><clipPath id="clip-path" transform="translate(-602.24 -300.11)"><rect class="cls-1" x="673.34" y="333.21" width="140" height="198"/></clipPath></defs><rect class="cls-2" y="333.98" width="15.85" height="85.93"/><rect class="cls-2" x="15.85" y="18.22" width="300.39" height="401.68"/><rect class="cls-3" x="8.78" y="10" width="300.39" height="401.68"/><rect class="cls-2" width="300.39" height="401.68"/><rect class="cls-3" x="41.63" y="305.43" width="217.14" height="49.48"/><text class="cls-4" transform="translate(56.32 338.92)">He<tspan class="cls-5" x="28.39" y="0">r</tspan><tspan x="41.58" y="0">unterladen</tspan></text><rect class="cls-3" x="42.44" y="47.37" width="217.14" height="125.11"/><g class="cls-6"><g class="cls-6"><path class="cls-7" d="M752.05,368.64c-.66-1.95-2.59-7.64-7.17-9.05-6.11-1.89-14.49,4.61-15.09,10.81-.18,1.91.24,5.13,13.21,16.86,13.36,12.08,18.43,13.66,19.24,19.49,1,6.93-4.76,15.25-9.94,15.47-7.93.34-13.7-18.39-16.35-17.36-1.4.55-.8,6.23.88,10.57.56,1.43,4.51,11.64,13,12.7S765.09,420,767.52,414c.53-1.3,4.35-11-.38-17.35-2.68-3.6-5.55-2.7-12.7-6.16C753.32,390,736,381.4,737,372.29c.38-3.6,3.59-7.18,6.29-7,5,.25,7.3,13.37,9,12.95,1.05-.25,1.23-5.19-.25-9.56" transform="translate(-602.24 -300.11)"/><path class="cls-8" d="M752.05,368.64c-.66-1.95-2.59-7.64-7.17-9.05-6.11-1.89-14.49,4.61-15.09,10.81-.18,1.91.24,5.13,13.21,16.86,13.36,12.08,18.43,13.66,19.24,19.49,1,6.93-4.76,15.25-9.94,15.47-7.93.34-13.7-18.39-16.35-17.36-1.4.55-.8,6.23.88,10.57.56,1.43,4.51,11.64,13,12.7S765.09,420,767.52,414c.53-1.3,4.35-11-.38-17.35-2.68-3.6-5.55-2.7-12.7-6.16C753.32,390,736,381.4,737,372.29c.38-3.6,3.59-7.18,6.29-7,5,.25,7.3,13.37,9,12.95C753.35,378,753.53,373,752.05,368.64Z" transform="translate(-602.24 -300.11)"/><path class="cls-7" d="M754.61,400.19c-.66-2-2.58-7.65-7.16-9.06-6.12-1.88-14.5,4.61-15.1,10.82-.18,1.9-3.18,10.36,9.79,22.09,13.36,12.08,21.86,8.42,22.66,14.25,1,6.94-4.76,15.25-9.93,15.47-7.94.34-13.71-18.39-16.35-17.35-1.41.54-.8,6.22.88,10.56.55,1.43,4.5,11.65,13,12.7s15.3-8.14,17.73-14.08c.53-1.31,4.35-11-.38-17.36-2.67-3.6-5.55-2.7-12.7-6.16-1.12-.54-18.43-9.13-17.48-18.24.38-3.59,3.59-7.18,6.29-7,5,.26,7.31,13.37,9.06,12.95,1-.24,1.22-5.19-.26-9.55" transform="translate(-602.24 -300.11)"/><path class="cls-8" d="M754.61,400.19c-.66-2-2.58-7.65-7.16-9.06-6.12-1.88-14.5,4.61-15.1,10.82-.18,1.9-3.18,10.36,9.79,22.09,13.36,12.08,21.86,8.42,22.66,14.25,1,6.94-4.76,15.25-9.93,15.47-7.94.34-13.71-18.39-16.35-17.35-1.41.54-.8,6.22.88,10.56.55,1.43,4.5,11.65,13,12.7s15.3-8.14,17.73-14.08c.53-1.31,4.35-11-.38-17.36-2.67-3.6-5.55-2.7-12.7-6.16-1.12-.54-18.43-9.13-17.48-18.24.38-3.59,3.59-7.18,6.29-7,5,.26,7.31,13.37,9.06,12.95C755.91,409.5,756.09,404.55,754.61,400.19Z" transform="translate(-602.24 -300.11)"/></g></g></svg>