<svg id="Ebene_1" data-name="Ebene 1" xmlns="http://www.w3.org/2000/svg" viewBox="0 0 316.24 419.91"><defs><style>.cls-1{fill:#754d24;}.cls-2{fill:#cbbba0;}.cls-3{font-size:22px;font-family:PerpetuaTitlingMT-Light, Perpetua Titling MT;font-weight:300;}.cls-4{letter-spacing:-0.06em;}.cls-5{fill:#006837;}.cls-5,.cls-6{stroke:#000;stroke-miterlimit:10;}.cls-6{fill:#016634;}</style></defs><rect class="cls-1" y="333.98" width="15.85" height="85.93"/><rect class="cls-1" x="15.85" y="18.22" width="300.39" height="401.68"/><rect class="cls-2" x="8.78" y="10" width="300.39" height="401.68"/><rect class="cls-1" width="300.39" height="401.68"/><rect class="cls-2" x="41.63" y="305.43" width="217.14" height="49.48"/><text class="cls-3" transform="translate(56.32 338.92)">He<tspan class="cls-4" x="28.39" y="0">r</tspan><tspan x="41.58" y="0">unterladen</tspan></text><rect class="cls-2" x="42.44" y="47.37" width="217.14" height="125.11"/><path class="cls-5" d="M382,437.07c.22-.64.35-1,.74-1.28a2.09,2.09,0,0,1,1.82,0,1.56,1.56,0,0,1,1.05.73c.14.33,0,.63-.12,1.13-.24.75-.47,1.46-.93,1.55s-.86-.86-1.7-.85c-.52,0-.76.37-1,.23S381.85,437.37,382,437.07Z" transform="translate(-198.72 -299.07)"/><path class="cls-5" d="M340.36,447.13a1,1,0,0,1,.11-.79,1.18,1.18,0,0,1,.92-.47s-.3.19-.31.18,1.39-1.06,1.39-1.05-.47.34-.46.35.45-.32.91-.72a1.44,1.44,0,0,0,.4-.47.8.8,0,0,0,.14-.6c0-.18-.19-.31-.48-.58s-.22-.18-.24-.27,0-.12.24-.47.14-.23.19-.25.23.08.41.22a2.51,2.51,0,0,0,.73.42c.38.12.4-.08.84,0,.26.07.4.19.64.14s.2-.09.27-.06.07.32.12.62a1.3,1.3,0,0,0,.58,1,1.89,1.89,0,0,0,.87,0c.52-.08.52-.13.66-.1s.28.21.81.95c.31.43.35.47.41.51.35.24.6.08,1,.25a4.49,4.49,0,0,1,.75.64,11.78,11.78,0,0,0,1,.93c.32.22.55.35.55.35a3.27,3.27,0,0,1,.54.31,1.14,1.14,0,0,1,.33.68c.05.76-1.07,1.41-1.05,1.43a2.88,2.88,0,0,0,.7-.56,8.4,8.4,0,0,1-1.53.7c-.41.11-1.21.34-1.67-.06-.22-.19-.11-.3-.31-.48-.59-.55-1.77.21-2.25-.31-.16-.18-.12-.38-.33-.47,0,0-.17-.06-.72.17s-.69.31-.75.51.14.44.05.52-.62-.41-1.35-.4c-.43,0-.49.19-.89.13a3.13,3.13,0,0,1-.86-.37c-.21-.09-.24-.09-.85-.31a6.45,6.45,0,0,1-1.48-.58,2,2,0,0,1,.7.06s-2.07-.14-2.07-.33.44-.11,1-.49c.29-.19.39-.33.4-.48S340.41,447.32,340.36,447.13Z" transform="translate(-198.72 -299.07)"/><path class="cls-6" d="M299.47,428.64c-.11.15,1,1.19,1,1.16a4.09,4.09,0,0,0-.92-1.18S299.48,428.62,299.47,428.64Z" transform="translate(-198.72 -299.07)"/><path class="cls-6" d="M336.72,370.93s-.25-.06-.26,0,0,0,0,0S336.72,371,336.72,370.93Z" transform="translate(-198.72 -299.07)"/><path class="cls-6" d="M384.81,373.83a1.64,1.64,0,0,0-.76.11,1.14,1.14,0,0,0,.48,0C384.7,373.9,384.82,373.85,384.81,373.83Z" transform="translate(-198.72 -299.07)"/><path class="cls-6" d="M309.56,436.46a4,4,0,0,0,.11-.43S309.52,436.33,309.56,436.46Z" transform="translate(-198.72 -299.07)"/><path class="cls-6" d="M340.37,423.29s-.35-.73-.43-.7,0,.06,0,.15A2.33,2.33,0,0,0,340.37,423.29Z" transform="translate(-198.72 -299.07)"/><path class="cls-6" d="M363.16,449.09s.56.22.62.11,0,0,0-.08A1.88,1.88,0,0,0,363.16,449.09Z" transform="translate(-198.72 -299.07)"/><path class="cls-6" d="M365.5,449.76c0,.15.6.2.61.15s-.2-.16-.53-.29A.23.23,0,0,0,365.5,449.76Z" transform="translate(-198.72 -299.07)"/><path class="cls-6" d="M403.41,432.15a3.35,3.35,0,0,0,.25-.74,2,2,0,0,0-.06-1.14c-.22-.51-.54-.42-.79-.9s0-.73-.17-1.55a7.19,7.19,0,0,0-.36-1c-.22-.61-.69-2-.49-2.1s.81,1.06.93,1a2.16,2.16,0,0,0-1.05-1.81c-.27-.14-.39-.11-.55-.29s-.16-.63-.21-1.55c-.06-1.17-.28-1.37-.38-1.43s-.18-.05-.52-.23-.53-.38-.56-.44a.72.72,0,0,1-.09-.44c.05-.27.26-.27.41-.61s0-.23.15-.53.14-.25.23-.47,0-.45.18-.76a1.3,1.3,0,0,1,.41-.52c.33-.27.54-.15.67-.32s-.24-.64-.5-1.61c0,0,0-.08-.23-1.37v.38a1.62,1.62,0,0,1,.06-.85c.1-.31.22-.34.29-.53.16-.43-.18-1-.5-1.42a2.07,2.07,0,0,1-1-.91,1.62,1.62,0,0,1,0-1.35c.12-.2.22-.2.26-.38s-.24-.53-.52-1.08-.1-.53-.3-.85c-.45-.74-1.37-.68-1.43-1.11,0-.23.24-.26.5-.7s.11-.77.38-2c.13-.62.23-.79.35-.91.28-.3.52-.24.7-.53a2,2,0,0,0,.06-1c0-.34-.06-.61-.09-.85-.09-.67-.12-.64-.12-.84a3.72,3.72,0,0,1,.27-1,3.67,3.67,0,0,0,.2-.58c.05-.41-.14-.57-.23-1.14a2.37,2.37,0,0,1,0-.79c.08-.66.41-.81.35-1.31,0-.3-.15-.28-.21-.59-.11-.69.41-1.23.3-1.31s-.72.46-.73.44.94-.66.84-1.17c0-.28-.39-.37-.84-.62a5.71,5.71,0,0,1-1.51-1.16,2.82,2.82,0,0,1-1.21-2.08,2.39,2.39,0,0,1,.72-1.44,2.15,2.15,0,0,1,.62-.69,2.31,2.31,0,0,1,.62-.29c.44-.14.62,0,.84-.21a1.09,1.09,0,0,0,.33-.67,3.12,3.12,0,0,0,0-1.14,5.23,5.23,0,0,0-.18-.85c-.17-.52-.31-.51-.32-.76,0-.59.71-.81.64-1.28a.89.89,0,0,0-1-.62c-.2.06-.2.21-.5.38a1,1,0,0,1-.67.18c-.27-.06-.44-.35-.56-.61a11.78,11.78,0,0,0,.06-1.23c0-.23,0-.35,0-.62,0-.62.11-.7.09-1,0-.1,0-.22-.67-1.11-.51-.71-.67-.89-.94-1a2,2,0,0,0-.55-.18c-1.4-.27-2.47-1.17-2.57-1s.29.44.35.5c.38.37.68.43.67.49a4.5,4.5,0,0,1-2.66-.76.94.94,0,0,1-.44-.55c-.05-.24.07-.39,0-.56a.63.63,0,0,0-.49-.23c-.2,0-.38.06-.94.47s-.76.64-1.05.67-.19-.07-.64-.12-.78-.08-1,.18c-.09.1-.07.19-.11.29-.18.46-1.09.61-1.66.64a1.33,1.33,0,0,0-.77.67,1.4,1.4,0,0,0,0,.68c.07.35.2.39.24.67a.94.94,0,0,1-.27.85c-.36.23-1-.15-1.31-.33s-.38-.31-.65-.38-.34,0-.93.12a9.07,9.07,0,0,0-1.43.29c-.23.09-.16.08-.59.27a4.7,4.7,0,0,1-1.25.43,2.5,2.5,0,0,1-1.11-.11c-.95-.28-1.11-.83-1.58-.73s-.28.34-1,.84c-.38.28-.78.58-1.14.47s-.26-.38-.59-.55a1.61,1.61,0,0,0-1.55.35c-.43.34-.37.61-.73.73s-.4,0-1.14-.21-.91-.25-1-.26c-.61,0-.83.3-2.34,1-.69.32-1,.41-1.22.27s-.2-.5-.5-.68-.92.15-1.05,0,.6-.88.41-1.23-.65,0-1.06-.38a1.55,1.55,0,0,1-.38-.91c0-.34.12-.41,0-.61s-.52-.41-.81-.5a3.67,3.67,0,0,1-.59-.14,1.15,1.15,0,0,1-.52-.38c-.15-.21-.07-.3-.21-.5a1,1,0,0,0-.64-.38c-.34-.06-.46.1-.88.2-.63.16-.71-.12-1.61-.05-.58,0-.75.17-1,0s-.22-.82-.41-.85-.27.44-.79.93a1.41,1.41,0,0,1-.67.44c-.11,0-.34.06-1.08-.26s-.77-.45-1.4-.7c-.36-.15-.35-.11-.82-.29-.85-.34-1-.53-1.11-.68s-.08-.45-.23-.55c-.35-.23-.86.53-1.64.44-.32,0-.27-.17-1-.38a4.51,4.51,0,0,0-.91-.21c-.63-.06-.79.1-1.17-.06s-.22-.21-.55-.38-.6-.08-1-.26a2.86,2.86,0,0,1-.84-.64c-.48-.45-.51-.61-.73-.64s-.33.16-.88.46-.72.21-1.17.53-.31.32-.67.55a1.75,1.75,0,0,1-.82.35,1.43,1.43,0,0,1-1.1-.36,2.57,2.57,0,0,0-1.5.31c-.34.21-.3.34-.73.61a3.29,3.29,0,0,1-1.05.41c-.8.18-1.26,0-1.4.29s.08.32,0,.53-.7.34-1.08.2-.23-.18-.41-.26c-.69-.32-1.48.62-2,.32-.27-.16-.14-.49-.38-.58s-.78.56-2,1.13a1.5,1.5,0,0,1-1.05.24c-.09,0-.21-.07-.76-.5s-.66-.59-.88-.67a1.36,1.36,0,0,0-1.25.12c-.2.14-.21.27-.59.58a1.84,1.84,0,0,1-.41.29,1.57,1.57,0,0,1-1,.09,1.91,1.91,0,0,1-1.17-.58c-.3-.37-.17-.6-.52-.94a1.47,1.47,0,0,0-.7-.38c-.44-.08-.61.14-.91,0s-.2-.35-.5-.58a1.29,1.29,0,0,0-1.4-.09c-.24.15-.22.3-.55.5a1.68,1.68,0,0,1-.59.2c-.58.06-.71-.43-1.34-.5a1.33,1.33,0,0,0-1.23.5c-.21.33,0,.58-.2.76s-1.15,0-1.64-.38a3.7,3.7,0,0,1-.64-.61c-.45-.51-.43-.66-.76-.94a1.36,1.36,0,0,0-1.05-.41c-.21.05-.27.16-.68.59-.56.59-.85.88-1.11.93-.43.08-.51-.29-1.14-.35a1.66,1.66,0,0,0-1.57.73c-.08.16,0,.2-.18.7a4.19,4.19,0,0,1-.23.68,3.09,3.09,0,0,1-.82,1c-.36.33-.44.3-.94.73s-.33.34-.55.52c-.78.64-1.34.49-1.46.85s.43.55.61,1.43a3,3,0,0,1,0,1.17c-.09.57-.24.64-.26,1s.16.69.5,1.35a8.51,8.51,0,0,1,.78,2s-.34-.79-.49-.76.06.57-.06,1.47c-.06.44-.15.61,0,.78s.44.14.85.44a.89.89,0,0,1,.38.47c.06.3-.2.42-.35.85s.05.53,0,1.37c0,.68-.19.73-.09,1,.15.45.52.46.61.91s-.13.57,0,.73.78-.15,1,.06-.32.73-.38,1.72a1.49,1.49,0,0,0,.08.76,1.53,1.53,0,0,0,.65.66,2.86,2.86,0,0,0,0,1.47A7.38,7.38,0,0,1,303,398.4c.55.79,1.29.68,1.43,1.22.19.8-1.15,1.84-1.23,1.79a5.7,5.7,0,0,1,.29-.62,4.54,4.54,0,0,0,.3-.73,19.75,19.75,0,0,1-1.26,1.93s-.18.19-.38.44a5.55,5.55,0,0,0-.38.5c-.23.36-.35.54-.29.67s.59,0,1.22.35c.2.1.44.22.44.38,0,.35-1.14.4-1.22.85s.87,1.06,1.36,1.27a2.65,2.65,0,0,1,.36,1.06,1.9,1.9,0,0,1-.12,1c-.21.47-.51.49-.79,1.08a1.42,1.42,0,0,0-.17.82c0,.2.12.3.35.7.14.24.27.5.41.76.52.95.78,1.43.67,1.63-.27.53-2,.2-2,.24s.57,0,.59.14-.77.42-1.26.56l-.49.11c-.76.2-1.31.35-1.55.76s0,.81-.27,1-.36-.05-.78,0a1.46,1.46,0,0,0-1.06.61c0,.05.4-.12.41-.09s-.61.21-.87.7c-.17.31-.21.76,0,.94s.48,0,.67.14.07.66,0,.82c-.09.33-.2.33-.32.67s-.26.7-.06,1,.65.14.73.35-.28.58-.64.76-.57.06-.94.29c-.12.08-.42.27-.44.53s.21.29.47.64.15.61.53,1.4c.18.39.27.44.29.67,0,.41-.2.53-.15.85,0,.14.1.35.76.82a8.53,8.53,0,0,0,1.08.64,5,5,0,0,1,.84.6,12.59,12.59,0,0,0,2.08.72c.79.16,1.05.08,1.23,0s.29-.47.7-.94.89-.75,1-.64-.8,1.33-.4,2a4.45,4.45,0,0,0,1.31.64l.7.29c.72.3.88.34.91.47s-.45.38-.59.91a.9.9,0,0,0,.27,1c.24.14.46-.1,1.25-.26a1.7,1.7,0,0,1,1.11,0c.12.05.21.12.7.76a4.57,4.57,0,0,1,.76,1.14,1.59,1.59,0,0,1,0,1.08c-.23.6-.92,1-1.05.85a.08.08,0,0,1,0,0,3.77,3.77,0,0,1-.48,1,1.39,1.39,0,0,1-.64.61,3.62,3.62,0,0,1-1.2,0c-.39,0-.52,0-.67.06a1,1,0,0,0-.35.61,2.24,2.24,0,0,0,.41,1.47,16.39,16.39,0,0,0,.93,1.75c.07,0-.55-1.33-.52-1.35s1.15,2.26,1,3a.69.69,0,0,0,0,.36c.08.22.29.24.5.43s.12.38.38.76a1.35,1.35,0,0,0,.79.62,1.92,1.92,0,0,1,.44.06,1.13,1.13,0,0,1,.43.26c.42.4.18,1,.44,1.11s.38-.22,1.06-.38a1.06,1.06,0,0,1,.55-.06c.52.16.43,1,1,1.17.19.07.19,0,.73,0s.51.11.82.12a3.62,3.62,0,0,0,1-.21,10.26,10.26,0,0,1,1.25-.17,9.34,9.34,0,0,1,1.26-.09c1.4,0,1.64.95,3.27,1.17a2.71,2.71,0,0,0,1.52-.09c.57-.25.66-.61,1.29-.73.13,0,0,0,1,0a4.36,4.36,0,0,1,.82,0,5,5,0,0,1,.7.15,2.55,2.55,0,0,1,.44.14c.34.16.36.31.64.5a2.59,2.59,0,0,0,1.23.38s.5,0,1,0,.66,0,.79-.12.13-.2.26-.29.6.07,1.4.29,1.12.13,1.26.06a1.28,1.28,0,0,0,.35-.29,2.61,2.61,0,0,0,.61-1.14c.07-.24,0-.25.09-.32.26-.36,1.09-.25,1.37-.21s.57.13.73,0a.54.54,0,0,0,.18-.38,7,7,0,0,1,.7-1.31c.52-.88.64-.87.88-1.32a3.8,3.8,0,0,0,.35-2.63c-.07,0-.17,1.15-.26,1.14s0-2.24-.18-5.08c-.17-2.2-.58-4.83-.88-4.82,0,0-.08.06-.11.15a9.4,9.4,0,0,1,.11-1.12c.23-1.38.55-1.61.44-2.63s-.48-1.66-.09-2.1c.19-.2.36-.16.88-.53a3.76,3.76,0,0,0,.7-.61c.68-.83,0-2.56-.17-3.09a5.09,5.09,0,0,1-.53-1.12,4,4,0,0,1-.17-1.49c0-.44-.15-.9-.47-1.05s-.44,0-.53-.11.22-.65.41-.91.4-.4.56-.7a2.22,2.22,0,0,0,.14-.38,1.42,1.42,0,0,0,1.2-.38,1.75,1.75,0,0,0,.47-.67,2.72,2.72,0,0,0,.11-.43,5.33,5.33,0,0,0,1.52-.51c.49-.21.58-.29.65-.41.21-.37-.09-.76.11-1s.57-.09.82.06c.44.26.35.68.73.84s.5-.14.91,0a1.32,1.32,0,0,1,.73.85c.07.26,0,.37.11.5s.4.16.74.17.43-.06.58,0c.37.17.43.79.44.85,0,.31-.07.38,0,.64a1.2,1.2,0,0,0,.29.5,2,2,0,0,0,.73.44c.73.32.7.23.85.35.41.35.21.77.61,1.05s.59.07.76.29.06.6,0,.76a3.05,3.05,0,0,1-1.75,1.7c-.34.14-.53.15-.64.35-.22.37.2.72.05,1.2s-.73.39-1,.93.19.78,0,1.81a4.21,4.21,0,0,1-.5,1.32,1.73,1.73,0,0,1-.38.55c-.47.42-.86.12-1.31.44a2.69,2.69,0,0,0-.76,1.78,1.15,1.15,0,0,1-.18.7c-.25.34-.61.23-.75.5s.26.58.23,1.17-.46.87-.32,1.05.38,0,.7.15a.79.79,0,0,1,.38.49c.07.42-.42.64-.35,1.06a.79.79,0,0,0,.35.46,1.6,1.6,0,0,0,.87.33,1.34,1.34,0,0,0,.47,1c.48.42.93.22,1.17.64.13.22.08.4.29.64s.24.13.38.26c.4.37.07,1,.44,1.35a3.48,3.48,0,0,0,.56.26c.74.34.82.39,1,.38.39,0,.46-.31.7-.26s.27.69.73,1.11.58.16,1.17.38a3.78,3.78,0,0,1,1.57,1.19,2.9,2.9,0,0,0,.65.94,3.56,3.56,0,0,0,1,.56c.91.43,1.37.65,1.93.87,1,.4,1.9.64,1.9.65a5.08,5.08,0,0,0-.52-.15,14.79,14.79,0,0,1,2.16.93,7,7,0,0,1,1.88,1.41,8.13,8.13,0,0,1,.86.17,6.31,6.31,0,0,1,1,.33,1.56,1.56,0,0,1,1.5-.3c.34.18.31.52.82.82.14.08.45.26.64.15s.08-.76.26-.82.37.51.85.64.51-.22,1.05-.29c.79-.1.93.54,2,.55.35,0,.52-.06,1.08,0,.29,0,.4.05.7.06a4.8,4.8,0,0,0,.94-.06,16.25,16.25,0,0,0,1.72-.41,5,5,0,0,1,2-.11,3.54,3.54,0,0,1,1.75.61c.18.14.3.27.47.25.33,0,.34-.61.79-1.21a3,3,0,0,1,1.28-1,4.11,4.11,0,0,1,1.67-.32,11.28,11.28,0,0,1,1.28.15,5.08,5.08,0,0,0,2.75-.7l-.26.06c-.27,0-.74.08-.76,0s.7-.61,1.6-.71,1.18.22,1.49-.05.15-1,.5-1.17c.16-.07.2.07.67.14a6.73,6.73,0,0,0,1.05,0c.34,0,.4,0,.47-.06.25-.13.19-.33.44-.61a1.66,1.66,0,0,1,.82-.44,1.23,1.23,0,0,1,.52-.06c.35.07.42.31.79.38a.74.74,0,0,0,.5,0c.29-.13.27-.44.55-1a4.39,4.39,0,0,1,.53-.82c.48-.57.69-.45.85-.81s-.1-.79.2-1.32a2.23,2.23,0,0,1,.26-.35,3.54,3.54,0,0,1,.62-.5c.69-.51.52-1.3,1.05-1.46a1.81,1.81,0,0,0,.47-.14,3,3,0,0,0,.35-.21l.29-.2c.16-.19,0-.43-.06-1.17,0-.45,0-.57,0-.67s.23-.14.44-.35a1.37,1.37,0,0,0,.35-.7c.05-.31-.07-.41-.09-.68-.05-.68.58-1.41.82-1.34a.18.18,0,0,1,.08.07A3.45,3.45,0,0,0,403.41,432.15Zm-12.55,4.41c-.15.63.13.73,0,1.44a3.34,3.34,0,0,1-.74,1.64c-.37.48-.87,1.12-1.56,1.17s-.94-.77-1.87-.86-1,.66-2.41.9c-.75.12-1.09,0-1.48.31s-.35,1-.71,1.09c-.61.22-1.39-1.28-2.14-1.05-.19.06-.34.22-.58.51-.42.47-.37.74-.59.81s-.63-.63-1.52-1.13-1.46-.12-2-.7a1.76,1.76,0,0,1-.39-1.52,2.08,2.08,0,0,1,.15-.39,4.23,4.23,0,0,1,.74-1c.62-.7.48-.71.71-.86.58-.37,1,.07,1.59-.19.82-.36.59-1.35,1.33-1.64s1.17.48,1.94.16c.4-.17.28-.36.9-.78s.87-.3,1.33-.7.37-.67.7-.78c.52-.18.85.46,1.4.35.72-.14.92-1.39,1.25-1.33s.07.68.46,1,1.29-.27,2.11.15c.42.22.25.44,1,1.17.53.5.75.53.82.82C391.5,435.65,391,435.82,390.86,436.56Z" transform="translate(-198.72 -299.07)"/><path class="cls-6" d="M403.65,433.41c0,.41.06.75.07.75A1.66,1.66,0,0,0,403.65,433.41Z" transform="translate(-198.72 -299.07)"/><path class="cls-6" d="M400.88,411.08s-.16-.11-.47-.38-.3-.31-.32-.29.2.23.44.53A1.36,1.36,0,0,0,400.88,411.08Z" transform="translate(-198.72 -299.07)"/><path class="cls-6" d="M397,386.51c.11.08.62-.29.76-.79,0,0,.09-.36,0-.41s-.3.09-.54.34C397,386.05,396.93,386.44,397,386.51Z" transform="translate(-198.72 -299.07)"/><path class="cls-6" d="M398.14,389.05a1,1,0,0,0-.21-.35,1.33,1.33,0,0,0-.38-.27c-.16-.08-.37-.18-.41-.14s.18.43.6.88a3.69,3.69,0,0,0,.95.64A2.54,2.54,0,0,1,398.14,389.05Z" transform="translate(-198.72 -299.07)"/></svg>