<svg id="Ebene_1" data-name="Ebene 1" xmlns="http://www.w3.org/2000/svg" viewBox="0 0 316.24 419.91"><defs><style>.cls-1{fill:#754d24;}.cls-2{fill:#cbbba0;}.cls-3{font-size:22px;font-family:PerpetuaTitlingMT-Light, Perpetua Titling MT;font-weight:300;}.cls-4{letter-spacing:-0.06em;}.cls-5{fill:#823e36;}.cls-6{fill:#cc8f22;}.cls-7{fill:#cbc2b0;}.cls-8,.cls-9{fill:#caba9f;}.cls-9{stroke:#7e4e24;}.cls-12,.cls-14,.cls-15,.cls-16,.cls-9{stroke-miterlimit:10;}.cls-10{fill:#838181;}.cls-11{fill:#b3b1b2;}.cls-12{fill:#575756;}.cls-12,.cls-14{stroke:#1d1d1b;}.cls-13{fill:#1d1d1b;}.cls-14{fill:#f29100;stroke-width:0.25px;}.cls-15,.cls-16{fill:none;stroke:#cc8f22;}.cls-16{stroke-width:2px;}</style></defs><rect class="cls-1" y="333.98" width="15.85" height="85.93"/><rect class="cls-1" x="15.85" y="18.22" width="300.39" height="401.68"/><rect class="cls-2" x="8.78" y="10" width="300.39" height="401.68"/><rect class="cls-1" width="300.39" height="401.68"/><rect class="cls-2" x="41.63" y="305.43" width="217.14" height="49.48"/><text class="cls-3" transform="translate(56.32 338.92)">He<tspan class="cls-4" x="28.39" y="0">r</tspan><tspan x="41.58" y="0">unterladen</tspan></text><rect class="cls-2" x="42.44" y="47.37" width="217.14" height="125.11"/><rect class="cls-5" x="120.4" y="49.71" width="81.33" height="115.03"/><rect class="cls-6" x="121.35" y="50.61" width="79.4" height="113.09"/><rect class="cls-7" x="122.33" y="51.64" width="77.46" height="111.15"/><path class="cls-8" d="M1574.65,451" transform="translate(-1408.73 -299.07)"/><path class="cls-9" d="M1570.68,450.58" transform="translate(-1408.73 -299.07)"/><path class="cls-10" d="M1569.86,456.76v.07h.08l0-.05Z" transform="translate(-1408.73 -299.07)"/><path class="cls-11" d="M1569.9,456.78a0,0,0,0,0-.05.05s0,0,.05,0Z" transform="translate(-1408.73 -299.07)"/><rect class="cls-11" x="161.17" y="157.8"/><g id="Fahne"><path class="cls-12" d="M1562.5,356.27a3.94,3.94,0,0,0-.68-1.68c-3.37.94-6.56,4.14-10.7,4.81s-8.18-1.91-12.15-1.11c0,0,0,.1,0,.16a24.49,24.49,0,0,1,2.9.47,27.35,27.35,0,0,1,5.24,1.7,12.73,12.73,0,0,0-5,0,12.56,12.56,0,0,0-2.55.79l.08.16c3.77-1.48,7.87,1.9,12.14,1.21a11.31,11.31,0,0,0,2-.53.3.3,0,0,1,0-.08,2.74,2.74,0,0,0,.27-.9,5.92,5.92,0,0,1,.41.7c2.93-1.24,5.42-3.35,8-4.11A3.92,3.92,0,0,0,1562.5,356.27Z" transform="translate(-1408.73 -299.07)"/><path class="cls-13" d="M1553.75,362.1a3,3,0,0,0,.14-.37,1.58,1.58,0,0,0,.06-.23c0-.09,0-.16,0-.22a6.33,6.33,0,0,1-2.48.84,4.46,4.46,0,0,1-1.83-.13s-5.85-1.67-7.59-1.33c-.7.14-1.38.34-1.38.34-.48.14-.87.28-1.16.38l0,.07a.29.29,0,0,0,0,.08,4,4,0,0,1,1.22-.37,9.54,9.54,0,0,1,1.86,0,8.07,8.07,0,0,1,1,.19c.65.13,1.13.27,1.84.47s.75.23,1.26.36,1.09.27,1.26.3a11.5,11.5,0,0,0,2,.33h0a7.59,7.59,0,0,0,1.22-.05l.35-.05.5-.1.54-.13c.28-.07.42-.1.56-.15l.42-.14Z" transform="translate(-1408.73 -299.07)"/><path class="cls-13" d="M1555.38,361.47c.39-.19.71-.36.94-.49.87-.47,1.29-.79,2.3-1.35a18.28,18.28,0,0,1,3.78-1.85,3.54,3.54,0,0,0,.09-1,2.8,2.8,0,0,0,0-.48,4.27,4.27,0,0,0-.62-1.69c-3.23,3.61-5.72,5.6-7.7,6.63.11.22.26.43.38.65Z" transform="translate(-1408.73 -299.07)"/><path class="cls-12" d="M1592.45,360.62a27.35,27.35,0,0,1,5.24-1.7,24.49,24.49,0,0,1,2.9-.47c0-.06,0-.11,0-.16-4-.8-8,1.79-12.15,1.11-.29,0-.58-.11-.86-.18,0,0,0,.1-.07.16a4.77,4.77,0,0,1-.44.76,2.61,2.61,0,0,0-.27-.91c-.06-.11-.12-.2-.18-.29-3.29-1.13-6-3.55-8.88-4.35a4.11,4.11,0,0,0-.63,3.26c3.31,1,6.52,4.24,10.72,4.92s8.37-2.69,12.14-1.21l.08-.16a12.56,12.56,0,0,0-2.55-.79A12.73,12.73,0,0,0,1592.45,360.62Z" transform="translate(-1408.73 -299.07)"/><path class="cls-13" d="M1597.45,360.66c.7.14,1.38.33,1.38.33.48.14.87.28,1.16.38l0,.08a.43.43,0,0,1,0,.07,3.8,3.8,0,0,0-1.22-.36,8.81,8.81,0,0,0-1.86,0,10.09,10.09,0,0,0-1,.18c-.65.13-1.13.27-1.84.47s-.75.23-1.26.37-1.09.26-1.26.3a12.33,12.33,0,0,1-2,.32h0a7.59,7.59,0,0,1-1.22-.05l-.33-.06c-.08,0-.71-.13-1.06-.21a11.51,11.51,0,0,1-1.77-.62c-.34-.14-.62-.28-.89-.4-1.42-.68-1.7-1-3.24-1.84a18.41,18.41,0,0,0-3.78-1.84,4.07,4.07,0,0,1-.09-1,2.9,2.9,0,0,1,0-.48,4.27,4.27,0,0,1,.62-1.69c6.38,7.14,10,8,12.15,7.4C1589.87,362,1595.71,360.31,1597.45,360.66Z" transform="translate(-1408.73 -299.07)"/><path class="cls-12" d="M1582,353.93a10.24,10.24,0,0,1,.82,3c-1.17.08-2.28.34-5,.6" transform="translate(-1408.73 -299.07)"/><path class="cls-12" d="M1576.74,353.33" transform="translate(-1408.73 -299.07)"/><path class="cls-12" d="M1557.6,353.93a11.59,11.59,0,0,0-.84,3.24l5,.32" transform="translate(-1408.73 -299.07)"/><path class="cls-12" d="M1562.81,353.33" transform="translate(-1408.73 -299.07)"/></g><path class="cls-12" d="M1582.94,357.93a75.28,75.28,0,0,0-26.33,0,7.43,7.43,0,0,1-.28-2.39,7.33,7.33,0,0,1,.28-1.7,54.08,54.08,0,0,1,13.16-2,48.4,48.4,0,0,1,13.17,2,5.44,5.44,0,0,1,.4,1.92A5.24,5.24,0,0,1,1582.94,357.93Z" transform="translate(-1408.73 -299.07)"/><path class="cls-14" d="M1564.94,352.28l.08.05a.56.56,0,0,0-.12.23.79.79,0,0,0,0,.31,6.66,6.66,0,0,0,.64,2c.19.42.32.62.41.62s.09-.06.17-.15l.07.05,0,0a5,5,0,0,0-.36.48l0,.06a9.13,9.13,0,0,1-.71-1.36,4.91,4.91,0,0,1-.39-1.22c0-.14,0-.29,0-.47v-.07c-.12.16-.32.43-.57.81l-.41.63-.05.07.32-.06.78-.1h.11a6.44,6.44,0,0,0-.11.64l-.1,0a.57.57,0,0,0,0-.22c0-.06,0-.1-.08-.11a1,1,0,0,0-.29,0l-.38.06-.43.07h0l-.06.08c-.32.41-.52.68-.63.81a6.84,6.84,0,0,1-.49.51l-.06.06.39-.09a4.79,4.79,0,0,1,.73-.11l.49,0,.35,0a1.06,1.06,0,0,0,.6-.29,1,1,0,0,0,.22-.62c.07,0,.11.07.11.13a.74.74,0,0,1-.23.52,1.44,1.44,0,0,1-.92.57,4.16,4.16,0,0,1-.49.05,9.61,9.61,0,0,0-1.19.16l-.52.13h0c0-.1.07-.19.1-.29a4.26,4.26,0,0,0,1.1-1c.33-.4.77-1.09,1.4-2A7.59,7.59,0,0,1,1564.94,352.28Z" transform="translate(-1408.73 -299.07)"/><path class="cls-14" d="M1567.73,353.7l0,.05-.12.21-.14.22,0,0-.07,0a.11.11,0,0,0,0-.05.32.32,0,0,0,.05-.15q0-.09-.18-.09a.4.4,0,0,0-.28.14.36.36,0,0,0-.11.27.6.6,0,0,0,.07.18l.14.25a.57.57,0,0,1,.08.28.76.76,0,0,1-.3.6.86.86,0,0,1-.5.27.38.38,0,0,1-.22,0,.21.21,0,0,1-.1-.16.62.62,0,0,1,0-.23.48.48,0,0,0,.42.23.5.5,0,0,0,.32-.15.37.37,0,0,0,.12-.3.41.41,0,0,0-.06-.2l-.18-.31a.36.36,0,0,1-.06-.2.75.75,0,0,1,.21-.49.87.87,0,0,1,.73-.35Z" transform="translate(-1408.73 -299.07)"/><path class="cls-14" d="M1568.86,353.66l0,.07h-.38l0,0c0,.07-.12.27-.25.6-.06.13-.14.31-.24.55a1.61,1.61,0,0,0-.16.52.09.09,0,0,0,.11.1.76.76,0,0,0,.37-.17l0,.07a1.27,1.27,0,0,1-.34.2,1.13,1.13,0,0,1-.32.1c-.13,0-.19,0-.2-.14a2.58,2.58,0,0,1,.19-.6l.24-.6c.14-.34.23-.54.25-.6l0-.06h-.36l0-.07h0a.52.52,0,0,0,.31-.07,1.5,1.5,0,0,0,.21-.39h.05a1.09,1.09,0,0,0,.26,0l-.1.23a1.08,1.08,0,0,1-.08.19l0,.05Z" transform="translate(-1408.73 -299.07)"/><path class="cls-14" d="M1570.22,355.39l0,.07a5.81,5.81,0,0,1-.65.26l-.06,0a4.69,4.69,0,0,1,.58-1.47.7.7,0,0,0,.09-.23c0-.05,0-.08-.06-.08a.56.56,0,0,0-.24.12,3.27,3.27,0,0,0-.35.3,4.62,4.62,0,0,0-.49.62,3.39,3.39,0,0,0-.35.61.92.92,0,0,0-.33.11l0-.07.31-.77q.13-.37.3-.75c.1-.25.21-.5.32-.74a2.94,2.94,0,0,0,.23-.68c0-.06,0-.09-.08-.09l-.17,0h0l0-.07a5.12,5.12,0,0,0,.67-.26l0,0v.07a1.58,1.58,0,0,1-.15.54c-.09.24-.28.66-.55,1.26-.09.22-.19.43-.28.65l0,.07,0-.05c.66-.8,1.18-1.18,1.47-1.17.09,0,.13.05.12.13a.67.67,0,0,1-.1.28l-.18.34a4.44,4.44,0,0,0-.43,1s0,.05.06.06a.77.77,0,0,0,.23-.08Z" transform="translate(-1408.73 -299.07)"/><path class="cls-14" d="M1572.18,355.48l0,.07a2.2,2.2,0,0,1-.75.25,2.7,2.7,0,0,1,.37-.85,5.25,5.25,0,0,1-.73.59,1.09,1.09,0,0,1-.56.22c-.12,0-.18-.08-.17-.23a1.25,1.25,0,0,1,.38-.8,2.64,2.64,0,0,1,.93-.67,2.37,2.37,0,0,1,1.26-.21s.08,0,.08.06a.56.56,0,0,1-.1.18l-.35-.06a1.79,1.79,0,0,0-1.44.49,1.22,1.22,0,0,0-.46.84c0,.13,0,.2.14.21a.76.76,0,0,0,.38-.2,3.48,3.48,0,0,0,.47-.47,2.52,2.52,0,0,0,.42-.79.23.23,0,0,1,.1.24,1,1,0,0,1-.3.54,2.19,2.19,0,0,0,.31,0l0,0a2.89,2.89,0,0,0-.3.6.06.06,0,0,0,.07.07A.77.77,0,0,0,1572.18,355.48Z" transform="translate(-1408.73 -299.07)"/><path class="cls-14" d="M1574.44,354.05l-.13.23a.59.59,0,0,0-.17,0,.93.93,0,0,0-.72.35,2.88,2.88,0,0,0-.33.43,7.09,7.09,0,0,0-.36.73l0,.08-.32.05,0-.07.28-.56a5.68,5.68,0,0,0,.43-.95c0-.06,0-.08-.06-.09a.48.48,0,0,0-.18.05l0-.08a5.23,5.23,0,0,0,.71-.3.11.11,0,0,1,0,.08,1.88,1.88,0,0,1-.26.62l.08-.06c.46-.38.78-.55,1-.52A.21.21,0,0,1,1574.44,354.05Z" transform="translate(-1408.73 -299.07)"/><path class="cls-14" d="M1575.88,354.51l-.23-.05a1.19,1.19,0,0,0-1.14.32,1.9,1.9,0,0,0-.31.42,1.36,1.36,0,0,0-.16.41.3.3,0,0,0,0,.21.25.25,0,0,0,.18.11.92.92,0,0,0,.65-.32,1.3,1.3,0,0,0,.45-.7.22.22,0,0,0,0-.14.13.13,0,0,0-.09-.07c-.14,0-.3.09-.47.33v-.09a.47.47,0,0,1,.26-.29.61.61,0,0,1,.41-.1.31.31,0,0,1,.19.13.33.33,0,0,1,0,.24c0,.3-.31.57-.76.84a1.56,1.56,0,0,1-.9.31.35.35,0,0,1-.23-.14.4.4,0,0,1-.06-.27,1.26,1.26,0,0,1,.34-.67,2.1,2.1,0,0,1,.76-.54,2.26,2.26,0,0,1,.54-.16,1.51,1.51,0,0,1,.47,0c.08,0,.11.06.1.12A.41.41,0,0,1,1575.88,354.51Z" transform="translate(-1408.73 -299.07)"/><path class="cls-14" d="M1577.37,354.6l0,0-.17.17-.19.18,0,0-.06,0,0,0a.51.51,0,0,0,.09-.14c0-.06,0-.1-.16-.13a.44.44,0,0,0-.3,0,.36.36,0,0,0-.18.24.45.45,0,0,0,0,.19,2.29,2.29,0,0,0,.07.28.71.71,0,0,1,0,.29.75.75,0,0,1-.46.49.83.83,0,0,1-.55.13.32.32,0,0,1-.2-.1.2.2,0,0,1-.06-.18.53.53,0,0,1,.11-.21.45.45,0,0,0,.34.33.48.48,0,0,0,.35-.05.42.42,0,0,0,.2-.26.53.53,0,0,0,0-.21c0-.11-.05-.23-.08-.34a.54.54,0,0,1,0-.22.76.76,0,0,1,.34-.41,1.07,1.07,0,0,1,.37-.16,1.3,1.3,0,0,1,.43,0Z" transform="translate(-1408.73 -299.07)"/><line class="cls-15" x1="124.38" y1="72.73" x2="151.07" y2="72.73"/><line class="cls-15" x1="124.38" y1="90.22" x2="151.07" y2="90.22"/><line class="cls-15" x1="124.38" y1="87.22" x2="151.07" y2="87.22"/><line class="cls-15" x1="124.38" y1="84.35" x2="151.07" y2="84.35"/><line class="cls-15" x1="124.38" y1="81.34" x2="151.07" y2="81.34"/><line class="cls-15" x1="124.38" y1="78.47" x2="151.07" y2="78.47"/><line class="cls-15" x1="124.38" y1="75.66" x2="151.07" y2="75.66"/><line class="cls-15" x1="171.29" y1="72.53" x2="197.78" y2="72.53"/><line class="cls-15" x1="171.29" y1="87.02" x2="197.78" y2="87.02"/><line class="cls-15" x1="171.29" y1="84.15" x2="197.78" y2="84.15"/><line class="cls-15" x1="171.29" y1="81.14" x2="197.78" y2="81.14"/><line class="cls-15" x1="171.29" y1="78.27" x2="197.78" y2="78.27"/><line class="cls-15" x1="171.29" y1="75.45" x2="197.78" y2="75.45"/><line class="cls-16" x1="161.18" y1="90.22" x2="161.18" y2="123.32"/><rect class="cls-16" x="151.07" y="70" width="20.22" height="20.22"/><line class="cls-15" x1="124.38" y1="100.24" x2="197.78" y2="100.24"/><line class="cls-15" x1="124.38" y1="117.74" x2="197.78" y2="117.74"/><line class="cls-15" x1="124.38" y1="114.73" x2="197.78" y2="114.73"/><line class="cls-15" x1="124.38" y1="111.86" x2="197.78" y2="111.86"/><line class="cls-15" x1="124.38" y1="108.86" x2="197.78" y2="108.86"/><line class="cls-15" x1="124.38" y1="105.99" x2="197.78" y2="105.99"/><line class="cls-15" x1="124.38" y1="103.17" x2="197.78" y2="103.17"/><line class="cls-16" x1="124.43" y1="97.81" x2="197.82" y2="97.81"/><path class="cls-16" d="M1606.62,425.8" transform="translate(-1408.73 -299.07)"/><path class="cls-16" d="M1533.23,425" transform="translate(-1408.73 -299.07)"/><path class="cls-15" d="M1606.47,428.36" transform="translate(-1408.73 -299.07)"/><path class="cls-15" d="M1533.07,427.54" transform="translate(-1408.73 -299.07)"/><path class="cls-15" d="M1606.47,431.28" transform="translate(-1408.73 -299.07)"/><path class="cls-15" d="M1533.07,430.46" transform="translate(-1408.73 -299.07)"/><line class="cls-16" x1="124.58" y1="135.66" x2="197.98" y2="135.66"/><line class="cls-15" x1="124.43" y1="141.14" x2="197.82" y2="141.14"/><text x="-1408.73" y="-299.07"/><line class="cls-15" x1="124.58" y1="138.15" x2="197.98" y2="138.15"/><line class="cls-16" x1="124.52" y1="125.9" x2="197.91" y2="125.9"/><line class="cls-15" x1="124.36" y1="131.38" x2="197.75" y2="131.38"/><line class="cls-15" x1="124.52" y1="128.39" x2="197.91" y2="128.39"/></svg>