<svg id="Ebene_1" data-name="Ebene 1" xmlns="http://www.w3.org/2000/svg" viewBox="0 0 878.69 2249.31"><defs><style>.cls-1,.cls-10,.cls-16,.cls-20{fill:none;}.cls-1,.cls-13,.cls-14,.cls-18,.cls-2,.cls-3,.cls-4,.cls-6,.cls-8{stroke:#000;}.cls-1,.cls-10,.cls-12,.cls-13,.cls-14,.cls-16,.cls-17,.cls-18,.cls-2,.cls-3,.cls-4,.cls-6,.cls-7,.cls-8,.cls-9{stroke-miterlimit:10;}.cls-1{stroke-width:8px;}.cls-15,.cls-2{fill:#f39322;}.cls-3{fill:#4d4d4d;}.cls-4{fill:#b3b3b3;}.cls-5{fill:#999;}.cls-6{fill:#666;}.cls-7,.cls-9{fill:#754c24;}.cls-10,.cls-12,.cls-16,.cls-17,.cls-7,.cls-9{stroke:#42210b;}.cls-7{stroke-width:6px;}.cls-12,.cls-8{fill:#8c6239;}.cls-9{stroke-width:4px;}.cls-11,.cls-13,.cls-17{fill:#42210b;}.cls-12,.cls-16{stroke-width:5px;}.cls-14{fill:#ec663b;}.cls-18{fill:#0079ac;}.cls-19{fill:#2e3192;}</style></defs><g id="Lampe"><rect class="cls-1" x="777.1" y="1316.17" width="18.19" height="27.28" rx="7.77"/><path d="M6059.19,7365.81a21.93,21.93,0,0,1,3.14,7.31,31.76,31.76,0,0,1,0,14.64,4.34,4.34,0,1,1-6.29,0,31.76,31.76,0,0,1,0-14.64A22.11,22.11,0,0,1,6059.19,7365.81Z" transform="translate(-5273 -6030.69)"/><polygon class="cls-2" points="812.66 1490.6 757.17 1490.6 737.17 1386.88 832.66 1386.88 812.66 1490.6"/><polygon class="cls-3" points="839.39 1386.88 733 1386.88 783 1358.25 789.39 1358.25 839.39 1386.88"/><path d="M6059.19,7327.84a22.06,22.06,0,0,1,3.14,7.32,31.76,31.76,0,0,1,0,14.64,4.34,4.34,0,1,1-6.29,0,31.76,31.76,0,0,1,0-14.64A22.24,22.24,0,0,1,6059.19,7327.84Z" transform="translate(-5273 -6030.69)"/><rect class="cls-3" x="752.58" y="1490.6" width="64.67" height="8.22"/><rect class="cls-3" x="782.22" y="1386.88" width="7.96" height="103.73"/><polygon class="cls-3" points="764.53 1490.6 756.58 1490.6 737.19 1386.88 745.15 1386.88 764.53 1490.6"/><polygon class="cls-3" points="807.31 1490.6 815.27 1490.6 834.66 1386.88 826.7 1386.88 807.31 1490.6"/></g><rect class="cls-4" x="6.5" y="172.37" width="587.32" height="2076.25"/><rect class="cls-5" x="34.56" y="1881.98" width="105.35" height="49.64"/><rect class="cls-6" x="26.91" y="2009.7" width="643.45" height="79.58"/><rect class="cls-6" x="26.91" y="2089.28" width="723.45" height="79.58"/><rect class="cls-6" x="26.91" y="2168.85" width="801.78" height="79.58"/><rect class="cls-6" x="6.5" y="1220.19" width="104.41" height="1028.25"/><rect class="cls-7" x="596.49" y="1215.81" width="240.77" height="87.59"/><rect class="cls-8" x="6.5" y="1202.81" width="793.46" height="51.37"/><g id="Holzverkleidung"><polygon class="cls-9" points="724.22 552.45 2.5 548.87 2.5 795.05 724.22 798.62 724.22 552.45"/><line class="cls-10" x1="256.95" y1="597.69" x2="256.95" y2="690.91"/><line class="cls-10" x1="555.95" y1="778.82" x2="555.95" y2="671.96"/><line class="cls-10" x1="619.98" y1="676.45" x2="619.98" y2="585.56"/><line class="cls-10" x1="197.86" y1="675.53" x2="197.86" y2="552.39"/><path class="cls-11" d="M5784.61,6609.05c.62,8.84.94,17.68,1.16,26.52.14,4.42.17,8.85.25,13.27l.08,13.26-.07,13.26c-.09,4.42-.11,8.85-.25,13.27-.22,8.84-.55,17.68-1.17,26.52-.63-8.84-1-17.68-1.18-26.52-.13-4.42-.16-8.85-.25-13.27l-.07-13.26.08-13.26c.08-4.42.11-8.85.25-13.27C5783.66,6626.73,5784,6617.89,5784.61,6609.05Z" transform="translate(-5273 -6030.69)"/><path class="cls-11" d="M5625.45,6683.7c.62,8.84.94,17.68,1.16,26.53.14,4.42.17,8.84.25,13.26l.09,13.26-.08,13.27c-.09,4.42-.11,8.84-.25,13.26-.22,8.84-.55,17.68-1.17,26.53-.63-8.85-.95-17.69-1.17-26.53-.14-4.42-.17-8.84-.25-13.26l-.08-13.27.08-13.26c.08-4.42.11-8.84.25-13.26C5624.5,6701.38,5624.83,6692.54,5625.45,6683.7Z" transform="translate(-5273 -6030.69)"/><line class="cls-10" x1="54.62" y1="726.18" x2="54.62" y2="619.31"/><rect class="cls-12" x="386.96" y="552.39" width="60" height="246.17"/><rect class="cls-12" x="109.91" y="549.45" width="60" height="246.17"/><rect class="cls-12" x="664.22" y="552.45" width="60" height="246.17"/><polygon class="cls-12" points="524.4 797.13 450.97 797.13 587.61 555.87 660.92 555.77 524.4 797.13"/><polygon class="cls-12" points="247.8 794.16 174.37 794.16 311.01 552.89 384.32 552.79 247.8 794.16"/></g><rect class="cls-4" x="2.5" y="190.22" width="716.72" height="358.76"/><polygon class="cls-13" points="616.9 510.69 217.02 513.27 217.02 235.9 616.9 233.32 616.9 510.69"/><polygon class="cls-14" points="403.85 366.41 234.48 367.15 234.48 252.94 403.85 252.2 403.85 366.41"/><polygon class="cls-14" points="596.49 365.57 427.12 366.31 427.12 252.09 596.49 251.35 596.49 365.57"/><polygon class="cls-14" points="403.85 496.54 234.48 497.28 234.48 383.06 403.85 382.32 403.85 496.54"/><polygon class="cls-14" points="596.49 495.7 427.12 496.44 427.12 382.22 596.49 381.48 596.49 495.7"/><polygon class="cls-15" points="384.82 366.31 345.08 366.31 263.39 253.5 302.59 252.64 384.82 366.31"/><path class="cls-15" d="M5868.57,6345.21l.92,51.05c-.94.41,1.52.4,0,0l-82.31-113.67,36.18.12Z" transform="translate(-5273 -6030.69)"/><polygon class="cls-15" points="572.32 495.64 532.58 495.64 450.89 382.83 490.1 381.96 572.32 495.64"/><polygon class="cls-15" points="327.46 496.64 316.17 496.64 234.48 383.83 245.23 382.96 327.46 496.64"/><rect class="cls-13" x="315.84" y="252.78" width="6.65" height="244.5"/><rect class="cls-13" x="509.52" y="252.28" width="6.65" height="243.35"/><rect class="cls-8" x="2.5" y="161.77" width="874.76" height="51.37"/><g id="Türe"><path class="cls-7" d="M5802.14,8022,5451.51,8026V7469.53c0-33.41,65.16-104.69,174-106.17,109.37-1.48,176.65,72.76,176.65,102.23Z" transform="translate(-5273 -6030.69)"/><line class="cls-16" x1="266.03" y1="1992.33" x2="266.03" y2="1350.32"/><line class="cls-16" x1="353.55" y1="1992.33" x2="353.55" y2="1332.68"/><line class="cls-16" x1="441.35" y1="1992.33" x2="441.35" y2="1349.55"/><path class="cls-11" d="M5579.13,7554.56c.34,12.76.49,25.51.73,38.27l.42,38.26c.28,25.51.31,51,.35,76.53s-.07,51-.34,76.52l-.42,38.27c-.25,12.75-.4,25.5-.74,38.26-.34-12.76-.48-25.51-.73-38.26l-.42-38.27c-.27-25.51-.31-51-.35-76.52s.08-51,.35-76.53l.42-38.26C5578.65,7580.07,5578.79,7567.32,5579.13,7554.56Z" transform="translate(-5273 -6030.69)"/><path class="cls-11" d="M5685.65,7716.63c.34,12.75.48,25.51.73,38.26l.42,38.26c.27,25.51.31,51,.35,76.53s-.08,51-.35,76.53l-.42,38.26c-.25,12.75-.39,25.51-.73,38.26-.34-12.75-.49-25.51-.74-38.26l-.42-38.26c-.27-25.51-.31-51-.34-76.53s.08-51,.35-76.53l.42-38.26C5685.16,7742.14,5685.31,7729.38,5685.65,7716.63Z" transform="translate(-5273 -6030.69)"/><path class="cls-11" d="M5494,7423.63c.34,12.75.48,25.51.73,38.26l.42,38.26c.27,25.51.31,51,.35,76.53s-.07,51-.35,76.53l-.41,38.26c-.25,12.75-.4,25.51-.74,38.26-.34-12.75-.49-25.51-.73-38.26l-.42-38.26c-.27-25.51-.31-51-.35-76.53s.08-51,.35-76.53l.42-38.26C5493.5,7449.14,5493.64,7436.38,5494,7423.63Z" transform="translate(-5273 -6030.69)"/><rect class="cls-12" x="178.51" y="1466.4" width="350.63" height="93.68"/><rect class="cls-12" x="178.51" y="1813.12" width="350.63" height="93.68"/></g><rect class="cls-7" x="302.89" y="1215.81" width="101.87" height="87.59"/><circle class="cls-17" cx="510.49" cy="1676.93" r="22.74"/><rect class="cls-7" x="533.23" y="798.62" width="60.59" height="241.57"/><rect class="cls-7" x="133.23" y="798.62" width="60.59" height="241.57"/><rect class="cls-5" x="271.37" y="869.77" width="105.35" height="49.64"/><rect class="cls-5" x="416.96" y="980.99" width="105.35" height="49.64"/><rect class="cls-5" x="6.03" y="924.91" width="105.35" height="49.64"/><rect class="cls-5" x="469.63" y="1289.72" width="105.35" height="49.64"/><g id="Dach_oben" data-name="Dach oben"><polygon class="cls-18" points="2.5 7.5 671.11 0.5 877.26 163.12 2.5 170.12 2.5 7.5"/><path class="cls-19" d="M5507.61,6067.3q5.94,14.63,11.53,29.38c3.74,9.82,7.38,19.69,11,29.56s7.14,19.79,10.59,29.72,6.82,19.9,10.05,29.92q-5.94-14.62-11.52-29.38c-3.74-9.83-7.38-19.7-11-29.57s-7.14-19.79-10.59-29.72S5510.85,6077.31,5507.61,6067.3Z" transform="translate(-5273 -6030.69)"/><path class="cls-19" d="M5753.45,6040.56q3.38,7.57,6.39,15.28c2,5.13,4,10.3,5.87,15.48s3.71,10.38,5.45,15.62,3.41,10.5,4.93,15.82q-3.37-7.58-6.4-15.28c-2-5.13-4-10.3-5.86-15.48s-3.71-10.39-5.45-15.62S5755,6045.88,5753.45,6040.56Z" transform="translate(-5273 -6030.69)"/><path class="cls-19" d="M5929.67,6095.49q3.38,7.58,6.39,15.28c2,5.13,4,10.3,5.87,15.47s3.72,10.39,5.45,15.63,3.41,10.5,4.93,15.82q-3.37-7.57-6.39-15.29c-2-5.13-4-10.29-5.87-15.47s-3.71-10.39-5.45-15.63S5931.2,6100.8,5929.67,6095.49Z" transform="translate(-5273 -6030.69)"/><path class="cls-19" d="M5665.53,6116.06q3.38,7.57,6.39,15.28c2,5.13,4,10.3,5.87,15.48s3.71,10.38,5.45,15.62,3.4,10.5,4.93,15.82q-3.39-7.58-6.4-15.28c-2-5.13-4-10.3-5.86-15.48s-3.72-10.39-5.45-15.62S5667.05,6121.38,5665.53,6116.06Z" transform="translate(-5273 -6030.69)"/><path class="cls-20" d="M5275.5,6154.19" transform="translate(-5273 -6030.69)"/><path class="cls-20" d="M5232.34,6035.61" transform="translate(-5273 -6030.69)"/></g><g id="Dach_unten" data-name="Dach unten"><polygon class="cls-18" points="5.5 1040.19 596.82 1040.19 802.96 1202.81 5.5 1202.81 5.5 1040.19"/><path class="cls-19" d="M5600.43,7107.34q5.94,14.63,11.52,29.38c3.75,9.83,7.38,19.7,11,29.57s7.14,19.78,10.58,29.72,6.83,19.9,10.06,29.91q-5.94-14.62-11.52-29.38c-3.75-9.82-7.39-19.69-11-29.57s-7.13-19.78-10.58-29.72S5603.66,7117.36,5600.43,7107.34Z" transform="translate(-5273 -6030.69)"/><path class="cls-19" d="M5684.53,7086.78q3.38,7.57,6.39,15.28c2,5.13,4,10.3,5.87,15.48s3.71,10.38,5.45,15.62,3.41,10.5,4.93,15.82q-3.37-7.57-6.4-15.28c-2-5.13-4-10.3-5.86-15.48s-3.72-10.39-5.45-15.62S5686.05,7092.1,5684.53,7086.78Z" transform="translate(-5273 -6030.69)"/><path class="cls-19" d="M5286.36,7079.53q3.38,7.57,6.39,15.29c2,5.13,4,10.29,5.87,15.47s3.71,10.39,5.45,15.62,3.41,10.5,4.93,15.82q-3.37-7.57-6.39-15.28c-2-5.13-4-10.3-5.87-15.48s-3.71-10.38-5.45-15.62S5287.88,7084.85,5286.36,7079.53Z" transform="translate(-5273 -6030.69)"/><path class="cls-19" d="M5442.33,7161.75q3.38,7.58,6.39,15.28c2,5.13,4,10.3,5.87,15.47s3.72,10.39,5.46,15.63,3.4,10.5,4.92,15.81q-3.37-7.57-6.39-15.28c-2-5.13-4-10.3-5.87-15.47s-3.71-10.39-5.45-15.63S5443.86,7167.06,5442.33,7161.75Z" transform="translate(-5273 -6030.69)"/><path class="cls-19" d="M5826.4,7092.9q5.94,14.63,11.52,29.38c3.75,9.83,7.39,19.69,11,29.57s7.14,19.78,10.59,29.72,6.82,19.89,10.05,29.91q-5.94-14.62-11.52-29.38c-3.75-9.83-7.38-19.69-11-29.57s-7.13-19.78-10.58-29.72S5829.64,7102.91,5826.4,7092.9Z" transform="translate(-5273 -6030.69)"/></g><rect class="cls-7" x="38.04" y="189.53" width="101.87" height="87.59"/><polygon class="cls-12" points="2.5 734.3 105.58 552.07 32.27 552.17 2.5 604.72 2.5 734.3"/></svg>