<svg id="Ebene_1" data-name="Ebene 1" xmlns="http://www.w3.org/2000/svg" viewBox="0 0 1219.7 2499.45"><defs><style>.cls-1{fill:#676767;}.cls-1,.cls-2,.cls-3,.cls-4,.cls-6{stroke:#000;stroke-miterlimit:10;}.cls-1,.cls-2,.cls-3{stroke-width:2px;}.cls-2{fill:#b3b3b3;}.cls-3{fill:#f29222;}.cls-4{fill:#8c6239;}.cls-5{fill:#999;}.cls-6{fill:none;stroke-width:4px;}.cls-7{fill:#047aad;}.cls-8{fill:#be1823;}.cls-9{fill:#93c021;}.cls-10{fill:#ec663a;}</style></defs><rect class="cls-1" x="745.78" y="730.61" width="472.93" height="748.8"/><rect class="cls-2" x="609.64" y="1600.67" width="609.06" height="897.78"/><polygon class="cls-3" points="1218.7 369.85 854.91 369.85 518.41 730.61 1218.7 730.61 1218.7 369.85"/><rect class="cls-2" x="914.17" y="509.31" width="210.55" height="971.66"/><rect class="cls-2" x="518.41" y="1479.41" width="700.29" height="143.97"/><rect class="cls-4" x="518.41" y="1238.74" width="700.29" height="43.96"/><rect class="cls-4" x="607.84" y="1282.7" width="33.35" height="196.72"/><rect class="cls-4" x="998.91" y="1284.25" width="33.35" height="196.72"/><rect class="cls-4" x="745.78" y="2424.23" width="136.42" height="74.22"/><rect class="cls-4" x="882.2" y="2350.02" width="136.42" height="74.22"/><rect class="cls-4" x="1018.62" y="2275.8" width="136.42" height="74.22"/><rect class="cls-4" x="1155.04" y="2201.58" width="63.66" height="74.22"/><polygon class="cls-4" points="1218.7 2240.61 745.78 2498.45 882.2 2498.45 1218.7 2314.99 1218.7 2240.61"/><polygon class="cls-1" points="1218.7 1658.27 609.64 1658.27 518.41 1623.38 1218.7 1623.38 1218.7 1658.27"/><polygon class="cls-3" points="1019.45 2.97 837.78 510.86 1201.12 510.86 1019.45 2.97"/><rect class="cls-5" x="929.57" y="622.77" width="105.35" height="61.97"/><rect class="cls-5" x="1102.37" y="1687.13" width="105.35" height="61.97"/><rect class="cls-5" x="732.43" y="2244.81" width="105.35" height="61.97"/><rect class="cls-5" x="693.1" y="1718.12" width="105.35" height="61.97"/><rect class="cls-5" x="946.24" y="1131.22" width="105.35" height="61.97"/><rect class="cls-5" x="1003.08" y="763.21" width="105.35" height="61.97"/><rect class="cls-5" x="897.74" y="1909.61" width="105.35" height="61.97"/><path class="cls-6" d="M8044.26,6112c35.21,53.08,164.51,234,415.33,312.25,236.94,74,435.25,10.47,497.18-12.13" transform="translate(-8042.6 -5781.05)"/><polygon class="cls-7" points="656.29 811.69 699.59 680.59 612.99 680.59 656.29 811.69"/><polygon class="cls-8" points="858.73 788.86 872.44 651.48 787.92 670.34 858.73 788.86"/><polygon class="cls-9" points="399.24 779.02 474.29 663.13 390.5 641.23 399.24 779.02"/><polygon class="cls-10" points="134.37 661.18 243.75 576.93 172.05 528.36 134.37 661.18"/><path class="cls-1" d="M9081.71,6717.24c-.67-15.49-10.94-27.8-23.53-27.8s-22.86,12.31-23.53,27.8h0v78.88h47.13v-78.88Z" transform="translate(-8042.6 -5781.05)"/></svg>