<svg id="Ebene_2" data-name="Ebene 2" xmlns="http://www.w3.org/2000/svg" viewBox="0 0 1681.12 2406.72"><defs><style>.cls-1,.cls-3{fill:#754d24;}.cls-1{stroke:#42210b;}.cls-1,.cls-2,.cls-6,.cls-7{stroke-miterlimit:10;}.cls-1,.cls-6{stroke-width:4px;}.cls-2{fill:#b3b3b3;stroke-width:2px;}.cls-2,.cls-6,.cls-7{stroke:#000;}.cls-4{fill:#42210b;}.cls-5{fill:#676767;}.cls-6{fill:none;}.cls-7{fill:#1a9dd9;}.cls-8{fill:#999;}</style></defs><polygon class="cls-1" points="720.33 1351.38 27.25 928.42 29.8 923.99 732.76 1329.85 720.33 1351.38"/><polygon class="cls-1" points="1608.31 1680.53 1676.91 1749.12 786.38 2341.76 717.79 2273.16 1608.31 1680.53"/><polygon class="cls-1" points="638.42 1254.46 610.87 1254.46 348.64 702.52 376.2 702.52 638.42 1254.46"/><rect class="cls-2" x="505.34" y="1275.62" width="271.59" height="303.49"/><rect class="cls-2" x="446.2" y="1224.46" width="330.73" height="102.32"/><rect class="cls-2" x="717.79" y="506.76" width="942.56" height="1076.76"/><rect class="cls-1" x="9445.05" y="7664.96" width="97.01" height="660.88" transform="translate(11124.17 10006.37) rotate(-180)"/><path class="cls-3" d="M9505.28,7723.47q-.77,161.43-1.52,322.86" transform="translate(-7862.93 -5984.44)"/><path class="cls-4" d="M9505.28,7723.47l.25,10.09.18,10.09.35,20.18q.25,20.19.39,40.36c.13,13.46.1,26.91.15,40.36l-.08,40.36-.3,40.36c-.17,13.45-.27,26.9-.52,40.35s-.47,26.91-.77,40.36l-.54,20.18-.28,10.08-.35,10.09-.25-10.09-.18-10.09L9503,8006q-.25-20.18-.39-40.36c-.12-13.45-.09-26.91-.14-40.36l.08-40.36.3-40.36c.17-13.45.28-26.9.52-40.35s.48-26.91.77-40.36l.55-20.17.27-10.09Z" transform="translate(-7862.93 -5984.44)"/><path class="cls-3" d="M9467.34,8068.29q-.75,161.43-1.51,322.86" transform="translate(-7862.93 -5984.44)"/><path class="cls-4" d="M9467.34,8068.29l.25,10.09.18,10.09.36,20.18q.25,20.19.39,40.36c.12,13.46.1,26.91.14,40.36l-.08,40.36-.29,40.36c-.18,13.45-.28,26.9-.52,40.35s-.48,26.91-.77,40.36l-.55,20.18-.27,10.09-.35,10.08-.26-10.09-.18-10.09-.36-20.18q-.25-20.18-.39-40.36c-.12-13.45-.09-26.91-.14-40.36l.08-40.36.3-40.36c.18-13.45.28-26.9.53-40.35s.47-26.91.77-40.36l.54-20.17.27-10.09Z" transform="translate(-7862.93 -5984.44)"/><rect class="cls-1" x="9174.88" y="7664.96" width="97.01" height="660.88" transform="translate(10583.83 10006.37) rotate(-180)"/><path class="cls-3" d="M9249.11,7711.34v151.58" transform="translate(-7862.93 -5984.44)"/><path class="cls-4" d="M9249.11,7711.34c.83,12.63,1.26,25.27,1.55,37.9.19,6.31.23,12.63.34,18.94l.11,18.95-.11,18.95c-.11,6.32-.14,12.63-.33,18.95-.29,12.63-.73,25.26-1.56,37.89-.83-12.63-1.27-25.26-1.56-37.89-.19-6.32-.22-12.63-.33-18.95l-.11-18.95.11-18.95c.11-6.31.15-12.63.34-18.94C9247.85,7736.61,9248.28,7724,9249.11,7711.34Z" transform="translate(-7862.93 -5984.44)"/><path class="cls-3" d="M9211.22,7897.78l-10.62,278.91" transform="translate(-7862.93 -5984.44)"/><path class="cls-4" d="M9211.22,7897.78l0,8.73-.1,8.73-.22,17.45q-.32,17.43-.74,34.88c-.26,11.63-.66,23.25-1,34.88l-1.21,34.86-1.43,34.86c-.56,11.62-1,23.24-1.66,34.85s-1.23,23.23-1.91,34.84l-1.11,17.42-.56,8.71-.64,8.7,0-8.73.11-8.72.21-17.45c.21-11.63.44-23.26.75-34.89s.66-23.25,1-34.87l1.22-34.87,1.44-34.86c.55-11.61,1-23.23,1.66-34.85s1.23-23.23,1.91-34.84l1.11-17.41.55-8.71Z" transform="translate(-7862.93 -5984.44)"/><path class="cls-3" d="M9253.66,8147.89q-3,108.39-6.07,216.76" transform="translate(-7862.93 -5984.44)"/><path class="cls-4" d="M9253.66,8147.89c.32,18.09.25,36.16,0,54.23-.07,9-.28,18.07-.43,27.11l-.65,27.09-.86,27.1c-.36,9-.65,18.06-1.09,27.08-.8,18.06-1.74,36.11-3.08,54.15-.32-18.09-.25-36.16,0-54.24.07-9,.28-18.06.42-27.1l.66-27.1.87-27.09c.36-9,.65-18.06,1.09-27.08C9251.39,8184,9252.32,8165.93,9253.66,8147.89Z" transform="translate(-7862.93 -5984.44)"/><rect class="cls-1" x="8904.71" y="7664.96" width="97.01" height="660.88" transform="translate(10043.5 10006.37) rotate(-180)"/><path class="cls-3" d="M8966.31,7695.88q-.77,161.43-1.52,322.86" transform="translate(-7862.93 -5984.44)"/><path class="cls-4" d="M8966.31,7695.88l.25,10.09.18,10.09.36,20.18q.25,20.19.39,40.36c.12,13.46.09,26.91.14,40.36l-.08,40.36-.29,40.36c-.18,13.45-.28,26.9-.53,40.35s-.47,26.91-.77,40.36l-.54,20.18-.28,10.08-.35,10.09-.25-10.09-.18-10.09-.36-20.18q-.26-20.18-.39-40.36c-.12-13.45-.09-26.91-.14-40.36l.08-40.36.3-40.36c.17-13.45.28-26.9.53-40.35s.47-26.91.77-40.36l.54-20.17L8966,7706Z" transform="translate(-7862.93 -5984.44)"/><path class="cls-3" d="M8928.37,8040.7q-.75,161.43-1.51,322.86" transform="translate(-7862.93 -5984.44)"/><path class="cls-4" d="M8928.37,8040.7l.26,10.09.18,10.09.35,20.18q.26,20.19.39,40.36c.12,13.46.1,26.91.14,40.36l-.08,40.36-.29,40.36c-.18,13.45-.27,26.9-.52,40.36s-.48,26.9-.77,40.35l-.55,20.18-.27,10.09-.35,10.08-.26-10.09-.18-10.09-.35-20.18q-.26-20.18-.39-40.36c-.13-13.45-.1-26.91-.15-40.36l.09-40.36.3-40.35c.17-13.46.27-26.91.52-40.36s.47-26.9.77-40.36l.54-20.17.28-10.09Z" transform="translate(-7862.93 -5984.44)"/><rect class="cls-1" x="8989.36" y="7112.27" width="97.01" height="1008.38" transform="translate(-6441.52 10669.89) rotate(-90)"/><path class="cls-3" d="M9452.79,7628.18l-492.63-1.51" transform="translate(-7862.93 -5984.44)"/><path class="cls-4" d="M9452.79,7628.18l-15.4.26-15.39.18-30.79.35-61.58.37c-41,.24-82.11.16-123.16.09l-61.58-.3c-20.52-.18-41-.25-61.57-.54l-61.58-.75-30.79-.55-15.39-.27-15.4-.35,15.4-.26,15.4-.18,30.79-.35,61.58-.37c20.52-.16,41-.11,61.58-.17l61.57.09c41.06.17,82.11.35,123.16.84l61.57.75,30.79.54,15.4.28Z" transform="translate(-7862.93 -5984.44)"/><path class="cls-3" d="M9064,7590.25l-492.62-1.52" transform="translate(-7862.93 -5984.44)"/><path class="cls-4" d="M9064,7590.25l-15.39.25-15.4.18-30.79.35-61.58.37c-41,.24-82.1.16-123.16.09l-61.57-.3c-20.53-.18-41.06-.25-61.58-.54l-61.58-.75-30.78-.54-15.4-.28-15.39-.35,15.39-.25,15.4-.18,30.79-.36,61.58-.37c20.53-.16,41-.11,61.58-.16l61.58.08c41,.18,82.1.36,123.15.85l61.58.74,30.79.55,15.39.27Z" transform="translate(-7862.93 -5984.44)"/><rect class="cls-1" x="8591.36" y="7669.44" width="97.01" height="660.88" transform="translate(9416.79 10015.33) rotate(-180)"/><path class="cls-3" d="M8653,7700.36q-.76,161.43-1.52,322.86" transform="translate(-7862.93 -5984.44)"/><path class="cls-4" d="M8653,7700.36l.25,10.09.18,10.09.35,20.18q.25,20.18.39,40.36c.12,13.46.1,26.91.15,40.36l-.08,40.36-.3,40.36c-.17,13.45-.27,26.9-.52,40.35s-.47,26.91-.77,40.36l-.54,20.18-.28,10.08-.35,10.09-.25-10.09L8651,8003l-.36-20.18q-.25-20.18-.39-40.36c-.12-13.45-.09-26.91-.14-40.36l.08-40.36.3-40.36c.17-13.45.28-26.9.52-40.35s.48-26.91.77-40.36l.55-20.17.27-10.09Z" transform="translate(-7862.93 -5984.44)"/><path class="cls-3" d="M8615,8045.18q-.75,161.43-1.51,322.86" transform="translate(-7862.93 -5984.44)"/><path class="cls-4" d="M8615,8045.18l.25,10.09.18,10.09.36,20.18q.25,20.19.39,40.36c.12,13.46.1,26.91.14,40.36l-.08,40.36L8616,8247c-.18,13.45-.28,26.9-.52,40.35s-.48,26.91-.77,40.36l-.55,20.18-.28,10.08-.34,10.09-.26-10.09-.18-10.09-.36-20.18q-.25-20.18-.39-40.36c-.12-13.45-.09-26.91-.14-40.36l.08-40.36.3-40.36c.18-13.45.28-26.9.53-40.35s.47-26.91.77-40.36l.54-20.17.27-10.09Z" transform="translate(-7862.93 -5984.44)"/><rect class="cls-5" x="814.41" y="815.26" width="300.53" height="403.2"/><circle class="cls-5" cx="964.67" cy="823.48" r="150.26"/><rect class="cls-5" x="1258.02" y="814.56" width="300.53" height="403.2"/><circle class="cls-5" cx="1408.28" cy="822.78" r="150.26"/><path class="cls-6" d="M8521.19,8337.13c-230.75-203.22-685.08-666.77-654.82-1258.54a1117.76,1117.76,0,0,1,21.22-166.53" transform="translate(-7862.93 -5984.44)"/><path class="cls-6" d="M7907.42,6924.88c-1,14.76-2,58.36,27.28,94.36,37.77,46.43,110.53,61.31,178.48,33,6.25,19.93,23.06,63.64,65.94,98.9,70.18,57.7,153.91,46.5,168.25,44.34" transform="translate(-7862.93 -5984.44)"/><path class="cls-7" d="M8580.72,6488.92l-387.14,165.22q-10.65,61.39-21.29,122.78l36.78,51.54,15.48-125.81,350.37-169.77Q8577.82,6510.9,8580.72,6488.92Z" transform="translate(-7862.93 -5984.44)"/><rect class="cls-1" x="8935.04" y="5902.96" width="97.01" height="1079.46" transform="translate(-5322.08 9441.8) rotate(-90)"/><path class="cls-3" d="M9427.72,6454.42l-527.35-1.52" transform="translate(-7862.93 -5984.44)"/><path class="cls-4" d="M9427.72,6454.42l-16.48.25-16.48.18-33,.35-65.92.37c-43.95.24-87.9.16-131.84.09l-65.92-.3c-22-.18-44-.25-65.92-.54l-65.92-.75-33-.55-16.48-.27-16.48-.35,16.48-.25,16.48-.19,33-.35,65.92-.37c22-.16,44-.11,65.92-.17l65.92.09c43.94.18,87.89.35,131.84.85l65.91.74,33,.54,16.48.28Z" transform="translate(-7862.93 -5984.44)"/><path class="cls-3" d="M9011.5,6416.48,8484.15,6415" transform="translate(-7862.93 -5984.44)"/><path class="cls-4" d="M9011.5,6416.48l-16.48.25-16.48.18-33,.35-65.92.37c-43.94.24-87.89.17-131.84.09l-65.92-.29c-22-.19-43.94-.26-65.91-.55l-65.92-.75-33-.54-16.48-.28-16.48-.35,16.48-.25,16.48-.18,33-.36,65.92-.37c22-.16,43.94-.11,65.92-.16l65.91.08c44,.18,87.9.36,131.84.85l65.92.74,33,.55,16.48.27Z" transform="translate(-7862.93 -5984.44)"/><polygon class="cls-1" points="710.38 409.75 1660.35 409.75 1660.35 2 1198.88 2 710.38 409.75"/><path class="cls-4" d="M9452.79,6044.79l-3.64,9.5-3.72,9.47-7.42,18.93q-7.53,18.89-15.15,37.74c-5.06,12.57-10.25,25.09-15.38,37.64l-15.58,37.56-15.78,37.47c-5.33,12.47-10.59,25-16,37.39s-10.78,24.88-16.22,37.29l-8.26,18.59-4.13,9.29-4.2,9.26,3.64-9.49,3.71-9.47,7.43-18.93q7.52-18.9,15.15-37.74c5-12.58,10.25-25.1,15.37-37.65l15.59-37.55,15.79-37.48c5.32-12.46,10.59-24.95,16-37.38s10.77-24.88,16.22-37.3l8.25-18.58,4.13-9.29Z" transform="translate(-7862.93 -5984.44)"/><path class="cls-4" d="M9145.43,6047.83l-7.45,7.88-7.5,7.84-15,15.66q-15.06,15.6-30.22,31.1c-10.08,10.37-20.26,20.63-30.39,30.93L9024.31,6172l-30.71,30.62c-10.28,10.15-20.52,20.36-30.86,30.46s-20.67,20.22-31,30.28l-15.63,15-7.82,7.51-7.87,7.46,7.44-7.88,7.5-7.84,15-15.66q15.06-15.6,30.22-31.11c10.08-10.36,20.26-20.62,30.39-30.93l30.56-30.77,30.71-30.61c10.29-10.16,20.53-20.36,30.87-30.46s20.67-20.22,31-30.29l15.64-15,7.82-7.51Z" transform="translate(-7862.93 -5984.44)"/><rect class="cls-8" x="1500.42" y="1478.01" width="105.35" height="61.97"/><rect class="cls-8" x="600.42" y="1478.01" width="105.35" height="61.97"/><rect class="cls-8" x="1157.04" y="673.08" width="105.35" height="61.97"/><rect class="cls-8" x="794.1" y="1250.22" width="105.35" height="61.97"/><rect class="cls-8" x="837.04" y="565.75" width="105.35" height="61.97"/><rect class="cls-8" x="1201.41" y="1223.86" width="105.35" height="61.97"/></svg>