<svg id="Ebene_1" data-name="Ebene 1" xmlns="http://www.w3.org/2000/svg" viewBox="0 0 1026.54 2382.53"><defs><style>.cls-1,.cls-2{fill:#754d24;}.cls-1,.cls-6{stroke:#42210b;stroke-width:4px;}.cls-1,.cls-10,.cls-4,.cls-6,.cls-7,.cls-8,.cls-9{stroke-miterlimit:10;}.cls-3,.cls-9{fill:#42210b;}.cls-4{fill:#b3b3b3;stroke-width:2px;}.cls-10,.cls-4,.cls-7,.cls-8,.cls-9{stroke:#000;}.cls-5{fill:#999;}.cls-6{fill:none;}.cls-7{fill:#00a99d;}.cls-10{fill:#ec663b;}.cls-11{fill:#f39322;}</style></defs><rect class="cls-1" x="5475.11" y="7584.87" width="97.01" height="797.06" transform="translate(-9230.59 233.11) rotate(-45)"/><rect class="cls-1" x="2" y="1656.34" width="97.01" height="660.88"/><path class="cls-2" d="M5242.08,7725.81q.75,161.43,1.51,322.86" transform="translate(-5203.3 -6010.96)"/><path class="cls-3" d="M5242.08,7725.81l.35,10.08.27,10.09.54,20.18c.3,13.45.58,26.9.77,40.35s.35,26.91.53,40.36l.3,40.36.08,40.36c-.05,13.45,0,26.9-.14,40.36s-.22,26.9-.39,40.36l-.36,20.18-.18,10.09-.26,10.09-.34-10.09-.28-10.09-.55-20.17c-.29-13.46-.57-26.91-.76-40.36s-.35-26.9-.53-40.36l-.29-40.35-.08-40.36c0-13.46,0-26.91.14-40.36s.22-26.91.39-40.36l.36-20.18.18-10.09Z" transform="translate(-5203.3 -6010.96)"/><path class="cls-2" d="M5280,8070.63q.75,161.43,1.51,322.86" transform="translate(-5203.3 -6010.96)"/><path class="cls-3" d="M5280,8070.63l.34,10.08.28,10.09.54,20.18q.45,20.18.77,40.35c.25,13.46.35,26.91.52,40.36l.3,40.36.09,40.36c0,13.45,0,26.9-.15,40.36s-.22,26.9-.39,40.36l-.35,20.18-.18,10.09-.26,10.09-.35-10.09-.27-10.09-.55-20.17q-.45-20.19-.77-40.36c-.25-13.45-.35-26.9-.52-40.36l-.3-40.35-.07-40.36c0-13.45,0-26.91.14-40.36s.22-26.91.39-40.36l.35-20.18.18-10.09Z" transform="translate(-5203.3 -6010.96)"/><rect class="cls-1" x="272.17" y="1656.34" width="97.01" height="660.88"/><path class="cls-2" d="M5498.25,7713.68v151.58" transform="translate(-5203.3 -6010.96)"/><path class="cls-3" d="M5498.25,7713.68c.82,12.63,1.26,25.26,1.55,37.89.19,6.32.23,12.64.34,19l.11,18.95-.11,18.95c-.11,6.31-.15,12.63-.33,18.94-.29,12.63-.73,25.27-1.56,37.9-.84-12.63-1.27-25.27-1.56-37.9-.19-6.31-.22-12.63-.34-18.94l-.1-18.95.11-18.95c.11-6.31.15-12.63.33-19C5497,7738.94,5497.42,7726.31,5498.25,7713.68Z" transform="translate(-5203.3 -6010.96)"/><path class="cls-2" d="M5536.14,7900.12q5.31,139.46,10.61,278.91" transform="translate(-5203.3 -6010.96)"/><path class="cls-3" d="M5536.14,7900.12l.63,8.71.56,8.7,1.11,17.42q1,17.42,1.91,34.84c.62,11.61,1.11,23.23,1.66,34.85l1.43,34.86,1.23,34.86c.33,11.63.73,23.25,1,34.88s.54,23.26.75,34.89l.21,17.44.1,8.73,0,8.73-.63-8.71-.56-8.71-1.11-17.41q-1-17.41-1.91-34.84c-.63-11.61-1.11-23.23-1.66-34.85l-1.43-34.86-1.22-34.87c-.33-11.62-.73-23.25-1-34.87s-.54-23.26-.75-34.89l-.21-17.45-.11-8.72Z" transform="translate(-5203.3 -6010.96)"/><path class="cls-2" d="M5493.7,8150.23l6.06,216.75" transform="translate(-5203.3 -6010.96)"/><path class="cls-3" d="M5493.7,8150.23c1.33,18,2.27,36.09,3.07,54.14.44,9,.73,18.06,1.09,27.09l.87,27.09.65,27.1c.14,9,.36,18.06.43,27.1.21,18.07.28,36.15-.05,54.23-1.33-18-2.27-36.09-3.07-54.14-.44-9-.73-18.06-1.09-27.09l-.87-27.09-.64-27.1c-.15-9-.36-18.06-.43-27.1C5493.45,8186.39,5493.38,8168.31,5493.7,8150.23Z" transform="translate(-5203.3 -6010.96)"/><rect class="cls-1" x="542.34" y="1656.34" width="97.01" height="660.88"/><path class="cls-2" d="M5781.05,7698.22q.75,161.43,1.51,322.86" transform="translate(-5203.3 -6010.96)"/><path class="cls-3" d="M5781.05,7698.22l.34,10.08.28,10.09.54,20.18q.45,20.18.77,40.35c.25,13.46.35,26.91.52,40.36l.3,40.36.09,40.36c-.05,13.45,0,26.9-.15,40.36s-.22,26.9-.39,40.36l-.35,20.18-.18,10.09-.26,10.09-.35-10.09-.27-10.09-.55-20.17c-.29-13.46-.57-26.91-.77-40.36s-.34-26.9-.52-40.36l-.29-40.35-.08-40.36c0-13.45,0-26.91.14-40.36s.22-26.91.39-40.36l.35-20.18.18-10.09Z" transform="translate(-5203.3 -6010.96)"/><path class="cls-2" d="M5819,8043q.77,161.43,1.52,322.86" transform="translate(-5203.3 -6010.96)"/><path class="cls-3" d="M5819,8043l.35,10.08.28,10.09.54,20.18q.45,20.18.77,40.36c.25,13.45.35,26.9.52,40.35l.3,40.36.09,40.36c-.05,13.45,0,26.9-.15,40.36s-.22,26.9-.39,40.36l-.35,20.18-.19,10.09-.25,10.09-.35-10.09-.27-10.09-.55-20.17q-.45-20.17-.77-40.36c-.25-13.45-.35-26.9-.52-40.35l-.3-40.36-.08-40.36c.05-13.45,0-26.91.15-40.36s.22-26.91.39-40.36l.35-20.18.18-10.09Z" transform="translate(-5203.3 -6010.96)"/><rect class="cls-1" x="5660.98" y="7114.61" width="97.01" height="1008.38" transform="translate(-7112.61 7317.32) rotate(-90)"/><path class="cls-2" d="M5294.57,7630.52l492.62-1.51" transform="translate(-5203.3 -6010.96)"/><path class="cls-3" d="M5294.57,7630.52l15.39-.35,15.39-.27,30.79-.54,61.58-.75c41.05-.49,82.1-.67,123.15-.85l61.58-.08c20.53.06,41.05,0,61.58.17l61.58.36,30.79.36,15.4.18,15.39.26-15.39.34-15.39.28-30.79.55-61.58.74c-20.52.29-41.05.37-61.58.55l-61.57.29c-41.06.08-82.11.15-123.16-.09l-61.58-.36-30.79-.36-15.4-.18Z" transform="translate(-5203.3 -6010.96)"/><path class="cls-2" d="M5683.37,7592.58l492.63-1.51" transform="translate(-5203.3 -6010.96)"/><path class="cls-3" d="M5683.37,7592.58l15.4-.34,15.39-.28,30.79-.54,61.58-.75c41.05-.49,82.1-.67,123.15-.84l61.58-.09c20.53.06,41.05,0,61.58.17l61.58.37,30.79.35,15.39.18,15.4.26-15.39.35-15.4.27-30.79.55-61.57.75c-20.53.29-41.05.36-61.58.54l-61.58.3c-41,.07-82.1.15-123.16-.09l-61.57-.37-30.8-.35-15.39-.18Z" transform="translate(-5203.3 -6010.96)"/><rect class="cls-1" x="755.31" y="1627.57" width="36.93" height="660.88"/><path class="cls-2" d="M5972.08,7669.45q.3,161.43.58,322.86" transform="translate(-5203.3 -6010.96)"/><path class="cls-3" d="M5972.08,7669.45l.32,10.09.25,10.09.48,20.17q.39,20.19.65,40.36c.21,13.45.28,26.91.41,40.36l.18,40.36,0,40.35c-.09,13.46-.1,26.91-.26,40.36s-.3,26.91-.51,40.36l-.42,20.18-.2,10.09-.29,10.09-.32-10.09-.25-10.09-.48-20.18c-.26-13.45-.5-26.9-.65-40.35s-.27-26.91-.41-40.36l-.18-40.36,0-40.35c.09-13.46.1-26.91.26-40.36s.3-26.91.51-40.36l.41-20.18.21-10.09Z" transform="translate(-5203.3 -6010.96)"/><path class="cls-2" d="M5986.52,8014.27q.3,161.43.58,322.86" transform="translate(-5203.3 -6010.96)"/><path class="cls-3" d="M5986.52,8014.27l.32,10.09.25,10.09.48,20.18c.26,13.45.5,26.9.65,40.35s.28,26.91.41,40.36l.18,40.36,0,40.36c-.09,13.45-.1,26.9-.26,40.35s-.3,26.91-.51,40.36l-.41,20.18-.21,10.09-.29,10.09-.32-10.09-.24-10.09-.49-20.17q-.39-20.19-.65-40.36c-.21-13.45-.27-26.91-.41-40.36l-.18-40.36,0-40.35c.09-13.46.1-26.91.26-40.36s.3-26.91.51-40.36l.41-20.18.21-10.09Z" transform="translate(-5203.3 -6010.96)"/><rect class="cls-1" x="671.58" y="1729.43" width="216.04" height="89.65"/><rect class="cls-1" x="660.1" y="1729.43" width="239" height="33.87"/><rect class="cls-1" x="671.58" y="1607.13" width="216.04" height="89.65"/><rect class="cls-1" x="660.1" y="1607.13" width="239" height="33.87"/><rect class="cls-1" x="671.58" y="1984.38" width="216.04" height="89.65"/><rect class="cls-1" x="660.1" y="1984.38" width="239" height="33.87"/><rect class="cls-1" x="671.58" y="1862.08" width="216.04" height="89.65"/><rect class="cls-1" x="660.1" y="1862.08" width="239" height="33.87"/><rect class="cls-1" x="671.58" y="2228.97" width="216.04" height="89.65"/><rect class="cls-1" x="660.1" y="2228.97" width="239" height="33.87"/><rect class="cls-1" x="671.58" y="2106.68" width="216.04" height="89.65"/><rect class="cls-1" x="660.1" y="2106.68" width="239" height="33.87"/><rect class="cls-1" x="915.83" y="1649.99" width="97.01" height="660.88"/><path class="cls-2" d="M6154.54,7691.87q.77,161.43,1.52,322.86" transform="translate(-5203.3 -6010.96)"/><path class="cls-3" d="M6154.54,7691.87l.35,10.09.27,10.09.55,20.17c.29,13.45.57,26.91.77,40.36s.35,26.9.52,40.35l.3,40.36.08,40.36c-.05,13.45,0,26.91-.14,40.36s-.22,26.91-.39,40.36l-.36,20.18-.18,10.09-.25,10.09-.35-10.09-.28-10.08-.54-20.18q-.45-20.18-.77-40.36c-.25-13.45-.35-26.9-.52-40.35l-.3-40.36-.08-40.36c.05-13.45,0-26.9.15-40.36s.22-26.9.39-40.36l.35-20.18.18-10.09Z" transform="translate(-5203.3 -6010.96)"/><path class="cls-2" d="M6192.48,8036.69q.75,161.43,1.51,322.86" transform="translate(-5203.3 -6010.96)"/><path class="cls-3" d="M6192.48,8036.69l.35,10.09.27,10.09.54,20.17c.3,13.45.58,26.91.77,40.36s.35,26.9.53,40.35l.3,40.36.08,40.36c0,13.45,0,26.91-.14,40.36s-.22,26.91-.39,40.36l-.36,20.18-.18,10.09-.26,10.09-.34-10.08-.28-10.09-.55-20.18c-.29-13.45-.57-26.9-.76-40.36s-.35-26.9-.53-40.35l-.29-40.36-.08-40.36c0-13.45,0-26.9.14-40.36s.22-26.9.39-40.36l.36-20.18.18-10.09Z" transform="translate(-5203.3 -6010.96)"/><rect class="cls-4" x="2" y="506.76" width="490.34" height="938.2"/><rect class="cls-4" x="2" y="1273.75" width="626.4" height="285.58"/><rect class="cls-4" x="927.01" y="1273.75" width="98.53" height="285.58"/><rect class="cls-5" x="467.81" y="1437.21" width="105.35" height="61.97"/><rect class="cls-5" x="57.81" y="1437.21" width="105.35" height="61.97"/><rect class="cls-5" x="207.81" y="1299.88" width="105.35" height="61.97"/><rect class="cls-5" x="976.27" y="1324.85" width="40.88" height="61.97"/><rect class="cls-1" x="5620.84" y="6005.17" width="97.01" height="928.1" transform="translate(-6003.17 6127.6) rotate(-90)"/><path class="cls-2" d="M5287.46,6480.94l453.41-1.51" transform="translate(-5203.3 -6010.96)"/><path class="cls-3" d="M5287.46,6480.94l14.17-.35,14.17-.27,28.33-.54,56.68-.75c37.78-.49,75.56-.67,113.35-.84l56.67-.09c18.9.06,37.79,0,56.68.17l56.68.37,28.34.35,14.17.18,14.17.26-14.17.35-14.17.27-28.34.55-56.67.74c-18.89.29-37.78.37-56.67.55l-56.68.29c-37.78.08-75.57.15-113.35-.09l-56.68-.36-28.34-.36-14.17-.17Z" transform="translate(-5203.3 -6010.96)"/><path class="cls-2" d="M5645.31,6443l453.41-1.52" transform="translate(-5203.3 -6010.96)"/><path class="cls-3" d="M5645.31,6443l14.17-.35,14.17-.28,28.34-.54,56.67-.75c37.78-.49,75.57-.66,113.35-.84l56.68-.09c18.89.06,37.78,0,56.67.17l56.68.37,28.34.35,14.17.18,14.17.26-14.17.35-14.17.27-28.33.55-56.68.75c-18.89.29-37.78.36-56.67.54l-56.68.3c-37.78.07-75.56.15-113.35-.09l-56.68-.37-28.34-.35-14.17-.18Z" transform="translate(-5203.3 -6010.96)"/><line class="cls-6" x1="535.26" y1="506.76" x2="585.33" y2="624.23"/><line class="cls-6" x1="867.26" y1="506.76" x2="802.08" y2="624.23"/><rect class="cls-1" x="566.6" y="612.32" width="280" height="161.63"/><path class="cls-7" d="M5801.13,6677c4.22-19.57,38.05-33.87,67.08-33,50.82,1.59,71,49.35,106.86,42.07,12.62-2.57,27.73-12.08,42.06-39.79a106.24,106.24,0,0,1,12.51,35.24c5.29,32.33-6.19,58.13-11.37,68.21-8-15.51-20.68-33.27-39.79-37.51-32.89-7.31-51.21,32.88-92.09,34.1C5842.61,6747.61,5795.4,6703.54,5801.13,6677Z" transform="translate(-5203.3 -6010.96)"/><circle class="cls-8" cx="623.69" cy="661.84" r="8.81"/><polygon class="cls-1" points="818.76 409.75 2 409.75 2 2 398.76 2 818.76 409.75"/><path class="cls-3" d="M5505.17,6063l7.61,9.34,7.54,9.38,15.09,18.77q15,18.82,29.92,37.73c10,12.58,19.82,25.25,29.72,37.88l29.55,38,29.38,38.15c9.73,12.76,19.52,25.48,29.2,38.28s19.37,25.61,29,38.44l14.38,19.32,7.18,9.66,7.13,9.71-7.61-9.34-7.54-9.38-15.09-18.77q-15-18.83-29.92-37.73c-10-12.58-19.82-25.25-29.73-37.88l-29.54-38-29.37-38.15c-9.74-12.76-19.53-25.48-29.2-38.29s-19.37-25.6-29-38.44l-14.37-19.31-7.19-9.66Z" transform="translate(-5203.3 -6010.96)"/><path class="cls-3" d="M5238.39,6026.61c9.68,14.22,19,28.64,28.24,43.14,4.64,7.23,9.16,14.54,13.73,21.81l13.55,21.92,13.36,22c4.39,7.39,8.85,14.73,13.17,22.15,8.72,14.81,17.32,29.69,25.58,44.78-9.68-14.22-19-28.65-28.24-43.15-4.64-7.23-9.16-14.53-13.74-21.8l-13.54-21.93-13.36-22c-4.39-7.38-8.84-14.73-13.17-22.16C5255.26,6056.57,5246.66,6041.69,5238.39,6026.61Z" transform="translate(-5203.3 -6010.96)"/><path class="cls-3" d="M5238.39,6275.19c6.66,10.21,13,20.61,19.17,31.08,3.13,5.21,6.14,10.5,9.2,15.75l9,15.86,8.81,16c2.87,5.36,5.81,10.68,8.62,16.08,5.68,10.75,11.24,21.57,16.45,32.59-6.67-10.2-13-20.6-19.18-31.07-3.13-5.21-6.13-10.5-9.19-15.75l-9-15.87-8.81-16c-2.87-5.35-5.8-10.68-8.61-16.07C5249.17,6297,5243.61,6286.21,5238.39,6275.19Z" transform="translate(-5203.3 -6010.96)"/><polygon class="cls-9" points="374.94 1003.87 28.94 1006.1 28.94 766.11 374.94 763.88 374.94 1003.87"/><polygon class="cls-10" points="190.59 879.03 44.05 879.67 44.05 780.85 190.59 780.21 190.59 879.03"/><polygon class="cls-10" points="357.28 878.31 210.74 878.95 210.74 780.12 357.28 779.48 357.28 878.31"/><polygon class="cls-10" points="190.59 991.63 44.05 992.27 44.05 893.44 190.59 892.8 190.59 991.63"/><polygon class="cls-10" points="357.28 990.9 210.74 991.54 210.74 892.72 357.28 892.08 357.28 990.9"/><polygon class="cls-11" points="174.13 878.95 139.75 878.95 69.06 781.34 102.98 780.59 174.13 878.95"/><path class="cls-11" d="M5559.78,6845.1l.8,44.17c-.82.36,1.31.35,0,0l-71.22-98.35,31.3.1Z" transform="translate(-5203.3 -6010.96)"/><polygon class="cls-11" points="336.37 990.85 301.98 990.85 231.3 893.24 265.22 892.49 336.37 990.85"/><polygon class="cls-11" points="124.5 991.71 114.73 991.71 44.05 894.11 53.35 893.36 124.5 991.71"/><rect class="cls-9" x="114.44" y="780.71" width="5.76" height="211.56"/><rect class="cls-9" x="282.03" y="780.29" width="5.76" height="210.56"/><rect class="cls-5" x="364.43" y="662.28" width="105.35" height="61.97"/><rect class="cls-5" x="31.49" y="1059.42" width="105.35" height="61.97"/><rect class="cls-5" x="104.43" y="524.95" width="105.35" height="61.97"/><rect class="cls-5" x="328.8" y="1183.06" width="105.35" height="61.97"/></svg>