<svg id="Ebene_2" data-name="Ebene 2" xmlns="http://www.w3.org/2000/svg" viewBox="0 0 991.7 2329.04"><defs><style>.cls-1{fill:#b3b3b3;}.cls-1,.cls-5{stroke:#000;stroke-miterlimit:10;stroke-width:2px;}.cls-2{fill:#f29222;}.cls-3{fill:#ec663a;}.cls-4{fill:#8c6239;}.cls-5{fill:#be1823;}.cls-6{fill:#999;}</style></defs><rect class="cls-1" x="1" y="429.84" width="860.97" height="1898.2"/><polygon class="cls-2" points="717.97 1155.23 431.48 1155.23 431.48 2146.25 641.6 2146.25 717.97 1999.29 717.97 1155.23"/><polygon class="cls-3" points="717.97 1999.29 641.6 2146.25 717.97 2146.25 717.97 1999.29"/><polygon class="cls-3" points="717.97 1421.13 431.48 1972.41 431.48 2146.16 717.97 1594.88 717.97 1421.13"/><polygon class="cls-3" points="717.97 1155.23 431.48 1706.51 431.48 1794.82 717.97 1243.53 717.97 1155.23"/><path class="cls-2" d="M5909.89,7049.48v-311c0-47.71-26.2-89.64-65.77-113.68l-220.71,424.71Z" transform="translate(-5191.92 -5951.46)"/><path class="cls-2" d="M5623.41,6738.45v137.28L5765,6603.33C5686.63,6604.18,5623.41,6664.34,5623.41,6738.45Z" transform="translate(-5191.92 -5951.46)"/><path class="cls-3" d="M5766.65,6603.31l-1.69,0-141.55,272.4v173.75l220.71-424.71a148.81,148.81,0,0,0-77.47-21.46Z" transform="translate(-5191.92 -5951.46)"/><rect class="cls-4" x="558.28" y="1155.23" width="32.89" height="990.93"/><path class="cls-4" d="M5783.09,7049.48H5750.2v-445c3.06-.8,8.78-1.12,16.45-1.12a120,120,0,0,1,16.44.88Z" transform="translate(-5191.92 -5951.46)"/><rect class="cls-4" x="5751.13" y="7458.95" width="31.03" height="286.48" transform="translate(-7027.47 7417.39) rotate(-90)"/><rect class="cls-4" x="5751.13" y="7213.83" width="31.03" height="286.48" transform="translate(-6782.34 7172.26) rotate(-90)"/><rect class="cls-4" x="5749.45" y="7704.08" width="31.03" height="286.48" transform="translate(-7274.27 7660.83) rotate(-90)"/><rect class="cls-4" x="5749.45" y="6723.58" width="31.03" height="286.48" transform="translate(-6293.78 6680.33) rotate(-90)"/><polygon class="cls-2" points="375.75 1161.79 89.26 1161.79 89.26 2152.81 299.38 2152.81 375.75 2005.85 375.75 1161.79"/><polygon class="cls-3" points="375.75 2005.85 299.38 2152.81 375.75 2152.81 375.75 2005.85"/><polygon class="cls-3" points="375.75 1427.69 89.26 1978.97 89.26 2152.72 375.75 1601.44 375.75 1427.69"/><polygon class="cls-3" points="375.75 1161.79 89.26 1713.07 89.26 1801.38 375.75 1250.1 375.75 1161.79"/><path class="cls-2" d="M5567.67,7056.05V6745c0-47.7-26.21-89.63-65.77-113.68l-220.72,424.72Z" transform="translate(-5191.92 -5951.46)"/><path class="cls-2" d="M5281.18,6745V6882.3l141.56-272.41C5344.41,6610.75,5281.18,6670.91,5281.18,6745Z" transform="translate(-5191.92 -5951.46)"/><path class="cls-3" d="M5424.42,6609.87l-1.68,0L5281.18,6882.3v173.75l220.72-424.72a148.82,148.82,0,0,0-77.48-21.46Z" transform="translate(-5191.92 -5951.46)"/><rect class="cls-4" x="216.06" y="1161.79" width="32.89" height="990.93"/><path class="cls-4" d="M5440.87,7056.05H5408V6611c3.06-.79,8.78-1.12,16.44-1.12a119.74,119.74,0,0,1,16.45.89Z" transform="translate(-5191.92 -5951.46)"/><rect class="cls-4" x="5408.91" y="7465.52" width="31.03" height="286.48" transform="translate(-7376.25 7081.73) rotate(-90)"/><rect class="cls-4" x="5408.91" y="7220.39" width="31.03" height="286.48" transform="translate(-7131.13 6836.6) rotate(-90)"/><rect class="cls-4" x="5407.23" y="7710.64" width="31.03" height="286.48" transform="translate(-7623.06 7325.17) rotate(-90)"/><rect class="cls-4" x="5407.23" y="6730.15" width="31.03" height="286.48" transform="translate(-6642.57 6344.67) rotate(-90)"/><polygon class="cls-5" points="639.9 78.18 1 78.18 1 429.84 989.29 429.84 639.9 78.18"/><path class="cls-1" d="M5655.24,6466c-9.09,22.16-37.59,37.48-69.73,37.48s-60.64-15.32-69.73-37.48V6259.38h139.46Z" transform="translate(-5191.92 -5951.46)"/><polygon class="cls-5" points="393.59 3.91 310.29 318.52 476.89 318.52 393.59 3.91"/><path class="cls-1" d="M6119.06,6673.09c-9.09,44.37-37.59,75.05-69.73,75.05s-60.63-30.68-69.72-75.05V6259.38h139.45Z" transform="translate(-5191.92 -5951.46)"/><polygon class="cls-5" points="857.41 3.91 774.11 318.52 940.71 318.52 857.41 3.91"/><rect class="cls-6" x="723.01" y="1269.49" width="105.35" height="61.97"/><rect class="cls-6" x="752.62" y="932.92" width="105.35" height="61.97"/><rect class="cls-6" x="797.69" y="332.54" width="105.35" height="61.97"/><rect class="cls-6" x="522.05" y="450.77" width="105.35" height="61.97"/><rect class="cls-6" x="107.37" y="552.31" width="105.35" height="61.97"/><rect class="cls-6" x="116.58" y="2259.26" width="105.35" height="61.97"/><rect class="cls-6" x="431.48" y="2152.81" width="105.35" height="61.97"/><rect class="cls-6" x="756.62" y="2259.26" width="105.35" height="61.97"/><rect class="cls-6" x="723.01" y="1999.29" width="105.35" height="61.97"/><rect class="cls-6" x="1" y="2152.81" width="105.35" height="61.97"/><rect class="cls-6" x="349.97" y="429.95" width="105.35" height="61.97"/></svg>