<svg id="Ebene_2" data-name="Ebene 2" xmlns="http://www.w3.org/2000/svg" viewBox="0 0 1389.69 2234.87"><defs><style>.cls-1{fill:#333;}.cls-2{fill:gray;}.cls-2,.cls-3,.cls-4,.cls-5{stroke:#000;stroke-miterlimit:10;}.cls-3{fill:#666;}.cls-4{fill:#ccc;}.cls-5{fill:#676767;stroke-width:2px;}.cls-6{fill:#ec663a;}.cls-7{fill:#b3b3b3;}</style></defs><path class="cls-1" d="M8459.74,8259.22h-159a178,178,0,0,0,0-197.31h159c-7.6,8.75-36.92,44.52-36.89,98.75S8452.12,8250.46,8459.74,8259.22Z" transform="translate(-8127.26 -6051.37)"/><path class="cls-1" d="M8603.26,8076.21c-27.08,3.95-104.7,29.29-112.21,35.94-13.27,11.75-75.41,37.9-62.82,88,11,43.93-45.06,23.85-172.13-25.64v-112.6h347.16Z" transform="translate(-8127.26 -6051.37)"/><polygon class="cls-1" points="0 2050.17 151.58 2092.61 151.58 2024.84 0 2024.84 0 2050.17"/><path class="cls-1" d="M155.11,2205.79H347.38a12.86,12.86,0,0,1,12.86,12.86v16.22a0,0,0,0,1,0,0h-218a0,0,0,0,1,0,0v-16.22A12.86,12.86,0,0,1,155.11,2205.79Z"/><path class="cls-1" d="M8877.64,6749.89" transform="translate(-8127.26 -6051.37)"/><rect class="cls-1" x="476" y="698.52" width="305.83" height="219.54"/><rect class="cls-2" x="619.91" y="751.3" width="18" height="130.75"/><rect class="cls-3" x="580.18" y="720.03" width="97.46" height="46.56"/><path class="cls-4" d="M8708.58,6911.41l-8.93-12.76,126.85-88.83c8.09-5.66,25.72-8.15,25.72-8.15s-8.46,15.09-16.78,20.92Z" transform="translate(-8127.26 -6051.37)"/><path class="cls-2" d="M8669.92,6896.82h11.18a0,0,0,0,1,0,0v50.9a5.59,5.59,0,0,1-5.59,5.59h0a5.59,5.59,0,0,1-5.59-5.59v-50.9A0,0,0,0,1,8669.92,6896.82Z" transform="translate(1244.86 -10204.92) rotate(55)"/><rect class="cls-2" x="8668.63" y="6902.83" width="60.94" height="13.36" transform="translate(1242.18 -10230.88) rotate(55)"/><path class="cls-4" d="M8798.83,6910.28l8.94-12.76-126.86-88.83c-8.09-5.66-25.71-8.15-25.71-8.15s8.45,15.09,16.77,20.92Z" transform="translate(-8127.26 -6051.37)"/><path class="cls-2" d="M8831.91,6895.69h0a5.59,5.59,0,0,1,5.59,5.59v50.9a0,0,0,0,1,0,0h-11.18a0,0,0,0,1,0,0v-50.9a5.59,5.59,0,0,1,5.59-5.59Z" transform="translate(11442.18 -2390.71) rotate(125)"/><rect class="cls-2" x="8777.84" y="6901.7" width="60.94" height="13.36" transform="translate(11392.31 -2395.85) rotate(125)"/><rect class="cls-5" x="400.4" y="918.05" width="988.29" height="1310.07"/><rect class="cls-5" x="849.07" y="1" width="539.62" height="917.05"/><rect class="cls-1" x="552.29" y="1187.86" width="836.41" height="1040.26"/><circle cx="1076.06" cy="2184.12" r="27.66"/><circle class="cls-6" cx="1115.09" cy="2184.12" r="27.66"/><circle class="cls-6" cx="1029.38" cy="2184.12" r="27.66"/><circle cx="1048.4" cy="2156.45" r="27.66"/><circle cx="1087.43" cy="2156.45" r="27.66"/><circle cx="1121.54" cy="2141.67" r="27.66"/><circle cx="1149.2" cy="2174.26" r="27.66"/><circle cx="1001.72" cy="2184.12" r="27.66"/><circle cx="1029.38" cy="2146.6" r="27.66"/><circle cx="1070.76" cy="2128.79" r="27.66"/><circle class="cls-6" cx="1098.42" cy="2114.01" r="27.66"/><circle cx="1050.71" cy="2101.13" r="27.66"/><circle cx="1121.54" cy="2094.12" r="27.66"/><circle cx="992.24" cy="2149.44" r="27.66"/><circle cx="1167.77" cy="2187.72" r="27.66"/><circle class="cls-6" cx="1041.2" cy="2123.3" r="27.66"/><circle class="cls-6" cx="1126.08" cy="2132.39" r="27.66"/><circle cx="1167.77" cy="2143.38" r="27.66"/><rect class="cls-7" x="1061.28" y="1931.36" width="37.14" height="296.98"/><rect class="cls-7" x="1130.63" y="1931.36" width="37.14" height="296.98"/><rect class="cls-7" x="992.24" y="1931.36" width="37.14" height="296.98"/><rect class="cls-7" x="957.07" y="2207.85" width="242.6" height="20.49"/><rect class="cls-7" x="1190.58" y="1931.36" width="9.09" height="296.98"/><rect class="cls-7" x="957.07" y="1931.36" width="9.09" height="296.98"/><rect class="cls-7" x="957.07" y="1961.66" width="242.6" height="20.49"/><rect class="cls-1" x="992.24" y="339.02" width="396.45" height="517.99"/></svg>