<svg xmlns="http://www.w3.org/2000/svg" viewBox="0 0 411.81 1079.52"><defs><style>.cls-1{fill:#666;stroke:#000;stroke-miterlimit:10;}.cls-2{fill:#333;}</style></defs><g id="Ebene_1" data-name="Ebene 1"><path class="cls-1" d="M1738.67,173H1925V372.55H1738.67c-10.51,0-19-21.31-19-31.83V192A19,19,0,0,1,1738.67,173Z" transform="translate(-1513.71 0.5)"/><path class="cls-1" d="M1759,372.55h166v117.1H1770.94c-11,0-26-27.29-26-38.28l6.06-70.86A8,8,0,0,1,1759,372.55Z" transform="translate(-1513.71 0.5)"/><path class="cls-1" d="M1759.57,489.65H1925V616.59H1769.1c-7.95,0-35.11-6.44-35.11-14.4l-4.3-92.21C1729.69,495.86,1745.44,489.65,1759.57,489.65Z" transform="translate(-1513.71 0.5)"/><path class="cls-1" d="M1761.6,616.59H1925V808.34H1775.33c-12.57,0-15.62-26.86-16.33-39.41l-16.28-105.27C1741.27,638.11,1736,616.59,1761.6,616.59Z" transform="translate(-1513.71 0.5)"/><path class="cls-1" d="M1925,893.1H1644.56c-50.28,0-126.57,71.51-126.57,121.78l-3.75,63.64H1925Z" transform="translate(-1513.71 0.5)"/><path class="cls-1" d="M1799,808.34h126V893.1H1791.26a11.6,11.6,0,0,1-11.55-12.52l4.73-58.77A14.64,14.64,0,0,1,1799,808.34Z" transform="translate(-1513.71 0.5)"/><path class="cls-1" d="M1515,0l3,51.2c0,50.28,76.29,121.79,126.57,121.79H1925V0Z" transform="translate(-1513.71 0.5)"/><path class="cls-2" d="M1644.42,968.81a13.54,13.54,0,0,1,3.58,2.54,20.21,20.21,0,0,1,2.63,3.17,19.23,19.23,0,0,1,1.92,3.65,13.42,13.42,0,0,1,1,4.28,13.19,13.19,0,0,1-3.59-2.53,19.26,19.26,0,0,1-2.62-3.18,19.82,19.82,0,0,1-1.92-3.65A13.36,13.36,0,0,1,1644.42,968.81Z" transform="translate(-1513.71 0.5)"/><path class="cls-2" d="M1779.67,290.43a13.37,13.37,0,0,1,3.58,2.54,19.84,19.84,0,0,1,2.63,3.18,18.85,18.85,0,0,1,1.92,3.64,13.42,13.42,0,0,1,1,4.29,13.37,13.37,0,0,1-3.58-2.54,18.83,18.83,0,0,1-2.63-3.18,19.5,19.5,0,0,1-1.92-3.65A13.36,13.36,0,0,1,1779.67,290.43Z" transform="translate(-1513.71 0.5)"/><path class="cls-2" d="M1768,651.08a13.26,13.26,0,0,1,3.57,2.54,18.91,18.91,0,0,1,2.64,3.17,19.82,19.82,0,0,1,1.92,3.65,13.09,13.09,0,0,1,1,4.28,12.94,12.94,0,0,1-3.58-2.54,19.61,19.61,0,0,1-4.54-6.82A13.16,13.16,0,0,1,1768,651.08Z" transform="translate(-1513.71 0.5)"/><path class="cls-2" d="M1747.42,111.25a13.48,13.48,0,0,1,3.57,2.54,19.32,19.32,0,0,1,2.64,3.17,19.82,19.82,0,0,1,1.92,3.65,13.09,13.09,0,0,1,1,4.28,12.94,12.94,0,0,1-3.58-2.54,18.85,18.85,0,0,1-2.63-3.17,19.19,19.19,0,0,1-1.91-3.65A12.85,12.85,0,0,1,1747.42,111.25Z" transform="translate(-1513.71 0.5)"/><path class="cls-2" d="M1775.13,563a12.85,12.85,0,0,1,1-4.28,19.19,19.19,0,0,1,1.91-3.65,18.85,18.85,0,0,1,2.63-3.17,12.94,12.94,0,0,1,3.58-2.54,13.09,13.09,0,0,1-1,4.28,19.66,19.66,0,0,1-4.56,6.82A13.48,13.48,0,0,1,1775.13,563Z" transform="translate(-1513.71 0.5)"/><path class="cls-2" d="M1580.88,69.32a13.36,13.36,0,0,1,1-4.28,19.82,19.82,0,0,1,1.92-3.65,19.32,19.32,0,0,1,2.63-3.18,13.13,13.13,0,0,1,3.58-2.53,12.9,12.9,0,0,1-1,4.28,19.19,19.19,0,0,1-1.91,3.65,20.28,20.28,0,0,1-2.64,3.17A13.37,13.37,0,0,1,1580.88,69.32Z" transform="translate(-1513.71 0.5)"/><path class="cls-2" d="M1802.57,885.57a13.36,13.36,0,0,1,1-4.28,19.78,19.78,0,0,1,1.91-3.65,19.34,19.34,0,0,1,2.63-3.17,13.1,13.1,0,0,1,3.58-2.54,13.09,13.09,0,0,1-1,4.28,19.82,19.82,0,0,1-1.92,3.65,20.21,20.21,0,0,1-2.63,3.17A13.54,13.54,0,0,1,1802.57,885.57Z" transform="translate(-1513.71 0.5)"/></g><g id="Ebene_2" data-name="Ebene 2"><path class="cls-2" d="M1920,173.38c-12.42,2.09-25.14,4.11-38,6.29-15,2.53-27.6,7.81-41.69,9.47-8,0-8.71,12.32-8.71,20.27l5.71,112.8c0,8,6.46,24.08,14.41,24.08L1920,366.88Z" transform="translate(-1513.71 0.5)"/><path class="cls-2" d="M1920,373.88l-71.47,2.78c-3.9,0-8.12,7.28-8.12,11.19l-5.39,63c0,9.77,13.3,34,23.07,34l61.91,3.41Z" transform="translate(-1513.71 0.5)"/><path class="cls-2" d="M1925,492.72a240.68,240.68,0,0,0-65.1,10.08c-11.79,0-24.93,5.19-24.93,17l3.59,76.94c0,6.64,22.66,12,29.3,12l57.14,5.61Z" transform="translate(-1513.71 0.5)"/><path class="cls-2" d="M1925,618l-60.42,7.68c-23.82,0-18.93,20-17.58,43.81l15.15,98c.66,11.68,3.5,36.68,15.2,36.68l47.65,4.48Z" transform="translate(-1513.71 0.5)"/><path class="cls-2" d="M1925,809.67l-64.24,1.73a13.5,13.5,0,0,0-13.46,12.41L1843,878a10.69,10.69,0,0,0,10.65,11.55L1925,891.6Z" transform="translate(-1513.71 0.5)"/><path class="cls-2" d="M1920,1078.52V904.59c-14.7,6.47-29.57,11.42-44.29,13.65a913.43,913.43,0,0,1-115.79,10,162.27,162.27,0,0,0-82.13,42c-25.36,24.16-44.43,54.61-44.43,79.74l-1.68,28.52Z" transform="translate(-1513.71 0.5)"/><path class="cls-2" d="M1631.52,0c19,19.05,40.86,33.36,79.48,57.27C1753.44,83.54,1815.84,163,1925,173V0Z" transform="translate(-1513.71 0.5)"/></g></svg>