<?xml version="1.0" encoding="utf-8"?>
<!-- Generator: Adobe Illustrator 24.3.0, SVG Export Plug-In . SVG Version: 6.00 Build 0)  -->
<svg version="1.1" id="Background" xmlns="http://www.w3.org/2000/svg" xmlns:xlink="http://www.w3.org/1999/xlink" x="0px" y="0px"
	 viewBox="0 0 1920 1080" style="enable-background:new 0 0 1920 1080;" xml:space="preserve">
<style type="text/css">
	.st0{fill:#754D24;}
	.st1{fill:#40260D;}
	.st2{fill:#603813;}
	.st3{display:none;opacity:0.64;fill:#603813;}
	.st4{fill:#FFBE80;}
</style>
<rect class="st0" width="1920" height="1080"/>
<path class="st1" d="M388.1,303.3c1.5,36,2.2,72,2.7,108c0.3,18,0.4,36,0.6,54l0.2,54l-0.2,54c-0.2,18-0.3,36-0.6,54
	c-0.5,36-1.3,72-2.7,108c-1.5-36-2.2-72-2.7-108c-0.3-18-0.4-36-0.6-54l-0.2-54l0.2-54c0.2-18,0.3-36,0.6-54
	C385.9,375.3,386.6,339.3,388.1,303.3z"/>
<path class="st1" d="M1647.7,53.2c1.4,36,2.2,72,2.7,108c0.3,18,0.4,36,0.6,54l0.2,54l-0.2,54c-0.2,18-0.3,36-0.6,54
	c-0.5,36-1.3,72-2.7,108c-1.5-36-2.2-72-2.7-108c-0.3-18-0.4-36-0.6-54l-0.2-54l0.2-54c0.2-18,0.3-36,0.6-54
	C1645.5,125.2,1646.3,89.2,1647.7,53.2z"/>
<path class="st1" d="M887.2,426.1c1.5,36,2.2,72,2.7,108c0.3,18,0.4,36,0.6,54l0.2,54l-0.2,54c-0.2,18-0.2,36-0.6,54
	c-0.5,36-1.3,72-2.7,108c-1.5-36-2.2-72-2.7-108c-0.3-18-0.4-36-0.6-54l-0.2-54l0.2-54c0.2-18,0.3-36,0.6-54
	C885,498.1,885.7,462.1,887.2,426.1z"/>
<path class="st1" d="M1126.9,1.6c0.5,29,1.2,58.1,2.4,87.1c1.2-29,1.9-58.1,2.4-87.1L1126.9,1.6z"/>
<path class="st1" d="M105.1,1.4L105,47.7l0.2,54c0.2,18,0.3,36,0.6,54c0.5,36,1.3,72,2.7,108c1.5-36,2.2-72,2.7-108
	c0.3-18,0.4-36,0.6-54l0.2-54l-0.2-46.3L105.1,1.4z"/>
<path class="st1" d="M1716.7,1.6h-6c-0.1,10.6-0.2,21.1-0.3,31.7l-0.2,54l0.2,54c0.2,18,0.3,36,0.6,54c0.5,36,1.3,72,2.7,108
	c1.5-36,2.2-72,2.7-108c0.3-18,0.4-36,0.6-54l0.2-54l-0.2-54C1716.9,22.7,1716.8,12.2,1716.7,1.6z"/>
<path class="st2" d="M1716.4,1080l-0.1-3.9c-0.5-35.2-1.3-70.3-2.7-105.5c-1.4,35.2-2.2,70.3-2.7,105.5l-0.1,3.9H1716.4z"/>
<path class="st1" d="M1126.6,1056.9c0.1,7.7,0.2,15.4,0.4,23.1h4.7c0.1-7.7,0.2-15.4,0.4-23.1c0.3-17.9,0.4-35.7,0.6-53.6l0.2-53.6
	l-0.2-53.6c-0.2-17.9-0.3-35.7-0.6-53.6c-0.5-35.7-1.3-71.5-2.7-107.2c-1.4,35.7-2.2,71.5-2.7,107.2c-0.3,17.9-0.4,35.7-0.6,53.6
	l-0.2,53.6l0.2,53.6C1126.2,1021.1,1126.3,1039,1126.6,1056.9z"/>
<path class="st1" d="M111.8,1079.8v-10.1c-0.2-17.7-0.3-35.4-0.6-53.1c-0.5-35.4-1.3-70.8-2.7-106.2c-1.4,35.4-2.2,70.8-2.7,106.2
	c-0.3,17.7-0.4,35.4-0.6,53.1v10.1H111.8z"/>
<path class="st3" d="M-31.2-135.2C97.3,48.5,407.2,438.4,957.8,690.1c621,283.9,1183.8,225.5,1402.9,191
	c15.2,140.2,30.3,280.4,45.5,420.6c-852.6,10.6-1705.3,21.2-2557.9,31.8C-111.6,844-71.4,354.4-31.2-135.2z"/>
<path class="st4" d="M393,301.3c0.7,36,1.1,72,1.4,108c0.2,18,0.2,36,0.3,54l0.1,54l-0.1,54c-0.1,18-0.1,36-0.3,54
	c-0.3,36-0.6,72-1.4,108c-0.7-36-1.1-72-1.4-108c-0.2-18-0.2-36-0.3-54l-0.1-54l0.1-54c0.1-18,0.1-36,0.3-54
	C391.9,373.3,392.3,337.3,393,301.3z"/>
<path class="st4" d="M892.5,427c0.7,36,1.1,72,1.4,108c0.2,18,0.2,36,0.3,54l0.1,54l-0.1,54c-0.1,18-0.1,36-0.3,54
	c-0.3,36-0.6,72-1.4,108c-0.7-36-1.1-72-1.4-108c-0.2-18-0.2-36-0.3-54l-0.1-54l0.1-54c0.1-18,0.1-36,0.3-54
	C891.4,499,891.8,463,892.5,427z"/>
<path class="st4" d="M1652,56.5c0.7,36,1.1,72,1.4,108c0.2,18,0.2,36,0.3,54l0.1,54l-0.1,54c-0.1,18-0.1,36-0.3,54
	c-0.3,36-0.6,72-1.4,108c-0.7-36-1.1-72-1.4-108c-0.2-18-0.2-36-0.3-54l-0.1-54l0.1-54c0.1-18,0.1-36,0.3-54
	C1650.9,128.5,1651.3,92.5,1652,56.5z"/>
<g>
	<path class="st2" d="M1112.4,363.5c6,2,11.3,4.9,16.4,8.1c5.1,3.2,9.9,6.7,14.4,10.5c4.6,3.8,8.9,7.9,12.9,12.3
		c4,4.4,7.8,9.1,10.9,14.7c-6-2-11.3-4.9-16.4-8c-5.1-3.2-9.9-6.7-14.4-10.5c-4.5-3.8-8.9-7.9-12.9-12.3
		C1119.3,373.7,1115.5,369,1112.4,363.5z"/>
</g>
<g>
	<path class="st2" d="M552.7,533.4c2,6,2.9,12,3.5,17.9c0.5,5.9,0.7,11.9,0.4,17.8c-0.3,5.9-0.9,11.8-2,17.7
		c-1.1,5.9-2.5,11.7-5.1,17.5c-2-6-2.9-12-3.5-17.9c-0.5-5.9-0.6-11.9-0.4-17.8c0.3-5.9,0.9-11.8,2-17.7
		C548.8,545.1,550.2,539.2,552.7,533.4z"/>
</g>
<g>
	<path class="st2" d="M83.9,836.1c6,2,11.3,4.9,16.4,8.1c5.1,3.2,9.9,6.7,14.4,10.5c4.6,3.8,8.9,7.9,12.9,12.3
		c4,4.4,7.8,9.1,10.9,14.7c-6-2-11.3-4.9-16.4-8c-5.1-3.2-9.9-6.7-14.4-10.5c-4.5-3.8-8.9-7.9-12.9-12.3
		C90.7,846.4,86.9,841.7,83.9,836.1z"/>
</g>
<g>
	<path class="st2" d="M1013.9,986.1c6,2,11.3,4.9,16.4,8.1c5.1,3.2,9.9,6.7,14.4,10.5c4.6,3.8,8.9,7.9,12.9,12.3
		c4,4.4,7.8,9.1,10.9,14.7c-6-2-11.3-4.9-16.4-8c-5.1-3.2-9.9-6.7-14.4-10.5c-4.5-3.8-8.9-7.9-12.9-12.3
		C1020.7,996.4,1016.9,991.7,1013.9,986.1z"/>
</g>
<g>
	<path class="st2" d="M957.1,47.2c-0.6,6.3-2.2,12.1-4.1,17.8c-1.9,5.7-4.3,11.1-6.9,16.4c-2.7,5.3-5.6,10.4-9,15.3
		c-3.4,4.9-7.1,9.7-11.8,13.9c0.6-6.3,2.2-12.1,4.1-17.8c1.9-5.7,4.3-11.1,6.9-16.4c2.7-5.3,5.7-10.4,9-15.3
		C948.7,56.2,952.4,51.4,957.1,47.2z"/>
</g>
<g>
	<path class="st2" d="M353.9,36.1c6,2,11.3,4.9,16.4,8.1c5.1,3.2,9.9,6.7,14.4,10.5c4.6,3.8,8.9,7.9,12.9,12.3
		c4,4.4,7.8,9.1,10.9,14.7c-6-2-11.3-4.9-16.4-8c-5.1-3.2-9.9-6.7-14.4-10.5c-4.5-3.8-8.9-7.9-12.9-12.3
		C360.7,46.4,356.9,41.7,353.9,36.1z"/>
</g>
<g>
	<path class="st2" d="M1783.9,136.1c6,2,11.3,4.9,16.4,8.1c5.1,3.2,9.9,6.7,14.4,10.5c4.6,3.8,8.9,7.9,12.9,12.3
		c4,4.4,7.8,9.1,10.9,14.7c-6-2-11.3-4.9-16.4-8c-5.1-3.2-9.9-6.7-14.4-10.5c-4.5-3.8-8.9-7.9-12.9-12.3
		C1790.7,146.4,1786.9,141.7,1783.9,136.1z"/>
</g>
<g>
	<path class="st2" d="M1543.9,916.1c6,2,11.3,4.9,16.4,8.1c5.1,3.2,9.9,6.7,14.4,10.5c4.6,3.8,8.9,7.9,12.9,12.3
		c4,4.4,7.8,9.1,10.9,14.7c-6-2-11.3-4.9-16.4-8c-5.1-3.2-9.9-6.7-14.4-10.5c-4.5-3.8-8.9-7.9-12.9-12.3
		C1550.7,926.4,1546.9,921.7,1543.9,916.1z"/>
</g>
<g>
	<path class="st2" d="M1823.9,886.1c6,2,11.3,4.9,16.4,8.1c5.1,3.2,9.9,6.7,14.4,10.5c4.6,3.8,8.9,7.9,12.9,12.3
		c4,4.4,7.8,9.1,10.9,14.7c-6-2-11.3-4.9-16.4-8c-5.1-3.2-9.9-6.7-14.4-10.5c-4.5-3.8-8.9-7.9-12.9-12.3
		C1830.7,896.4,1826.9,891.7,1823.9,886.1z"/>
</g>
<path class="st1" d="M1307.8,451.9c0.1,7.8,0.2,15.5,0.4,23.3h4.7c0.1-7.8,0.2-15.5,0.4-23.3c0.3-18,0.4-36,0.6-54l0.2-54l-0.2-54
	c-0.2-18-0.3-36-0.6-54c-0.5-36-1.3-72-2.7-108c-1.4,36-2.2,72-2.7,108c-0.3,18-0.4,36-0.6,54l-0.2,54l0.2,54
	C1307.4,415.9,1307.5,433.9,1307.8,451.9z"/>
<path class="st4" d="M1313.5,137.9c0.7,36,1.1,72,1.4,108c0.2,18,0.2,36,0.3,54l0.1,54l-0.1,54c-0.1,18-0.1,36-0.3,54
	c-0.3,36-0.6,72-1.4,108c-0.7-36-1.1-72-1.4-108c-0.2-18-0.2-36-0.3-54l-0.1-54l0.1-54c0.1-18,0.1-36,0.3-54
	C1312.4,209.9,1312.7,173.9,1313.5,137.9z"/>
<path class="st1" d="M627.8,1054.4c0.1,8.5,0.2,17.1,0.4,25.6h4.7c0.1-8.5,0.2-17.1,0.4-25.6c0.3-19.8,0.4-39.6,0.6-59.4l0.2-59.4
	l-0.2-59.4c-0.2-19.8-0.3-39.6-0.6-59.4c-0.5-39.6-1.3-79.2-2.7-118.9c-1.4,39.6-2.2,79.2-2.7,118.9c-0.3,19.8-0.4,39.6-0.6,59.4
	l-0.2,59.4l0.2,59.4C627.4,1014.8,627.5,1034.6,627.8,1054.4z"/>
<path class="st4" d="M111.6,1.6l-0.1,41.6l0.1,54c0.1,18,0.1,36,0.3,54c0.3,36,0.6,72,1.4,108c0.7-36,1.1-72,1.4-108
	c0.2-18,0.2-36,0.3-54l0.1-54l-0.1-41.6H111.6z"/>
<path class="st4" d="M1131,1.6c0.2,23.6,0.6,47.3,1,70.9c0.5-23.6,0.8-47.3,1-70.9H1131z"/>
<path class="st4" d="M1720.4,0h-3c-0.1,10.6-0.1,21.2-0.2,31.9l-0.1,54l0.1,54c0.1,18,0.1,36,0.3,54c0.3,36,0.6,72,1.4,108
	c0.7-36,1.1-72,1.4-108c0.2-18,0.2-36,0.3-54l0.1-54l-0.1-54C1720.5,21.2,1720.5,10.6,1720.4,0z"/>
<path class="st4" d="M319.3,239.6c-0.3-79.3-0.7-158.6-1.5-238H317c-0.7,79.3-1.2,158.6-1.5,238c-0.2,47.3-0.3,94.6-0.4,141.9
	L315,523.4l0.1,141.9c0.1,47.3,0.2,94.6,0.4,141.9c0.4,94.6,0.9,178.2,1.9,272.8c1-94.6,1.5-178.2,1.9-272.8
	c0.2-47.3,0.3-94.6,0.4-141.9l0.1-141.9l-0.1-141.9C319.6,334.2,319.5,286.9,319.3,239.6z"/>
<path class="st4" d="M112.7,1080c-0.1-14.8-0.1-29.6-0.2-44.5c-0.3-36-0.6-72-1.4-108c-0.7,36-1.1,72-1.4,108
	c-0.1,14.8-0.2,29.6-0.2,44.5H112.7z"/>
<path class="st1" d="M308.1,911.1c0.3,56.3,0.6,112.6,1,168.9h3.5c0.4-56.3,0.7-112.6,1-168.9c0.3-56.5,0.4-113,0.6-169.5l0.2-169.5
	l-0.2-169.5c-0.2-56.5-0.3-113-0.6-169.5C313.2,155.3,312.7,77.6,312,0h-2.3c-0.7,77.6-1.2,155.3-1.6,232.9
	c-0.3,56.5-0.4,113-0.6,169.5L307.3,572l0.2,169.5C307.7,798.1,307.8,854.6,308.1,911.1z"/>
<path class="st4" d="M632.1,1031.9c0.1,16,0.3,32.1,0.4,48.1h1.8c0.2-16,0.3-32.1,0.4-48.1c0.2-18,0.2-36,0.3-54l0.1-54l-0.1-54
	c-0.1-18-0.1-36-0.3-54c-0.3-36-0.6-72-1.4-108c-0.7,36-1.1,72-1.4,108c-0.2,18-0.2,36-0.3,54l-0.1,54l0.1,54
	C631.9,995.9,631.9,1013.9,632.1,1031.9z"/>
<path class="st4" d="M787.3,831.5c0.3,82.8,0.8,165.7,1.6,248.5h0.7c0.8-82.8,1.2-165.7,1.6-248.5c0.2-47.3,0.3-94.6,0.4-141.9
	l0.1-141.9l-0.1-141.9c-0.1-47.3-0.2-94.6-0.4-141.9c-0.3-87.1-0.8-174.8-1.7-263.1H789c-0.9,87.7-1.4,175.4-1.7,263.1
	c-0.2,47.3-0.3,94.6-0.4,141.9l-0.1,141.9l0.1,141.9C787,736.9,787.1,784.2,787.3,831.5z"/>
<path class="st1" d="M781,909.9c0.2,56.7,0.5,113.4,0.9,170.1h3.6c0.4-56.7,0.7-113.4,0.9-170.1c0.3-61,0.4-122,0.6-183l0.2-183
	l-0.2-183c-0.2-61-0.3-122-0.6-183c-0.3-59.3-0.6-118.5-1-177.8H782c-0.4,59.3-0.7,118.5-1,177.8c-0.3,61-0.4,122-0.6,183l-0.2,183
	l0.2,183C780.6,787.9,780.7,848.9,781,909.9z"/>
<path class="st4" d="M1720,1080c-0.2-20.2-0.5-40.5-0.9-60.7c-0.4,20.2-0.7,40.5-0.9,60.7H1720z"/>
<path class="st4" d="M1130.9,1069.3c0,3.6,0.1,7.1,0.1,10.7h2.6c0-3.6,0.1-7.1,0.1-10.7c0.2-18,0.2-36,0.3-54l0.1-54l-0.1-54
	c-0.1-18-0.1-36-0.3-54c-0.3-36-0.6-72-1.4-108c-0.7,36-1.1,72-1.4,108c-0.2,18-0.2,36-0.3,54l-0.1,54l0.1,54
	C1130.7,1033.3,1130.7,1051.3,1130.9,1069.3z"/>
<path class="st4" d="M1445.4,865.6c0.3,71.5,0.6,142.9,1.2,214.4h1.4c0.6-71.5,0.9-142.9,1.2-214.4c0.2-48.7,0.3-97.4,0.4-146.1
	l0.1-146.1l-0.1-146.1c-0.1-48.7-0.2-97.4-0.4-146.1c-0.4-97.4-0.9-181.8-1.9-279.2c-1,97.4-1.5,181.8-1.9,279.2
	c-0.2,48.7-0.3,97.4-0.4,146.1l-0.1,146.1l0.1,146.1C1445.1,768.2,1445.1,816.9,1445.4,865.6z"/>
<path class="st1" d="M1438.1,869.4c0.3,70.2,0.8,140.4,1.5,210.6h2.5c0.7-70.2,1.2-140.4,1.5-210.6c0.3-52.6,0.4-105.2,0.6-157.8
	l0.2-157.8l-0.2-157.8c-0.2-52.6-0.3-105.2-0.6-157.8c-0.4-78.8-0.9-157.6-1.8-236.5h-1.9c-0.8,78.8-1.4,157.6-1.8,236.5
	c-0.3,52.6-0.4,105.2-0.6,157.8l-0.2,157.8l0.2,157.8C1437.7,764.2,1437.8,816.8,1438.1,869.4z"/>
</svg>
