<svg id="Logo" xmlns="http://www.w3.org/2000/svg" xmlns:xlink="http://www.w3.org/1999/xlink" viewBox="0 0 939.4 448.11"><defs><style>.cls-1,.cls-11,.cls-12,.cls-16,.cls-7{fill:none;}.cls-2{clip-path:url(#clip-path);}.cls-3{fill:#f39322;}.cls-4{fill:#4a4a49;}.cls-5{fill:#7c7c7b;}.cls-6{fill:#cbbba0;}.cls-7{stroke:#7d4e24;stroke-width:2.08px;}.cls-11,.cls-12,.cls-16,.cls-7{stroke-miterlimit:10;}.cls-8{fill:#948b76;}.cls-9{fill:#009fe3;}.cls-10{fill:#0079ac;}.cls-11,.cls-16{stroke:#b2b2b2;}.cls-11,.cls-12{stroke-width:4.16px;}.cls-12{stroke:#838382;}.cls-13{fill:#838282;}.cls-14,.cls-15{fill:#1d1d1b;}.cls-15{font-size:61.33px;font-family:Vivaldii, Vivaldi;}.cls-16{stroke-width:1.04px;}.cls-17{fill:#b3b2b2;}.cls-18{fill:#f6f6f6;}.cls-19{fill:#ec663b;}</style><clipPath id="clip-path" transform="translate(-491.32 -72.52)"><rect class="cls-1" x="342" y="-479.14" width="1236.69" height="1749.03"/></clipPath></defs><g class="cls-2"><g class="cls-2"><path class="cls-3" d="M789.83,503.19a5.56,5.56,0,0,1-.81.08c-7.06,0-12.78-11.44-12.78-25.55S782,452.17,789,452.17a7.4,7.4,0,0,1,.81.08V436.57c-.25,0-.49-.07-.74-.07-11.38,0-20.61,18.45-20.61,41.22s9.23,41.22,20.61,41.22c.25,0,.49-.05.74-.07Z" transform="translate(-491.32 -72.52)"/><path class="cls-4" d="M912.18,243.11l28.41,39.47c-9.65,32.81-22.47,68.64-39.52,102.92-42.4,85.23-122.9,99.42-148.93,61.6,31.09,14.44,98.93,7.79,132.67-92.85,12.84-38.28,21.47-76.86,27.37-111.14" transform="translate(-491.32 -72.52)"/><path class="cls-5" d="M912.18,243.11l17.46,24.26c-9.65,32.81-24.06,69.56-38.9,104.1-37.57,87.47-102.43,103.92-138.6,75.63,31.09,14.44,98.93,7.79,132.67-92.85,12.84-38.28,21.47-76.86,27.37-111.14" transform="translate(-491.32 -72.52)"/><path class="cls-4" d="M1097.33,447.8c3.09-.09,13.21,4.59,17.78,6.41,0,0,.17-.69.5-.72l-5.78-6c3.16-.09,1.17-1.22,6.9-1.38.5,0,0-.55.08-.85l-9.46-3.89,3.3-.47c-27.13-10.85-55.58-37.78-73.93-92.53-12.83-38.27-21.46-76.85-27.37-111.14l-28.41,39.48c9.65,32.8,22.47,68.64,39.52,102.91,20,40.24,48.53,64.61,75.79,75.18.66.25.12.29,1.33-1Z" transform="translate(-491.32 -72.52)"/><path class="cls-5" d="M1104.18,437.87c-25.15-12.38-50.66-39.21-67.59-89.7-12.84-38.28-21.47-76.86-27.37-111.14l-17.46,24.26c9.65,32.81,24.06,69.55,38.89,104.1,17.29,40.23,40.34,65.4,63.72,78.14a3.63,3.63,0,0,1,1.41.12c1.83.47,3.89,1.47,4.91,1.07,1.45-.56,2-4,3-4l6.43,4.33c.37-.59-3.24-2-6-7.21" transform="translate(-491.32 -72.52)"/><path class="cls-6" d="M850.55,213.3a63.82,63.82,0,0,0-10.34-25.54C789,202.07,740.36,250.74,677.5,261,614.23,271.24,553,231.86,492.66,244.12c-.08.72-.15,1.51-.22,2.29a420.76,420.76,0,0,1,123.69,33,194.33,194.33,0,0,0-115.2,11.85c.42.85.84,1.68,1.25,2.46,57.29-22.53,119.64,28.91,184.49,18.4a171.5,171.5,0,0,0,30.7-8.09c.21-.37.43-.71.63-1.1a41.66,41.66,0,0,0,4.18-13.74,80.16,80.16,0,0,1,6.15,10.57C773,281,810.86,249,849.73,237.4a61.71,61.71,0,0,0,.82-24.1" transform="translate(-491.32 -72.52)"/><path class="cls-7" d="M850.55,213.3a63.82,63.82,0,0,0-10.34-25.54C789,202.07,740.36,250.74,677.5,261,614.23,271.24,553,231.86,492.66,244.12c-.08.72-.15,1.51-.22,2.29a420.76,420.76,0,0,1,123.69,33,194.33,194.33,0,0,0-115.2,11.85c.42.85.84,1.68,1.25,2.46,57.29-22.53,119.64,28.91,184.49,18.4a171.5,171.5,0,0,0,30.7-8.09c.21-.37.43-.71.63-1.1a41.66,41.66,0,0,0,4.18-13.74,80.16,80.16,0,0,1,6.15,10.57C773,281,810.86,249,849.73,237.4A61.71,61.71,0,0,0,850.55,213.3Z" transform="translate(-491.32 -72.52)"/><path class="cls-8" d="M717.46,302a36.77,36.77,0,0,0,2.06-5.56c.5-1.63.75-2.47,1-3.62s.44-2.4.54-3.24c-7,4.32-20.15,10.41-37.71,12.68a67.84,67.84,0,0,1-27.88-1.94s-88.92-25.41-115.35-20.13c-10.57,2.11-21,5.12-21,5.12-7.23,2.09-13.22,4.17-17.59,5.79a6.19,6.19,0,0,0,1.06,2.28c.86-.62,10.49-4.91,18.45-5.59,11.48-1,20.61-.93,28.34,0,5.32.63,8.92,1.38,15.57,2.78,9.76,2,17.06,4.1,28,7.2s11.31,3.45,19.15,5.52c9.37,2.48,16.57,4,19.12,4.58,13.91,2.94,21.42,4.53,30.84,4.92h0A111.3,111.3,0,0,0,680.7,312c2.27-.33,3.71-.43,5.27-.7,4.55-.79,5-1,7.57-1.48,1.5-.28,3.72-.84,8.17-2,4.28-1.08,6.46-1.63,8.62-2.3s4.16-1.37,6.34-2.19c.16-.3.66-1,.79-1.35" transform="translate(-491.32 -72.52)"/><path class="cls-8" d="M742.16,292.35c6.06-2.9,10.87-5.45,14.39-7.36,13.15-7.12,19.63-12.05,34.91-20.59,12.91-7.21,24.7-16.23,57.47-28,1.09-3.6,1.48-9,1.44-15.65a46.51,46.51,0,0,0-.78-7.22c-2-12.19-6.2-21.14-9.38-25.73C791,242.75,753.16,273,723,288.55c1.79,3.34,4,6.57,5.83,9.91,3.62-1.53,7.87-3.49,13.33-6.11" transform="translate(-491.32 -72.52)"/><path class="cls-6" d="M1305.92,279.45a420.76,420.76,0,0,1,123.69-33c-.07-.78-.14-1.56-.22-2.29-60.33-12.26-121.56,27.12-184.83,16.83-4.43-.72-8.78-1.64-13.07-2.72-.33.77-.65,1.53-1,2.32a80.37,80.37,0,0,1-6.65,11.57,41.55,41.55,0,0,0-4.18-13.73,40.74,40.74,0,0,0-2.66-4.46c-50-17.13-91.63-54-135.13-66.17a63.82,63.82,0,0,0-10.34,25.54,61.51,61.51,0,0,0,.82,24.1c50.38,15,99.15,64.41,163.06,74.76,64.84,10.51,127.19-40.93,184.49-18.4.41-.78.83-1.61,1.24-2.46a193.39,193.39,0,0,0-38.71-12,195.35,195.35,0,0,0-76.49.16" transform="translate(-491.32 -72.52)"/><path class="cls-7" d="M1305.92,279.45a420.76,420.76,0,0,1,123.69-33c-.07-.78-.14-1.56-.22-2.29-60.33-12.26-121.56,27.12-184.83,16.83-4.43-.72-8.78-1.64-13.07-2.72-.33.77-.65,1.53-1,2.32a80.37,80.37,0,0,1-6.65,11.57,41.55,41.55,0,0,0-4.18-13.73,40.74,40.74,0,0,0-2.66-4.46c-50-17.13-91.63-54-135.13-66.17a63.82,63.82,0,0,0-10.34,25.54,61.51,61.51,0,0,0,.82,24.1c50.38,15,99.15,64.41,163.06,74.76,64.84,10.51,127.19-40.93,184.49-18.4.41-.78.83-1.61,1.24-2.46a193.39,193.39,0,0,0-38.71-12A195.35,195.35,0,0,0,1305.92,279.45Z" transform="translate(-491.32 -72.52)"/><path class="cls-8" d="M1381.93,280c10.57,2.11,21,5.12,21,5.12,7.23,2.09,13.23,4.17,17.59,5.79a6.17,6.17,0,0,1-.37,1.1,6.82,6.82,0,0,1-.69,1.18c-.86-.62-10.48-4.92-18.44-5.59-11.49-1-20.61-.93-28.34,0-5.32.63-8.93,1.38-15.58,2.77-9.76,2.05-17.06,4.11-28,7.2s-11.31,3.46-19.15,5.53c-9.37,2.48-16.58,4-19.12,4.58-13.91,2.94-21.42,4.53-30.84,4.92h0a111.24,111.24,0,0,1-18.64-.79c-1.62-.23-2.74-.48-5-.9-1.2-.23-10.72-2-16-3.25-10.14-2.34-18.09-5.66-27-9.39-5.11-2.13-9.45-4.16-13.42-6.06-21.6-10.31-25.86-14.85-49.31-28-12.91-7.21-24.7-16.23-57.47-28-1.09-3.6-1.48-9-1.44-15.65a45.4,45.4,0,0,1,.79-7.22c2-12.2,6.19-21.15,9.38-25.73,97,108.5,152.09,121.84,184.73,112.52,0,0,88.92-25.41,115.35-20.13" transform="translate(-491.32 -72.52)"/><path class="cls-8" d="M1067,168.59c40.11-20.43,27.48,3.28,62.77-11a113.19,113.19,0,0,1,31.09,53.86,217,217,0,0,0-77.59,20.42" transform="translate(-491.32 -72.52)"/><path class="cls-7" d="M1067,168.59c40.11-20.43,27.48,3.28,62.77-11a113.19,113.19,0,0,1,31.09,53.86,217,217,0,0,0-77.59,20.42" transform="translate(-491.32 -72.52)"/><path class="cls-8" d="M855.27,168.59c-40.11-20.43-27.48,3.28-62.77-11a113.19,113.19,0,0,0-31.09,53.86A217,217,0,0,1,839,231.86" transform="translate(-491.32 -72.52)"/><path class="cls-7" d="M855.27,168.59c-40.11-20.43-27.48,3.28-62.77-11a113.19,113.19,0,0,0-31.09,53.86A217,217,0,0,1,839,231.86" transform="translate(-491.32 -72.52)"/><path class="cls-4" d="M923.27,334.91,934.81,347c-3.92,10-5.21,23.69-12.14,34.18-17.22,26.09-53.84,27.75-64.41,16.17,12.62,4.42,40.19,2.39,53.89-28.42a185.39,185.39,0,0,0,11.12-34" transform="translate(-491.32 -72.52)"/><path class="cls-5" d="M923.27,334.91l7.1,7.43c-3.92,10-7.64,22.59-13.67,33.17C901.44,402.28,873,406,858.26,397.35c12.62,4.42,40.19,2.39,53.89-28.42a185.39,185.39,0,0,0,11.12-34" transform="translate(-491.32 -72.52)"/><path class="cls-4" d="M934.1,340.48l8.06,5.71c-.13,8.32,9.84,20.11,8.26,29.55-3.91,23.45-30.23,32.76-37.71,27.16,7.2-.13,20.77-8.88,22-34.83a205,205,0,0,0-.64-27.59" transform="translate(-491.32 -72.52)"/><path class="cls-5" d="M934.1,340.48l4.95,3.51c-.13,8.32,2.9,18.62,1.8,27.87-2.8,23.44-19.11,33.44-28.14,31,7.2-.13,20.77-8.88,22-34.83a205,205,0,0,0-.64-27.59" transform="translate(-491.32 -72.52)"/><path class="cls-4" d="M998.19,331.48l-11.54,12.08c3.92,10,3.23,22.54,10.16,33,17.22,26.09,55.83,28.9,66.4,17.33-12.63,4.42-40.19,2.38-53.9-28.42a186.65,186.65,0,0,1-11.12-34" transform="translate(-491.32 -72.52)"/><path class="cls-5" d="M998.19,331.48l-7.09,7.43c3.92,10,7.63,22.59,13.66,33.16,15.27,26.78,43.76,30.51,58.45,21.85-12.63,4.42-40.19,2.38-53.9-28.42a186.65,186.65,0,0,1-11.12-34" transform="translate(-491.32 -72.52)"/><path class="cls-4" d="M985.33,337.83l-8.06,5.71c.14,8.32-8.15,21.06-6.57,30.49,3.9,23.46,28.54,31.82,36,26.22-7.2-.13-20.77-8.88-22-34.83a205,205,0,0,1,.64-27.59" transform="translate(-491.32 -72.52)"/><path class="cls-5" d="M985.33,337.83l-5,3.51c.13,8.32-2.9,18.62-1.79,27.87,2.79,23.44,19.1,33.44,28.13,31-7.2-.13-20.77-8.88-22-34.83a205,205,0,0,1,.64-27.59" transform="translate(-491.32 -72.52)"/><path class="cls-9" d="M960.68,406.92c-26-31.29-77.79-88.17-107.51-191.82-10.32-36-4.82-124.26-4.82-140.5H1073c0,33.16,6.19,99.25-3.08,133.67-29,107.73-83.12,165.39-109.25,198.65" transform="translate(-491.32 -72.52)"/><path class="cls-10" d="M961,74.6H848.35c0,16.24-5.5,104.52,4.82,140.5,29.72,103.65,81.49,160.53,107.51,191.82l.28-.35Z" transform="translate(-491.32 -72.52)"/><path class="cls-11" d="M848.48,74.6c-.28,30.13-6.38,106.2,6.2,145.22C885,313.87,935.92,378.4,960.81,406.92" transform="translate(-491.32 -72.52)"/><path class="cls-12" d="M1073.45,74.6c.27,30.13,6.38,106.2-6.2,145.22C1036.92,313.87,986,378.4,961.11,406.92" transform="translate(-491.32 -72.52)"/><path class="cls-13" d="M962.77,407.81c0,1-.9,1.26-1.87,1.26s-1.73-.3-1.73-1.28A1.79,1.79,0,0,1,961,406a1.82,1.82,0,0,1,1.81,1.79" transform="translate(-491.32 -72.52)"/><line class="cls-11" x1="355.04" y1="2.08" x2="584.2" y2="2.08"/><path class="cls-6" d="M1161.34,211.13a851.33,851.33,0,0,0-400.45,0,113.19,113.19,0,0,1,0-62.19,784.55,784.55,0,0,1,400.45,0,82.26,82.26,0,0,1,0,62.19" transform="translate(-491.32 -72.52)"/><path class="cls-7" d="M1161.34,211.13a851.33,851.33,0,0,0-400.45,0,113.19,113.19,0,0,1,0-62.19,784.55,784.55,0,0,1,400.45,0,82.26,82.26,0,0,1,0,62.19Z" transform="translate(-491.32 -72.52)"/><path class="cls-14" d="M903,134.47l1,.65a7.39,7.39,0,0,0-1.48,2.74,11,11,0,0,0,0,3.61c.81,6.58,3.43,14.25,7.54,23.11,2.28,4.92,3.85,7.34,4.8,7.24.46,0,1.14-.63,2.06-1.75l.81.62c-.11.14-.21.28-.32.41q-2.31,2.93-4.12,5.64l-.51.79a116.47,116.47,0,0,1-8.3-15.87c-2.49-5.77-4-10.53-4.54-14.29a43.72,43.72,0,0,1-.34-5.49v-.8a102.24,102.24,0,0,0-6.61,9.48q-2.67,4.22-4.78,7.35l-.58.87c1.12-.27,2.37-.51,3.77-.73,3-.43,6-.81,9-1.17l1.27-.11a58.94,58.94,0,0,0-1.18,7.47l-1.15.16a10,10,0,0,0,.08-2.49,1.43,1.43,0,0,0-1-1.34,9.8,9.8,0,0,0-3.33.13q-2.22.33-4.44.69c-1.65.29-3.31.6-5,.92l-.61.13-.66.89c-3.67,4.81-6,8-7.28,9.52s-3.12,3.5-5.59,6l-.7.72c1.36-.42,2.85-.8,4.45-1.14a65.1,65.1,0,0,1,8.55-1.32q2.82-.21,5.64-.38a38.23,38.23,0,0,0,4-.4,11.37,11.37,0,0,0,7-3.4,10.74,10.74,0,0,0,2.51-7.24,1.88,1.88,0,0,1,1.33,1.51c.21,1.66-.7,3.71-2.68,6.16-3.08,3.8-6.6,6-10.68,6.7q-2,.35-5.65.61a105.36,105.36,0,0,0-13.73,1.85q-3,.75-6,1.54l-.55.14c.38-1.11.76-2.21,1.15-3.31a51.9,51.9,0,0,0,12.64-11.64c3.75-4.76,8.88-12.78,16.16-23.88a91.16,91.16,0,0,1,8-10.88" transform="translate(-491.32 -72.52)"/><path class="cls-14" d="M935.55,151c-.11.19-.22.38-.32.57-.48.82-1,1.65-1.42,2.47s-1,1.77-1.57,2.65c-.1.17-.21.33-.31.49l-.8-.46.19-.47a4.69,4.69,0,0,0,.55-1.82c0-.74-.75-1.07-2.15-1a4.68,4.68,0,0,0-3.23,1.54,4.06,4.06,0,0,0-1.21,3.18,5.19,5.19,0,0,0,.77,2.16c.56,1,1.12,1.94,1.67,2.91a7.62,7.62,0,0,1,.94,3.27c.15,2.35-1,4.66-3.5,6.95-2.13,2-4,3.05-5.79,3.21a4,4,0,0,1-2.53-.51,2.29,2.29,0,0,1-1.16-1.81,5.41,5.41,0,0,1,.44-2.72c1.44,1.94,3,2.82,4.85,2.67a5.71,5.71,0,0,0,3.7-1.77,4.43,4.43,0,0,0,1.42-3.5,5.68,5.68,0,0,0-.77-2.29c-.68-1.21-1.37-2.41-2.07-3.62a5.75,5.75,0,0,1-.71-2.41c-.12-1.61.67-3.49,2.43-5.63a11.6,11.6,0,0,1,3.65-3,12.24,12.24,0,0,1,4.79-1.07,13.73,13.73,0,0,1,2.14,0" transform="translate(-491.32 -72.52)"/><path class="cls-14" d="M948.67,150.53l-.39.88-4.41.08-.24.51c-.38.79-1.4,3.09-3,6.92L938,165.39c-1.34,3.21-2,5.24-1.93,6.08a1.13,1.13,0,0,0,1.36,1.19c1,0,2.45-.7,4.24-2,.17.24.34.49.5.74a19.27,19.27,0,0,1-4,2.42,10.74,10.74,0,0,1-3.7,1.1c-1.47.08-2.24-.45-2.31-1.6,0-.81.65-3.16,2.14-7q1.4-3.54,2.85-7.06c1.61-4,2.6-6.32,2.86-7l.29-.68-4.09.15c.13-.29.26-.59.4-.89l.4,0c1.8-.07,3-.37,3.6-.92s1.39-2,2.41-4.51h.64a13.3,13.3,0,0,0,3-.41c-.22.57-.62,1.5-1.18,2.8l-.9,2.12-.3.68c1.48,0,3-.06,4.42-.08" transform="translate(-491.32 -72.52)"/><path class="cls-14" d="M964.49,170.81l.51.77a65.7,65.7,0,0,1-7.57,3l-.74.26c.25-3,2.38-8.81,6.79-17.24a8,8,0,0,0,1.06-2.66c0-.6-.21-.91-.69-.92A6.33,6.33,0,0,0,961,155.5a28,28,0,0,0-4,3.51,53.1,53.1,0,0,0-5.71,7.14,42,42,0,0,0-4,7.19,10.89,10.89,0,0,0-3.81,1.25l.3-.77q1.89-4.69,3.58-9t3.47-8.75q1.82-4.35,3.7-8.68c1.82-4.26,2.77-6.88,2.78-7.88a.91.91,0,0,0-1-1,8.37,8.37,0,0,0-1.91.44l-.42.14-.32-.85a60.1,60.1,0,0,0,7.78-3l.62-.31c0,.37,0,.64,0,.82a20.53,20.53,0,0,1-1.73,6.35c-1.11,2.8-3.32,7.67-6.41,14.68-1.11,2.54-2.2,5.09-3.27,7.63l-.36.83.51-.62c7.67-9.29,13.63-13.73,17-13.61,1,0,1.49.52,1.45,1.46a9.14,9.14,0,0,1-1.24,3.28c-.69,1.31-1.37,2.63-2.05,3.94-3.41,6.63-5,10.52-5,11.59,0,.42.22.64.67.65a6.87,6.87,0,0,0,2.67-.93l.27-.13" transform="translate(-491.32 -72.52)"/><path class="cls-14" d="M987.26,171.81c.16.27.32.54.47.81a25.32,25.32,0,0,1-8.75,2.94c.23-1.95,1.61-5.26,4.27-9.88a53.57,53.57,0,0,1-8.43,6.82c-2.8,1.79-5,2.67-6.53,2.61q-2.06-.08-2-2.67c.1-2.94,1.54-6.08,4.42-9.37a30.27,30.27,0,0,1,10.88-7.82,28.4,28.4,0,0,1,14.58-2.49c.67.07,1,.34.92.8a6,6,0,0,1-1.16,2.11,23.34,23.34,0,0,0-4.06-.77,20.9,20.9,0,0,0-16.7,5.68c-3.48,3.21-5.23,6.51-5.37,9.83-.07,1.56.48,2.36,1.64,2.41,1,.05,2.45-.72,4.41-2.3a33.3,33.3,0,0,0,5.42-5.51,29.85,29.85,0,0,0,5-9.23,2.92,2.92,0,0,1,1.09,2.91c-.16,1.88-1.35,3.95-3.52,6.24a16.85,16.85,0,0,0,3.67-.51l-.28.47c-2.28,4-3.39,6.31-3.45,7s.2.85.74.85a8.11,8.11,0,0,0,2.73-.94" transform="translate(-491.32 -72.52)"/><path class="cls-14" d="M1013.58,155.14c-.52.91-1,1.83-1.55,2.75a10,10,0,0,0-2-.53c-2.39-.34-5.19,1-8.3,4.14a27,27,0,0,0-3.87,5,81.94,81.94,0,0,0-4.27,8.49c-.14.32-.28.64-.43,1a30.71,30.71,0,0,0-3.74.62l.41-.84c1.08-2.18,2.17-4.37,3.29-6.54,3.17-6.29,4.91-10,5-11.15.06-.6-.18-.93-.74-1a6.92,6.92,0,0,0-2.15.56c-.1-.31-.2-.63-.31-.94a56.57,56.57,0,0,0,8.3-3.5,4.62,4.62,0,0,1,0,1c-.19,1.48-1.22,3.88-3,7.19l.83-.73c5.36-4.37,9.17-6.34,11.18-6a3.27,3.27,0,0,1,1.37.59" transform="translate(-491.32 -72.52)"/><path class="cls-14" d="M1030.28,160.66a27.59,27.59,0,0,0-2.68-.66c-5.39-1-9.88.25-13.31,3.69a22.43,22.43,0,0,0-3.62,4.88,14.6,14.6,0,0,0-1.87,4.84,3.33,3.33,0,0,0,.5,2.45,2.8,2.8,0,0,0,2,1.23c2,.32,4.52-.93,7.57-3.71s4.85-5.46,5.33-8.13a2.29,2.29,0,0,0-.23-1.6,1.51,1.51,0,0,0-1.09-.83c-1.62-.29-3.45,1-5.43,3.81a3.91,3.91,0,0,1,0-1c.19-1.19,1.17-2.31,3-3.35a7.16,7.16,0,0,1,4.81-1.16,3.11,3.11,0,0,1,2.18,1.52,3.84,3.84,0,0,1,.48,2.81c-.67,3.46-3.7,6.67-8.93,9.77-4.48,2.71-7.92,3.91-10.47,3.53a3.68,3.68,0,0,1-2.6-1.58,4.29,4.29,0,0,1-.7-3.13,15,15,0,0,1,4-7.89,25.31,25.31,0,0,1,8.8-6.25,26,26,0,0,1,6.25-1.81,16.49,16.49,0,0,1,5.53-.1q1.37.27,1.14,1.38a4.33,4.33,0,0,1-.67,1.33" transform="translate(-491.32 -72.52)"/><path class="cls-14" d="M1047.61,161.71l-.47.46-2.05,2c-.73.71-1.48,1.42-2.26,2.12l-.43.38-.65-.66.32-.41a4.78,4.78,0,0,0,1-1.59c.17-.72-.43-1.24-1.8-1.54a4.71,4.71,0,0,0-3.56.57,4.09,4.09,0,0,0-2,2.72,5.36,5.36,0,0,0,.14,2.3c.28,1.08.55,2.16.81,3.25a7.69,7.69,0,0,1,0,3.41c-.51,2.3-2.3,4.18-5.31,5.7-2.61,1.31-4.75,1.81-6.47,1.48a4,4,0,0,1-2.31-1.2,2.31,2.31,0,0,1-.62-2.06,5.34,5.34,0,0,1,1.19-2.48q1.26,3.38,3.93,3.9a5.74,5.74,0,0,0,4.06-.67,4.4,4.4,0,0,0,2.34-3,5.61,5.61,0,0,0-.11-2.41q-.48-2-1-4a5.74,5.74,0,0,1,0-2.51c.32-1.59,1.61-3.18,3.9-4.74a11.78,11.78,0,0,1,4.37-1.91,12.6,12.6,0,0,1,4.93.3,14.63,14.63,0,0,1,2.06.64" transform="translate(-491.32 -72.52)"/></g><text class="cls-15" transform="translate(462.76 226.68)">P</text><g class="cls-2"><path class="cls-16" d="M980,285.46q-4.1-4.89-4.1-9.08a7.48,7.48,0,0,1,1.72-5,5.48,5.48,0,0,1,4.33-2,4.92,4.92,0,0,1,2.9,1,14.49,14.49,0,0,1,3,3.27Zm9.29-10a21.3,21.3,0,0,0,5.42,5.15,11.41,11.41,0,0,0,5.84,1.43,13.77,13.77,0,0,0,11.17-5.48,15.41,15.41,0,0,0,3.74-9.82q0-8.65-12.7-8.65-4.31,0-15.15.87-9.61.78-14.55.77a12.19,12.19,0,0,1-4.53-.58,2.08,2.08,0,0,1-1.28-2.05,13.13,13.13,0,0,1,.39-2.55l.08-.5-1-.27-2.31,8.41c1.38.94,4,1.41,7.76,1.41q3.14,0,6.05-.24l8.68-.69q11.54-.9,15.81-.9,9.85,0,9.86,7a12.23,12.23,0,0,1-2.84,7.9q-2.82,3.51-6.36,3.51-5.62,0-10-6l-1.74-2.43s-.12-.18-.3-.42l.48-.68q1.17-1.65,2.1-3.09c1.28-2,2.14-3.26,2.6-3.86l-.41.06q-1.38.18-1.77.18l-1.62.06-.6,0a1.83,1.83,0,0,1,.39,1.07,6.45,6.45,0,0,1-1.11,3.09l-.9,1.56-.17.29q-2.82-3.37-6.23-3.38a8.89,8.89,0,0,0-7,3.6,12.69,12.69,0,0,0-3,8.41,16.11,16.11,0,0,0,3.69,10.33l-6.17,9.31.9.63a16.09,16.09,0,0,1,4.49-4.94,9.88,9.88,0,0,1,5.45-1.44,22,22,0,0,1,6.29,1,81.84,81.84,0,0,1,9.16,3.66,42,42,0,0,0,7.07,2.63,6.13,6.13,0,0,0,.42-.6l1.91-3,2-2.82.33-.51-.93-.56c-1.52,2.21-2.82,3.32-3.92,3.32a11.36,11.36,0,0,1-3.39-1l-5.68-2.37q-6.42-2.62-10.19-2.63-4.15,0-8.83,3.26l12.19-18.05Z" transform="translate(-491.32 -72.52)"/></g><text class="cls-15" transform="matrix(-1, 0, 0, 1, 475.98, 226.68)">P</text><g class="cls-2"><path class="cls-16" d="M941.34,285.46q4.1-4.89,4.1-9.08a7.43,7.43,0,0,0-1.72-5,5.48,5.48,0,0,0-4.33-2,4.92,4.92,0,0,0-2.9,1,14.49,14.49,0,0,0-3,3.27Zm-9.29-10a21.45,21.45,0,0,1-5.41,5.15,11.47,11.47,0,0,1-5.85,1.43,13.74,13.74,0,0,1-11.16-5.48,15.37,15.37,0,0,1-3.75-9.82q0-8.65,12.7-8.65c2.87,0,7.93.29,15.15.87q9.62.78,14.55.77a12.19,12.19,0,0,0,4.53-.58,2.08,2.08,0,0,0,1.28-2.05,12.92,12.92,0,0,0-.38-2.55l-.09-.5,1-.27,2.31,8.41c-1.38.94-4,1.41-7.76,1.41-2.09,0-4.11-.08-6-.24l-8.69-.69c-7.69-.6-13-.9-15.81-.9q-9.85,0-9.85,7a12.22,12.22,0,0,0,2.83,7.9q2.82,3.51,6.36,3.51,5.63,0,10-6l1.74-2.43s.12-.18.3-.42l-.48-.68q-1.17-1.65-2.1-3.09c-1.27-2-2.14-3.26-2.6-3.86l.42.06c.92.12,1.5.18,1.76.18l1.62.06.6,0a1.83,1.83,0,0,0-.39,1.07,6.45,6.45,0,0,0,1.11,3.09l.9,1.56.18.29c1.87-2.25,3.95-3.38,6.22-3.38a8.89,8.89,0,0,1,7,3.6,12.69,12.69,0,0,1,3,8.41,16.11,16.11,0,0,1-3.69,10.33l6.17,9.31-.9.63a16,16,0,0,0-4.49-4.94,9.86,9.86,0,0,0-5.45-1.44,22,22,0,0,0-6.29,1,81.84,81.84,0,0,0-9.16,3.66,42,42,0,0,1-7.07,2.63c-.24-.32-.37-.52-.42-.6l-1.91-3-2-2.82-.33-.51.93-.56q2.28,3.31,3.92,3.32a11.36,11.36,0,0,0,3.39-1l5.69-2.37q6.4-2.62,10.18-2.63,4.15,0,8.83,3.26L932.53,274.8Z" transform="translate(-491.32 -72.52)"/><path class="cls-13" d="M959.54,405.55l-.37,2.07h2.45a3.75,3.75,0,0,0-1-1.49,3.69,3.69,0,0,0-1.05-.59" transform="translate(-491.32 -72.52)"/><line class="cls-12" x1="469.64" y1="2.08" x2="583.96" y2="2.08"/><polygon class="cls-17" points="469.57 336.55 466.28 333.84 466.23 331.4 469.64 331.4 469.57 336.55"/><path class="cls-17" d="M960.82,406.06a1.77,1.77,0,0,0-1.65,1.74c0,.95.71,1.25,1.65,1.27Z" transform="translate(-491.32 -72.52)"/><rect class="cls-17" x="469.47" y="336.45" width="0.11" height="0.1"/><path class="cls-14" d="M655.16,283.28a106.51,106.51,0,0,1-9.18,9.51,14.7,14.7,0,0,1,6.52-1.15,33.49,33.49,0,0,1,7.32,1.86c1.38.48,2.78.92,4.2,1.34a9.46,9.46,0,0,0,2.52.49c.81,0,1.71-.73,2.65-2.09l.7.27c-.11.17-.17.28-.2.31-.41.58-.82,1.15-1.25,1.73s-.81,1.2-1.23,1.8a3.76,3.76,0,0,1-.28.36,28.29,28.29,0,0,1-5.38-1.36c-3-1-5.2-1.83-6.78-2.3a24.9,24.9,0,0,0-4.56-.95,9.54,9.54,0,0,0-4.05.34,11.28,11.28,0,0,0-3.64,2.31l-.63-.48q2.65-2.25,5.11-4.62a8.17,8.17,0,0,1-1.86-6.31,6.86,6.86,0,0,1,2.59-4.51,6.19,6.19,0,0,1,4.65-1.52,5.67,5.67,0,0,1,3.83,2.25l.12-.17.6-.87a3.34,3.34,0,0,0,.74-1.75,1,1,0,0,0-.22-.63h1.36c.16,0,.52,0,1.09-.08l.25,0c-.28.35-.81,1.08-1.63,2.2-.39.54-.85,1.12-1.36,1.73-.1.13-.21.25-.32.38a1.87,1.87,0,0,1,.19.25l1.1,1.44a8.12,8.12,0,0,0,6.74,3.45,5.24,5.24,0,0,0,4-2.27,6.3,6.3,0,0,0,1.32-4.69c-.33-2.68-2.41-3.75-6.35-3.61-1.71.05-4.88.31-9.6.29-1.77,0-3.56-.06-5.35-.18a32,32,0,0,1-3.74-.45c-2.33-.43-3.87-1.07-4.58-1.79.81-1.47,1.62-2.94,2.4-4.42l.57.28c0,.09-.07.19-.11.28a8.65,8.65,0,0,0-.53,1.38,1.2,1.2,0,0,0,.53,1.32,7,7,0,0,0,2.65.85,49.85,49.85,0,0,0,8.76.63c4.33,0,7.29-.27,9-.31,4.94-.18,7.57,1.07,8,4.39a7.93,7.93,0,0,1-1.67,5.87,8.77,8.77,0,0,1-7.19,3.57,8.35,8.35,0,0,1-4-.83,12.47,12.47,0,0,1-3.59-3.12l-.3-.38m-.58-.73a10.09,10.09,0,0,0-1.85-2,3.55,3.55,0,0,0-1.81-.75,3.79,3.79,0,0,0-2.89.79,4,4,0,0,0-1.49,2.72c-.19,1.6.5,3.48,2.26,5.59q3-3.08,5.78-6.31" transform="translate(-491.32 -72.52)"/><path class="cls-14" d="M682.37,287.64a1.83,1.83,0,0,1,.5.78c.26,1.07-.31,2.51-1.87,4.27-2.27,2.58-4.53,4-6.53,4.22-1.74.21-2.72-.47-2.92-2a9.68,9.68,0,0,1,1.16-5.59,17.64,17.64,0,0,1,3.93-5.28,12.57,12.57,0,0,1,5.45-3.35c1-.22,1.56,0,1.74.62a2.64,2.64,0,0,1-.32,1.7,7.47,7.47,0,0,1-1.44,2,11.75,11.75,0,0,1-2.39,1.75,7.68,7.68,0,0,1-2.41,1,1.37,1.37,0,0,1-1.48-.68,10.64,10.64,0,0,0,1.37-.1,6.7,6.7,0,0,0,3.47-1.65c1-.86,1.33-1.68,1.15-2.43-.13-.54-.59-.72-1.38-.56-1.41.29-2.69,1.32-3.94,3.1a15.41,15.41,0,0,0-2.06,4.21,8.67,8.67,0,0,0-.48,4,1.67,1.67,0,0,0,2.16,1.51,6.27,6.27,0,0,0,3.86-2.43,11.92,11.92,0,0,0,2.43-5.17" transform="translate(-491.32 -72.52)"/><path class="cls-14" d="M698.39,288.29l.51.31a15.45,15.45,0,0,1-5.13,4c-.36-1.88.05-5,.86-9.41.16-.82.31-1.63.45-2.44a3.86,3.86,0,0,0,.08-1.54.41.41,0,0,0-.58-.28c-.37.13-.94.78-1.73,1.9a36.23,36.23,0,0,0-2.28,3.69,35.7,35.7,0,0,0-3.45,9.12c-.63.29-1.5.79-2.63,1.47a56.62,56.62,0,0,0,1.9-7.95,18.79,18.79,0,0,0,.47-5.08c-.12-.4-.36-.55-.73-.45a7.81,7.81,0,0,0-1.16.57l-.2.11c-.08-.17-.17-.34-.26-.51a27.7,27.7,0,0,0,4.27-2.8l.21-.17a2.59,2.59,0,0,1,.13.28c.32,1,.24,3.29-.48,7l-.12.57.24-.41a75.44,75.44,0,0,1,4.13-6.64c1.26-1.75,2.31-2.83,3.23-3.19a.82.82,0,0,1,1.22.43c.23.55.19,2.49-.34,5.84-.66,4-1,6.2-.88,6.61s.37.4.74.27a4.06,4.06,0,0,0,1.46-1.14Z" transform="translate(-491.32 -72.52)"/><path class="cls-14" d="M1203.41,275.55a125.61,125.61,0,0,1-11.28,7.34,14,14,0,0,1,6.5.15,28.22,28.22,0,0,1,6.39,3.33c1.16.77,2.34,1.51,3.54,2.24a8.46,8.46,0,0,0,2.21,1.06c.77.16,1.83-.29,3.15-1.35l.58.44-.29.25c-.58.44-1.15.89-1.74,1.33s-1.16,1-1.74,1.42c0,0-.17.13-.38.28a27.52,27.52,0,0,1-4.58-2.57c-2.46-1.64-4.33-2.88-5.68-3.66a21.09,21.09,0,0,0-4-1.82,8.91,8.91,0,0,0-3.93-.44,12,12,0,0,0-4.07,1.55l-.47-.56q3.12-1.68,6.09-3.5a8,8,0,0,1-.2-6.39,7.31,7.31,0,0,1,3.56-3.89,6.2,6.2,0,0,1,4.88-.58,5.35,5.35,0,0,1,3.2,3l.16-.14.8-.71a3.53,3.53,0,0,0,1.16-1.54,1,1,0,0,0-.07-.66l.36.08,1,.22c.16,0,.52.09,1.09.16l.26,0c-.36.27-1.06.86-2.15,1.76-.52.44-1.1.9-1.76,1.38l-.41.3c.08.16.12.26.13.28.22.54.46,1.09.7,1.63a7.76,7.76,0,0,0,5.54,4.85,5.58,5.58,0,0,0,4.58-1.18,6.48,6.48,0,0,0,2.64-4.18c.46-2.65-1.33-4.25-5.28-5.06-1.72-.36-4.92-.86-9.57-1.86-1.75-.37-3.5-.78-5.23-1.23a34,34,0,0,1-3.57-1.13c-2.19-.82-3.57-1.68-4.14-2.51q1.62-2,3.17-3.94l.51.38-.16.25a7,7,0,0,0-.76,1.27,1.16,1.16,0,0,0,.27,1.38,7.14,7.14,0,0,0,2.44,1.29,61.35,61.35,0,0,0,8.52,2.32c4.31.89,7.33,1.36,9,1.72,5,1,7.32,2.95,6.81,6.26a8.17,8.17,0,0,1-3.36,5.21,9.4,9.4,0,0,1-8,1.68,8.07,8.07,0,0,1-3.59-1.7,11.75,11.75,0,0,1-2.63-3.78c-.07-.14-.13-.28-.19-.43m-.38-.82a8.89,8.89,0,0,0-1.3-2.35,3.4,3.4,0,0,0-1.58-1.09,3.86,3.86,0,0,0-3,.22,4.18,4.18,0,0,0-2.07,2.36c-.57,1.5-.35,3.44.77,5.79q3.72-2.37,7.18-4.93" transform="translate(-491.32 -72.52)"/><path class="cls-14" d="M1230,291.66l.35.47a17.93,17.93,0,0,1-6.44,1.61c.24-1.15,1.4-3,3.32-5.72a26.72,26.72,0,0,1-6.2,3.71,9.9,9.9,0,0,1-4.93,1A1.29,1.29,0,0,1,1215,291c.36-1.7,1.69-3.37,3.88-5.08a27.16,27.16,0,0,1,7.58-4.09,24.52,24.52,0,0,1,9.25-1.65c.42,0,.63.15.62.43a3.32,3.32,0,0,1-.67,1.29,20.28,20.28,0,0,0-2.61-.3,17.26,17.26,0,0,0-11,3.14c-2.5,1.7-4,3.46-4.37,5.4-.17.91.16,1.42,1,1.55a6.15,6.15,0,0,0,3.31-1.07,17.75,17.75,0,0,0,4-3,14.9,14.9,0,0,0,3.47-5.39,1.65,1.65,0,0,1,.7,1.71c-.11,1.11-.89,2.35-2.41,3.68a12,12,0,0,0,2.52-.3l-.2.28c-1.57,2.35-2.43,3.72-2.47,4.13s.13.5.52.51a6.36,6.36,0,0,0,2-.55" transform="translate(-491.32 -72.52)"/><path class="cls-14" d="M1242.29,277.22c-.39,1-.78,2.06-1.19,3.08,3.37-.05,5.1,1,5.16,3.33a8.6,8.6,0,0,1-1.12,4.16,12.71,12.71,0,0,1-3.22,3.91c-2,1.6-3.71,2.37-5.18,2.35-.89,0-1.31-.33-1.26-.91a1.38,1.38,0,0,1,.33-.79,4,4,0,0,0,1.84.61,5.28,5.28,0,0,0,3.83-1.82,10.75,10.75,0,0,0,2.08-3.05,7.32,7.32,0,0,0,.81-3.09c0-2-1.38-2.94-4.08-2.91l-.21.43c-1.92,4.13-3.34,6.75-4,7.94q-3.28,6-7.13,11.75-.23.38-.48.75a15,15,0,0,1-2.37.39l-.4,0,.37-.51a98.07,98.07,0,0,0,9.32-15.61l.21-.46.23,0a2.71,2.71,0,0,0,1.63-.8,18.49,18.49,0,0,0,1.81-3.23c.11-.22.22-.45.32-.67l-.52,0c-1,0-2,0-2.95.13-.4.79-.81,1.57-1.23,2.35l-.55-.23c.67-1.28,1.32-2.56,2-3.86l.33,0,1.62-.07,1.83-.06.32,0c.42-1,.84-2,1.24-3.06h.64" transform="translate(-491.32 -72.52)"/><path class="cls-14" d="M1257.58,285.78a1.64,1.64,0,0,1,.37.82c.11,1.1-.7,2.5-2.51,4.15-2.64,2.41-5.06,3.65-7,3.77-1.73.11-2.58-.63-2.58-2.16a10.59,10.59,0,0,1,1.86-5.54,19,19,0,0,1,4.6-5.07,13.54,13.54,0,0,1,6-3c1-.15,1.61.1,1.69.76a2.7,2.7,0,0,1-.57,1.69,8.22,8.22,0,0,1-1.75,1.92,13,13,0,0,1-2.66,1.59,8.44,8.44,0,0,1-2.56.83,1.3,1.3,0,0,1-1.4-.78,10,10,0,0,0,1.39,0,7.27,7.27,0,0,0,3.72-1.4c1.1-.8,1.59-1.59,1.51-2.36-.06-.55-.5-.76-1.33-.66a7.37,7.37,0,0,0-4.41,2.84,17,17,0,0,0-2.6,4.09,9.44,9.44,0,0,0-1,4c0,1.19.66,1.75,1.91,1.66a6.84,6.84,0,0,0,4.15-2.16,13.76,13.76,0,0,0,3.21-5" transform="translate(-491.32 -72.52)"/><path class="cls-14" d="M1271.36,276.46l-.36,1.88a8.16,8.16,0,0,0-1.37.18c-1.55.36-3,1.71-4.5,4.08a20.32,20.32,0,0,0-1.76,3.56c-.48,1.25-1,3.12-1.74,5.62l-.18.62c-.93.3-1.82.63-2.67,1,.07-.18.14-.37.2-.55.53-1.43,1-2.86,1.51-4.29,1.35-4.14,1.85-6.56,1.76-7.24a.47.47,0,0,0-.62-.44,5.12,5.12,0,0,0-1.3.68L1260,281a27,27,0,0,0,4.65-3.45,1.91,1.91,0,0,1,.17.55,12.38,12.38,0,0,1-.71,4.64l.42-.56c2.73-3.51,4.58-5.45,5.86-5.76a2.57,2.57,0,0,1,1,0" transform="translate(-491.32 -72.52)"/><path class="cls-3" d="M789.83,503.19a5.29,5.29,0,0,0,.81.08c7.05,0,12.77-11.44,12.77-25.55s-5.72-25.55-12.77-25.55a6.94,6.94,0,0,0-.81.08V436.57c.24,0,.48-.07.73-.07,11.38,0,20.61,18.45,20.61,41.22s-9.23,41.22-20.61,41.22c-.25,0-.49-.05-.73-.07Z" transform="translate(-491.32 -72.52)"/><path class="cls-18" d="M799.72,449.38c-1.47,1.47-4.52.79-6.82-1.51s-3-5.35-1.51-6.82,4.53-.8,6.83,1.5,3,5.36,1.5,6.83" transform="translate(-491.32 -72.52)"/><path class="cls-19" d="M809.16,489.86a20.68,20.68,0,0,1-3.37,8.2c-3.79,5.4-10.29,11.87-15.15,11.87a5.43,5.43,0,0,1-.81-.09,5.58,5.58,0,0,1-.81.09c-5.68,0-12.28-5.05-15.8-11.83a21.08,21.08,0,0,1-1.79-5.26l-2.86-13.43c.86,23.07,9.71,41.22,20.52,41.22.25,0,.49-.06.74-.08s.48.08.73.08c10.81,0,19.66-18.15,20.52-41.22Z" transform="translate(-491.32 -72.52)"/></g></g></svg>