<?xml version="1.0" encoding="UTF-8" standalone="no"?><!DOCTYPE svg PUBLIC "-//W3C//DTD SVG 1.1//EN" "http://www.w3.org/Graphics/SVG/1.1/DTD/svg11.dtd"><svg width="100%" height="100%" viewBox="0 0 1920 600" version="1.1" xmlns="http://www.w3.org/2000/svg" xmlns:xlink="http://www.w3.org/1999/xlink" xml:space="preserve" xmlns:serif="http://www.serif.com/" style="fill-rule:evenodd;clip-rule:evenodd;stroke-linejoin:round;stroke-miterlimit:2;"><path d="M966.56,68.32c466.2,-0 842.58,216.72 952.6,412.81l-0,-501.47l-1920,0l-0,515.34c86.33,-210.92 477.84,-426.68 967.4,-426.68Z" style="fill-rule:nonzero;"/><path d="M887,0l149.23,0c10.604,0 19.33,8.726 19.33,19.33l0,63.67c0,23.073 -18.987,42.06 -42.06,42.06l-122.33,0c-15.591,-0 -28.42,-12.829 -28.42,-28.42l0,-72.39c0,-13.303 10.947,-24.25 24.25,-24.25Z" style="fill:#666;fill-rule:nonzero;"/><path d="M828.3,127.17l-125,18c-14.72,2.12 -28.27,-8.78 -30.27,-24.35l-9.18,-71.71c-1.7,-13.27 7.09,-25.48 19.63,-27.29l150.2,-21.63c10,-1.44 19.23,6 20.58,16.56l8.08,63.1c2.95,23 -12.29,44.15 -34.04,47.32Z" style="fill:#666;fill-rule:nonzero;"/><path d="M1090,127.74l125,18c14.72,2.12 28.28,-8.78 30.27,-24.35l9.18,-71.71c1.7,-13.27 -7.08,-25.48 -19.63,-27.29l-150.24,-21.63c-10,-1.44 -19.22,6 -20.58,16.56l-8.08,63.1c-2.92,23 12.29,44.18 34.08,47.32Z" style="fill:#666;fill-rule:nonzero;"/><path d="M1284.1,155.78l67.68,9.76c14.71,2.12 28.27,-8.78 30.26,-24.35l9.18,-71.71c1.7,-13.27 -7.08,-25.48 -19.62,-27.29l-92.89,-13.39c-10,-1.44 -19.22,6 -20.58,16.56l-8.08,63.1c-2.94,23 12.29,44.18 34.05,47.32Z" style="fill:#666;fill-rule:nonzero;"/><path d="M636.34,149.89l-123,30.72c-14.42,3.6 -28.87,-5.87 -32.26,-21.16l-15.57,-70.45c-2.89,-13 4.73,-26.08 17,-29.15l147.68,-36.85c9.81,-2.45 19.63,4 21.94,14.39l13.74,62c5.02,22.54 -8.2,45.17 -29.53,50.5Z" style="fill:#666;fill-rule:nonzero;"/><path d="M453.37,204.94l-64.52,24.28c-14,5.25 -29.31,-2.5 -34.25,-17.3l-22.78,-68.21c-4.22,-12.62 2,-26.47 13.92,-30.95l88.44,-33.27c9.49,-3.57 19.92,1.69 23.29,11.76l20,60c7.35,21.9 -3.47,45.93 -24.1,53.69Z" style="fill:#666;fill-rule:nonzero;"/><path d="M1415.22,181.7l119.91,42.17c14.07,4.95 29.25,-3.13 33.91,-18l21.45,-68.7c4,-12.71 -2.53,-26.42 -14.52,-30.63l-143.97,-50.69c-9.57,-3.36 -19.89,2.13 -23.06,12.27l-18.94,60.45c-6.84,22.04 4.43,45.82 25.22,53.13Z" style="fill:#666;fill-rule:nonzero;"/><path d="M329.61,256.59l-113.06,59.89c-13.25,7 -29.35,1.31 -36,-12.75l-30.41,-64.73c-5.64,-12 -1,-26.53 10.24,-32.51l135.75,-71.91c9,-4.78 20,-0.9 24.46,8.66l26.79,57c9.77,20.76 1.82,45.97 -17.77,56.35Z" style="fill:#666;fill-rule:nonzero;"/><path d="M1591.64,251.51l59.36,36.35c12.82,7.85 29.23,3.19 36.63,-10.41l34.09,-62.67c6.31,-11.59 2.56,-26.42 -8.37,-33.12l-81.35,-49.8c-8.72,-5.34 -19.88,-2.17 -24.91,7.08l-30,55.13c-10.9,20.12 -4.41,45.82 14.55,57.44Z" style="fill:#666;fill-rule:nonzero;"/><path d="M1705.27,314l52.41,46.82c11.33,10.12 28.25,8.58 37.78,-3.44l43.91,-55.35c8.075,-10.313 6.861,-25.283 -2.77,-34.16l-71.8,-64.15c-3.221,-2.925 -7.42,-4.547 -11.771,-4.547c-5.455,0 -10.609,2.55 -13.919,6.887l-38.63,48.7c-14.1,17.8 -11.95,44.32 4.79,59.24Z" style="fill:#666;fill-rule:nonzero;"/><path d="M1790.35,410.35l70.8,111.12c8.29,13 25,16.43 37.23,7.63l56.47,-40.52c10.45,-7.51 13.2,-22.57 6.13,-33.66l-85,-133.41c-5.64,-8.85 -17,-11.18 -25.32,-5.19l-49.66,35.68c-18.14,13 -22.9,39.11 -10.65,58.35Z" style="fill:#666;fill-rule:nonzero;"/><path d="M174.92,350.38l-50.57,49.05c-4.819,4.77 -11.333,7.448 -18.114,7.448c-7.634,0 -14.887,-3.395 -19.776,-9.258l-46,-53.42c-8.427,-9.996 -7.784,-24.964 1.47,-34.2l69.29,-67.2c3.279,-3.257 7.718,-5.087 12.34,-5.087c5.187,0 10.115,2.305 13.44,6.287l40.46,47c14.75,17.13 13.62,43.71 -2.54,59.38Z" style="fill:#666;fill-rule:nonzero;"/><path d="M100.45,456.07l-70.79,111.12c-8.3,13 -25,16.43 -37.24,7.63l-56.42,-40.52c-10.46,-7.5 -13.2,-22.57 -6.14,-33.66l85,-133.41c5.64,-8.85 17,-11.17 25.32,-5.19l49.67,35.65c18.15,13.01 22.86,39.14 10.6,58.38Z" style="fill:#666;fill-rule:nonzero;"/><path d="M541.13,44.55l-127.9,3.1c-15,0.36 -26.85,-11.94 -26.49,-27.47l1.67,-71.53c0.31,-13.23 10.92,-24.21 23.69,-24.52l153.58,-3.72c10.19,-0.24 18.26,8.12 18,18.68l-1.46,62.91c-0.53,23 -18.92,42 -41.09,42.55Z" style="fill:#666;fill-rule:nonzero;"/><path d="M342.2,44.55l-127.9,3.1c-15,0.36 -26.85,-11.94 -26.49,-27.47l1.67,-71.53c0.31,-13.23 10.92,-24.21 23.7,-24.52l153.57,-3.72c10.19,-0.24 18.26,8.12 18,18.68l-1.46,62.91c-0.53,23 -18.92,42 -41.09,42.55Z" style="fill:#666;fill-rule:nonzero;"/><path d="M144.64,44.55l-127.9,3.1c-14.99,0.35 -26.85,-11.94 -26.49,-27.47l1.67,-71.53c0.31,-13.23 10.91,-24.21 23.69,-24.52l153.58,-3.72c10.19,-0.24 18.26,8.12 18,18.68l-1.46,62.91c-0.54,23 -18.93,42 -41.09,42.55Z" style="fill:#666;fill-rule:nonzero;"/><path d="M231.07,171.8l-127.91,3.09c-15,0.36 -26.85,-11.93 -26.49,-27.46l1.67,-71.53c0.31,-13.24 10.92,-24.21 23.7,-24.52l153.57,-3.72c10.19,-0.25 18.26,8.12 18,18.67l-1.47,62.94c-0.52,22.95 -18.91,41.99 -41.07,42.53Z" style="fill:#666;fill-rule:nonzero;"/><path d="M34.1,171.8l-127.9,3.09c-15,0.36 -26.85,-11.93 -26.49,-27.46l1.67,-71.53c0.31,-13.24 10.91,-24.21 23.69,-24.52l153.58,-3.72c10.19,-0.25 18.26,8.12 18,18.67l-1.47,62.94c-0.53,22.95 -18.92,41.99 -41.08,42.53Z" style="fill:#666;fill-rule:nonzero;"/><path d="M1497.35,38.88l-127.9,3.12c-15,0.36 -26.85,-11.94 -26.49,-27.46l1.67,-71.54c0.31,-13.23 10.92,-24.21 23.69,-24.52l153.58,-3.71c10.19,-0.25 18.26,8.11 18,18.67l-1.47,62.94c-0.53,22.93 -18.92,41.97 -41.08,42.5Z" style="fill:#666;fill-rule:nonzero;"/><path d="M1696.57,38.88l-127.9,3.12c-15,0.36 -26.86,-11.94 -26.49,-27.46l1.67,-71.54c0.31,-13.23 10.91,-24.21 23.69,-24.52l153.57,-3.71c10.2,-0.25 18.26,8.11 18,18.67l-1.47,62.94c-0.52,22.93 -18.91,41.97 -41.07,42.5Z" style="fill:#666;fill-rule:nonzero;"/><path d="M1890.85,38.88l-127.85,3.12c-15,0.36 -26.85,-11.94 -26.49,-27.46l1.62,-71.54c0.31,-13.23 10.92,-24.21 23.69,-24.52l153.58,-3.71c10.19,-0.25 18.26,8.11 18,18.67l-1.47,62.94c-0.52,22.93 -18.93,41.97 -41.08,42.5Z" style="fill:#666;fill-rule:nonzero;"/><path d="M1831.55,165.73l-127.9,3.1c-15,0.36 -26.85,-11.94 -26.49,-27.47l1.67,-71.53c0.31,-13.23 10.91,-24.21 23.69,-24.52l153.57,-3.72c10.2,-0.24 18.26,8.12 18,18.68l-1.47,62.93c-0.52,22.96 -18.91,41.99 -41.07,42.53Z" style="fill:#666;fill-rule:nonzero;"/><path d="M2028.51,158.73l-127.9,3.1c-15,0.36 -26.85,-11.94 -26.49,-27.47l1.67,-71.53c0.31,-13.23 10.92,-24.21 23.69,-24.52l153.58,-3.72c10.19,-0.24 18.26,8.12 18,18.68l-1.47,62.93c-0.53,22.96 -18.92,41.99 -41.08,42.53Z" style="fill:#666;fill-rule:nonzero;"/><path d="M72.89,255.39l-70.42,1.37c-15.21,0.3 -27.19,-7.57 -26.74,-17.57l2.08,-46c0.39,-8.53 11.19,-15.63 24.19,-15.89l96.48,-1.87c10.35,-0.2 18.49,5.15 18.19,11.95l-1.83,40.48c-0.68,14.78 -19.45,27.14 -41.95,27.53Z" style="fill:#666;fill-rule:nonzero;"/><path d="M-23.12,382.44l-70.42,2.1c-0.339,0.013 -0.677,0.02 -1.016,0.02c-14.132,0 -25.76,-11.628 -25.76,-25.76c-0,-0.387 0.009,-0.774 0.026,-1.16l2.09,-70.45c0.501,-13.097 11.105,-23.745 24.2,-24.3l96.46,-2.89c0.233,-0.009 0.465,-0.014 0.698,-0.014c9.6,0 17.5,7.9 17.5,17.5c0,0.265 -0.006,0.53 -0.018,0.794l-1.83,62c-0.67,22.63 -19.43,41.5 -41.93,42.16Z" style="fill:#666;fill-rule:nonzero;"/><path d="M352.31,107.75l-47.84,1.08c-10.34,0.23 -18.48,-6 -18.17,-13.86l1.41,-36.29c0.26,-6.72 7.61,-12.32 16.43,-12.52l65.55,-1.47c7,-0.16 12.57,4.06 12.36,9.42l-1.25,31.89c-0.45,11.69 -13.2,21.4 -28.49,21.75Z" style="fill:#666;fill-rule:nonzero;"/><path d="M1906.11,245.77l-70.42,1.36c-15.22,0.3 -27.19,-7.57 -26.74,-17.56l2.08,-46c0.39,-8.52 11.21,-15.62 24.18,-15.87l96.48,-1.88c10.35,-0.2 18.49,5.15 18.19,11.95l-1.83,40.49c-0.67,14.74 -19.44,27.07 -41.94,27.51Z" style="fill:#666;fill-rule:nonzero;"/><path d="M1631.37,100.54l-59.72,1c-12.91,0.21 -23.07,-5.36 -22.68,-12.43l1.76,-32.56c0.33,-6 9.51,-11.06 20.51,-11.23l81.82,-1.32c8.77,-0.14 15.68,3.64 15.42,8.45l-1.55,28.65c-0.57,10.41 -16.48,19.13 -35.56,19.44Z" style="fill:#666;fill-rule:nonzero;"/><path d="M1300.91,21.46l-59.72,1c-12.91,0.21 -23.07,-5.36 -22.68,-12.43l1.76,-32.56c0.33,-6 9.51,-11 20.51,-11.23l81.82,-1.33c8.77,-0.14 15.68,3.65 15.42,8.46l-1.55,28.63c-0.57,10.44 -16.47,19.16 -35.56,19.46Z" style="fill:#666;fill-rule:nonzero;"/><path d="M680.19,21.46l-59.72,1c-12.9,0.21 -23.06,-5.36 -22.68,-12.43l1.77,-32.56c0.32,-6 9.5,-11 20.5,-11.23l81.82,-1.33c8.78,-0.14 15.69,3.65 15.43,8.46l-1.56,28.63c-0.56,10.44 -16.48,19.16 -35.56,19.46Z" style="fill:#666;fill-rule:nonzero;"/><path d="M1911.15,311.37l-47.85,1.08c-10.34,0.23 -18.48,-6 -18.17,-13.85l1.41,-36.3c0.26,-6.71 7.62,-12.32 16.43,-12.51l65.55,-1.48c7,-0.16 12.57,4.06 12.36,9.42l-1.24,31.93c-0.46,11.65 -13.21,21.34 -28.49,21.71Z" style="fill:#666;fill-rule:nonzero;"/><path d="M887.85,0l149.23,0c10.604,0 19.33,8.726 19.33,19.33l0,26.47c0,23.073 -18.987,42.06 -42.06,42.06l-122.35,0c-15.583,-0.011 -28.4,-12.837 -28.4,-28.42l0,-35.19c0,-13.303 10.947,-24.25 24.25,-24.25Z" style="fill:#333;fill-rule:nonzero;"/><path d="M1093.54,89.75l125,17.84c14.72,2.1 28,-6.44 29.55,-19.07l6.94,-43.61c1.36,-10.76 -7.7,-20.93 -20.25,-22.72l-150.2,-21.43c-10,-1.43 -19,4.38 -20.09,13l-6.07,36.64c-2.35,18.6 13.37,36.25 35.12,39.35Z" style="fill:#333;fill-rule:nonzero;"/><path d="M1288.8,121.19l67.7,9.6c14.72,2.09 27.8,-5.32 29.21,-16.55l6.46,-51.72c1.2,-9.57 -8,-18.76 -20.55,-20.54l-92.91,-13.18c-10,-1.42 -18.9,3.62 -19.86,11.25l-5.69,45.51c-2.07,16.6 13.84,32.54 35.64,35.63Z" style="fill:#333;fill-rule:nonzero;"/><path d="M1426.25,148.41l120.12,41.59c14.09,4.87 28.17,0.11 31.44,-10.63l15.09,-49.49c2.79,-9.16 -4.68,-19.94 -16.69,-24.1l-144.21,-49.93c-9.58,-3.31 -19.16,-0.08 -21.38,7.23l-13.28,43.54c-4.87,15.88 8.09,34.59 28.91,41.79Z" style="fill:#333;fill-rule:nonzero;"/><path d="M1610.41,219l59.6,35.87c12.88,7.75 27.43,6.31 32.48,-3.23l23.28,-43.95c4.31,-8.13 -1.1,-20.07 -12.08,-26.68l-81.69,-49.15c-8.76,-5.28 -18.65,-4.29 -22.09,2.2l-20.48,38.66c-7.43,14.1 1.94,34.81 20.98,46.28Z" style="fill:#333;fill-rule:nonzero;"/><path d="M1732.37,281.85l52.87,46.28c11.42,10 25.68,11.63 31.83,3.63l28.31,-36.82c5.23,-6.82 1.59,-19.25 -8.15,-27.77l-72.43,-63.41c-7.77,-6.81 -17.46,-7.91 -21.64,-2.48l-24.91,32.4c-9.09,11.83 -2.77,33.38 14.12,48.17Z" style="fill:#333;fill-rule:nonzero;"/><path d="M1824.87,387.56l71.83,110.44c8.41,12.94 21.67,18.66 29.61,12.78l36.53,-27c6.77,-5 6.44,-18 -0.73,-29l-86.24,-132.57c-5.72,-8.79 -14.73,-12.69 -20.13,-8.69l-32.14,23.79c-11.74,8.61 -11.17,31.13 1.27,50.25Z" style="fill:#333;fill-rule:nonzero;"/><path d="M1909.58,291l-47.85,0.72c-10.34,0.16 -18.48,-4 -18.17,-9.31l1.44,-24.41c0.26,-4.52 7.62,-8.28 16.43,-8.42l65.55,-1c7,-0.11 12.57,2.73 12.36,6.33l-1.25,21.48c-0.48,7.79 -13.23,14.32 -28.51,14.61Z" style="fill:#333;fill-rule:nonzero;"/><path d="M1906.11,207.18l-70.42,0.68c-15.22,0.15 -27.19,-3.78 -26.74,-8.78l2.08,-23c0.39,-4.26 11.21,-7.81 24.18,-7.94l96.48,-0.93c10.35,-0.1 18.49,2.57 18.19,6l-1.83,20.24c-0.67,7.35 -19.44,13.55 -41.94,13.73Z" style="fill:#333;fill-rule:nonzero;"/><path d="M1831.55,107l-127.9,1.8c-15,0.21 -26.85,-6.92 -26.49,-15.91l1.67,-41.42c0.31,-7.67 10.91,-14 23.69,-14.2l153.57,-2.15c10.2,-0.15 18.26,4.7 18,10.81l-1.47,36.45c-0.52,13.32 -18.91,24.34 -41.07,24.62Z" style="fill:#333;fill-rule:nonzero;"/><path d="M2028.51,81.35l-127.9,1.25c-15,0.15 -26.85,-4.83 -26.49,-11.12l1.67,-29c0.31,-5.36 10.92,-9.8 23.69,-9.92l153.58,-1.51c10.19,-0.1 18.26,3.29 18,7.56l-1.47,25.48c-0.53,9.33 -18.92,17.04 -41.08,17.26Z" style="fill:#333;fill-rule:nonzero;"/><path d="M1694.4,11.92l-127.9,2.42c-15,0.29 -26.85,-9.34 -26.49,-21.5l1.67,-56c0.31,-10.36 10.92,-18.95 23.69,-19.19l153.63,-2.9c10.19,-0.2 18.26,6.35 18,14.61l-1.47,49.27c-0.53,17.97 -18.96,32.87 -41.13,33.29Z" style="fill:#333;fill-rule:nonzero;"/><path d="M1634.13,71.54l-59.72,0.44c-12.91,0.1 -23.06,-2.48 -22.68,-5.75l1.76,-15.07c0.33,-2.79 9.51,-5.11 20.51,-5.2l81.82,-0.61c8.78,-0.07 15.68,1.69 15.42,3.91l-1.55,13.26c-0.57,4.84 -16.48,8.87 -35.56,9.02Z" style="fill:#333;fill-rule:nonzero;"/><path d="M1303.67,0l-59.67,0.58c-12.91,0.12 -23.06,-3.2 -22.68,-7.41l1.68,-19.41c0.33,-3.59 9.51,-6.59 20.51,-6.7l81.82,-0.79c8.78,-0.08 15.68,2.18 15.42,5l-1.55,17.08c-0.54,6.27 -16.45,11.47 -35.53,11.65Z" style="fill:#333;fill-rule:nonzero;"/><path d="M821.52,88.36l-125.06,17.71c-14.73,2.09 -27.75,-4.9 -29.08,-15.6l-6.13,-49.28c-1.14,-9.12 8.11,-17.94 20.65,-19.72l150.28,-21.28c10.01,-1.42 18.82,3.33 19.82,10.61l5.4,43.37c1.92,15.83 -14.12,31.11 -35.88,34.19Z" style="fill:#333;fill-rule:nonzero;"/><path d="M627.36,111.72l-123.08,30.19c-14.44,3.54 -28,-2.11 -30.25,-12.61l-10.43,-48.41c-1.93,-9 6.48,-18.66 18.78,-21.68l147.81,-36.21c9.82,-2.41 19,1.43 20.57,8.57l9.18,42.59c3.35,15.49 -11.23,32.32 -32.58,37.56Z" style="fill:#333;fill-rule:nonzero;"/><path d="M436.82,158.24l-64.7,23.76c-14,5.14 -27.7,2 -30.57,-6.91l-13.23,-41.27c-2.45,-7.63 5.24,-17.37 17.17,-21.76l88.69,-32.59c9.52,-3.47 18.82,-1.38 20.82,4.71l11.64,36.31c4.21,13.25 -9.12,30.14 -29.82,37.75Z" style="fill:#333;fill-rule:nonzero;"/><path d="M312.34,221.32l-113.49,59c-13.3,6.91 -27.69,4.64 -32.14,-5.09l-20.5,-44.81c-3.79,-8.3 2.32,-19.79 13.66,-25.69l136.26,-70.87c9.05,-4.71 18.84,-3.16 21.86,3.46l18,39.42c6.62,14.41 -3.99,34.35 -23.65,44.58Z" style="fill:#333;fill-rule:nonzero;"/><path d="M144,313.77l-51.07,48.47c-11,10.48 -25,13 -31.1,5.62l-28.21,-34c-5.22,-6.29 -1.83,-18.62 7.59,-27.54l70,-66.41c7.51,-7.12 17,-8.83 21.15,-3.82l24.83,29.91c9.06,10.91 3.17,32.29 -13.19,47.77Z" style="fill:#333;fill-rule:nonzero;"/><path d="M60.66,429.17l-72,110.32c-8.43,12.92 -21.18,19 -28.47,13.55l-33.57,-25c-6.21,-4.64 -5.43,-17.31 1.76,-28.33l86.44,-132.48c5.73,-8.79 14.4,-12.92 19.36,-9.22l29.53,22c10.78,8.07 9.41,30.06 -3.05,49.16Z" style="fill:#333;fill-rule:nonzero;"/><path d="M540.45,19.74l-127.9,2.49c-15,0.29 -26.85,-9.61 -26.49,-22.11l1.67,-57.58c0.31,-10.66 10.91,-19.49 23.69,-19.74l153.58,-3c10.19,-0.2 18.26,6.53 18,15l-1.46,50.7c-0.54,18.5 -18.93,33.81 -41.09,34.24Z" style="fill:#333;fill-rule:nonzero;"/><path d="M341.52,12l-127.9,2.3c-15,0.27 -26.85,-8.87 -26.49,-20.4l1.67,-53.15c0.31,-9.84 10.91,-18 23.69,-18.22l153.58,-2.76c10.19,-0.19 18.26,6 18,13.87l-1.47,46.76c-0.53,17.1 -18.92,31.24 -41.08,31.6Z" style="fill:#333;fill-rule:nonzero;"/><path d="M144,-1.39l-127.94,1.97c-14.99,0.23 -26.85,-7.58 -26.49,-17.44l1.67,-45.41c0.31,-8.4 10.91,-15.37 23.69,-15.56l153.57,-2.36c10.2,-0.16 18.26,5.15 18,11.85l-1.47,40c-0.52,14.53 -18.91,26.61 -41.03,26.95Z" style="fill:#333;fill-rule:nonzero;"/><path d="M231.07,109.72l-127.91,1.55c-15,0.18 -26.85,-6 -26.49,-13.73l1.67,-35.76c0.31,-6.62 10.92,-12.11 23.7,-12.26l153.57,-1.86c10.19,-0.13 18.26,4.06 18,9.33l-1.47,31.47c-0.52,11.48 -18.91,21 -41.07,21.26Z" style="fill:#333;fill-rule:nonzero;"/><path d="M34.1,109.72l-127.9,1.55c-15,0.18 -26.85,-6 -26.49,-13.73l1.67,-35.76c0.31,-6.62 10.91,-12.11 23.69,-12.26l153.58,-1.86c10.19,-0.13 18.26,4.06 18,9.33l-1.46,31.47c-0.54,11.48 -18.93,21 -41.09,21.26Z" style="fill:#333;fill-rule:nonzero;"/><path d="M72.89,215.37l-70.42,0.72c-15.21,0.16 -27.19,-4 -26.74,-9.35l2.08,-24.49c0.39,-4.54 11.19,-8.32 24.19,-8.45l96.48,-1c10.35,-0.11 18.49,2.74 18.19,6.36l-1.83,21.55c-0.68,7.86 -19.45,14.42 -41.95,14.66Z" style="fill:#333;fill-rule:nonzero;"/><path d="M-23.12,344.85l-70.42,1.45c-15.22,0.31 -27.2,-8 -26.75,-18.64l2.09,-48.81c0.38,-9 11.2,-16.57 24.17,-16.84l96.49,-2c10.35,-0.21 18.49,5.47 18.18,12.67l-1.83,42.95c-0.67,15.68 -19.43,28.75 -41.93,29.22Z" style="fill:#333;fill-rule:nonzero;"/><path d="M352.31,87.13l-47.84,0.73c-10.34,0.16 -18.48,-4 -18.17,-9.33l1.41,-24.43c0.26,-4.52 7.61,-8.29 16.43,-8.42l65.55,-1c7,-0.1 12.57,2.74 12.36,6.34l-1.25,21.5c-0.45,7.84 -13.2,14.38 -28.49,14.61Z" style="fill:#333;fill-rule:nonzero;"/><path d="M680.19,0l-59.72,0.6c-12.9,0.13 -23.06,-3.33 -22.68,-7.71l1.77,-20.2c0.32,-3.74 9.5,-6.85 20.5,-7l81.82,-0.82c8.78,-0.09 15.69,2.26 15.43,5.25l-1.56,17.78c-0.56,6.48 -16.48,11.89 -35.56,12.1Z" style="fill:#333;fill-rule:nonzero;"/><path d="M1140.77,-1.17l-87.68,1c-19,0.21 -33.87,-5.35 -33.31,-12.43l2.59,-32.56c0.48,-6 14,-11 30.11,-11.23l120.14,-1.32c12.88,-0.15 23,3.64 22.64,8.45l-2.26,28.61c-0.85,10.45 -24.22,19.17 -52.23,19.48Z" style="fill:#666;fill-rule:nonzero;"/><path d="M241.53,233.25c-0.884,1.55 -1.929,3.001 -3.12,4.33c-1.154,1.301 -2.386,2.53 -3.69,3.68c-1.301,1.152 -2.674,2.221 -4.11,3.2c-1.463,1.019 -3.033,1.877 -4.68,2.56c0.882,-1.551 1.928,-3.003 3.12,-4.33c1.151,-1.303 2.384,-2.532 3.69,-3.68c1.306,-1.146 2.678,-2.215 4.11,-3.2c1.468,-1.012 3.036,-1.869 4.68,-2.56Z" style="fill:#1a1a1a;fill-rule:nonzero;"/><path d="M329.29,230.35c-0.886,1.548 -1.936,2.996 -3.13,4.32c-1.148,1.306 -2.377,2.539 -3.68,3.69c-1.302,1.155 -2.679,2.224 -4.12,3.2c-1.463,1.019 -3.032,1.878 -4.68,2.56c0.884,-1.55 1.929,-3.001 3.12,-4.33c1.151,-1.303 2.384,-2.532 3.69,-3.68c1.302,-1.155 2.679,-2.224 4.12,-3.2c1.465,-1.017 3.033,-1.875 4.68,-2.56Z" style="fill:#1a1a1a;fill-rule:nonzero;"/><path d="M288.44,195c-1.553,-0.872 -3.011,-1.904 -4.35,-3.08c-1.313,-1.143 -2.555,-2.366 -3.72,-3.66c-1.17,-1.286 -2.252,-2.649 -3.24,-4.08c-1.034,-1.45 -1.906,-3.01 -2.6,-4.65c1.555,0.866 3.013,1.895 4.35,3.07c2.642,2.284 4.992,4.883 7,7.74c1.013,1.46 1.87,3.022 2.56,4.66Z" style="fill:#1a1a1a;fill-rule:nonzero;"/><path d="M525.41,127.17c-0.886,1.545 -1.932,2.993 -3.12,4.32c-1.151,1.303 -2.384,2.532 -3.69,3.68c-1.303,1.153 -2.676,2.225 -4.11,3.21c-1.468,1.014 -3.041,1.869 -4.69,2.55c0.886,-1.545 1.932,-2.993 3.12,-4.32c2.309,-2.607 4.933,-4.918 7.81,-6.88c1.462,-1.021 3.032,-1.879 4.68,-2.56Z" style="fill:#1a1a1a;fill-rule:nonzero;"/><path d="M613.16,124.26c-0.883,1.547 -1.929,2.996 -3.12,4.32c-2.305,2.61 -4.925,4.925 -7.8,6.89c-1.465,1.017 -3.033,1.875 -4.68,2.56c0.88,-1.552 1.926,-3.004 3.12,-4.33c1.151,-1.303 2.384,-2.532 3.69,-3.68c1.302,-1.155 2.679,-2.224 4.12,-3.2c1.461,-1.017 3.027,-1.875 4.67,-2.56Z" style="fill:#1a1a1a;fill-rule:nonzero;"/><path d="M572.32,88.88c-1.545,-0.871 -2.993,-1.903 -4.32,-3.08c-1.315,-1.137 -2.558,-2.356 -3.72,-3.65c-1.181,-1.29 -2.277,-2.657 -3.28,-4.09c-1.035,-1.451 -1.91,-3.01 -2.61,-4.65c1.562,0.863 3.025,1.896 4.36,3.08c1.315,1.137 2.558,2.356 3.72,3.65c1.164,1.292 2.243,2.658 3.23,4.09c1.037,1.452 1.915,3.011 2.62,4.65Z" style="fill:#1a1a1a;fill-rule:nonzero;"/><path d="M105.41,117.17c-0.886,1.545 -1.932,2.993 -3.12,4.32c-1.151,1.303 -2.384,2.532 -3.69,3.68c-1.303,1.153 -2.676,2.225 -4.11,3.21c-1.468,1.014 -3.041,1.869 -4.69,2.55c0.886,-1.545 1.932,-2.993 3.12,-4.32c2.309,-2.607 4.933,-4.918 7.81,-6.88c1.462,-1.021 3.032,-1.879 4.68,-2.56Z" style="fill:#1a1a1a;fill-rule:nonzero;"/><path d="M193.16,114.26c-0.883,1.547 -1.929,2.996 -3.12,4.32c-2.305,2.61 -4.925,4.925 -7.8,6.89c-1.465,1.017 -3.033,1.875 -4.68,2.56c0.88,-1.552 1.926,-3.004 3.12,-4.33c1.151,-1.303 2.384,-2.532 3.69,-3.68c1.302,-1.155 2.679,-2.224 4.12,-3.2c1.461,-1.017 3.027,-1.875 4.67,-2.56Z" style="fill:#1a1a1a;fill-rule:nonzero;"/><path d="M152.32,78.88c-1.545,-0.871 -2.993,-1.903 -4.32,-3.08c-1.315,-1.137 -2.558,-2.356 -3.72,-3.65c-1.181,-1.29 -2.277,-2.657 -3.28,-4.09c-1.035,-1.451 -1.91,-3.01 -2.61,-4.65c1.562,0.863 3.025,1.896 4.36,3.08c1.315,1.137 2.558,2.356 3.72,3.65c1.164,1.292 2.243,2.658 3.23,4.09c1.037,1.452 1.915,3.011 2.62,4.65Z" style="fill:#1a1a1a;fill-rule:nonzero;"/><path d="M435.41,17.17c-0.886,1.545 -1.932,2.993 -3.12,4.32c-1.151,1.303 -2.384,2.532 -3.69,3.68c-1.303,1.153 -2.676,2.225 -4.11,3.21c-1.468,1.014 -3.041,1.869 -4.69,2.55c0.886,-1.545 1.932,-2.993 3.12,-4.32c2.309,-2.607 4.933,-4.918 7.81,-6.88c1.462,-1.021 3.032,-1.879 4.68,-2.56Z" style="fill:#1a1a1a;fill-rule:nonzero;"/><path d="M523.16,14.26c-0.895,1.549 -1.955,2.998 -3.16,4.32c-1.149,1.309 -2.381,2.541 -3.69,3.69c-1.299,1.155 -2.672,2.224 -4.11,3.2c-1.453,1.004 -3.009,1.852 -4.64,2.53c0.88,-1.552 1.926,-3.004 3.12,-4.33c1.152,-1.3 2.384,-2.525 3.69,-3.67c1.302,-1.155 2.679,-2.224 4.12,-3.2c1.462,-1.01 3.027,-1.862 4.67,-2.54Z" style="fill:#1a1a1a;fill-rule:nonzero;"/><path d="M53.16,64.26c-0.895,1.549 -1.955,2.998 -3.16,4.32c-2.305,2.61 -4.925,4.925 -7.8,6.89c-1.453,1.004 -3.009,1.852 -4.64,2.53c0.88,-1.552 1.926,-3.004 3.12,-4.33c1.152,-1.3 2.384,-2.525 3.69,-3.67c1.302,-1.155 2.679,-2.224 4.12,-3.2c1.462,-1.01 3.027,-1.862 4.67,-2.54Z" style="fill:#1a1a1a;fill-rule:nonzero;"/><path d="M12.32,28.88c-1.545,-0.871 -2.993,-1.903 -4.32,-3.08c-1.315,-1.137 -2.558,-2.356 -3.72,-3.65c-1.181,-1.29 -2.277,-2.657 -3.28,-4.09c-1.032,-1.452 -1.904,-3.011 -2.6,-4.65c1.562,0.863 3.025,1.896 4.36,3.08c1.315,1.137 2.558,2.356 3.72,3.65c1.164,1.292 2.243,2.658 3.23,4.09c1.033,1.453 1.908,3.011 2.61,4.65Z" style="fill:#1a1a1a;fill-rule:nonzero;"/><path d="M5.41,277.17c-0.886,1.545 -1.932,2.993 -3.12,4.32c-1.151,1.303 -2.384,2.532 -3.69,3.68c-1.303,1.153 -2.676,2.225 -4.11,3.21c-1.468,1.014 -3.041,1.869 -4.69,2.55c0.886,-1.545 1.932,-2.993 3.12,-4.32c2.309,-2.607 4.933,-4.918 7.81,-6.88c1.462,-1.021 3.032,-1.879 4.68,-2.56Z" style="fill:#1a1a1a;fill-rule:nonzero;"/><path d="M93.16,274.26c-0.895,1.549 -1.955,2.998 -3.16,4.32c-2.305,2.61 -4.925,4.925 -7.8,6.89c-1.453,1.004 -3.009,1.852 -4.64,2.53c0.88,-1.552 1.926,-3.004 3.12,-4.33c1.152,-1.3 2.384,-2.525 3.69,-3.67c1.302,-1.155 2.679,-2.224 4.12,-3.2c1.462,-1.01 3.027,-1.862 4.67,-2.54Z" style="fill:#1a1a1a;fill-rule:nonzero;"/><path d="M52.32,238.88c-1.545,-0.871 -2.993,-1.903 -4.32,-3.08c-1.315,-1.137 -2.558,-2.356 -3.72,-3.65c-1.181,-1.29 -2.277,-2.657 -3.28,-4.09c-1.035,-1.451 -1.91,-3.01 -2.61,-4.65c1.562,0.863 3.025,1.896 4.36,3.08c1.315,1.137 2.558,2.356 3.72,3.65c1.164,1.292 2.243,2.658 3.23,4.09c1.037,1.452 1.915,3.011 2.62,4.65Z" style="fill:#1a1a1a;fill-rule:nonzero;"/><path d="M25.41,387.17c-0.886,1.545 -1.932,2.993 -3.12,4.32c-1.151,1.303 -2.384,2.532 -3.69,3.68c-1.303,1.153 -2.676,2.225 -4.11,3.21c-1.468,1.014 -3.041,1.869 -4.69,2.55c0.886,-1.545 1.932,-2.993 3.12,-4.32c2.309,-2.607 4.933,-4.918 7.81,-6.88c1.462,-1.021 3.032,-1.879 4.68,-2.56Z" style="fill:#1a1a1a;fill-rule:nonzero;"/><path d="M113.16,384.26c-0.883,1.547 -1.929,2.996 -3.12,4.32c-2.305,2.61 -4.925,4.925 -7.8,6.89c-1.466,1.007 -3.035,1.855 -4.68,2.53c0.88,-1.552 1.926,-3.004 3.12,-4.33c1.151,-1.303 2.384,-2.532 3.69,-3.68c1.302,-1.155 2.679,-2.224 4.12,-3.2c1.462,-1.007 3.028,-1.855 4.67,-2.53Z" style="fill:#1a1a1a;fill-rule:nonzero;"/><path d="M72.32,348.88c-1.545,-0.871 -2.993,-1.903 -4.32,-3.08c-1.315,-1.137 -2.558,-2.356 -3.72,-3.65c-1.181,-1.29 -2.277,-2.657 -3.28,-4.09c-1.035,-1.451 -1.91,-3.01 -2.61,-4.65c1.562,0.863 3.025,1.896 4.36,3.08c1.315,1.137 2.558,2.356 3.72,3.65c1.164,1.292 2.243,2.658 3.23,4.09c1.037,1.452 1.915,3.011 2.62,4.65Z" style="fill:#1a1a1a;fill-rule:nonzero;"/><path d="M435.41,147.17c-0.886,1.545 -1.932,2.993 -3.12,4.32c-1.151,1.303 -2.384,2.532 -3.69,3.68c-1.303,1.153 -2.676,2.225 -4.11,3.21c-1.468,1.014 -3.041,1.869 -4.69,2.55c0.886,-1.545 1.932,-2.993 3.12,-4.32c2.309,-2.607 4.933,-4.918 7.81,-6.88c1.462,-1.021 3.032,-1.879 4.68,-2.56Z" style="fill:#1a1a1a;fill-rule:nonzero;"/><path d="M523.16,144.26c-0.883,1.547 -1.929,2.996 -3.12,4.32c-2.305,2.61 -4.925,4.925 -7.8,6.89c-1.465,1.017 -3.033,1.875 -4.68,2.56c0.88,-1.552 1.926,-3.004 3.12,-4.33c1.151,-1.303 2.384,-2.532 3.69,-3.68c1.302,-1.155 2.679,-2.224 4.12,-3.2c1.461,-1.017 3.027,-1.875 4.67,-2.56Z" style="fill:#1a1a1a;fill-rule:nonzero;"/><path d="M482.32,108.88c-1.545,-0.871 -2.993,-1.903 -4.32,-3.08c-1.315,-1.137 -2.558,-2.356 -3.72,-3.65c-1.181,-1.29 -2.277,-2.657 -3.28,-4.09c-1.035,-1.451 -1.91,-3.01 -2.61,-4.65c1.562,0.863 3.025,1.896 4.36,3.08c1.315,1.137 2.558,2.356 3.72,3.65c1.164,1.292 2.243,2.658 3.23,4.09c1.037,1.452 1.915,3.011 2.62,4.65Z" style="fill:#1a1a1a;fill-rule:nonzero;"/><path d="M315.41,197.17c-0.886,1.545 -1.932,2.993 -3.12,4.32c-1.151,1.303 -2.384,2.532 -3.69,3.68c-1.303,1.153 -2.676,2.225 -4.11,3.21c-1.468,1.014 -3.041,1.869 -4.69,2.55c0.886,-1.545 1.932,-2.993 3.12,-4.32c2.309,-2.607 4.933,-4.918 7.81,-6.88c1.462,-1.021 3.032,-1.879 4.68,-2.56Z" style="fill:#1a1a1a;fill-rule:nonzero;"/><path d="M403.16,194.26c-0.883,1.547 -1.929,2.996 -3.12,4.32c-2.305,2.61 -4.925,4.925 -7.8,6.89c-1.465,1.017 -3.033,1.875 -4.68,2.56c0.88,-1.552 1.926,-3.004 3.12,-4.33c1.151,-1.303 2.384,-2.532 3.69,-3.68c1.302,-1.155 2.679,-2.224 4.12,-3.2c1.461,-1.017 3.027,-1.875 4.67,-2.56Z" style="fill:#1a1a1a;fill-rule:nonzero;"/><path d="M362.32,158.88c-1.545,-0.871 -2.993,-1.903 -4.32,-3.08c-1.315,-1.137 -2.558,-2.356 -3.72,-3.65c-1.168,-1.292 -2.25,-2.658 -3.24,-4.09c-1.035,-1.451 -1.91,-3.01 -2.61,-4.65c1.562,0.863 3.025,1.896 4.36,3.08c1.315,1.137 2.558,2.356 3.72,3.65c1.164,1.292 2.243,2.658 3.23,4.09c1.023,1.454 1.888,3.013 2.58,4.65Z" style="fill:#1a1a1a;fill-rule:nonzero;"/><path d="M845.41,77.17c-0.886,1.545 -1.932,2.993 -3.12,4.32c-1.151,1.303 -2.384,2.532 -3.69,3.68c-1.303,1.153 -2.676,2.225 -4.11,3.21c-1.468,1.014 -3.041,1.869 -4.69,2.55c0.886,-1.545 1.932,-2.993 3.12,-4.32c2.309,-2.607 4.933,-4.918 7.81,-6.88c1.462,-1.021 3.032,-1.879 4.68,-2.56Z" style="fill:#1a1a1a;fill-rule:nonzero;"/><path d="M933.16,74.26c-0.895,1.549 -1.955,2.998 -3.16,4.32c-2.305,2.61 -4.925,4.925 -7.8,6.89c-1.453,1.004 -3.009,1.852 -4.64,2.53c0.88,-1.552 1.926,-3.004 3.12,-4.33c1.152,-1.3 2.384,-2.525 3.69,-3.67c1.302,-1.155 2.679,-2.224 4.12,-3.2c1.462,-1.01 3.027,-1.862 4.67,-2.54Z" style="fill:#1a1a1a;fill-rule:nonzero;"/><path d="M892.32,38.88c-1.545,-0.871 -2.993,-1.903 -4.32,-3.08c-1.315,-1.137 -2.558,-2.356 -3.72,-3.65c-1.181,-1.29 -2.277,-2.657 -3.28,-4.09c-1.035,-1.451 -1.91,-3.01 -2.61,-4.65c1.562,0.863 3.025,1.896 4.36,3.08c1.315,1.137 2.558,2.356 3.72,3.65c1.164,1.292 2.243,2.658 3.23,4.09c1.037,1.452 1.915,3.011 2.62,4.65Z" style="fill:#1a1a1a;fill-rule:nonzero;"/><path d="M725.41,17.17c-0.886,1.545 -1.932,2.993 -3.12,4.32c-1.151,1.303 -2.384,2.532 -3.69,3.68c-1.303,1.153 -2.676,2.225 -4.11,3.21c-1.468,1.014 -3.041,1.869 -4.69,2.55c0.886,-1.545 1.932,-2.993 3.12,-4.32c2.309,-2.607 4.933,-4.918 7.81,-6.88c1.462,-1.021 3.032,-1.879 4.68,-2.56Z" style="fill:#1a1a1a;fill-rule:nonzero;"/><path d="M813.16,14.26c-0.895,1.549 -1.955,2.998 -3.16,4.32c-1.149,1.309 -2.381,2.541 -3.69,3.69c-1.299,1.155 -2.672,2.224 -4.11,3.2c-1.453,1.004 -3.009,1.852 -4.64,2.53c0.88,-1.552 1.926,-3.004 3.12,-4.33c1.152,-1.3 2.384,-2.525 3.69,-3.67c1.302,-1.155 2.679,-2.224 4.12,-3.2c1.462,-1.01 3.027,-1.862 4.67,-2.54Z" style="fill:#1a1a1a;fill-rule:nonzero;"/><path d="M615.41,57.17c-0.886,1.545 -1.932,2.993 -3.12,4.32c-1.151,1.303 -2.384,2.532 -3.69,3.68c-1.303,1.153 -2.676,2.225 -4.11,3.21c-1.468,1.014 -3.041,1.869 -4.69,2.55c0.886,-1.545 1.932,-2.993 3.12,-4.32c2.309,-2.607 4.933,-4.918 7.81,-6.88c1.462,-1.021 3.032,-1.879 4.68,-2.56Z" style="fill:#1a1a1a;fill-rule:nonzero;"/><path d="M703.16,54.26c-0.895,1.549 -1.955,2.998 -3.16,4.32c-2.305,2.61 -4.925,4.925 -7.8,6.89c-1.453,1.004 -3.009,1.852 -4.64,2.53c0.88,-1.552 1.926,-3.004 3.12,-4.33c1.152,-1.3 2.384,-2.525 3.69,-3.67c1.302,-1.155 2.679,-2.224 4.12,-3.2c1.462,-1.01 3.027,-1.862 4.67,-2.54Z" style="fill:#1a1a1a;fill-rule:nonzero;"/><path d="M662.32,18.88c-1.545,-0.871 -2.993,-1.903 -4.32,-3.08c-1.315,-1.137 -2.558,-2.356 -3.72,-3.65c-1.181,-1.29 -2.277,-2.657 -3.28,-4.09c-1.035,-1.451 -1.91,-3.01 -2.61,-4.65c1.562,0.863 3.025,1.896 4.36,3.08c1.315,1.137 2.558,2.356 3.72,3.65c1.164,1.292 2.243,2.658 3.23,4.09c1.037,1.452 1.915,3.011 2.62,4.65Z" style="fill:#1a1a1a;fill-rule:nonzero;"/><path d="M245.41,67.17c-0.886,1.545 -1.932,2.993 -3.12,4.32c-1.151,1.303 -2.384,2.532 -3.69,3.68c-1.303,1.153 -2.676,2.225 -4.11,3.21c-1.468,1.014 -3.041,1.869 -4.69,2.55c0.886,-1.545 1.932,-2.993 3.12,-4.32c2.309,-2.607 4.933,-4.918 7.81,-6.88c1.462,-1.021 3.032,-1.879 4.68,-2.56Z" style="fill:#1a1a1a;fill-rule:nonzero;"/><path d="M333.16,64.26c-0.895,1.549 -1.955,2.998 -3.16,4.32c-2.305,2.61 -4.925,4.925 -7.8,6.89c-1.453,1.004 -3.009,1.852 -4.64,2.53c0.88,-1.552 1.926,-3.004 3.12,-4.33c1.152,-1.3 2.384,-2.525 3.69,-3.67c1.302,-1.155 2.679,-2.224 4.12,-3.2c1.462,-1.01 3.027,-1.862 4.67,-2.54Z" style="fill:#1a1a1a;fill-rule:nonzero;"/><path d="M292.32,28.88c-1.545,-0.871 -2.993,-1.903 -4.32,-3.08c-1.315,-1.137 -2.558,-2.356 -3.72,-3.65c-1.181,-1.29 -2.277,-2.657 -3.28,-4.09c-1.035,-1.451 -1.91,-3.01 -2.61,-4.65c1.562,0.863 3.025,1.896 4.36,3.08c1.315,1.137 2.558,2.356 3.72,3.65c1.164,1.292 2.243,2.658 3.23,4.09c1.037,1.452 1.915,3.011 2.62,4.65Z" style="fill:#1a1a1a;fill-rule:nonzero;"/><path d="M1017.05,15c-0.886,1.545 -1.932,2.993 -3.12,4.32c-1.154,1.304 -2.386,2.536 -3.69,3.69c-1.301,1.152 -2.674,2.221 -4.11,3.2c-1.466,1.015 -3.034,1.873 -4.68,2.56c0.877,-1.554 1.923,-3.006 3.12,-4.33c1.146,-1.308 2.379,-2.537 3.69,-3.68c1.301,-1.152 2.674,-2.221 4.11,-3.2c1.466,-1.015 3.034,-1.873 4.68,-2.56Z" style="fill:#1a1a1a;fill-rule:nonzero;"/><path d="M1104.81,12.11c-0.886,1.551 -1.935,3.002 -3.13,4.33c-1.148,1.303 -2.377,2.532 -3.68,3.68c-1.302,1.155 -2.679,2.224 -4.12,3.2c-1.462,1.021 -3.032,1.879 -4.68,2.56c0.88,-1.552 1.926,-3.004 3.12,-4.33c2.309,-2.607 4.933,-4.918 7.81,-6.88c1.465,-1.017 3.033,-1.875 4.68,-2.56Z" style="fill:#1a1a1a;fill-rule:nonzero;"/><path d="M1097.05,95c-0.886,1.545 -1.932,2.993 -3.12,4.32c-1.154,1.304 -2.386,2.536 -3.69,3.69c-1.301,1.152 -2.674,2.221 -4.11,3.2c-1.466,1.015 -3.034,1.873 -4.68,2.56c0.877,-1.554 1.923,-3.006 3.12,-4.33c1.146,-1.308 2.379,-2.537 3.69,-3.68c1.301,-1.152 2.674,-2.221 4.11,-3.2c1.466,-1.015 3.034,-1.873 4.68,-2.56Z" style="fill:#1a1a1a;fill-rule:nonzero;"/><path d="M1184.81,92.11c-0.886,1.551 -1.935,3.002 -3.13,4.33c-1.148,1.303 -2.377,2.532 -3.68,3.68c-1.302,1.155 -2.679,2.224 -4.12,3.2c-1.462,1.021 -3.032,1.879 -4.68,2.56c0.88,-1.552 1.926,-3.004 3.12,-4.33c2.309,-2.607 4.933,-4.918 7.81,-6.88c1.465,-1.017 3.033,-1.875 4.68,-2.56Z" style="fill:#1a1a1a;fill-rule:nonzero;"/><path d="M1144,56.73c-1.556,-0.869 -3.014,-1.901 -4.35,-3.08c-2.644,-2.277 -4.996,-4.873 -7,-7.73c-1.034,-1.454 -1.906,-3.017 -2.6,-4.66c1.556,0.869 3.014,1.901 4.35,3.08c2.648,2.277 4.999,4.877 7,7.74c1.026,1.455 1.898,3.014 2.6,4.65Z" style="fill:#1a1a1a;fill-rule:nonzero;"/><path d="M1347.05,75c-0.886,1.545 -1.932,2.993 -3.12,4.32c-1.154,1.304 -2.386,2.536 -3.69,3.69c-1.301,1.152 -2.674,2.221 -4.11,3.2c-1.466,1.015 -3.034,1.873 -4.68,2.56c0.877,-1.554 1.923,-3.006 3.12,-4.33c1.146,-1.308 2.379,-2.537 3.69,-3.68c1.301,-1.152 2.674,-2.221 4.11,-3.2c1.466,-1.015 3.034,-1.873 4.68,-2.56Z" style="fill:#1a1a1a;fill-rule:nonzero;"/><path d="M1434.81,72.11c-0.886,1.551 -1.935,3.002 -3.13,4.33c-1.148,1.303 -2.377,2.532 -3.68,3.68c-1.302,1.155 -2.679,2.224 -4.12,3.2c-1.462,1.021 -3.032,1.879 -4.68,2.56c0.88,-1.552 1.926,-3.004 3.12,-4.33c2.309,-2.607 4.933,-4.918 7.81,-6.88c1.465,-1.017 3.033,-1.875 4.68,-2.56Z" style="fill:#1a1a1a;fill-rule:nonzero;"/><path d="M1394,36.73c-1.556,-0.869 -3.014,-1.901 -4.35,-3.08c-1.315,-1.137 -2.558,-2.356 -3.72,-3.65c-1.165,-1.29 -2.247,-2.653 -3.24,-4.08c-1.034,-1.454 -1.906,-3.017 -2.6,-4.66c1.556,0.869 3.014,1.901 4.35,3.08c2.648,2.277 4.999,4.877 7,7.74c1.012,1.457 1.87,3.015 2.56,4.65Z" style="fill:#1a1a1a;fill-rule:nonzero;"/><path d="M1457.05,165c-0.886,1.545 -1.932,2.993 -3.12,4.32c-1.154,1.304 -2.386,2.536 -3.69,3.69c-1.301,1.152 -2.674,2.221 -4.11,3.2c-1.466,1.015 -3.034,1.873 -4.68,2.56c0.877,-1.554 1.923,-3.006 3.12,-4.33c1.146,-1.308 2.379,-2.537 3.69,-3.68c1.301,-1.152 2.674,-2.221 4.11,-3.2c1.466,-1.015 3.034,-1.873 4.68,-2.56Z" style="fill:#1a1a1a;fill-rule:nonzero;"/><path d="M1544.81,162.11c-0.886,1.551 -1.935,3.002 -3.13,4.33c-1.148,1.303 -2.377,2.532 -3.68,3.68c-1.302,1.155 -2.679,2.224 -4.12,3.2c-1.462,1.021 -3.032,1.879 -4.68,2.56c0.88,-1.552 1.926,-3.004 3.12,-4.33c2.309,-2.607 4.933,-4.918 7.81,-6.88c1.465,-1.017 3.033,-1.875 4.68,-2.56Z" style="fill:#1a1a1a;fill-rule:nonzero;"/><path d="M1504,126.73c-1.556,-0.869 -3.014,-1.901 -4.35,-3.08c-2.644,-2.277 -4.996,-4.873 -7,-7.73c-1.034,-1.454 -1.906,-3.017 -2.6,-4.66c1.556,0.869 3.014,1.901 4.35,3.08c2.648,2.277 4.999,4.877 7,7.74c1.026,1.455 1.898,3.014 2.6,4.65Z" style="fill:#1a1a1a;fill-rule:nonzero;"/><path d="M1577.05,75c-0.886,1.545 -1.932,2.993 -3.12,4.32c-1.154,1.304 -2.386,2.536 -3.69,3.69c-1.301,1.152 -2.674,2.221 -4.11,3.2c-1.466,1.015 -3.034,1.873 -4.68,2.56c0.877,-1.554 1.923,-3.006 3.12,-4.33c1.146,-1.308 2.379,-2.537 3.69,-3.68c1.301,-1.152 2.674,-2.221 4.11,-3.2c1.466,-1.015 3.034,-1.873 4.68,-2.56Z" style="fill:#1a1a1a;fill-rule:nonzero;"/><path d="M1664.81,72.11c-0.886,1.551 -1.935,3.002 -3.13,4.33c-1.148,1.303 -2.377,2.532 -3.68,3.68c-1.302,1.155 -2.679,2.224 -4.12,3.2c-1.462,1.021 -3.032,1.879 -4.68,2.56c0.88,-1.552 1.926,-3.004 3.12,-4.33c2.309,-2.607 4.933,-4.918 7.81,-6.88c1.465,-1.017 3.033,-1.875 4.68,-2.56Z" style="fill:#1a1a1a;fill-rule:nonzero;"/><path d="M1624,36.73c-1.556,-0.869 -3.014,-1.901 -4.35,-3.08c-1.315,-1.137 -2.558,-2.356 -3.72,-3.65c-1.165,-1.29 -2.247,-2.653 -3.24,-4.08c-1.034,-1.454 -1.906,-3.017 -2.6,-4.66c1.556,0.869 3.014,1.901 4.35,3.08c2.648,2.277 4.999,4.877 7,7.74c1.012,1.457 1.87,3.015 2.56,4.65Z" style="fill:#1a1a1a;fill-rule:nonzero;"/><path d="M1757.05,125c-0.886,1.545 -1.932,2.993 -3.12,4.32c-1.154,1.304 -2.386,2.536 -3.69,3.69c-1.301,1.152 -2.674,2.221 -4.11,3.2c-1.466,1.015 -3.034,1.873 -4.68,2.56c0.877,-1.554 1.923,-3.006 3.12,-4.33c1.146,-1.308 2.379,-2.537 3.69,-3.68c1.301,-1.152 2.674,-2.221 4.11,-3.2c1.466,-1.015 3.034,-1.873 4.68,-2.56Z" style="fill:#1a1a1a;fill-rule:nonzero;"/><path d="M1844.81,122.11c-0.886,1.551 -1.935,3.002 -3.13,4.33c-1.148,1.303 -2.377,2.532 -3.68,3.68c-1.302,1.155 -2.679,2.224 -4.12,3.2c-1.462,1.021 -3.032,1.879 -4.68,2.56c0.88,-1.552 1.926,-3.004 3.12,-4.33c2.309,-2.607 4.933,-4.918 7.81,-6.88c1.465,-1.017 3.033,-1.875 4.68,-2.56Z" style="fill:#1a1a1a;fill-rule:nonzero;"/><path d="M1804,86.73c-1.556,-0.869 -3.014,-1.901 -4.35,-3.08c-2.644,-2.277 -4.996,-4.873 -7,-7.73c-1.034,-1.454 -1.906,-3.017 -2.6,-4.66c1.556,0.869 3.014,1.901 4.35,3.08c2.648,2.277 4.999,4.877 7,7.74c1.026,1.455 1.898,3.014 2.6,4.65Z" style="fill:#1a1a1a;fill-rule:nonzero;"/><path d="M1788.17,7.61c-0.886,1.548 -1.936,2.996 -3.13,4.32c-1.148,1.306 -2.377,2.539 -3.68,3.69c-1.302,1.155 -2.679,2.224 -4.12,3.2c-1.463,1.019 -3.032,1.878 -4.68,2.56c0.884,-1.55 1.929,-3.001 3.12,-4.33c1.151,-1.303 2.384,-2.532 3.69,-3.68c1.302,-1.155 2.679,-2.224 4.12,-3.2c1.465,-1.017 3.033,-1.875 4.68,-2.56Z" style="fill:#1a1a1a;fill-rule:nonzero;"/><path d="M1875.92,4.7c-0.884,1.54 -1.93,2.982 -3.12,4.3c-1.154,1.301 -2.386,2.53 -3.69,3.68c-1.301,1.152 -2.674,2.221 -4.11,3.2c-1.463,1.019 -3.033,1.877 -4.68,2.56c0.877,-1.554 1.923,-3.006 3.12,-4.33c1.151,-1.303 2.384,-2.532 3.69,-3.68c1.306,-1.146 2.678,-2.215 4.11,-3.2c1.467,-1.005 3.036,-1.853 4.68,-2.53Z" style="fill:#1a1a1a;fill-rule:nonzero;"/><path d="M1838.17,228.61c-0.886,1.548 -1.936,2.996 -3.13,4.32c-1.148,1.306 -2.377,2.539 -3.68,3.69c-1.302,1.155 -2.679,2.224 -4.12,3.2c-1.463,1.019 -3.032,1.878 -4.68,2.56c0.884,-1.55 1.929,-3.001 3.12,-4.33c1.151,-1.303 2.384,-2.532 3.69,-3.68c1.302,-1.155 2.679,-2.224 4.12,-3.2c1.465,-1.017 3.033,-1.875 4.68,-2.56Z" style="fill:#1a1a1a;fill-rule:nonzero;"/><path d="M1925.92,225.7c-0.883,1.551 -1.928,3.002 -3.12,4.33c-1.154,1.301 -2.386,2.53 -3.69,3.68c-1.301,1.152 -2.674,2.221 -4.11,3.2c-1.463,1.019 -3.033,1.877 -4.68,2.56c0.877,-1.554 1.923,-3.006 3.12,-4.33c1.151,-1.303 2.384,-2.532 3.69,-3.68c1.306,-1.146 2.678,-2.215 4.11,-3.2c1.466,-1.015 3.034,-1.873 4.68,-2.56Z" style="fill:#1a1a1a;fill-rule:nonzero;"/><path d="M1885.08,190.32c-1.556,-0.869 -3.014,-1.901 -4.35,-3.08c-1.319,-1.137 -2.565,-2.356 -3.73,-3.65c-1.162,-1.293 -2.244,-2.655 -3.24,-4.08c-1.026,-1.459 -1.898,-3.02 -2.6,-4.66c1.562,0.863 3.025,1.896 4.36,3.08c2.645,2.28 4.996,4.88 7,7.74c1.016,1.455 1.874,3.014 2.56,4.65Z" style="fill:#1a1a1a;fill-rule:nonzero;"/><path d="M1898.17,117.61c-0.886,1.548 -1.936,2.996 -3.13,4.32c-1.148,1.306 -2.377,2.539 -3.68,3.69c-1.302,1.155 -2.679,2.224 -4.12,3.2c-1.463,1.019 -3.032,1.878 -4.68,2.56c0.884,-1.55 1.929,-3.001 3.12,-4.33c1.151,-1.303 2.384,-2.532 3.69,-3.68c1.302,-1.155 2.679,-2.224 4.12,-3.2c1.465,-1.017 3.033,-1.875 4.68,-2.56Z" style="fill:#1a1a1a;fill-rule:nonzero;"/><path d="M1608.17,227.61c-0.886,1.548 -1.936,2.996 -3.13,4.32c-1.148,1.306 -2.377,2.539 -3.68,3.69c-1.302,1.155 -2.679,2.224 -4.12,3.2c-1.463,1.019 -3.032,1.878 -4.68,2.56c0.884,-1.55 1.929,-3.001 3.12,-4.33c1.151,-1.303 2.384,-2.532 3.69,-3.68c1.302,-1.155 2.679,-2.224 4.12,-3.2c1.465,-1.017 3.033,-1.875 4.68,-2.56Z" style="fill:#1a1a1a;fill-rule:nonzero;"/><path d="M1695.92,224.7c-0.883,1.551 -1.928,3.002 -3.12,4.33c-1.154,1.301 -2.386,2.53 -3.69,3.68c-1.301,1.152 -2.674,2.221 -4.11,3.2c-1.463,1.019 -3.033,1.877 -4.68,2.56c0.877,-1.554 1.923,-3.006 3.12,-4.33c1.151,-1.303 2.384,-2.532 3.69,-3.68c1.306,-1.146 2.678,-2.215 4.11,-3.2c1.466,-1.015 3.034,-1.873 4.68,-2.56Z" style="fill:#1a1a1a;fill-rule:nonzero;"/><path d="M1655.08,189.32c-1.556,-0.869 -3.014,-1.901 -4.35,-3.08c-1.319,-1.137 -2.565,-2.356 -3.73,-3.65c-1.162,-1.293 -2.244,-2.655 -3.24,-4.08c-1.026,-1.459 -1.898,-3.02 -2.6,-4.66c1.562,0.863 3.025,1.896 4.36,3.08c2.645,2.28 4.996,4.88 7,7.74c1.016,1.455 1.874,3.014 2.56,4.65Z" style="fill:#1a1a1a;fill-rule:nonzero;"/><path d="M1728.17,307.61c-0.886,1.548 -1.936,2.996 -3.13,4.32c-1.148,1.306 -2.377,2.539 -3.68,3.69c-1.302,1.155 -2.679,2.224 -4.12,3.2c-1.463,1.019 -3.032,1.878 -4.68,2.56c0.884,-1.55 1.929,-3.001 3.12,-4.33c1.151,-1.303 2.384,-2.532 3.69,-3.68c1.302,-1.155 2.679,-2.224 4.12,-3.2c1.465,-1.017 3.033,-1.875 4.68,-2.56Z" style="fill:#1a1a1a;fill-rule:nonzero;"/><path d="M1815.92,304.7c-0.883,1.551 -1.928,3.002 -3.12,4.33c-1.154,1.301 -2.386,2.53 -3.69,3.68c-1.301,1.152 -2.674,2.221 -4.11,3.2c-1.463,1.019 -3.033,1.877 -4.68,2.56c0.877,-1.554 1.923,-3.006 3.12,-4.33c1.151,-1.303 2.384,-2.532 3.69,-3.68c1.306,-1.146 2.678,-2.215 4.11,-3.2c1.466,-1.015 3.034,-1.873 4.68,-2.56Z" style="fill:#1a1a1a;fill-rule:nonzero;"/><path d="M1775.08,269.32c-1.556,-0.869 -3.014,-1.901 -4.35,-3.08c-1.319,-1.137 -2.565,-2.356 -3.73,-3.65c-1.162,-1.293 -2.244,-2.655 -3.24,-4.08c-1.026,-1.459 -1.898,-3.02 -2.6,-4.66c1.562,0.863 3.025,1.896 4.36,3.08c2.645,2.28 4.996,4.88 7,7.74c1.016,1.455 1.874,3.014 2.56,4.65Z" style="fill:#1a1a1a;fill-rule:nonzero;"/><path d="M1828.17,427.61c-0.886,1.548 -1.936,2.996 -3.13,4.32c-1.148,1.306 -2.377,2.539 -3.68,3.69c-1.302,1.155 -2.679,2.224 -4.12,3.2c-1.463,1.019 -3.032,1.878 -4.68,2.56c0.884,-1.55 1.929,-3.001 3.12,-4.33c1.151,-1.303 2.384,-2.532 3.69,-3.68c1.302,-1.155 2.679,-2.224 4.12,-3.2c1.465,-1.017 3.033,-1.875 4.68,-2.56Z" style="fill:#1a1a1a;fill-rule:nonzero;"/><path d="M1915.92,424.7c-0.883,1.551 -1.928,3.002 -3.12,4.33c-1.154,1.301 -2.386,2.53 -3.69,3.68c-1.301,1.152 -2.674,2.221 -4.11,3.2c-1.463,1.019 -3.033,1.877 -4.68,2.56c0.877,-1.554 1.923,-3.006 3.12,-4.33c1.151,-1.303 2.384,-2.532 3.69,-3.68c1.306,-1.146 2.678,-2.215 4.11,-3.2c1.466,-1.015 3.034,-1.873 4.68,-2.56Z" style="fill:#1a1a1a;fill-rule:nonzero;"/><path d="M1875.08,389.32c-1.556,-0.869 -3.014,-1.901 -4.35,-3.08c-1.319,-1.137 -2.565,-2.356 -3.73,-3.65c-1.162,-1.293 -2.244,-2.655 -3.24,-4.08c-1.026,-1.459 -1.898,-3.02 -2.6,-4.66c1.562,0.863 3.025,1.896 4.36,3.08c2.645,2.28 4.996,4.88 7,7.74c1.016,1.455 1.874,3.014 2.56,4.65Z" style="fill:#1a1a1a;fill-rule:nonzero;"/><path d="M1848.17,337.61c-0.886,1.548 -1.936,2.996 -3.13,4.32c-1.148,1.306 -2.377,2.539 -3.68,3.69c-1.302,1.155 -2.679,2.224 -4.12,3.2c-1.463,1.019 -3.032,1.878 -4.68,2.56c0.884,-1.55 1.929,-3.001 3.12,-4.33c1.151,-1.303 2.384,-2.532 3.69,-3.68c1.302,-1.155 2.679,-2.224 4.12,-3.2c1.465,-1.017 3.033,-1.875 4.68,-2.56Z" style="fill:#1a1a1a;fill-rule:nonzero;"/><path d="M1895.08,299.32c-1.556,-0.869 -3.014,-1.901 -4.35,-3.08c-1.319,-1.137 -2.565,-2.356 -3.73,-3.65c-1.162,-1.293 -2.244,-2.655 -3.24,-4.08c-1.026,-1.459 -1.898,-3.02 -2.6,-4.66c1.562,0.863 3.025,1.896 4.36,3.08c2.645,2.28 4.996,4.88 7,7.74c1.016,1.455 1.874,3.014 2.56,4.65Z" style="fill:#1a1a1a;fill-rule:nonzero;"/><path d="M1898.17,507.61c-0.886,1.548 -1.936,2.996 -3.13,4.32c-1.148,1.306 -2.377,2.539 -3.68,3.69c-1.302,1.155 -2.679,2.224 -4.12,3.2c-1.463,1.019 -3.032,1.878 -4.68,2.56c0.884,-1.55 1.929,-3.001 3.12,-4.33c1.151,-1.303 2.384,-2.532 3.69,-3.68c1.302,-1.155 2.679,-2.224 4.12,-3.2c1.465,-1.017 3.033,-1.875 4.68,-2.56Z" style="fill:#1a1a1a;fill-rule:nonzero;"/></svg>