<svg id="Ebene_1" data-name="Ebene 1" xmlns="http://www.w3.org/2000/svg" xmlns:xlink="http://www.w3.org/1999/xlink" viewBox="0 0 402.17 402.17"><defs><style>.cls-1{fill:url(#Unbenannter_Verlauf_13);}.cls-2{fill:#fff;stroke:#1d1d1b;stroke-miterlimit:10;}</style><radialGradient id="Unbenannter_Verlauf_13" cx="201.08" cy="201.08" r="201.08" gradientUnits="userSpaceOnUse"><stop offset="0" stop-color="#1d1d1b"/><stop offset="0.14" stop-color="#1d1d1b"/><stop offset="1" stop-color="#1d1d1b"/></radialGradient></defs><circle class="cls-1" cx="201.08" cy="201.08" r="201.08"/><path class="cls-2" d="M413.15,348.07c-1.78-6.49-12.37-8.77-17.43-9.85-35.72-7.67-78,17.3-111.83,54.54-31.76-48.49-33.28-95.49-43.54-93.95-8.14,1.22-12.5,31.63-10.61,58.35,1.92,27.14,10.54,53.91,22.68,77.84a248.46,248.46,0,0,0-15.1,29c-10.62,24.32-18.69,54.59-12.88,57.6s18.42-23.48,46.19-56.35c28.55,40.6,65.09,66.22,86.44,58.62,10.84-3.86,18-16.39,18.95-27.28,2.2-26-31.71-37.58-65.62-71.34C364.16,379.71,417.44,363.69,413.15,348.07Z" transform="translate(-96.42 -219.42)"/><path class="cls-2" d="M285.83,314.72c-6.52,1.8-9.55,11.75-9.86,18.19-.32,6.79,1.94,19.13,11.37,22,9.2,2.78,19.74-5.1,22-13.64C312.89,327.67,295.57,312,285.83,314.72Z" transform="translate(-96.42 -219.42)"/><path class="cls-2" d="M224.44,412.49c-11.17-.93-24.75,7.09-24.26,14.4.52,7.61,16.41,16.44,26.53,10.61,7.31-4.21,11-15.69,6.82-21.22C231.11,413.05,226.65,412.67,224.44,412.49Z" transform="translate(-96.42 -219.42)"/><path class="cls-2" d="M345.7,417c-7.38,0-17.2,2.91-17.43,6.82s9.85,9.62,19,8.34c7-1,14.28-6.17,13.64-9.86S351.17,417,345.7,417Z" transform="translate(-96.42 -219.42)"/><path class="cls-2" d="M270.67,476.91c-5.78-.39-13.07,9.13-11.37,17.43,2,9.76,15.79,14.84,20.46,11.37,4.16-3.08,1.33-13.12.76-15.16C280,488.78,276.79,477.32,270.67,476.91Z" transform="translate(-96.42 -219.42)"/></svg>