<svg id="Ebene_1" data-name="Ebene 1" xmlns="http://www.w3.org/2000/svg" xmlns:xlink="http://www.w3.org/1999/xlink" viewBox="0 0 403 403"><defs><style>.cls-1{fill:#f9b233;}.cls-2{fill:#1a9dd9;}.cls-3{fill:#be1823;}.cls-4{fill:#662483;}.cls-5{fill:url(#Unbenannter_Verlauf_44);}.cls-6{fill:url(#Unbenannter_Verlauf_26);}.cls-7{fill:#fff;}.cls-8{fill:url(#Unbenannter_Verlauf_33);}.cls-9{fill:url(#Unbenannter_Verlauf_22);}.cls-10{fill:url(#Unbenannter_Verlauf_66);}.cls-11{fill:#1d1d1b;stroke:#1d1d1b;stroke-miterlimit:10;}</style><linearGradient id="Unbenannter_Verlauf_44" x1="314.75" y1="509.58" x2="225.75" y2="509.58" gradientUnits="userSpaceOnUse"><stop offset="0" stop-color="#f9b233"/><stop offset="1" stop-color="#662483"/></linearGradient><linearGradient id="Unbenannter_Verlauf_26" x1="225.75" y1="264.58" x2="314.75" y2="264.58" gradientUnits="userSpaceOnUse"><stop offset="0" stop-color="#be1823"/><stop offset="0.12" stop-color="#b91c29"/><stop offset="0.27" stop-color="#aa2738"/><stop offset="0.44" stop-color="#933a52"/><stop offset="0.62" stop-color="#715577"/><stop offset="0.81" stop-color="#4776a5"/><stop offset="1" stop-color="#179cd9"/></linearGradient><linearGradient id="Unbenannter_Verlauf_33" x1="392.75" y1="431.58" x2="392.75" y2="342.58" gradientUnits="userSpaceOnUse"><stop offset="0" stop-color="#f9b233"/><stop offset="1" stop-color="#179cd9"/></linearGradient><linearGradient id="Unbenannter_Verlauf_22" x1="147.75" y1="431.58" x2="147.75" y2="342.58" gradientUnits="userSpaceOnUse"><stop offset="0" stop-color="#662483"/><stop offset="1" stop-color="#be1824"/></linearGradient><radialGradient id="Unbenannter_Verlauf_66" cx="201.34" cy="201.5" r="89.11" gradientUnits="userSpaceOnUse"><stop offset="0" stop-color="#fff"/><stop offset="0.37" stop-color="#fdfeff" stop-opacity="0.99"/><stop offset="0.51" stop-color="#f6fcfe" stop-opacity="0.97"/><stop offset="0.6" stop-color="#ebf7fd" stop-opacity="0.92"/><stop offset="0.68" stop-color="#daf1fb" stop-opacity="0.85"/><stop offset="0.75" stop-color="#c4e9f8" stop-opacity="0.77"/><stop offset="0.8" stop-color="#a8def5" stop-opacity="0.66"/><stop offset="0.86" stop-color="#88d2f2" stop-opacity="0.53"/><stop offset="0.91" stop-color="#62c4ee" stop-opacity="0.39"/><stop offset="0.95" stop-color="#37b4e9" stop-opacity="0.22"/><stop offset="0.99" stop-color="#09a2e4" stop-opacity="0.04"/><stop offset="1" stop-color="#009fe3" stop-opacity="0"/></radialGradient></defs><path class="cls-1" d="M313.75,583.66A202.8,202.8,0,0,0,466.84,430.58H313.75Z" transform="translate(-68.75 -185.58)"/><path class="cls-2" d="M313.75,190.5V343.58H466.84A202.77,202.77,0,0,0,313.75,190.5Z" transform="translate(-68.75 -185.58)"/><path class="cls-3" d="M226.75,190.5A202.76,202.76,0,0,0,73.66,343.58H226.75Z" transform="translate(-68.75 -185.58)"/><path class="cls-4" d="M226.75,583.66V430.58H73.66A202.79,202.79,0,0,0,226.75,583.66Z" transform="translate(-68.75 -185.58)"/><path class="cls-5" d="M225.75,583.66a203.7,203.7,0,0,0,89,0V430.58h-89Z" transform="translate(-68.75 -185.58)"/><path class="cls-6" d="M270.25,185.58a202.64,202.64,0,0,0-44.5,4.92V343.58h89V190.5A202.64,202.64,0,0,0,270.25,185.58Z" transform="translate(-68.75 -185.58)"/><rect class="cls-7" x="157" y="157" width="89" height="89"/><path class="cls-8" d="M466.84,342.58H313.75v89H466.84a204.11,204.11,0,0,0,0-89Z" transform="translate(-68.75 -185.58)"/><path class="cls-9" d="M73.66,342.58a204.11,204.11,0,0,0,0,89H226.75v-89Z" transform="translate(-68.75 -185.58)"/><circle class="cls-10" cx="201.34" cy="201.5" r="89.11"/><path id="Schrift" class="cls-11" d="M328.91,444.69c-1.46.56-5.74,3.24-4.55,21.95a223.17,223.17,0,0,1-45-60.77,125.45,125.45,0,0,0,37-24.38c1.08-17.47-2.43-23.15-6.06-25-9.24-4.63-21.19,14.92-40.46,27.28A198.21,198.21,0,0,1,260,344.41a196.17,196.17,0,0,1-1.93-22.06,100.52,100.52,0,0,0,29.93.11c28.57-4.17,37.28-17,46.54-11,16.26,10.57,1.26,57.83,8.33,59.79,2.9.8,7.64-6.58,12.11-15.14-6.56-48.27-16.9-60.85-25.74-62.44-6.5-1.16-8.65,4.26-26.86,10.22a135.12,135.12,0,0,1-40.87,6.43c-1.18,0-2.33,0-3.46,0a207.16,207.16,0,0,1,5.73-42.77,65.29,65.29,0,0,0-23.08-12.48c-14-4.18-30.34-3.64-31-.38-.46,2.13,5.52,6.48,34,16.27q2,20.36,4.22,38.87c-4.12-.33-8.57-.81-14.06-1.41-22.46-2.44-26.1-4.87-30.65-1.89-12.63,8.28-8.23,42.58-.37,44.27,5.76,1.25,7.1-16.44,23.46-26.11,8.08-4.78,14.93-4.7,23-3.64q4.92,38.07,11,67.83a51.65,51.65,0,0,1-18.14,4.31c-6.89.32-19.3-.52-42.38,1.13-14.18,1-15.75,1.78-15.9,2.65-.68,4.12,29.68,17.81,60.55,16.65a97.94,97.94,0,0,0,20.73-3q19.71,80.17,50,84.4,18.63,2.6,41.25-23.46C354,467.59,337.19,441.46,328.91,444.69Z" transform="translate(-68.75 -185.58)"/></svg>