<svg id="Ebene_1" data-name="Ebene 1" xmlns="http://www.w3.org/2000/svg" xmlns:xlink="http://www.w3.org/1999/xlink" viewBox="0 0 402.17 402.17"><defs><style>.cls-1{fill:url(#Unbenannter_Verlauf_3);}.cls-2{fill:url(#Unbenannter_Verlauf_4);}.cls-3{fill:#1d1d1b;stroke:#1d1d1b;stroke-miterlimit:10;}</style><radialGradient id="Unbenannter_Verlauf_3" cx="201.08" cy="201.08" r="201.08" gradientUnits="userSpaceOnUse"><stop offset="0" stop-color="#27348b"/><stop offset="0.11" stop-color="#2c3988"/><stop offset="0.25" stop-color="#3c467f"/><stop offset="0.4" stop-color="#565c70"/><stop offset="0.57" stop-color="#7a7b5b"/><stop offset="0.74" stop-color="#a8a241"/><stop offset="0.92" stop-color="#dfd121"/><stop offset="1" stop-color="#fcea10"/></radialGradient><radialGradient id="Unbenannter_Verlauf_4" cx="292.11" cy="410.04" r="143.19" gradientUnits="userSpaceOnUse"><stop offset="0" stop-color="#27348b"/><stop offset="0.39" stop-color="#29368a"/><stop offset="0.53" stop-color="#303b86"/><stop offset="0.62" stop-color="#3b467f"/><stop offset="0.71" stop-color="#4c5475"/><stop offset="0.77" stop-color="#626769"/><stop offset="0.83" stop-color="#7e7e59"/><stop offset="0.89" stop-color="#9e9a46"/><stop offset="0.94" stop-color="#c4ba30"/><stop offset="0.99" stop-color="#eddd19"/><stop offset="1" stop-color="#fcea10"/></radialGradient></defs><circle class="cls-1" cx="201.08" cy="201.08" r="201.08"/><path class="cls-2" d="M179,391c8.85-14,38.38-56.85,93-72,55.94-15.52,140.17-2.55,160,53,18,50.3-22.75,119-54,119-37.2-.05-38.68-97.55-97-114-54.71-15.43-137.66,46.62-133,91,6.51,62,186.18,110.61,218,68,39.46-52.85-156.26-235.64-129-264,18.39-19.13,137.52,32.7,137,94-.37,43.87-62,94.75-155,100" transform="translate(-96.42 -219.42)"/><path class="cls-3" d="M362.88,412c-11.67-9.86-37.51-2.37-64.44,10.94a204.28,204.28,0,0,1,.34-39.46c10.17-6.49,21.16-11.31,34-9.85,9.68,1.1,18.83,5.61,21.37,1.94,2.65-3.84-3.91-13.75-8.26-17.48-8.53-7.31-24.59-4.6-42.73,2.61a109.38,109.38,0,0,1,16-34.18c9.14-12.9,25-28.86,20.4-35.94-8.1-12.51-72.29,14.77-71.39,18,.56,2,25.61-10,35.93,0,9.85,9.56-4.79,28.46-14.8,58.28-20.31,9.83-41.46,23.3-56.59,33.51a30.72,30.72,0,0,0,13.12,7.28c13.11,3.34,24.69-4,36.73-12.68a135.35,135.35,0,0,0-.14,36.49c-36.64,20.68-70.47,47.94-68.16,52.44,1,2,9.28-.44,20.88-3.88,26-7.73,39.21-18.24,51.42-27,3.49,15.32,6.16,27.47-1.4,43.07-10.7,22.08-31.06,28.72-28.65,34,4.6,10.09,81.13-9.37,80.13-21.37-.35-4.3-10.61-7.21-22.82-9.23a414.16,414.16,0,0,1-12.92-55.63,65.74,65.74,0,0,1,19.72-6.53c25.08-4.26,42.78,5.3,48.07-3.89C372,427.56,368.91,417.07,362.88,412Z" transform="translate(-96.42 -219.42)"/></svg>