<svg id="Ebene_1" data-name="Ebene 1" xmlns="http://www.w3.org/2000/svg" xmlns:xlink="http://www.w3.org/1999/xlink" viewBox="0 0 402.17 402.17"><defs><style>.cls-1{fill:url(#Unbenannter_Verlauf_14);}.cls-2{fill:#009fe3;}.cls-3{fill:#0079ac;}.cls-4,.cls-5{fill:none;stroke-width:2px;}.cls-4{stroke:#b2b2b2;}.cls-4,.cls-5,.cls-7{stroke-miterlimit:10;}.cls-5{stroke:#838382;}.cls-6{fill:#838282;}.cls-7{fill:#1d1d1b;stroke:#1d1d1b;}</style><radialGradient id="Unbenannter_Verlauf_14" cx="201.08" cy="201.08" r="201.08" gradientUnits="userSpaceOnUse"><stop offset="0" stop-color="#fff"/><stop offset="1" stop-color="#be1622"/></radialGradient></defs><circle class="cls-1" cx="201.08" cy="201.08" r="201.08"/><g id="Schild"><path class="cls-2" d="M297.45,540.46c-19-22.8-56.69-64.25-78.35-139.79-7.52-26.22-3.52-90.55-3.52-102.38H379.31c0,24.17,4.51,72.33-2.24,97.41C355.93,474.2,316.49,516.23,297.45,540.46Z" transform="translate(-96.42 -219.42)"/><path class="cls-3" d="M297.65,298.29H215.58c0,11.83-4,76.16,3.52,102.38,21.66,75.54,59.38,117,78.35,139.79l.2-.25Z" transform="translate(-96.42 -219.42)"/><path class="cls-4" d="M215.68,298.29c-.2,22-4.65,77.39,4.52,105.83,22.1,68.53,59.2,115.56,77.34,136.34" transform="translate(-96.42 -219.42)"/><path class="cls-5" d="M379.62,298.29c.2,22,4.65,77.39-4.51,105.83C353,472.65,315.9,519.68,297.76,540.46" transform="translate(-96.42 -219.42)"/><path class="cls-6" d="M299,541.11c0,.71-.66.92-1.37.92s-1.26-.22-1.26-.93a1.31,1.31,0,0,1,1.31-1.29A1.33,1.33,0,0,1,299,541.11Z" transform="translate(-96.42 -219.42)"/><line class="cls-4" x1="117.72" y1="78.87" x2="284.72" y2="78.87"/></g><path class="cls-7" d="M174.57,369.51c1-5.6,69.21,23.45,158.4,2.27,34.48-8.19,60-21,75.79-7.58,16.44,14,13.9,49.36,4.54,53.05C406,420.13,399.06,402,378.44,393c-23.76-10.36-46.52-.23-65.18,4.55C244.7,415.11,173.58,375.27,174.57,369.51Z" transform="translate(-96.42 -219.42)"/><path class="cls-7" d="M245.81,453.63c4.9-10.41,30.69-5.71,84.12-3,21.26,1.06,38.82,1.4,50.78,1.52-.58,11.92-3.06,26-12.12,30.31-9.5,4.52-17.37-5.9-35.62-11.37-38.2-11.43-66.28,15.45-81.86,0C246.6,466.58,243.38,458.79,245.81,453.63Z" transform="translate(-96.42 -219.42)"/></svg>