<svg id="Ebene_1" data-name="Ebene 1" xmlns="http://www.w3.org/2000/svg" xmlns:xlink="http://www.w3.org/1999/xlink" viewBox="0 0 402.17 402.17"><defs><style>.cls-1{fill:url(#Unbenannter_Verlauf_2);}.cls-2{fill:#fff;}.cls-3{fill:#1d1d1b;stroke:#1d1d1b;stroke-miterlimit:10;}</style><radialGradient id="Unbenannter_Verlauf_2" cx="201.08" cy="201.08" r="201.08" gradientUnits="userSpaceOnUse"><stop offset="0" stop-color="#1d1d1b"/><stop offset="0.14" stop-color="#1c2020"/><stop offset="0.31" stop-color="#192a30"/><stop offset="0.5" stop-color="#153b4a"/><stop offset="0.71" stop-color="#0f526d"/><stop offset="0.92" stop-color="#076e9b"/><stop offset="1" stop-color="#047aad"/></radialGradient></defs><circle class="cls-1" cx="201.08" cy="201.08" r="201.08"/><path class="cls-2" d="M116.31,370.05a233.43,233.43,0,0,1,21.08-26.48,255.74,255.74,0,0,1,24.38-23.32,223,223,0,0,1,57.37-35.32A194.72,194.72,0,0,1,284.85,270a231.4,231.4,0,0,1,66.82,7,224.51,224.51,0,0,1,62,25.63,164,164,0,0,1,26.94,20.33A130.85,130.85,0,0,1,462.25,349a104.3,104.3,0,0,1,12.93,31.43A101.36,101.36,0,0,1,477,414.32,125.93,125.93,0,0,1,468.65,447a161.59,161.59,0,0,1-15.75,29.69,210.27,210.27,0,0,1-45.78,48.57,229.66,229.66,0,0,1-27.83,18.49A214.79,214.79,0,0,1,349,557.84a185.13,185.13,0,0,1-32.25,8.72,152.85,152.85,0,0,1-33.37,2.08,173.92,173.92,0,0,1-33-5.06,195.74,195.74,0,0,1-31.53-10.78c-5.07-2.27-10.07-4.71-14.93-7.41a161.62,161.62,0,0,1-14.15-8.84,130.57,130.57,0,0,1-13-10.46,86.36,86.36,0,0,1-11.12-12.5A52.79,52.79,0,0,1,158,498.67a35.06,35.06,0,0,1-1.17-16.74,43.21,43.21,0,0,1,6.53-15.44,69.22,69.22,0,0,1,11-12.57,101.82,101.82,0,0,1,13.2-10.13,146.08,146.08,0,0,1,14.43-8.26,196.85,196.85,0,0,1,30.87-12.09A255.3,255.3,0,0,1,265.07,416,308.05,308.05,0,0,1,298,412.26a310.07,310.07,0,0,0-32.87,4A253,253,0,0,0,233,424a196.74,196.74,0,0,0-30.64,12.33,144.65,144.65,0,0,0-14.24,8.33,100.18,100.18,0,0,0-13,10.14,67.73,67.73,0,0,0-10.65,12.42,41.85,41.85,0,0,0-6.16,14.94,33.35,33.35,0,0,0,1.27,15.95,51.09,51.09,0,0,0,7.56,14.34,83.35,83.35,0,0,0,11,12.1A129,129,0,0,0,191,534.76a160.7,160.7,0,0,0,14,8.58c4.83,2.61,9.78,5,14.81,7.17A194.68,194.68,0,0,0,251,560.85a172.13,172.13,0,0,0,32.46,4.67,150.53,150.53,0,0,0,32.62-2.34,182,182,0,0,0,31.54-8.86,210.58,210.58,0,0,0,29.62-14.06,225.79,225.79,0,0,0,27.14-18.4A205.74,205.74,0,0,0,448.73,474a156.73,156.73,0,0,0,15-28.89,120.17,120.17,0,0,0,7.71-31.36,95.86,95.86,0,0,0-2-32A98.84,98.84,0,0,0,457,352.32a124.43,124.43,0,0,0-20.78-24.58,157.32,157.32,0,0,0-26.05-19.26,217.56,217.56,0,0,0-60.24-24.23,223.71,223.71,0,0,0-64.6-6.12A186.48,186.48,0,0,0,222.55,293a214.11,214.11,0,0,0-54.73,34.41,246.45,246.45,0,0,0-23.25,22.68,222.74,222.74,0,0,0-19.93,25.5Z" transform="translate(-96.42 -219.42)"/><path class="cls-3" d="M337.53,306.33c-46.79-15.78-96.88,4.2-124.47,40.92-30.88,41.11-31.79,100.87-4,131.85,47.76,53.22,181.47,22.93,201.18-48.31C422.22,387.62,393.47,325.2,337.53,306.33Zm41.69,117C364.89,475.09,267.74,497.1,233,458.43c-20.22-22.51-19.55-65.93,2.89-95.8,20-26.68,56.44-41.2,90.43-29.73C367,346.61,387.9,392,379.22,423.33Z" transform="translate(-96.42 -219.42)"/><path class="cls-3" d="M261,393.55c3-14,69.77-19.61,79-.56,4.31,8.88-4,22.92-13.64,29C301.38,437.67,258.35,405.76,261,393.55Z" transform="translate(-96.42 -219.42)"/></svg>