<svg id="Ebene_1" data-name="Ebene 1" xmlns="http://www.w3.org/2000/svg" viewBox="0 0 1728.21 1359.12"><defs><style>.cls-1{fill:#cbbba0;}.cls-1,.cls-3{stroke:#7d4e24;stroke-miterlimit:10;stroke-width:4px;}.cls-2,.cls-3{fill:#9e927d;}</style></defs><polygon class="cls-1" points="1439.81 107.69 1373.47 224.14 1404.98 107.69 430.7 107.69 422.09 176.88 411.11 107.69 96.74 107.69 96.74 1238.07 369.67 1238.07 427.34 1126.49 410.18 1238.07 1631.47 1238.07 1631.47 107.69 1439.81 107.69"/><path class="cls-2" d="M6432.56,6787.55v-177C6430.44,6671,6430.35,6730.13,6432.56,6787.55Z" transform="translate(-6335.34 -6502.84)"/><path class="cls-2" d="M7967.3,6610.53v187.84C7969.71,6737,7969.58,6674.16,7967.3,6610.53Z" transform="translate(-6335.34 -6502.84)"/><path class="cls-2" d="M7220.4,7673c-571.53-10.95-768.43-382.89-787.84-885.48v953.36h270.33l57.66-111.58-17.15,111.58H7967.3V6798.37C7948.13,7286.4,7767.72,7683.52,7220.4,7673Z" transform="translate(-6335.34 -6502.84)"/><path class="cls-3" d="M6526.82,6549.53c-16.56,10.95-48.58,28.52-90.95,29.52-46.58,1.09-81.7-18.4-98.53-29.52v1273c12.51,10.87,46.29,37.1,94,37.38,48.6.28,83-26.56,95.5-37.38Z" transform="translate(-6335.34 -6502.84)"/><path class="cls-1" d="M6484.37,7845.38c-12.84-8.49-37.79-29.23-70.57-32.74-26.82-2.86-63.4,1.3-76.46,9.93v-974.9c9.71-8.43,35.92-28.79,72.93-29,37.71-.21,64.44,20.62,74.1,29Z" transform="translate(-6335.34 -6502.84)"/><path class="cls-1" d="M6526.82,7822.57c-16.56-10.95-48.58-28.52-90.95-29.52-46.58-1.09-81.7,18.4-98.53,29.52v-1273c12.51-10.87,46.29-37.11,94-37.38,48.6-.28,83,26.56,95.5,37.38Z" transform="translate(-6335.34 -6502.84)"/><path class="cls-3" d="M7872.08,6542.22c16.55,10.95,48.57,28.52,90.95,29.52,46.58,1.09,81.7-18.4,98.52-29.52v1273c-12.51,10.87-46.28,37.1-94,37.38-48.6.28-83-26.56-95.49-37.38Z" transform="translate(-6335.34 -6502.84)"/><path class="cls-1" d="M7914.52,7838.07c12.85-8.49,37.8-29.23,70.58-32.74,26.81-2.86,63.4,1.3,76.45,9.93v-974.9c-9.7-8.43-35.91-28.79-72.93-29-37.71-.21-64.43,20.62-74.1,29Z" transform="translate(-6335.34 -6502.84)"/><path class="cls-1" d="M7872.08,7815.26c16.55-10.95,48.57-28.52,90.95-29.52,46.58-1.1,81.7,18.4,98.52,29.52v-1273c-12.51-10.87-46.28-37.11-94-37.38-48.6-.28-83,26.56-95.49,37.38Z" transform="translate(-6335.34 -6502.84)"/><path class="cls-2" d="M6438.14,7781.58c-46.58-1.09-81.7,18.24-98.52,29.25V6549.2c12.5-10.78,46.28-36.78,94-37.05" transform="translate(-6335.34 -6502.84)"/><path class="cls-2" d="M7960,7781.57c46.58-1.08,81.7,18.24,98.53,29.26V6548.92c-12.51-10.78-46.29-36.79-94-37.06" transform="translate(-6335.34 -6502.84)"/></svg>