<svg id="Ebene_1" data-name="Ebene 1" xmlns="http://www.w3.org/2000/svg" viewBox="0 0 316.24 419.91"><defs><style>.cls-1{fill:#754d24;}.cls-2{fill:#cbbba0;}.cls-3{font-size:22px;font-family:PerpetuaTitlingMT-Light, Perpetua Titling MT;font-weight:300;}.cls-4{letter-spacing:-0.06em;}.cls-5{fill:#8c6239;stroke:#000;stroke-miterlimit:10;}</style></defs><rect class="cls-1" y="333.98" width="15.85" height="85.93"/><rect class="cls-1" x="15.85" y="18.22" width="300.39" height="401.68"/><rect class="cls-2" x="8.78" y="10" width="300.39" height="401.68"/><rect class="cls-1" width="300.39" height="401.68"/><rect class="cls-2" x="41.63" y="305.43" width="217.14" height="49.48"/><text class="cls-3" transform="translate(56.32 338.92)">He<tspan class="cls-4" x="28.39" y="0">r</tspan><tspan x="41.58" y="0">unterladen</tspan></text><rect class="cls-2" x="42.44" y="47.37" width="217.14" height="125.11"/><path class="cls-5" d="M1213.36,356.4l-6.7-6.7-2.94,2.94L1202,351l-3.18,3.19,1.67,1.68-51.07,51.07c-8-2.39-19.76,1.84-29.18,11.25-11.77,11.78-15.45,27.19-8.21,34.43s22.65,3.56,34.42-8.21c10.35-10.35,14.44-23.51,10.36-31.45l50.39-50.39,1.51,1.51,3.19-3.18-1.52-1.52Z" transform="translate(-1001.88 -299.07)"/><circle cx="131.5" cy="132.19" r="6.58"/></svg>