<svg id="Ebene_1" data-name="Ebene 1" xmlns="http://www.w3.org/2000/svg" viewBox="0 0 1728.21 1047.95"><defs><style>.cls-1{fill:#cbbba0;}.cls-1,.cls-3{stroke:#7d4e24;stroke-miterlimit:10;stroke-width:4px;}.cls-2,.cls-3{fill:#9e927d;}</style></defs><polygon class="cls-1" points="1439.81 83.42 1373.47 173.13 1404.98 83.42 430.7 83.42 422.09 136.72 411.11 83.42 96.74 83.42 96.74 954.24 369.67 954.24 427.34 868.29 410.18 954.24 1631.47 954.24 1631.47 83.42 1439.81 83.42"/><path class="cls-2" d="M6432.56,6898.13V6761.76C6430.44,6808.36,6430.35,6853.9,6432.56,6898.13Z" transform="translate(-6335.34 -6678.34)"/><path class="cls-2" d="M7967.3,6761.76v144.71C7969.71,6859.18,7969.58,6810.78,7967.3,6761.76Z" transform="translate(-6335.34 -6678.34)"/><path class="cls-2" d="M7220.4,7580.29c-571.53-8.44-768.43-295-787.84-682.16v734.45h270.33l57.66-85.95-17.15,85.95H7967.3V6906.47C7948.13,7282.44,7767.72,7588.37,7220.4,7580.29Z" transform="translate(-6335.34 -6678.34)"/><path class="cls-3" d="M6526.82,6714.77a208.44,208.44,0,0,1-189.48,0v980.72a170.22,170.22,0,0,0,189.48,0Z" transform="translate(-6335.34 -6678.34)"/><path class="cls-1" d="M6484.37,7713.07c-12.84-6.54-37.79-22.52-70.57-25.22-26.82-2.21-63.4,1-76.46,7.64v-751a132.12,132.12,0,0,1,147,0Z" transform="translate(-6335.34 -6678.34)"/><path class="cls-1" d="M6526.82,7695.49a208.44,208.44,0,0,0-189.48,0V6714.77a170.22,170.22,0,0,1,189.48,0Z" transform="translate(-6335.34 -6678.34)"/><path class="cls-3" d="M7872.08,6709.14a208.42,208.42,0,0,0,189.47,0v980.72a170.2,170.2,0,0,1-189.47,0Z" transform="translate(-6335.34 -6678.34)"/><path class="cls-1" d="M7914.52,7707.44c12.85-6.54,37.8-22.53,70.58-25.23,26.81-2.2,63.4,1,76.45,7.65v-751a132.07,132.07,0,0,0-147,0Z" transform="translate(-6335.34 -6678.34)"/><path class="cls-1" d="M7872.08,7689.86a208.42,208.42,0,0,1,189.47,0V6709.14a170.2,170.2,0,0,0-189.47,0Z" transform="translate(-6335.34 -6678.34)"/><path class="cls-2" d="M6438.14,7663.91a211.09,211.09,0,0,0-98.52,22.54V6714.51a172.55,172.55,0,0,1,94-28.54" transform="translate(-6335.34 -6678.34)"/><path class="cls-2" d="M7960,7663.91a211.05,211.05,0,0,1,98.53,22.54V6714.3a172.53,172.53,0,0,0-94-28.55" transform="translate(-6335.34 -6678.34)"/></svg>