<svg id="Ebene_1" data-name="Ebene 1" xmlns="http://www.w3.org/2000/svg" xmlns:xlink="http://www.w3.org/1999/xlink" viewBox="0 0 402.17 402.17"><defs><style>.cls-1{fill:url(#Unbenannter_Verlauf_7);}.cls-2{fill:#fff;}.cls-3{fill:#1d1d1b;stroke:#1d1d1b;stroke-miterlimit:10;}</style><radialGradient id="Unbenannter_Verlauf_7" cx="201.08" cy="201.08" r="201.08" gradientUnits="userSpaceOnUse"><stop offset="0" stop-color="#fff"/><stop offset="0.1" stop-color="#edd1de"/><stop offset="0.22" stop-color="#d9a1bc"/><stop offset="0.34" stop-color="#c9779e"/><stop offset="0.47" stop-color="#bb5586"/><stop offset="0.59" stop-color="#b03b73"/><stop offset="0.72" stop-color="#a92866"/><stop offset="0.86" stop-color="#a41d5e"/><stop offset="1" stop-color="#a3195b"/></radialGradient></defs><circle class="cls-1" cx="201.08" cy="201.08" r="201.08"/><circle class="cls-2" cx="150.96" cy="261.01" r="48.34"/><ellipse class="cls-2" cx="223.75" cy="244.04" rx="37.64" ry="31.36"/><path class="cls-2" d="M383,486.14c0,13-22,33.25-35,33.25s-12-20.26-12-33.25a23.52,23.52,0,1,1,47,0Z" transform="translate(-96.42 -219.42)"/><path class="cls-2" d="M405.18,456.37c0,22.22-30.61,38.45-54.52,38.45s-43.31-18-43.31-40.22,19.39-40.22,43.31-40.22S405.18,434.16,405.18,456.37Z" transform="translate(-96.42 -219.42)"/><circle class="cls-2" cx="145.89" cy="221.9" r="16.6"/><path class="cls-2" d="M338.61,480.4c0,11-16.69,19.88-27.67,19.88s-28.41,1.3-28.41-9.68,17.43-30.08,28.41-30.08S338.61,469.42,338.61,480.4Z" transform="translate(-96.42 -219.42)"/><path class="cls-2" d="M231.66,442.22c-5.4-16.32,32.64-29.74,45.7-73.48,10.79-36.12-1.48-72.75-16.23-101.1a383.1,383.1,0,0,1,59.77,49.44C352.8,349.46,401,398.44,388.79,430,371.65,474.18,241.1,470.69,231.66,442.22Z" transform="translate(-96.42 -219.42)"/><ellipse class="cls-2" cx="124.75" cy="156.86" rx="6.9" ry="10.74"/><ellipse class="cls-2" cx="283.78" cy="151.5" rx="3.73" ry="5.37"/><circle class="cls-2" cx="164.74" cy="32.9" r="4.75"/><ellipse class="cls-2" cx="177.01" cy="309.11" rx="26.04" ry="20.69"/><circle class="cls-2" cx="249.83" cy="301.63" r="13.22"/><circle class="cls-2" cx="317.16" cy="223.2" r="17.91"/><ellipse class="cls-2" cx="228.4" cy="276.95" rx="21.43" ry="15.94"/><path class="cls-3" d="M196.3,356.59C194,340.16,362,282.74,390.3,323.94c9.54,13.89,3.77,39.82-7.68,45.14-12.91,6-22.79-18.95-51.86-25C295.2,336.74,278.2,367.43,227,364.27,219.51,363.81,197.11,362.43,196.3,356.59Z" transform="translate(-96.42 -219.42)"/><path class="cls-3" d="M196.36,484.41c-2.28,16.43,165.7,73.85,194,32.65,9.54-13.89,3.77-39.82-7.68-45.14-12.9-6-22.78,18.95-51.86,25-35.55,7.37-52.56-23.32-103.72-20.16C219.56,477.19,197.17,478.57,196.36,484.41Z" transform="translate(-96.42 -219.42)"/><path class="cls-3" d="M288.5,387.32c-14.91,11.29-15.44,34.71-3.84,49,11.45,14.09,34,18.36,48,6.72,15.06-12.48,13.34-37.5,0-50.9C321.7,381.11,302,377.09,288.5,387.32Z" transform="translate(-96.42 -219.42)"/><path class="cls-3" d="M253.93,406.53c-8-6.52-21.63-8.87-25.93-3.84-6.41,7.49,5.73,33.95,17.28,33.61,7.81-.23,17-12.73,14.41-22.09C258.61,410.36,255.81,408.07,253.93,406.53Z" transform="translate(-96.42 -219.42)"/></svg>