<svg id="Ebene_1" data-name="Ebene 1" xmlns="http://www.w3.org/2000/svg" xmlns:xlink="http://www.w3.org/1999/xlink" viewBox="0 0 402.17 402.17"><defs><style>.cls-1{fill:url(#Unbenannter_Verlauf_3);}.cls-2{fill:#1d1d1b;stroke:#1d1d1b;stroke-miterlimit:10;}</style><radialGradient id="Unbenannter_Verlauf_3" cx="201.08" cy="201.08" r="201.08" gradientUnits="userSpaceOnUse"><stop offset="0" stop-color="#fff"/><stop offset="0.32" stop-color="#c8b0d2"/><stop offset="0.65" stop-color="#9365a8"/><stop offset="0.88" stop-color="#73368d"/><stop offset="1" stop-color="#662483"/></radialGradient></defs><circle class="cls-1" cx="201.08" cy="201.08" r="201.08"/><path class="cls-2" d="M272.51,303.76c32.26-4.72,58.1,5,68.07,8.93A144.49,144.49,0,0,1,364,324.41c-14.92,15.87-27.62,20-37.38,20.08-7.1.05-8.86-2.09-22.32-4.46-16.15-2.85-33.62-5.94-40.16,1.11-8.1,8.71,2.68,30.52,6.13,38.5C281.76,406.13,286.16,450,254.1,525.8c-8.59-1.82-18.82-5.35-21.2-12.83C229.7,502.9,243,492.7,249.64,483.4c32.37-45.16-45.81-132.31-17.29-166.25C239.54,308.59,250.54,307,272.51,303.76Z" transform="translate(-96.42 -219.42)"/><path class="cls-2" d="M297.62,399.16c-2.37,16.72,6.58,35.72,22.87,43.52,22.56,10.79,49.13-4.73,48.54-9.49-.65-5.17-33.17,3.66-47.42-13.94-13.43-16.59-.6-44.28-6.7-46.31C310.52,371.48,299.7,384.48,297.62,399.16Z" transform="translate(-96.42 -219.42)"/><path class="cls-2" d="M284.23,519.67c3.59-9.87,47.13-8,49.65,1.67,1.59,6.12-12,19.86-27.89,17.85C292.71,537.52,282.14,525.41,284.23,519.67Z" transform="translate(-96.42 -219.42)"/></svg>