<svg id="Ebene_1" data-name="Ebene 1" xmlns="http://www.w3.org/2000/svg" xmlns:xlink="http://www.w3.org/1999/xlink" viewBox="0 0 402.17 402.17"><defs><style>.cls-1{fill:url(#Unbenannter_Verlauf_6);}.cls-2{fill:url(#Unbenannter_Verlauf_6-2);}.cls-3{fill:url(#Unbenannter_Verlauf_6-3);}.cls-4{fill:url(#Unbenannter_Verlauf_6-4);}.cls-5{fill:#fff;}.cls-6{fill:#1d1d1b;stroke:#1d1d1b;stroke-miterlimit:10;}</style><radialGradient id="Unbenannter_Verlauf_6" cx="201.08" cy="201.08" r="201.08" gradientUnits="userSpaceOnUse"><stop offset="0" stop-color="#fff"/><stop offset="0.06" stop-color="#ededed"/><stop offset="0.2" stop-color="#c4c4c4"/><stop offset="0.35" stop-color="#a2a2a2"/><stop offset="0.51" stop-color="#888"/><stop offset="0.66" stop-color="#767675"/><stop offset="0.83" stop-color="#6b6b6a"/><stop offset="1" stop-color="#676766"/></radialGradient><radialGradient id="Unbenannter_Verlauf_6-2" cx="311.09" cy="389" r="81.45" xlink:href="#Unbenannter_Verlauf_6"/><radialGradient id="Unbenannter_Verlauf_6-3" cx="277.48" cy="547.43" r="47.79" xlink:href="#Unbenannter_Verlauf_6"/><radialGradient id="Unbenannter_Verlauf_6-4" cx="190.3" cy="310.58" r="33.44" xlink:href="#Unbenannter_Verlauf_6"/></defs><circle class="cls-1" cx="201.08" cy="201.08" r="201.08"/><path class="cls-2" d="M198,391c.34-4.51,22.17.24,117-12,63.75-8.23,105.85-17.08,109-8,1.68,4.84-8.52,12.42-12,15C350.85,431.43,197.09,402.94,198,391Z" transform="translate(-96.42 -219.42)"/><path class="cls-3" d="M224,532c7.59-26.12,90.85-35.53,105-10,9.47,17.08-7.31,58.3-41,65C249.45,594.67,218.41,551.23,224,532Z" transform="translate(-96.42 -219.42)"/><path class="cls-4" d="M224,282c-13.65-9.73-76.1,42.07-70,54,4.5,8.79,51.33,6,67-24C225.78,302.84,230.15,286.39,224,282Z" transform="translate(-96.42 -219.42)"/><path class="cls-5" d="M238.8,337.54a257.87,257.87,0,0,1,26.35-9.64,267.17,267.17,0,0,1,27.2-6.85,208.78,208.78,0,0,1,55.82-3.78c18.63,1.41,37.16,5.93,53.85,14.42,2.09,1.05,4.11,2.24,6.16,3.35,1,.54,2,1.17,3,1.8l3,1.88a110.14,110.14,0,0,1,11.3,8.27A133.06,133.06,0,0,1,445,367a133.41,133.41,0,0,0-19.62-19.92,109.59,109.59,0,0,0-11.34-8.2l-3-1.87c-1-.62-2-1.25-3-1.78-2.05-1.1-4.07-2.28-6.16-3.31-16.7-8.41-35.2-12.83-53.78-14.15a207.55,207.55,0,0,0-55.64,4,263.49,263.49,0,0,0-27.08,6.95,254.25,254.25,0,0,0-26.21,9.72Z" transform="translate(-96.42 -219.42)"/><path class="cls-5" d="M165,475.5c43.42-4.55,86.88-8.81,130.42-12.07,21.77-1.6,43.56-3,65.39-3.61,10.92-.29,21.84-.43,32.76,0a139.45,139.45,0,0,1,16.32,1.53,33,33,0,0,1,8,2.17,9.16,9.16,0,0,1,1.81,1.05,4.44,4.44,0,0,1,1.41,1.62,3.16,3.16,0,0,1,.17,2.16,6.56,6.56,0,0,1-.9,1.93,25.5,25.5,0,0,1-5.94,5.7,77.9,77.9,0,0,1-6.87,4.49c-4.71,2.78-9.59,5.24-14.54,7.55a313.8,313.8,0,0,1-30.43,12.11q-15.5,5.29-31.44,9.15A256.89,256.89,0,0,1,298.82,515c-10.84,1.12-21.86,1.5-32.67-.24a52,52,0,0,1-15.58-4.89,27.6,27.6,0,0,1-11.75-11.12A34.2,34.2,0,0,1,235.06,483a68.24,68.24,0,0,1,1.88-16.23C239.38,456.1,243.42,445.9,248,436c-4.56,9.9-8.59,20.12-11,30.77A68.19,68.19,0,0,0,235.15,483a34,34,0,0,0,3.78,15.73,27.49,27.49,0,0,0,11.71,11,52.24,52.24,0,0,0,15.54,4.85c10.78,1.71,21.79,1.31,32.62.17A255.13,255.13,0,0,0,331,509c10.6-2.56,21.07-5.65,31.39-9.19a314.38,314.38,0,0,0,30.36-12.15c4.94-2.32,9.81-4.79,14.49-7.56a77.77,77.77,0,0,0,6.82-4.48,24.71,24.71,0,0,0,5.81-5.59c.72-1.08,1.26-2.45.69-3.59a5.9,5.9,0,0,0-3-2.42,33.18,33.18,0,0,0-7.81-2.12,138.16,138.16,0,0,0-16.26-1.48c-10.9-.44-21.81-.29-32.72,0-21.81.68-43.59,2.1-65.36,3.74-43.52,3.34-87,7.68-130.37,12.32Z" transform="translate(-96.42 -219.42)"/><path class="cls-6" d="M278.13,342.65c-13,52.51,7.82,77.56,28.1,164.31,1.48,6.33,4.83,21,16.22,26.49,5.69,2.74,16,4.47,21.08,0,19.15-17.05-62.94-102.53-52.43-195.66,1.13-10.05,4.72-32.36,2.16-33S282.54,324.81,278.13,342.65Z" transform="translate(-96.42 -219.42)"/><path class="cls-6" d="M258.67,427.51C291.34,325.64,306.25,305.59,313.8,307c6,1.11,8.86,16,9.73,20.54.27,1.41,4.59,25.86-10.81,42.7-8.21,9-11.73,4.53-20,13C277.15,399.08,283.58,421,270.56,427,266.28,428.93,261.75,428.31,258.67,427.51Z" transform="translate(-96.42 -219.42)"/><path class="cls-6" d="M308.4,397.78c57.08-2,71.37,4.25,73,10.81,1.17,4.81-4.22,10.91-9.19,13.52-11.15,5.84-26.45-2.65-47-14.06C317.84,404,312.09,400.28,308.4,397.78Z" transform="translate(-96.42 -219.42)"/></svg>