<svg id="Ebene_1" data-name="Ebene 1" xmlns="http://www.w3.org/2000/svg" xmlns:xlink="http://www.w3.org/1999/xlink" viewBox="0 0 402.17 402.17"><defs><style>.cls-1{fill:url(#Unbenannter_Verlauf_4);}.cls-2,.cls-4{fill:#95c11f;}.cls-2{stroke:#063;}.cls-2,.cls-5{stroke-miterlimit:10;stroke-width:2px;}.cls-3{fill:#063;}.cls-5{fill:#1d1d1b;stroke:#1d1d1b;}</style><radialGradient id="Unbenannter_Verlauf_4" cx="201.08" cy="201.08" r="201.08" gradientUnits="userSpaceOnUse"><stop offset="0" stop-color="#fff"/><stop offset="0.14" stop-color="#f9f7f6"/><stop offset="0.36" stop-color="#e9e3df"/><stop offset="0.63" stop-color="#cfc1b9"/><stop offset="0.94" stop-color="#ab9385"/><stop offset="1" stop-color="#a48a7b"/></radialGradient></defs><circle class="cls-1" cx="201.08" cy="201.08" r="201.08"/><path class="cls-2" d="M201.32,286.14c.11,5.88-.2,9.23-8.25,53.29-8,43.5-8.14,42.89-8.64,48.79a235.18,235.18,0,0,0,1.88,54.43c2.61,17.23,5.21,34.43,15,54a141.91,141.91,0,0,0,49.17,54.8c3.25,2.09,42,26.5,76.56,19.51,7.05-1.42,17.71-3.58,22.9-12,4.05-6.57,2.11-12.65,7.13-18,4.69-5,12.06-5.78,17.64-5.63l3.75-2.25A13.12,13.12,0,0,1,380.91,517a66.53,66.53,0,0,1,16.89-2.63c8.42-.21,10.35,1.36,14.64,0,9.84-3.12,13.88-15.91,15-19.51.33-1,4.25-14-.56-27.22-1-2.82-1.9-4.12-2.63-7.5-1.73-8.05.26-14.48.94-17.45,1.57-6.92-.93-14.78-6-30.22-4.83-14.69-10.26-31.22-20.46-47.29-16.19-25.52-38-38.09-81.63-63.24-25.09-14.46-37.95-21.69-53.3-21.77-3.82,0-10.7.39-18.76-3-8.55-3.59-10.13-8-21.21-15.58-9.23-6.34-17.3-11.88-21.77-9.38C196.77,255.15,201,267,201.32,286.14Z" transform="translate(-96.42 -219.42)"/><path class="cls-3" d="M402.7,572.45a614,614,0,0,1-56.38-75.75c-8.41-13.3-16.32-26.87-24-40.53s-14.7-27.75-22.62-41.15-16.73-26.33-26-38.94c-4.6-6.32-9.34-12.55-13.89-19A161.4,161.4,0,0,1,247.42,337c-1.83-3.5-3.44-7.11-5.06-10.65s-3.3-7.1-5-10.62q-5.1-10.58-10.58-21c-1.81-3.48-3.73-6.87-5.63-10.31s-3.73-6.89-5.55-10.36q-5.45-10.41-10.53-21,5.29,10.49,11,20.77c1.89,3.42,3.8,6.84,5.77,10.23s4,6.75,5.85,10.19q5.7,10.27,11,20.76,2.65,5.25,5.23,10.54c1.71,3.54,3.36,7.06,5.24,10.46,7.34,13.75,17.45,25.73,26.93,38.22s18.66,25.29,27,38.68,15.57,27.31,23.53,40.71,16.14,26.78,24.75,39.77a605.82,605.82,0,0,0,57.32,73.68Z" transform="translate(-96.42 -219.42)"/><polygon class="cls-3" points="247.44 270.08 255.47 210.8 255.47 211.06 251.51 178.05 251.78 178.4 245.63 175.48 245.5 175.42 245.46 175.3 238.17 156.31 246.08 175.04 245.91 174.86 252.15 177.57 252.37 177.67 252.41 177.92 257.46 210.78 257.48 210.89 257.46 211.04 251.42 270.55 247.44 270.08"/><path class="cls-3" d="M363.53,520.62a61,61,0,0,1,.79-12A61.63,61.63,0,0,1,367.45,497a60.39,60.39,0,0,1,12.69-20.09l-.31.77,1-24.19v-.25l.13-.17a100.54,100.54,0,0,0,17.22-38.41,101.2,101.2,0,0,1-16,39.28l.14-.42-.14,24.22v.42l-.31.35a57.4,57.4,0,0,0-11.43,19.57,56.79,56.79,0,0,0-2.57,11,57.64,57.64,0,0,0-.35,11.29Z" transform="translate(-96.42 -219.42)"/><path class="cls-3" d="M352.85,429.73A55.81,55.81,0,0,0,364.24,420a58.68,58.68,0,0,0,4.61-5.92,53,53,0,0,0,8.48-35.91A53.51,53.51,0,0,1,373,407.8a51.81,51.81,0,0,1-3.64,6.66,58.5,58.5,0,0,1-4.57,6.08,56.79,56.79,0,0,1-11.4,10Z" transform="translate(-96.42 -219.42)"/><path class="cls-3" d="M380.78,453.35a45,45,0,0,1-6.7-5.47,64.4,64.4,0,0,1-5.78-6.35,61.85,61.85,0,0,1-4.82-7.09,56.9,56.9,0,0,1-3.71-7.71,57.18,57.18,0,0,0,3.92,7.58,61.84,61.84,0,0,0,5,6.9,64.44,64.44,0,0,0,5.9,6.13,44.84,44.84,0,0,0,6.68,5.14Z" transform="translate(-96.42 -219.42)"/><path class="cls-3" d="M368,525.78a98.28,98.28,0,0,0-12.83-1.38,99.69,99.69,0,0,0-12.93.29,107.41,107.41,0,0,0-12.83,1.95,112,112,0,0,0-12.53,3.51l-.19.07h-.16a318.07,318.07,0,0,1-59.41-6.13,317,317,0,0,0,59.39,4l-.36.06a114.46,114.46,0,0,1,12.67-4,109.18,109.18,0,0,1,13.1-2.47,104.27,104.27,0,0,1,13.34-.77,99.68,99.68,0,0,1,13.36,1Z" transform="translate(-96.42 -219.42)"/><path class="cls-3" d="M351.66,504.68,313.36,500c-6.38-.81-12.77-1.49-19.12-2.57l-19.07-3-.17,0-.14-.07-36.23-18.55a104.11,104.11,0,0,1-32-24.87,103.44,103.44,0,0,0,32.46,24l36.68,17.63-.31-.09,19.11,2.48c6.36.92,12.77,1.44,19.16,2.08l38.37,3.75Z" transform="translate(-96.42 -219.42)"/><path class="cls-3" d="M330.9,470a275.47,275.47,0,0,1-46.84-15.47,260.14,260.14,0,0,1-43.16-23.67l.56.08A55.75,55.75,0,0,1,230,433.34a53.83,53.83,0,0,1-11.63-.07,58.34,58.34,0,0,1-21.91-7.14,58,58,0,0,0,22,6.5,53.53,53.53,0,0,0,11.46-.24,55.07,55.07,0,0,0,11.12-2.65l.29-.1.27.17a258,258,0,0,0,43.46,22.3,272.57,272.57,0,0,0,46.69,14Z" transform="translate(-96.42 -219.42)"/><path class="cls-3" d="M296.35,407.37a102.46,102.46,0,0,1-22.56-2.82,91.3,91.3,0,0,1-10.86-3.32,98.71,98.71,0,0,1-29.31-16.82,108.56,108.56,0,0,1-15.81-16,107.74,107.74,0,0,0,16.28,15.39,97.08,97.08,0,0,0,29.46,15.64,88.47,88.47,0,0,0,10.73,2.89,99.74,99.74,0,0,0,22.06,2Z" transform="translate(-96.42 -219.42)"/><path class="cls-4" d="M257.07,351.82l-33.77-6.19" transform="translate(-96.42 -219.42)"/><polygon class="cls-3" points="160.48 133.39 126.88 126.21 160.84 131.42 160.48 133.39"/><path class="cls-3" d="M245,329.78a38.13,38.13,0,0,1-18-11.84,37.25,37.25,0,0,1-5.71-9.2,38.14,38.14,0,0,1-2.89-10.4,38.2,38.2,0,0,0,3.11,10.3,37.25,37.25,0,0,0,23.77,20.18Z" transform="translate(-96.42 -219.42)"/><path class="cls-3" d="M268.47,368.47a78.7,78.7,0,0,0,2.53-19,81.49,81.49,0,0,0-.52-9.62,72.55,72.55,0,0,0-1.81-9.47,70.11,70.11,0,0,0-7.33-17.84,73.64,73.64,0,0,0-11.88-15.3,73.93,73.93,0,0,1,12.31,15,71,71,0,0,1,7.87,17.84,73.78,73.78,0,0,1,2.08,9.57,81.94,81.94,0,0,1,.78,9.78A80.22,80.22,0,0,1,270.41,369Z" transform="translate(-96.42 -219.42)"/><path class="cls-3" d="M295.85,406.39a155.34,155.34,0,0,0-2.46-63.68,156.94,156.94,0,0,1,5.43,64.12Z" transform="translate(-96.42 -219.42)"/><path class="cls-3" d="M312.08,434.79l10.28-57.39c.87-4.77,1.69-9.58,2.6-14.32a39,39,0,0,0,.09-14.32,35.66,35.66,0,0,0-5.49-13.27A46.22,46.22,0,0,0,309.62,325a46.46,46.46,0,0,1,10.25,10.32,36.48,36.48,0,0,1,5.92,13.33,40.08,40.08,0,0,1,.28,14.65c-.79,4.82-1.48,9.6-2.23,14.41L315,435.26Z" transform="translate(-96.42 -219.42)"/><path class="cls-3" d="M241.06,430.47A31.89,31.89,0,0,0,237.4,421a30.7,30.7,0,0,0-6.58-7.79A31.93,31.93,0,0,0,222,408a34.67,34.67,0,0,0-10-2.27h-.08l0-.05-9.73-14.44,10,14.27-.11-.06a34.74,34.74,0,0,1,10.16,2.12,32.47,32.47,0,0,1,9.06,5.12,31.16,31.16,0,0,1,6.87,7.87,32.31,32.31,0,0,1,3.94,9.7Z" transform="translate(-96.42 -219.42)"/><path class="cls-3" d="M274.8,494.56A66.39,66.39,0,0,1,251,503.42a64.55,64.55,0,0,1-12.64.85,66.78,66.78,0,0,1-12.54-1.55,66.91,66.91,0,0,0,12.54,1,64.71,64.71,0,0,0,35.34-10.9Z" transform="translate(-96.42 -219.42)"/><path class="cls-5" d="M289.07,503.19c6.5-8.79,8.32-18.85,8.54-37.2.37-30.47.56-45.7-5-59.24-16.74-41.12-67.27-53.42-74.67-55.11-4.26,4.79-9.33,9.33-12.67,8-6.37-2.55-7.05-26.62,1.65-33.34s32.26-.39,95.61,52.63c.42-3.9,3.88-31.82,29.49-49.05,26.57-17.88,54.91-9.38,58.41-8.26,3.67,14.3,6.24,28.31,2.48,30-4.56,2.09-12.55-16.67-24-18.19-12.05-1.6-29.41,15.8-55.11,79.09,6.64,27.74,4.26,46.31.55,58.41-1.79,5.84-5.26,14.68-2.2,24.8,3.81,12.59,14.3,15.86,12.95,20.67-2.63,9.36-45.71,8.83-47.67.27C276.72,513.3,283,511.39,289.07,503.19Z" transform="translate(-96.42 -219.42)"/><path class="cls-5" d="M289.35,333.18c-13.08,2.25-18.06,1.36-19,3.86-.74,1.93.74,6.47,19.29,18.46C308.79,337,311.26,331.33,310,329.6S303.6,330.72,289.35,333.18Z" transform="translate(-96.42 -219.42)"/></svg>