<svg id="Ebene_1" data-name="Ebene 1" xmlns="http://www.w3.org/2000/svg" xmlns:xlink="http://www.w3.org/1999/xlink" viewBox="0 0 402.17 402.17"><defs><style>.cls-1{fill:url(#Unbenannter_Verlauf_4);}.cls-2{fill:#ffed00;}.cls-3{fill:#1d1d1b;stroke:#1d1d1b;stroke-miterlimit:10;}</style><radialGradient id="Unbenannter_Verlauf_4" cx="201.08" cy="201.08" r="201.08" gradientUnits="userSpaceOnUse"><stop offset="0" stop-color="#fff"/><stop offset="0.1" stop-color="#fbddd3"/><stop offset="0.22" stop-color="#f6b7a3"/><stop offset="0.34" stop-color="#f29779"/><stop offset="0.46" stop-color="#ef7d57"/><stop offset="0.59" stop-color="#ec683d"/><stop offset="0.72" stop-color="#ea5a2a"/><stop offset="0.85" stop-color="#e9511f"/><stop offset="1" stop-color="#e94e1b"/></radialGradient></defs><circle class="cls-1" cx="201.08" cy="201.08" r="201.08"/><path class="cls-2" d="M206.12,291.34A214.27,214.27,0,0,1,233,313.61a188.66,188.66,0,0,1,22.49,26.64,163,163,0,0,1,16.7,30.49A160.22,160.22,0,0,1,282,404a160.44,160.44,0,0,0-28.11-62.59A185.46,185.46,0,0,0,231,315.78a209.91,209.91,0,0,0-27.08-21.12Z" transform="translate(-96.42 -219.42)"/><path class="cls-2" d="M377.89,290.35a94.91,94.91,0,0,1,3.46,15,96.25,96.25,0,0,1,1.14,15.26v1.91l-.1,1.91-.21,3.82-.44,3.8-.22,1.9-.35,1.88-.69,3.76c-.29,1.24-.63,2.47-.94,3.7a74,74,0,0,1-2.29,7.28,79.85,79.85,0,0,1-15.57,25.93A86.72,86.72,0,0,1,338,395a86.13,86.13,0,0,0,22.93-19.19,78.21,78.21,0,0,0,14.44-25.93,71.69,71.69,0,0,0,2-7.16c.27-1.21.56-2.41.8-3.63l.55-3.67.28-1.84.15-1.85.3-3.69.09-3.71,0-1.86-.07-1.85a97.08,97.08,0,0,0-5.38-29Z" transform="translate(-96.42 -219.42)"/><path class="cls-2" d="M445.49,484.33A86.35,86.35,0,0,1,405.86,509a81.69,81.69,0,0,1-46.4-.15,79.53,79.53,0,0,1-38.22-25.79A83.88,83.88,0,0,1,303,441a83.51,83.51,0,0,0,19,41.46A78.12,78.12,0,0,0,360,507a79.15,79.15,0,0,0,45-.81,83,83,0,0,0,37.51-24.49Z" transform="translate(-96.42 -219.42)"/><path class="cls-2" d="M186.13,529.7a75.08,75.08,0,0,1-2.74-10.2,92.9,92.9,0,0,1-1.46-10.38,84.48,84.48,0,0,1,.79-20.89,72,72,0,0,1,6.39-19.88A69.58,69.58,0,0,1,201,451.27a75.33,75.33,0,0,1,35.2-21A81.72,81.72,0,0,1,277,430a81.3,81.3,0,0,0-40.52,1.23,73.84,73.84,0,0,0-34,21.39,67.68,67.68,0,0,0-11.11,16.81,69.06,69.06,0,0,0-5.67,19.26,81,81,0,0,0-.28,20.1,87.5,87.5,0,0,0,1.65,9.93,72,72,0,0,0,2.81,9.58Z" transform="translate(-96.42 -219.42)"/><path class="cls-3" d="M188.93,351.52c-2.91,21.76,15.43,30.22,29.35,58.7C243.6,462,216.19,502.15,241.65,520c12.06,8.46,31.43,8.73,38,.54,11.62-14.38-24.93-44.06-44-108.15C219.8,359.12,228,322.16,215,319.46,205.77,317.53,191.24,334.23,188.93,351.52Z" transform="translate(-96.42 -219.42)"/><path class="cls-3" d="M403.9,347.58c2.91,21.76-15.43,30.22-29.35,58.7-25.32,51.81,2.09,91.93-23.37,109.79-12.06,8.46-31.43,8.73-38,.54-11.63-14.39,24.93-44.07,44-108.16,15.87-53.28,7.72-90.24,20.65-92.94C387.06,313.58,401.59,330.29,403.9,347.58Z" transform="translate(-96.42 -219.42)"/><path class="cls-3" d="M284,374.89c-12.54,6.2-17.07,22.46-11.41,34.79,6.24,13.59,23.79,20.05,36.41,13,13.79-7.64,16.12-28.23,6.52-40.22C308.6,373.8,295.17,369.4,284,374.89Z" transform="translate(-96.42 -219.42)"/></svg>