<svg xmlns="http://www.w3.org/2000/svg" viewBox="0 0 411.81 1079.52"><defs><style>.cls-1{fill:#666;stroke:#000;stroke-miterlimit:10;}.cls-2{fill:#333;}</style></defs><g id="Ebene_1" data-name="Ebene 1"><path class="cls-1" d="M1146.35,906.27H960V706.71h186.35c10.51,0,19,21.31,19,31.83V887.23A19,19,0,0,1,1146.35,906.27Z" transform="translate(-959.5 -0.24)"/><path class="cls-1" d="M1126,706.71H960V589.61h154.08c11,0,26,27.29,26,38.28L1134,698.75A8,8,0,0,1,1126,706.71Z" transform="translate(-959.5 -0.24)"/><path class="cls-1" d="M1125.45,589.61H960V462.67h155.92c7.95,0,35.11,6.44,35.11,14.4l4.3,92.21C1155.33,583.4,1139.58,589.61,1125.45,589.61Z" transform="translate(-959.5 -0.24)"/><path class="cls-1" d="M1123.42,462.67H960V270.92h149.69c12.57,0,15.62,26.86,16.33,39.41L1142.3,415.6C1143.75,441.15,1149,462.67,1123.42,462.67Z" transform="translate(-959.5 -0.24)"/><path class="cls-1" d="M960,186.16h280.46c50.28,0,126.57-71.51,126.57-121.78L1370.78.74H960Z" transform="translate(-959.5 -0.24)"/><path class="cls-1" d="M1086,270.92H960V186.16h133.75a11.6,11.6,0,0,1,11.56,12.52l-4.73,58.77A14.64,14.64,0,0,1,1086,270.92Z" transform="translate(-959.5 -0.24)"/><path class="cls-1" d="M1370.05,1079.26l-3-51.2c0-50.28-76.29-121.79-126.57-121.79H960v173Z" transform="translate(-959.5 -0.24)"/><path class="cls-2" d="M1240.6,110.45a13.54,13.54,0,0,1-3.58-2.54,20.21,20.21,0,0,1-2.63-3.17,19.23,19.23,0,0,1-1.92-3.65,13.42,13.42,0,0,1-1-4.28,13.34,13.34,0,0,1,3.59,2.53,19.26,19.26,0,0,1,2.62,3.18,19.82,19.82,0,0,1,1.92,3.65A13.36,13.36,0,0,1,1240.6,110.45Z" transform="translate(-959.5 -0.24)"/><path class="cls-2" d="M1105.35,788.83a13.37,13.37,0,0,1-3.58-2.54,19.84,19.84,0,0,1-2.63-3.18,18.31,18.31,0,0,1-1.92-3.64,13.42,13.42,0,0,1-1-4.29,13.37,13.37,0,0,1,3.58,2.54,18.83,18.83,0,0,1,2.63,3.18,19.5,19.5,0,0,1,1.92,3.65A13.36,13.36,0,0,1,1105.35,788.83Z" transform="translate(-959.5 -0.24)"/><path class="cls-2" d="M1117,428.18a13.26,13.26,0,0,1-3.57-2.54,18.91,18.91,0,0,1-2.64-3.17,19.82,19.82,0,0,1-1.92-3.65,13,13,0,0,1-1-4.28,12.94,12.94,0,0,1,3.58,2.54,19.61,19.61,0,0,1,4.54,6.82A13.42,13.42,0,0,1,1117,428.18Z" transform="translate(-959.5 -0.24)"/><path class="cls-2" d="M1137.6,968a13.26,13.26,0,0,1-3.57-2.54,19.32,19.32,0,0,1-2.64-3.17,19.82,19.82,0,0,1-1.92-3.65,13.09,13.09,0,0,1-1-4.28,12.94,12.94,0,0,1,3.58,2.54,19.61,19.61,0,0,1,4.54,6.82A13.1,13.1,0,0,1,1137.6,968Z" transform="translate(-959.5 -0.24)"/><path class="cls-2" d="M1109.89,516.23a13.1,13.1,0,0,1-1,4.28,19.61,19.61,0,0,1-4.54,6.82,12.94,12.94,0,0,1-3.58,2.54,13.09,13.09,0,0,1,1-4.28,19.66,19.66,0,0,1,4.56-6.82A13.48,13.48,0,0,1,1109.89,516.23Z" transform="translate(-959.5 -0.24)"/><path class="cls-2" d="M1304.13,1009.94a13.09,13.09,0,0,1-1,4.28,19.82,19.82,0,0,1-1.92,3.65,19.32,19.32,0,0,1-2.63,3.18,13.13,13.13,0,0,1-3.58,2.53,12.9,12.9,0,0,1,1-4.28,19.19,19.19,0,0,1,1.91-3.65,20.28,20.28,0,0,1,2.64-3.17A13.48,13.48,0,0,1,1304.13,1009.94Z" transform="translate(-959.5 -0.24)"/><path class="cls-2" d="M1082.45,193.69a13.36,13.36,0,0,1-1,4.28,19.78,19.78,0,0,1-1.91,3.65,19.34,19.34,0,0,1-2.63,3.17,13.1,13.1,0,0,1-3.58,2.54,13.09,13.09,0,0,1,1-4.28,19.82,19.82,0,0,1,1.92-3.65,20.21,20.21,0,0,1,2.63-3.17A13.54,13.54,0,0,1,1082.45,193.69Z" transform="translate(-959.5 -0.24)"/></g><g id="Ebene_2" data-name="Ebene 2"><path class="cls-2" d="M965,905.88c12.42-2.09,25.14-4.11,38-6.29,15-2.53,27.6-7.81,41.68-9.47,8,0,8.72-12.32,8.72-20.27l-5.72-112.8c0-8-6.45-24.08-14.4-24.08L965,712.38Z" transform="translate(-959.5 -0.24)"/><path class="cls-2" d="M965,705.38l71.47-2.78c3.9,0,8.12-7.28,8.12-11.19l5.39-63c0-9.77-13.3-34-23.07-34L965,591Z" transform="translate(-959.5 -0.24)"/><path class="cls-2" d="M960,586.54a240.68,240.68,0,0,0,65.1-10.08c11.79,0,24.93-5.19,24.93-17l-3.59-76.95c0-6.64-22.67-12-29.3-12L960,464.91Z" transform="translate(-959.5 -0.24)"/><path class="cls-2" d="M960,461.24l60.42-7.68c23.82,0,18.93-20,17.58-43.81l-15.15-98c-.67-11.68-3.5-36.68-15.2-36.68L960,270.62Z" transform="translate(-959.5 -0.24)"/><path class="cls-2" d="M960,269.59l64.24-1.73a13.5,13.5,0,0,0,13.46-12.41l4.36-54.18a10.69,10.69,0,0,0-10.65-11.55L960,187.66Z" transform="translate(-959.5 -0.24)"/><path class="cls-2" d="M965,.74V174.67c14.7-6.47,29.57-11.42,44.29-13.65a913.43,913.43,0,0,1,115.78-10,162.25,162.25,0,0,0,82.14-42c25.36-24.16,44.43-54.61,44.43-79.74L1253.34.74Z" transform="translate(-959.5 -0.24)"/><path class="cls-2" d="M1253.5,1079.26c-19-19-40.86-33.36-79.48-57.27-42.44-26.27-104.84-105.72-214-115.72v173Z" transform="translate(-959.5 -0.24)"/></g></svg>